<?xml version="1.0" encoding="UTF-8" standalone="no"?>
<!-- Created with Inkscape (http://www.inkscape.org/) -->

<svg
   width="101.6mm"
   height="152.40001mm"
   viewBox="0 0 101.6 152.40001"
   version="1.1"
   id="svg1"
   xml:space="preserve"
   inkscape:version="1.3.1 (91b66b0783, 2023-11-16)"
   sodipodi:docname="Ambush.svg"
   inkscape:export-filename="Reserves\TacticalAdvantages\ExtendedHarness.svg"
   inkscape:export-xdpi="96"
   inkscape:export-ydpi="96"
   xmlns:inkscape="http://www.inkscape.org/namespaces/inkscape"
   xmlns:sodipodi="http://sodipodi.sourceforge.net/DTD/sodipodi-0.dtd"
   xmlns="http://www.w3.org/2000/svg"
   xmlns:svg="http://www.w3.org/2000/svg"><sodipodi:namedview
     id="namedview1"
     pagecolor="#ffffff"
     bordercolor="#000000"
     borderopacity="0.25"
     inkscape:showpageshadow="2"
     inkscape:pageopacity="0.0"
     inkscape:pagecheckerboard="true"
     inkscape:deskcolor="#d1d1d1"
     inkscape:document-units="mm"
     inkscape:zoom="1"
     inkscape:cx="99.5"
     inkscape:cy="324.5"
     inkscape:window-width="1920"
     inkscape:window-height="1009"
     inkscape:window-x="1912"
     inkscape:window-y="-8"
     inkscape:window-maximized="1"
     inkscape:current-layer="layer1"
     inkscape:clip-to-page="true"
     showgrid="false" /><defs
     id="defs1"><rect
       x="35.355339"
       y="130.10765"
       width="361.7666"
       height="517.56348"
       id="rect13-8" /><rect
       x="21"
       y="490"
       width="352.14645"
       height="278.58704"
       id="rect10-0" /></defs><g
     inkscape:label="Layer 1"
     inkscape:groupmode="layer"
     id="layer1"
     transform="translate(-54.045021,-72.300003)"><path
       id="rect3-8"
       style="display:inline;fill:#000000;fill-opacity:1;stroke:#e36600;stroke-width:0.6;stroke-linecap:round;stroke-linejoin:bevel;stroke-miterlimit:3.3;stroke-dasharray:none;stroke-dashoffset:370.663;stroke-opacity:1"
       d="m 56.811648,93.750003 -0.239262,0.23306 V 143.625 l 12.69845,12.69792 h 83.801614 l 0.25322,-0.25321 V 106.4562 L 140.61999,93.750003 Z"
       inkscape:label="Window Background"
       sodipodi:nodetypes="ccccccccc" /><path
       id="rect1"
       style="fill:#333333;fill-opacity:1;stroke:none;stroke-width:0.5;stroke-linecap:butt;stroke-linejoin:bevel;stroke-miterlimit:3.3;stroke-dasharray:none;stroke-dashoffset:370.663;stroke-opacity:1"
       d="M 54.045539,72.300003 V 224.6969 H 155.64709 V 72.300003 Z m 2.801896,21.440954 h 83.808315 l 12.70569,12.706203 v 49.60729 l -0.25322,0.25321 H 69.306623 L 56.608173,143.60973 V 93.974018 Z"
       sodipodi:nodetypes="cccccccccccccc"
       inkscape:label="Card Background"
       inkscape:export-filename="Acrobatics1Back.png"
       inkscape:export-xdpi="96"
       inkscape:export-ydpi="96" /><text
       xml:space="preserve"
       id="text10-0"
       style="font-style:normal;font-variant:normal;font-weight:normal;font-stretch:normal;font-size:16px;line-height:1;font-family:Arial;-inkscape-font-specification:'Arial, Normal';font-variant-ligatures:normal;font-variant-caps:normal;font-variant-numeric:normal;font-variant-east-asian:normal;white-space:pre;shape-inside:url(#rect10-0);display:inline;fill:#ffffff;fill-opacity:1;stroke:#000000;stroke-width:0;stroke-linejoin:bevel;stroke-miterlimit:3.3;stroke-dashoffset:370.663"
       inkscape:label="BODY Trigger"
       transform="matrix(0.26458333,0,0,0.26458333,53.275939,32.807923)"><tspan
         x="21"
         y="502.41207"
         id="tspan1">Intel that allows you to choose exactly where </tspan><tspan
         x="21"
         y="518.41207"
         id="tspan2">your next battle will take place, including the </tspan><tspan
         x="21"
         y="534.41207"
         id="tspan3">layout of terrain and cover.</tspan></text><g
       id="g6"
       inkscape:label="Card Logos"
       transform="matrix(1.1913928,0,0,1.1913928,-18.727345,-12.668094)"><path
         id="path37"
         style="fill:#3e6a94;fill-opacity:1;stroke-width:0.154033"
         inkscape:label="Ambush Logo"
         d="m 103.92876,96.698053 c -1.44145,-0.0058 -2.08823,0.02557 -2.79361,0.135783 -8.275913,1.29304 -14.558863,7.452884 -15.973323,15.660434 -0.20978,1.21733 -0.28741,3.65729 -0.15667,4.92296 0.28176,2.72773 1.24816,5.62128 2.65674,7.95447 1.02533,1.69837 2.67105,3.58303 4.21629,4.82864 3.01315,2.4289 6.77285,3.92376 10.554143,4.19618 1.3124,0.0945 1.43325,0.0948 2.61387,0.006 1.03711,-0.0779 1.53114,-0.14392 2.47341,-0.33018 l 0.4379,-0.0865 -0.68359,-0.22277 c -0.37602,-0.12256 -0.92837,-0.33383 -1.22735,-0.4694 -0.52627,-0.23863 -0.58003,-0.24646 -1.68583,-0.24646 -3.74904,0 -7.425913,-1.29939 -10.329353,-3.6504 -0.80841,-0.6546 -1.09598,-0.96205 -0.95048,-1.01596 0.0618,-0.0229 1.63891,-0.55374 3.50464,-1.17965 l 3.39224,-1.13802 -1.91562,-0.0491 c -1.05359,-0.027 -2.74507,-0.0539 -3.7589,-0.0599 -1.01384,-0.006 -2.23055,-0.0345 -2.70381,-0.0635 l -0.86054,-0.0525 -0.31646,-0.48623 c -0.32439,-0.49838 -1.22541,-2.29916 -1.44794,-2.8937 l -0.1244,-0.33236 0.65506,-0.045 c 0.3603,-0.0248 2.78976,-0.11833 5.3989,-0.20781 2.60914,-0.0895 4.75369,-0.17244 4.76551,-0.18426 0.0118,-0.0118 -2.58498,-0.66595 -5.77055,-1.45356 -5.22444,-1.29169 -5.79843,-1.44908 -5.85863,-1.60741 -0.17629,-0.46364 -0.18098,-3.79779 -0.006,-4.08129 0.0378,-0.0612 2.06654,0.48754 6.43809,1.74102 3.51065,1.00662 6.405233,1.82193 6.432323,1.81195 0.0271,-0.01 -2.624443,-1.59848 -5.892313,-3.53006 -3.26787,-1.93158 -5.98158,-3.53618 -6.03043,-3.56575 -0.13169,-0.0797 0.0505,-0.5751 0.65663,-1.78544 0.61142,-1.22092 1.50585,-2.60798 1.63189,-2.53062 0.0892,0.0547 9.834933,6.89319 11.261123,7.90177 0.439,0.31044 0.80897,0.55373 0.82218,0.54079 0.0132,-0.0129 -2.06268,-2.59965 -4.613043,-5.74826 -4.2699,-5.27152 -4.62567,-5.73346 -4.49378,-5.83524 1.29641,-1.00059 2.86942,-1.87306 4.44826,-2.46733 l 0.49153,-0.18505 3.747683,6.21111 c 2.06124,3.41609 3.75681,6.18728 3.76795,6.15826 0.0154,-0.0401 -3.25111,-12.34899 -3.46084,-13.04142 -0.039,-0.12871 0.0519,-0.13968 1.15626,-0.13968 0.65921,0 1.62251,0.0553 2.14057,0.12284 0.95746,0.12482 2.47841,0.4623 2.58674,0.574 0.0328,0.0338 0.57853,2.75526 1.21285,6.04773 0.69459,3.60523 1.17192,5.90694 1.19992,5.78677 0.0256,-0.10975 0.31995,-2.44417 0.65428,-5.18751 0.33434,-2.74335 0.62152,-5.00151 0.63823,-5.01821 0.056,-0.056 1.41784,0.89162 2.10815,1.46695 1.05695,0.88091 2.40002,2.32927 2.39577,2.58363 -0.002,0.11483 -0.30305,1.9328 -0.66909,4.03998 -0.36605,2.10717 -0.65632,3.84173 -0.64509,3.85446 0.0112,0.0127 0.67437,-1.17256 1.47381,-2.63398 0.79945,-1.46141 1.48165,-2.68645 1.51591,-2.72221 0.0764,-0.0797 0.69187,1.30839 1.03763,2.33996 0.86385,2.57732 1.0877,5.57923 0.60455,8.10444 -0.10518,0.54977 -0.10145,0.60566 0.0779,1.1706 0.10363,0.32632 0.24357,0.96382 0.31101,1.4166 0.0674,0.45279 0.13705,0.83765 0.15464,0.85523 0.0574,0.0575 0.66509,-1.66926 0.88922,-2.52687 0.4111,-1.57305 0.5254,-2.41402 0.57509,-4.23188 0.0516,-1.88806 -0.0179,-2.7769 -0.34109,-4.36564 -0.76312,-3.75141 -2.63406,-7.15033 -5.3975,-9.80524 -2.77429,-2.665324 -6.09865,-4.347865 -9.95988,-5.040971 -1.01793,-0.182722 -1.38332,-0.208616 -3.03306,-0.215289 z m 3.51103,17.671927 v 0.55654 0.55654 l 0.62435,0.2103 c 0.34336,0.11563 0.65461,0.21167 0.6917,0.21311 0.0371,0.002 0.35649,-0.0931 0.70978,-0.2103 l 0.64228,-0.21311 v -0.55654 -0.55654 h -1.33398 z m 0.0243,1.77875 c -0.0138,0 0.19075,0.32326 0.45458,0.71835 l 0.47969,0.71836 h 0.37554 0.3754 l 0.47968,-0.71836 c 0.26384,-0.39509 0.46854,-0.71835 0.45474,-0.71835 -0.0138,0 -0.31424,0.0959 -0.66754,0.21311 l -0.64228,0.2131 -0.64243,-0.2131 c -0.3533,-0.11722 -0.65358,-0.21311 -0.66738,-0.21311 z m -0.0647,1.06724 -0.92772,0.31304 -0.92772,0.31303 -0.16042,0.644 -0.16041,0.64399 0.27952,0.69014 0.27936,0.68999 0.82888,1.10263 0.82889,1.10264 v 0.41109 0.41109 h 1.33413 1.33398 v -0.41109 -0.41109 l 0.82889,-1.10264 0.82889,-1.10263 0.27951,-0.68999 0.27937,-0.69014 -0.16042,-0.64399 -0.16026,-0.644 -0.92772,-0.31303 -0.92772,-0.31304 -0.32831,0.49263 -0.32816,0.49262 h -0.71805 -0.7182 l -0.32815,-0.49262 z m -2.38829,0.19924 c 0,-0.0191 -0.32802,0.12904 -0.72895,0.32924 l -0.72912,0.36402 -0.35341,1.06397 c -0.19443,0.58522 -0.36061,1.08334 -0.36931,1.10684 -0.0124,0.0334 0.14606,0.0429 0.72194,0.0429 h 0.73785 l 0.0338,-0.1283 c 0.112,-0.42412 0.68717,-2.74986 0.68717,-2.77864 z m 7.52561,0 c 0,0.0288 0.57502,2.35452 0.68702,2.77864 l 0.034,0.1283 h 0.73785 c 0.57587,0 0.7343,-0.01 0.72194,-0.0429 -0.009,-0.0235 -0.17489,-0.52162 -0.36931,-1.10684 l -0.35357,-1.06397 -0.72895,-0.36401 c -0.40093,-0.20021 -0.72896,-0.34837 -0.72896,-0.32925 z m -4.07069,1.57281 h 0.30788 0.30789 v 0.88937 c 0,0.6892 0.01,0.88915 0.0427,0.88844 0.0235,-5.1e-4 0.43,-0.0983 0.9034,-0.21748 l 0.86085,-0.21669 0.0728,0.29028 c 0.04,0.15966 0.068,0.29505 0.0622,0.30087 -0.006,0.006 -0.50636,0.13482 -1.1123,0.28653 -0.60594,0.1517 -1.12915,0.2741 -1.1625,0.27266 -0.066,-0.003 -2.20714,-0.54142 -2.22475,-0.55903 -0.006,-0.006 0.022,-0.14137 0.062,-0.30103 l 0.0728,-0.29028 0.86068,0.21669 c 0.47341,0.11917 0.88005,0.21716 0.90356,0.21748 0.0331,7e-4 0.0427,-0.19924 0.0427,-0.88844 z m -4.88259,1.94975 c -0.30601,0 -0.55638,0.007 -0.55638,0.0159 0,0.0133 0.88993,2.74014 0.94315,2.88996 0.0121,0.0341 0.11379,-0.0464 0.32676,-0.25941 l 0.30898,-0.30898 -0.23306,-1.16874 -0.23306,-1.16873 z m 9.82457,0 -0.23307,1.16843 -0.2329,1.16826 0.30072,0.30213 c 0.16537,0.16615 0.31019,0.29066 0.32176,0.27686 0.0164,-0.0195 0.82984,-2.48252 0.93754,-2.83866 l 0.0232,-0.077 h -0.55856 z m -6.60131,2.39453 c -0.01,0 -0.36787,0.17536 -0.79631,0.38973 l -0.779,0.38989 -0.0783,0.81595 c -0.043,0.44882 -0.0866,0.87204 -0.0968,0.94035 l -0.0186,0.12409 0.45708,0.15542 c 0.25133,0.0854 0.47604,0.15649 0.49933,0.15792 0.0233,0.002 0.21962,-0.0855 0.43619,-0.1933 l 0.39363,-0.19596 v -1.29205 c 0,-0.71061 -0.008,-1.29204 -0.0173,-1.29204 z m 3.93444,0 c -0.01,0 -0.0175,0.58143 -0.0175,1.29204 v 1.29205 l 0.38489,0.19409 c 0.21167,0.1067 0.40025,0.19488 0.41905,0.19595 0.0188,10e-4 0.24745,-0.0691 0.50821,-0.15604 l 0.47407,-0.15808 -0.0184,-0.12409 c -0.0102,-0.0683 -0.0538,-0.49153 -0.0968,-0.94035 l -0.0783,-0.81595 -0.779,-0.38989 c -0.42843,-0.21437 -0.78674,-0.38973 -0.7963,-0.38973 z m -3.30136,0.82109 v 0.27359 0.2736 h 1.33413 1.33398 v -0.2736 -0.27359 h -1.33398 z m -0.64135,2.46467 c -0.0141,9.7e-4 -0.18655,0.0834 -0.38318,0.18334 l -0.35762,0.18161 -0.54033,-0.18099 c -0.33532,-0.11225 -0.54042,-0.1656 -0.54048,-0.14062 -6e-5,0.0222 -0.0462,0.49446 -0.10258,1.04948 -0.0563,0.55501 -0.10253,1.05012 -0.10258,1.10014 v 0.0909 l 1.02625,-0.41093 1.02609,-0.41109 v -0.73177 c 0,-0.4025 -0.0114,-0.73112 -0.0256,-0.73005 z m 3.95097,0 c -0.0141,-9.6e-4 -0.0257,0.32751 -0.0257,0.73005 v 0.73192 l 1.01767,0.40767 c 0.94078,0.3769 1.01837,0.40247 1.02765,0.33704 0.006,-0.0389 -0.0368,-0.53365 -0.094,-1.09936 -0.0572,-0.56571 -0.10413,-1.0457 -0.10413,-1.06647 0,-0.0215 -0.23228,0.04 -0.54033,0.14311 l -0.54048,0.18099 -0.35747,-0.18161 c -0.19663,-0.0999 -0.36909,-0.18226 -0.38318,-0.18334 z m -3.8289,2.09412 -1.1547,0.4616 -1.15471,0.46176 -0.12503,0.25255 c -0.0687,0.13893 -0.12502,0.26013 -0.12502,0.26922 0,0.009 0.65426,0.0165 1.45386,0.0165 0.9625,0 1.45386,-0.0117 1.45386,-0.0348 0,-0.0191 -0.0784,-0.34799 -0.17413,-0.73083 z m 3.70683,0 -0.17413,0.69607 c -0.0958,0.38283 -0.17413,0.71167 -0.17413,0.73083 0,0.023 0.49121,0.0348 1.4537,0.0348 0.7996,0 1.45386,-0.007 1.45386,-0.0165 0,-0.009 -0.0563,-0.13029 -0.12502,-0.26923 l -0.12503,-0.25255 -1.15455,-0.46175 z" /></g><rect
       style="display:inline;fill:#e36600;fill-opacity:1;stroke:#000000;stroke-width:0;stroke-linejoin:bevel;stroke-miterlimit:3.3;stroke-dashoffset:370.663"
       id="rect2"
       width="101.59982"
       height="18.07555"
       x="54.045109"
       y="72.266876"
       inkscape:label="Card Title Backing" /><text
       xml:space="preserve"
       style="font-style:normal;font-variant:normal;font-weight:bold;font-stretch:normal;font-size:11.2889px;line-height:0.8;font-family:Arial;-inkscape-font-specification:'Arial, Bold';font-variant-ligatures:normal;font-variant-position:normal;font-variant-caps:normal;font-variant-numeric:normal;font-variant-alternates:normal;font-variant-east-asian:normal;text-indent:0;text-align:center;text-decoration-line:none;text-decoration-style:solid;text-decoration-color:#000000;letter-spacing:normal;word-spacing:normal;text-transform:none;writing-mode:lr-tb;direction:ltr;text-orientation:mixed;dominant-baseline:auto;baseline-shift:baseline;text-anchor:middle;white-space:pre;inline-size:76.0664;display:inline;vector-effect:none;fill:#ffffff;fill-opacity:1;stroke:#000000;stroke-width:0;stroke-linecap:butt;stroke-linejoin:bevel;stroke-miterlimit:3.3;stroke-dasharray:none;stroke-dashoffset:370.663;stroke-opacity:1;-inkscape-stroke:none;stop-color:#000000"
       x="104.94299"
       y="83.013756"
       id="text7-0-9-5"
       inkscape:label="Card Title"
       transform="translate(0.33436525,2.3285515)"><tspan
         x="104.94299"
         y="83.013756"
         id="tspan4">AMBUSH</tspan></text><g
       id="g1"
       inkscape:label="Title Icons"
       style="fill:#ffffff;fill-opacity:1"><g
         id="g3"
         inkscape:label="Tactical advantage"
         style="display:inline;fill:#ffffff;fill-opacity:1"><path
           fill="currentColor"
           d="m 144.30684,75.267418 -1.79472,1.794721 v 1.196482 h 0.59824 l 2.39296,-2.392962 v -0.598241 z m 7.21408,0 v 0.598241 l 2.39296,2.392962 h 0.59824 v -1.196482 l -1.79472,-1.794721 z m -3.0088,1.794721 q -0.86217,0 -1.478,0.615836 -0.61584,0.615836 -0.61584,1.495601 0,0.862171 0.61584,1.478006 0.61583,0.615835 1.478,0.615835 0.86217,0 1.47801,-0.615835 0.61583,-0.615835 0.61583,-1.478006 0,-0.879765 -0.61583,-1.495601 -0.61584,-0.615836 -1.47801,-0.615836 z m -2.70968,4.504398 v 0.651027 q -0.19354,0.123167 -0.41349,0.255133 l -0.48387,0.290322 q -0.0528,0.211144 -0.0968,0.3783 -0.044,0.167156 -0.0968,0.343108 l 3.80059,1.98827 3.80059,-1.98827 q -0.0528,-0.175952 -0.0968,-0.343108 -0.044,-0.167156 -0.0968,-0.3783 l -0.48387,-0.290322 q 0,0 -0.41349,-0.255133 v -0.651027 h -0.70381 q -0.28153,0.316716 -0.64223,0.52786 -0.36071,0.211143 -0.7654,0.29912 v 1.284459 l -0.59824,0.59824 -0.59824,-0.59824 v -1.284459 q -0.40469,-0.08798 -0.76539,-0.29912 -0.36071,-0.211144 -0.64223,-0.52786 z m -3.29032,2.709679 v 1.196481 l 1.79472,1.794721 h 1.19648 v -0.598241 l -2.39296,-2.392961 z m 11.40176,0 -2.39296,2.392961 v 0.598241 h 1.19648 l 1.79472,-1.794721 v -1.196481 z"
           id="path1-3-1"
           style="fill:#ffffff;fill-opacity:1;stroke-width:0.0175954"
           inkscape:label="Right Tactical advantages" /><path
           fill="currentColor"
           d="m 56.898162,75.267419 -1.794721,1.794721 v 1.196482 h 0.59824 l 2.392963,-2.392962 v -0.598241 z m 7.214076,0 v 0.598241 l 2.392961,2.392962 H 67.10344 V 77.06214 L 65.308718,75.267419 Z M 61.10344,77.06214 q -0.862169,0 -1.478005,0.615836 -0.615836,0.615836 -0.615836,1.495601 0,0.862171 0.615836,1.478006 0.615836,0.615835 1.478005,0.615835 0.86217,0 1.478006,-0.615835 0.615836,-0.615835 0.615836,-1.478006 0,-0.879765 -0.615836,-1.495601 Q 61.96561,77.06214 61.10344,77.06214 Z m -2.709677,4.504398 v 0.651027 q -0.193548,0.123167 -0.413489,0.255133 l -0.483871,0.290322 q -0.05279,0.211144 -0.09678,0.3783 -0.04399,0.167156 -0.09677,0.343108 l 3.800586,1.98827 3.800586,-1.98827 q -0.05279,-0.175952 -0.09677,-0.343108 -0.04399,-0.167156 -0.09678,-0.3783 l -0.483868,-0.290322 q 0,0 -0.413489,-0.255133 v -0.651027 h -0.703813 q -0.281525,0.316716 -0.642229,0.52786 -0.360703,0.211143 -0.765395,0.29912 v 1.284459 l -0.598241,0.59824 -0.598241,-0.59824 v -1.284459 q -0.40469,-0.08798 -0.765394,-0.29912 -0.360704,-0.211144 -0.64223,-0.52786 z m -3.290322,2.709679 v 1.196481 l 1.794721,1.794721 h 1.196482 v -0.598241 l -2.392963,-2.392961 z m 11.401758,0 -2.392961,2.392961 v 0.598241 h 1.19648 l 1.794722,-1.794721 v -1.196481 z"
           id="path1-3"
           style="fill:#ffffff;fill-opacity:1;stroke-width:0.0175954"
           inkscape:label="Left Tactical advantages" /></g></g></g></svg>
