<?xml version="1.0" encoding="UTF-8" standalone="no"?>
<!-- Created with Inkscape (http://www.inkscape.org/) -->

<svg
   width="101.6mm"
   height="152.40001mm"
   viewBox="0 0 101.6 152.40001"
   version="1.1"
   id="svg1"
   xml:space="preserve"
   inkscape:version="1.3.1 (91b66b0783, 2023-11-16)"
   sodipodi:docname="Bombardment.svg"
   inkscape:export-filename="Reserves\TacticalAdvantages\Accuracy.svg"
   inkscape:export-xdpi="96"
   inkscape:export-ydpi="96"
   xmlns:inkscape="http://www.inkscape.org/namespaces/inkscape"
   xmlns:sodipodi="http://sodipodi.sourceforge.net/DTD/sodipodi-0.dtd"
   xmlns="http://www.w3.org/2000/svg"
   xmlns:svg="http://www.w3.org/2000/svg"><sodipodi:namedview
     id="namedview1"
     pagecolor="#ffffff"
     bordercolor="#000000"
     borderopacity="0.25"
     inkscape:showpageshadow="2"
     inkscape:pageopacity="0.0"
     inkscape:pagecheckerboard="true"
     inkscape:deskcolor="#d1d1d1"
     inkscape:document-units="mm"
     inkscape:zoom="1"
     inkscape:cx="155.5"
     inkscape:cy="303.5"
     inkscape:window-width="1920"
     inkscape:window-height="1009"
     inkscape:window-x="1912"
     inkscape:window-y="-8"
     inkscape:window-maximized="1"
     inkscape:current-layer="layer1"
     inkscape:clip-to-page="true"
     showgrid="false" /><defs
     id="defs1"><rect
       x="35.355339"
       y="130.10765"
       width="361.7666"
       height="517.56348"
       id="rect13-8" /><rect
       x="21"
       y="490"
       width="352.14645"
       height="278.58704"
       id="rect10-0" /></defs><g
     inkscape:label="Layer 1"
     inkscape:groupmode="layer"
     id="layer1"
     transform="translate(-54.045021,-72.300003)"><path
       id="rect3-8"
       style="display:inline;fill:#000000;fill-opacity:1;stroke:#e36600;stroke-width:0.6;stroke-linecap:round;stroke-linejoin:bevel;stroke-miterlimit:3.3;stroke-dasharray:none;stroke-dashoffset:370.663;stroke-opacity:1"
       d="m 56.811648,93.750003 -0.239262,0.23306 V 143.625 l 12.69845,12.69792 h 83.801614 l 0.25322,-0.25321 V 106.4562 L 140.61999,93.750003 Z"
       inkscape:label="Window Background"
       sodipodi:nodetypes="ccccccccc" /><path
       id="rect1"
       style="fill:#333333;fill-opacity:1;stroke:none;stroke-width:0.5;stroke-linecap:butt;stroke-linejoin:bevel;stroke-miterlimit:3.3;stroke-dasharray:none;stroke-dashoffset:370.663;stroke-opacity:1"
       d="M 54.045539,72.300003 V 224.6969 H 155.64709 V 72.300003 Z m 2.801896,21.440954 h 83.808315 l 12.70569,12.706203 v 49.60729 l -0.25322,0.25321 H 69.306623 L 56.608173,143.60973 V 93.974018 Z"
       sodipodi:nodetypes="cccccccccccccc"
       inkscape:label="Card Background"
       inkscape:export-filename="Acrobatics1Back.png"
       inkscape:export-xdpi="96"
       inkscape:export-ydpi="96" /><text
       xml:space="preserve"
       id="text10-0"
       style="font-style:normal;font-variant:normal;font-weight:normal;font-stretch:normal;font-size:16px;line-height:1;font-family:Arial;-inkscape-font-specification:'Arial, Normal';font-variant-ligatures:normal;font-variant-caps:normal;font-variant-numeric:normal;font-variant-east-asian:normal;white-space:pre;shape-inside:url(#rect10-0);display:inline;fill:#ffffff;fill-opacity:1;stroke:#000000;stroke-width:0;stroke-linejoin:bevel;stroke-miterlimit:3.3;stroke-dashoffset:370.663"
       inkscape:label="BODY Trigger"
       transform="matrix(0.26458333,0,0,0.26458333,53.275939,32.807923)"><tspan
         x="21"
         y="502.41207"
         id="tspan1">The ability to call in artillery or orbital </tspan><tspan
         x="21"
         y="518.41207"
         id="tspan2">bombardment once during mech combat (full </tspan><tspan
         x="21"
         y="534.41207"
         id="tspan15">action, <tspan
   style="font-weight:bold"
   id="tspan6">  30</tspan> within line of sight,   <tspan
   style="font-weight:bold"
   id="tspan12"> 2</tspan>, <tspan
   style="font-weight:bold"
   id="tspan14">3d6    </tspan></tspan><tspan
         x="21"
         y="550.41207"
         id="tspan17"><tspan
   style="font-weight:bold"
   id="tspan16">damage</tspan>).</tspan></text><g
       id="g5"
       inkscape:label="Card Icons"
       transform="translate(64.513491,10.851143)"
       style="display:inline;fill:#ffffff;fill-opacity:1"><g
         id="g7"
         transform="translate(0.66145833,-0.26458231)"
         inkscape:label="Text Icons"
         style="display:inline;fill:#ffffff;fill-opacity:1"><path
           fill="currentColor"
           d="m 6.8721247,163.61072 -0.515038,-0.51504 0.184211,-0.18045 0.511278,0.51128 z m -0.255639,-0.43985 2.30827,-2.30827 0.180452,0.18045 -2.308271,2.30827 z m 1.135338,-1.35338 0.398496,0.39849 -0.180451,0.18045 -0.398496,-0.39849 z m 1.428572,-0.51128 -0.511279,-0.51504 0.180452,-0.18045 0.511278,0.51504 z"
           id="path1-35"
           style="fill:#ffffff;fill-opacity:1;stroke-width:0.00375941"
           inkscape:label="range icon" /><path
           fill="currentColor"
           d="m 54.072931,162.13222 q 0,0.30319 -0.121676,0.58245 -0.121675,0.27925 -0.317154,0.47872 -0.199468,0.19548 -0.478723,0.31715 -0.279255,0.12168 -0.582447,0.12168 -0.303192,0 -0.582447,-0.12168 -0.279255,-0.12167 -0.474734,-0.31715 -0.199468,-0.19947 -0.321143,-0.47872 -0.121676,-0.27926 -0.121676,-0.58245 0,-0.30319 0.121676,-0.58245 0.121675,-0.27925 0.321143,-0.47473 0.195479,-0.19947 0.474734,-0.32114 0.279255,-0.12168 0.582447,-0.12168 0.303192,0 0.582447,0.12168 0.279255,0.12167 0.478723,0.32114 0.195479,0.19548 0.317154,0.47473 0.121676,0.27926 0.121676,0.58245 z m -0.634309,-0.86569 q -0.171542,-0.17154 -0.386968,-0.26529 -0.215425,-0.0937 -0.478723,-0.0937 -0.259309,0 -0.476729,0.0937 -0.21742,0.0937 -0.388962,0.26529 -0.171543,0.17154 -0.265293,0.38896 -0.09375,0.21742 -0.09375,0.47673 0,0.2633 0.09375,0.47872 0.09375,0.21543 0.265293,0.38697 0.171542,0.17154 0.388962,0.26529 0.21742,0.0937 0.476729,0.0937 0.263298,0 0.478723,-0.0937 0.215426,-0.0937 0.386968,-0.26529 0.171543,-0.17154 0.265293,-0.38697 0.09375,-0.21542 0.09375,-0.47872 0,-0.25931 -0.09375,-0.47673 -0.09375,-0.21742 -0.265293,-0.38896 z m -1.005319,0.6383 v -0.54655 h 0.271277 v 0.54655 z m 0,1.00133 v -0.54655 h 0.271277 v 0.54655 z m -0.634308,-0.90958 h 0.546543 v 0.27527 h -0.546543 z m 1.00133,0 h 0.542553 v 0.27527 h -0.542553 z"
           id="path1-1"
           style="fill:#ffffff;stroke-width:0.00398937"
           inkscape:label="Blast icon" /><path
           fill="currentColor"
           d="m 69.104104,160.62518 -0.219707,0.98668 -0.599201,-0.30359 0.303595,0.5992 -0.986684,0.21971 0.986684,0.2197 -0.303595,0.59921 0.599201,-0.3036 0.219707,0.98269 0.219707,-0.98269 0.599201,0.3036 -0.303595,-0.59921 0.98269,-0.2197 -0.98269,-0.21971 0.303595,-0.5992 -0.599201,0.30359 z"
           id="path1-0"
           style="fill:#ffffff;fill-opacity:1;stroke-width:0.00399468"
           inkscape:label="Explosive damage icon" /></g></g><rect
       style="display:inline;fill:#e36600;fill-opacity:1;stroke:#000000;stroke-width:0;stroke-linejoin:bevel;stroke-miterlimit:3.3;stroke-dashoffset:370.663"
       id="rect2"
       width="101.59982"
       height="18.07555"
       x="54.045109"
       y="72.266876"
       inkscape:label="Card Title Backing" /><text
       xml:space="preserve"
       style="font-style:normal;font-variant:normal;font-weight:bold;font-stretch:normal;font-size:9.17222px;line-height:0.8;font-family:Arial;-inkscape-font-specification:'Arial, Bold';font-variant-ligatures:normal;font-variant-position:normal;font-variant-caps:normal;font-variant-numeric:normal;font-variant-alternates:normal;font-variant-east-asian:normal;text-indent:0;text-align:center;text-decoration-line:none;text-decoration-style:solid;text-decoration-color:#000000;letter-spacing:normal;word-spacing:normal;text-transform:none;writing-mode:lr-tb;direction:ltr;text-orientation:mixed;dominant-baseline:auto;baseline-shift:baseline;text-anchor:middle;white-space:pre;inline-size:76.0664;display:inline;vector-effect:none;fill:#ffffff;fill-opacity:1;stroke:#000000;stroke-width:0;stroke-linecap:butt;stroke-linejoin:bevel;stroke-miterlimit:3.3;stroke-dasharray:none;stroke-dashoffset:370.663;stroke-opacity:1;-inkscape-stroke:none;stop-color:#000000"
       x="104.94299"
       y="83.013756"
       id="text7-0-9-5"
       inkscape:label="Card Title"
       transform="translate(-0.34018536,1.5737262)"><tspan
         x="104.94299"
         y="83.013756"
         id="tspan18">BOMBARDMENT</tspan></text><g
       id="g1"
       inkscape:label="Title Icons"
       style="fill:#ffffff;fill-opacity:1"><g
         id="g3"
         inkscape:label="Tactical advantage"
         style="display:inline;fill:#ffffff;fill-opacity:1"><path
           fill="currentColor"
           d="m 144.30684,75.267418 -1.79472,1.794721 v 1.196482 h 0.59824 l 2.39296,-2.392962 v -0.598241 z m 7.21408,0 v 0.598241 l 2.39296,2.392962 h 0.59824 v -1.196482 l -1.79472,-1.794721 z m -3.0088,1.794721 q -0.86217,0 -1.478,0.615836 -0.61584,0.615836 -0.61584,1.495601 0,0.862171 0.61584,1.478006 0.61583,0.615835 1.478,0.615835 0.86217,0 1.47801,-0.615835 0.61583,-0.615835 0.61583,-1.478006 0,-0.879765 -0.61583,-1.495601 -0.61584,-0.615836 -1.47801,-0.615836 z m -2.70968,4.504398 v 0.651027 q -0.19354,0.123167 -0.41349,0.255133 l -0.48387,0.290322 q -0.0528,0.211144 -0.0968,0.3783 -0.044,0.167156 -0.0968,0.343108 l 3.80059,1.98827 3.80059,-1.98827 q -0.0528,-0.175952 -0.0968,-0.343108 -0.044,-0.167156 -0.0968,-0.3783 l -0.48387,-0.290322 q 0,0 -0.41349,-0.255133 v -0.651027 h -0.70381 q -0.28153,0.316716 -0.64223,0.52786 -0.36071,0.211143 -0.7654,0.29912 v 1.284459 l -0.59824,0.59824 -0.59824,-0.59824 v -1.284459 q -0.40469,-0.08798 -0.76539,-0.29912 -0.36071,-0.211144 -0.64223,-0.52786 z m -3.29032,2.709679 v 1.196481 l 1.79472,1.794721 h 1.19648 v -0.598241 l -2.39296,-2.392961 z m 11.40176,0 -2.39296,2.392961 v 0.598241 h 1.19648 l 1.79472,-1.794721 v -1.196481 z"
           id="path1-3-1"
           style="fill:#ffffff;fill-opacity:1;stroke-width:0.0175954"
           inkscape:label="Right Tactical advantages" /><path
           fill="currentColor"
           d="m 56.898162,75.267419 -1.794721,1.794721 v 1.196482 h 0.59824 l 2.392963,-2.392962 v -0.598241 z m 7.214076,0 v 0.598241 l 2.392961,2.392962 H 67.10344 V 77.06214 L 65.308718,75.267419 Z M 61.10344,77.06214 q -0.862169,0 -1.478005,0.615836 -0.615836,0.615836 -0.615836,1.495601 0,0.862171 0.615836,1.478006 0.615836,0.615835 1.478005,0.615835 0.86217,0 1.478006,-0.615835 0.615836,-0.615835 0.615836,-1.478006 0,-0.879765 -0.615836,-1.495601 Q 61.96561,77.06214 61.10344,77.06214 Z m -2.709677,4.504398 v 0.651027 q -0.193548,0.123167 -0.413489,0.255133 l -0.483871,0.290322 q -0.05279,0.211144 -0.09678,0.3783 -0.04399,0.167156 -0.09677,0.343108 l 3.800586,1.98827 3.800586,-1.98827 q -0.05279,-0.175952 -0.09677,-0.343108 -0.04399,-0.167156 -0.09678,-0.3783 l -0.483868,-0.290322 q 0,0 -0.413489,-0.255133 v -0.651027 h -0.703813 q -0.281525,0.316716 -0.642229,0.52786 -0.360703,0.211143 -0.765395,0.29912 v 1.284459 l -0.598241,0.59824 -0.598241,-0.59824 v -1.284459 q -0.40469,-0.08798 -0.765394,-0.29912 -0.360704,-0.211144 -0.64223,-0.52786 z m -3.290322,2.709679 v 1.196481 l 1.794721,1.794721 h 1.196482 v -0.598241 l -2.392963,-2.392961 z m 11.401758,0 -2.392961,2.392961 v 0.598241 h 1.19648 l 1.794722,-1.794721 v -1.196481 z"
           id="path1-3"
           style="fill:#ffffff;fill-opacity:1;stroke-width:0.0175954"
           inkscape:label="Left Tactical advantages" /></g></g><path
       style="fill:#3e6a94;fill-opacity:1;stroke-width:0.420148"
       d="m 84.6834,147.40805 c -3.887534,-0.88987 -5.098534,-4.39455 -3.188652,-9.22808 0.3347,-0.84706 1.10764,-2.39236 1.466024,-2.93096 0.06958,-0.10456 1.427857,1.36515 4.810703,5.20538 2.592561,2.9431 4.713748,5.40439 4.713748,5.46954 0,0.17241 -1.800002,0.84068 -3.279346,1.21748 -1.566693,0.39905 -3.457102,0.51051 -4.522477,0.26664 z m 4.783851,-8.18408 c -2.803361,-3.18045 -5.111049,-5.84473 -5.128195,-5.92062 -0.05548,-0.24558 1.869841,-2.53472 3.528666,-4.19546 1.590432,-1.59226 20.795188,-18.59377 21.050188,-18.63523 0.15193,-0.0247 11.35838,12.69603 11.35838,12.8932 0,0.0725 -2.17604,2.05002 -4.83565,4.39438 -16.757979,14.77164 -16.034953,14.15435 -18.411154,15.71875 -0.787415,0.5184 -1.664213,1.07419 -1.948439,1.23509 l -0.516775,0.29253 z m 32.736459,-17.64141 c 0.0556,-0.107 0.56254,-1.29506 1.12662,-2.64015 0.56409,-1.34509 1.05814,-2.4795 1.09791,-2.52091 0.087,-0.0906 1.62859,1.65617 1.62859,1.84523 0,0.12615 -3.74746,3.51037 -3.88715,3.51037 -0.0369,0 -0.0216,-0.0875 0.034,-0.19454 z m -3.15023,-2.89084 c -0.6114,-0.70219 -1.09503,-1.33323 -1.07473,-1.40232 0.0777,-0.26439 2.27635,-5.46532 2.34082,-5.53715 0.0927,-0.10336 2.29933,2.44898 2.25886,2.6128 -0.0607,0.24555 -2.26911,5.46646 -2.34132,5.53502 -0.0396,0.0376 -0.57222,-0.50616 -1.18363,-1.20835 z m 3.00144,-8.25576 c -3.11816,-3.54389 -5.66938,-6.48486 -5.66938,-6.5355 0,-0.0506 0.34831,-0.40126 0.77403,-0.77916 0.60654,-0.53842 0.80167,-0.65699 0.90178,-0.54798 0.12256,0.13345 10.78575,12.26247 11.14999,12.68275 0.16636,0.19194 0.12983,0.24758 -0.59936,0.91273 -0.42708,0.38957 -0.80153,0.70883 -0.8321,0.70945 -0.0306,4.2e-4 -2.6068,-2.8984 -5.72496,-6.44229 z m -7.00335,3.7133 c -0.55026,-0.63489 -0.98394,-1.21684 -0.96372,-1.2932 0.0522,-0.19721 2.26896,-5.46313 2.32805,-5.53032 0.0477,-0.0543 0.66653,0.59716 1.6435,1.73008 l 0.48537,0.56284 -1.16915,2.77209 c -0.64303,1.52464 -1.2039,2.80375 -1.24636,2.84247 -0.0425,0.0387 -0.52743,-0.44906 -1.07769,-1.08396 z m -3.67107,-4.16662 c -0.42653,-0.49199 -0.7755,-0.93922 -0.7755,-0.99382 0,-0.11068 3.75804,-3.44466 3.81671,-3.38603 0.0455,0.0455 -2.07367,5.08133 -2.18568,5.19393 -0.044,0.0443 -0.42901,-0.32207 -0.85553,-0.81408 z"
       id="path32" /></g></svg>
