<?xml version="1.0" encoding="UTF-8" standalone="no"?>
<!-- Created with Inkscape (http://www.inkscape.org/) -->

<svg
   width="101.6mm"
   height="152.40001mm"
   viewBox="0 0 101.6 152.40001"
   version="1.1"
   id="svg1"
   xml:space="preserve"
   inkscape:version="1.3.1 (91b66b0783, 2023-11-16)"
   sodipodi:docname="EnvironmentalShielding.svg"
   inkscape:export-filename="Reserves\TacticalAdvantages\ReinforcementsBack.svg"
   inkscape:export-xdpi="96"
   inkscape:export-ydpi="96"
   xmlns:inkscape="http://www.inkscape.org/namespaces/inkscape"
   xmlns:sodipodi="http://sodipodi.sourceforge.net/DTD/sodipodi-0.dtd"
   xmlns="http://www.w3.org/2000/svg"
   xmlns:svg="http://www.w3.org/2000/svg"><sodipodi:namedview
     id="namedview1"
     pagecolor="#ffffff"
     bordercolor="#000000"
     borderopacity="0.25"
     inkscape:showpageshadow="2"
     inkscape:pageopacity="0.0"
     inkscape:pagecheckerboard="true"
     inkscape:deskcolor="#d1d1d1"
     inkscape:document-units="mm"
     inkscape:zoom="1"
     inkscape:cx="122.5"
     inkscape:cy="238.5"
     inkscape:window-width="1920"
     inkscape:window-height="1009"
     inkscape:window-x="1912"
     inkscape:window-y="-8"
     inkscape:window-maximized="1"
     inkscape:current-layer="layer1"
     inkscape:clip-to-page="true"
     showgrid="false" /><defs
     id="defs1"><rect
       x="35.355339"
       y="130.10765"
       width="361.7666"
       height="517.56348"
       id="rect13-8" /><rect
       x="21"
       y="490"
       width="352.14645"
       height="278.58704"
       id="rect10-0" /></defs><g
     inkscape:label="Layer 1"
     inkscape:groupmode="layer"
     id="layer1"
     transform="translate(-54.045021,-72.300003)"><path
       id="rect3-8"
       style="display:inline;fill:#000000;fill-opacity:1;stroke:#e36600;stroke-width:0.6;stroke-linecap:round;stroke-linejoin:bevel;stroke-miterlimit:3.3;stroke-dasharray:none;stroke-dashoffset:370.663;stroke-opacity:1"
       d="m 56.811648,93.750003 -0.239262,0.23306 V 143.625 l 12.69845,12.69792 h 83.801614 l 0.25322,-0.25321 V 106.4562 L 140.61999,93.750003 Z"
       inkscape:label="Window Background"
       sodipodi:nodetypes="ccccccccc" /><path
       id="rect1"
       style="fill:#333333;fill-opacity:1;stroke:none;stroke-width:0.5;stroke-linecap:butt;stroke-linejoin:bevel;stroke-miterlimit:3.3;stroke-dasharray:none;stroke-dashoffset:370.663;stroke-opacity:1"
       d="M 54.045539,72.300003 V 224.6969 H 155.64709 V 72.300003 Z m 2.801896,21.440954 h 83.808315 l 12.70569,12.706203 v 49.60729 l -0.25322,0.25321 H 69.306623 L 56.608173,143.60973 V 93.974018 Z"
       sodipodi:nodetypes="cccccccccccccc"
       inkscape:label="Card Background"
       inkscape:export-filename="Acrobatics1Back.png"
       inkscape:export-xdpi="96"
       inkscape:export-ydpi="96" /><g
       id="g8"
       inkscape:label="Details Panel"
       style="display:inline"><rect
         style="fill:#3e6a94;fill-opacity:1;stroke-width:0.200206;stroke-linecap:round;stroke-linejoin:bevel;stroke-miterlimit:3.3"
         id="rect8"
         width="93.740364"
         height="5.2426105"
         x="58.155125"
         y="177.44383"
         inkscape:label="Details Title Banner" /><text
         xml:space="preserve"
         style="font-style:normal;font-variant:normal;font-weight:bold;font-stretch:normal;font-size:4.93889px;line-height:1.5;font-family:Arial;-inkscape-font-specification:'Arial, Bold';font-variant-ligatures:normal;font-variant-caps:normal;font-variant-numeric:normal;font-variant-east-asian:normal;text-align:end;letter-spacing:0px;word-spacing:0px;text-anchor:end;fill:#ffffff;fill-opacity:1;stroke-width:0.2;stroke-linecap:round;stroke-linejoin:bevel;stroke-miterlimit:3.3"
         x="79.489082"
         y="181.8316"
         id="text6"
         inkscape:label="Details Title"><tspan
           sodipodi:role="line"
           id="tspan6"
           style="font-size:4.93889px;fill:#ffffff;stroke-width:0.2"
           x="79.489082"
           y="181.8316">DETAILS</tspan></text><rect
         style="fill:#ffffff;fill-opacity:1;stroke-width:0.290019;stroke-linecap:round;stroke-linejoin:bevel;stroke-miterlimit:3.3"
         id="rect9"
         width="93.734917"
         height="33.533577"
         x="58.160973"
         y="182.68231"
         inkscape:label="Details Panel Background" /><path
         id="path11"
         style="fill:#1e1e1e;fill-opacity:1;stroke:#1e1e1e;stroke-width:0.2;stroke-linecap:round;stroke-linejoin:bevel;stroke-miterlimit:3.3;stroke-opacity:1"
         d="m 62.959722,191.23021 h 84.137498 z m 0,7.98763 h 84.137498 z m 0,7.98762 h 84.137498 z"
         inkscape:label="Writing Lines" /><text
         xml:space="preserve"
         style="font-weight:bold;font-size:4.9389px;line-height:1.5;font-family:Arial;-inkscape-font-specification:'Arial, Bold';text-align:start;letter-spacing:0px;word-spacing:0px;text-anchor:start;white-space:pre;inline-size:84.3242;display:inline;fill:#ffffff;fill-opacity:1;stroke:#1e1e1e;stroke-width:0.2;stroke-linecap:round;stroke-linejoin:bevel;stroke-miterlimit:3.3;stroke-opacity:1"
         x="62.589531"
         y="190.30417"
         id="text11"
         inkscape:label="Details Body"><tspan
           x="62.589531"
           y="190.30417"
           id="tspan3"><tspan
             style="font-variant-caps:small-caps"
             id="tspan1">
</tspan></tspan></text></g><text
       xml:space="preserve"
       id="text10-0"
       style="font-style:normal;font-variant:normal;font-weight:normal;font-stretch:normal;font-size:16px;line-height:1;font-family:Arial;-inkscape-font-specification:'Arial, Normal';font-variant-ligatures:normal;font-variant-caps:normal;font-variant-numeric:normal;font-variant-east-asian:normal;white-space:pre;shape-inside:url(#rect10-0);display:inline;fill:#ffffff;fill-opacity:1;stroke:#000000;stroke-width:0;stroke-linejoin:bevel;stroke-miterlimit:3.3;stroke-dashoffset:370.663"
       inkscape:label="BODY Trigger"
       transform="matrix(0.26458333,0,0,0.26458333,53.275939,32.807923)"><tspan
         x="21"
         y="502.41207"
         id="tspan4">Equipment that allows you to ignore a particular </tspan><tspan
         x="21"
         y="518.41207"
         id="tspan7">battlefield hazard or dangerous terrain, such as </tspan><tspan
         x="21"
         y="534.41207"
         id="tspan8">extreme heat or cold.</tspan></text><g
       id="g6"
       inkscape:label="Card Logos"
       transform="matrix(1.1913928,0,0,1.1913928,-18.727345,-12.668094)"><g
         id="g26"
         inkscape:label="Environmental Shielding Logo"><path
           style="fill:#3e6a94;fill-opacity:1;stroke-width:0.169652"
           d="m 88.900362,133.78018 c -2.698657,-1.46114 -4.872282,-3.47898 -6.30203,-5.85035 -1.824678,-3.0264 -2.761721,-7.21585 -2.761844,-12.348 l -2.6e-5,-1.08131 0.105776,-0.0482 c 0.05818,-0.0265 0.346016,-0.11974 0.639643,-0.20718 5.011479,-1.49238 10.32136,-1.67132 15.369092,-0.51791 0.787978,0.18005 2.424999,0.63062 2.629126,0.72362 0.107901,0.0492 0.108993,0.056 0.108892,0.6821 -1.7e-4,1.40289 -0.135449,3.63185 -0.29696,4.89499 -0.47792,3.73767 -1.56896,6.72303 -3.315217,9.07127 -1.023187,1.3759 -2.243294,2.55087 -3.726781,3.58888 -0.500403,0.35014 -1.478933,0.94957 -1.890907,1.15833 l -0.225428,0.11424 z m 0.97422,-1.14842 c 1.249939,-0.75136 2.09275,-1.40699 3.096647,-2.40887 0.397898,-0.39711 0.889281,-0.93204 1.091961,-1.18873 2.106125,-2.66747 3.233922,-5.93883 3.614947,-10.48576 0.05923,-0.70685 0.156358,-2.70377 0.157646,-3.2412 l 5.09e-4,-0.18887 -0.319622,-0.0952 c -1.801869,-0.53662 -3.828566,-0.91888 -5.987033,-1.12923 -0.790562,-0.077 -3.711879,-0.0768 -4.533608,3.5e-4 -2.09505,0.19675 -4.133543,0.58197 -6.003665,1.13455 l -0.302989,0.0895 8.65e-4,0.72752 c 0.002,1.68456 0.185838,3.9171 0.451721,5.48556 0.810017,4.77834 2.844574,8.16038 6.367697,10.585 0.557479,0.38366 1.664947,1.06144 1.736062,1.06249 0.02762,3.4e-4 0.310634,-0.1558 0.628922,-0.34714 z m -1.725563,-4.56189 c -0.649599,-0.37882 -1.19912,-0.70681 -1.221159,-0.72885 -0.0235,-0.0235 0.237574,-0.52092 0.631393,-1.20299 0.369303,-0.63961 0.666334,-1.16726 0.660068,-1.17255 -0.0063,-0.005 -0.10229,-0.0551 -0.213386,-0.11077 -0.111095,-0.0556 -0.257402,-0.14019 -0.325126,-0.1879 -0.06772,-0.0477 -0.14185,-0.0752 -0.164725,-0.061 -0.02288,0.0141 -0.336795,0.53845 -0.697598,1.16514 l -0.656006,1.13944 -1.254181,-0.72466 -1.25418,-0.72465 -0.0011,-1.44761 -0.0011,-1.44762 h 1.357838 1.357839 v -0.42643 -0.42642 h -1.357839 -1.357838 l 7.3e-4,-1.42517 7.29e-4,-1.42517 1.230905,-0.71175 c 0.676998,-0.39147 1.245638,-0.71156 1.263646,-0.71132 0.01801,2.3e-4 0.321368,0.50043 0.674135,1.11155 0.352768,0.61111 0.657419,1.1264 0.677003,1.14509 0.0286,0.0273 0.374925,-0.15329 0.671354,-0.35004 0.0358,-0.0238 -0.159333,-0.39911 -0.620895,-1.19429 -0.370209,-0.6378 -0.666395,-1.16432 -0.65819,-1.17005 0.0082,-0.006 0.566147,-0.32907 1.239872,-0.71853 0.82541,-0.47714 1.249998,-0.69866 1.30173,-0.67912 0.04223,0.016 0.607407,0.33547 1.25596,0.71005 0.889859,0.51395 1.172788,0.69783 1.153116,0.74943 -0.01434,0.0376 -0.307633,0.55584 -0.651763,1.15163 -0.34413,0.59579 -0.62569,1.10446 -0.62569,1.13038 0,0.0259 0.03701,0.0589 0.08225,0.0732 0.04524,0.0143 0.199754,0.0969 0.343368,0.18334 0.143614,0.0865 0.265542,0.15184 0.270949,0.14524 0.0054,-0.007 0.29864,-0.51697 0.651628,-1.13417 0.352987,-0.61719 0.654056,-1.13679 0.669041,-1.15466 0.01498,-0.0179 0.582251,0.28808 1.260588,0.67987 l 1.233339,0.71235 0.01184,1.44105 0.01184,1.44106 h -1.347239 -1.347238 v 0.42642 0.42643 h 1.346617 1.346616 v 1.4547 1.4547 l -1.223177,0.70614 c -0.672747,0.38838 -1.234239,0.7121 -1.24776,0.71937 -0.01352,0.007 -0.326608,-0.51055 -0.695752,-1.15073 -0.369143,-0.64017 -0.684554,-1.16402 -0.700915,-1.1641 -0.01636,-8e-5 -0.137377,0.0707 -0.268922,0.15736 -0.131545,0.0866 -0.274703,0.16879 -0.318129,0.18258 -0.04342,0.0138 -0.07895,0.0447 -0.07895,0.0686 0,0.0239 0.29289,0.54976 0.650865,1.16848 0.357975,0.61871 0.650865,1.13834 0.650865,1.15473 0,0.0376 -2.353397,1.40052 -2.458511,1.42381 -0.04272,0.01 -0.608668,-0.29249 -1.258707,-0.67158 z m 1.940549,-3.84155 c 1.552853,-0.53681 2.002366,-2.5341 0.825086,-3.66606 -1.507493,-1.44946 -4.004088,-0.17808 -3.713977,1.89133 0.18901,1.34823 1.605458,2.2184 2.888891,1.77473 z"
           id="path26"
           inkscape:label="Ice" /><path
           id="path29"
           style="fill:#3e6a94;fill-opacity:1;stroke-width:0.119786"
           inkscape:label="CBRN"
           d="m 118.31344,112.97677 c -2.90802,0.005 -5.82131,0.42882 -8.64026,1.26828 -0.29362,0.0874 -0.58158,0.18083 -0.63978,0.20733 l -0.10584,0.0482 v 1.08133 c 1.2e-4,5.13216 0.93701,9.32156 2.76168,12.34795 1.42975,2.37137 3.60371,4.38926 6.30236,5.8504 l 0.33312,0.18044 0.22554,-0.11408 c 0.41197,-0.20876 1.39031,-0.8084 1.89071,-1.15854 1.48349,-1.03801 2.70358,-2.21293 3.72677,-3.58883 1.74624,-2.34824 2.83765,-5.33374 3.31557,-9.07141 0.16151,-1.26314 0.29651,-3.49196 0.29668,-4.89486 1e-4,-0.62609 -9.7e-4,-0.63308 -0.10887,-0.68228 -0.20413,-0.093 -1.84098,-0.54344 -2.62895,-0.72349 -2.20838,-0.50462 -4.46694,-0.75423 -6.72873,-0.75039 z m 0.052,0.85926 c 0.93186,-7e-5 1.85977,0.0192 2.25505,0.0577 2.15847,0.21035 4.18516,0.59286 5.98703,1.12948 l 0.31967,0.095 -4.3e-4,0.18911 c -0.001,0.53743 -0.0983,2.53413 -0.15745,3.24098 -0.38103,4.54692 -1.50873,7.81839 -3.61486,10.48586 -0.20268,0.25669 -0.69428,0.79179 -1.09218,1.1889 -1.0039,1.00188 -1.84659,1.65724 -3.09652,2.4086 -0.31828,0.19134 -0.60134,0.34734 -0.62894,0.347 -0.0711,-0.001 -1.17881,-0.67859 -1.73629,-1.06225 -3.52312,-2.42462 -5.55741,-5.80685 -6.36742,-10.58519 -0.26588,-1.56845 -0.44997,-3.80105 -0.45197,-5.48562 l -8.7e-4,-0.72739 0.30319,-0.0894 c 1.87012,-0.55258 3.90846,-0.93794 6.00351,-1.13469 0.41086,-0.0386 1.34661,-0.0581 2.27848,-0.0581 z m -0.0985,1.56149 c -1.01972,0.0151 -2.03371,0.27458 -2.91869,0.76427 -1.28566,0.71137 -2.28331,1.82464 -2.82153,3.14858 -1.34556,3.30979 0.30393,7.04692 3.663,8.29847 0.47524,0.17707 1.03962,0.30175 1.67947,0.37085 v -4.3e-4 c 0.21344,0.0231 1.12423,-0.009 1.38322,-0.0481 1.31977,-0.20173 2.49451,-0.77403 3.43876,-1.67556 0.91858,-0.87702 1.5461,-1.98606 1.81567,-3.20757 0.19113,-0.86488 0.19063,-1.85364 -8.7e-4,-2.71309 -0.50345,-2.2594 -2.19542,-4.05654 -4.4238,-4.69794 -0.58931,-0.16962 -1.2034,-0.24851 -1.81523,-0.23943 z m -0.0169,0.49362 c 1.37816,-0.0251 2.74989,0.44459 3.86253,1.37758 1.03594,0.86868 1.72433,2.08539 1.97182,3.48343 0.0807,0.45566 0.0879,1.35574 0.0143,1.80396 -0.1995,1.21361 -0.70834,2.25669 -1.52159,3.12038 -0.91488,0.97162 -2.14883,1.60094 -3.47866,1.7736 v -4.4e-4 c -0.38336,0.0498 -1.12555,0.0498 -1.49513,-4.3e-4 -0.80622,-0.10953 -1.6049,-0.39208 -2.28758,-0.80894 -1.24568,-0.76062 -2.19008,-2.02812 -2.56909,-3.4483 -0.16898,-0.63305 -0.23392,-1.5307 -0.15702,-2.16613 0.15384,-1.27094 0.70444,-2.43647 1.58144,-3.34724 0.49583,-0.51493 1.01593,-0.89459 1.64564,-1.20105 0.77718,-0.37821 1.60644,-0.57138 2.43333,-0.58642 z m 2.80462,1.24876 c -0.007,-8.5e-4 -0.0121,1.4e-4 -0.0147,0.003 -0.0134,0.0144 -1.9327,3.35409 -1.9857,3.45524 -0.0289,0.0551 -0.0271,0.0673 0.0156,0.0911 0.10204,0.0571 0.31476,0.27614 0.40946,0.4216 0.0956,0.14686 0.19295,0.41171 0.22555,0.61375 l 0.0161,0.0998 h 1.96705 1.96748 v -0.21384 c 0,-0.70164 -0.1948,-1.52608 -0.52137,-2.20691 -0.2886,-0.60164 -0.61512,-1.05468 -1.09521,-1.51942 -0.32535,-0.31495 -0.88053,-0.7316 -0.98417,-0.74431 z m -5.47217,0.0711 c -0.10243,0.0108 -0.62842,0.41672 -0.95468,0.74258 -0.93491,0.93374 -1.45876,2.1368 -1.52376,3.49904 l -0.0178,0.37173 h 1.86642 1.86598 v -0.0607 c 0,-0.10113 0.0758,-0.3602 0.14965,-0.51095 0.10744,-0.21944 0.3167,-0.45175 0.53914,-0.59901 l 0.0607,-0.0403 -0.97507,-1.68901 c -0.5363,-0.92885 -0.98438,-1.69847 -0.99588,-1.71027 -0.003,-0.003 -0.008,-0.004 -0.0147,-0.003 z m 2.68533,3.74889 c -0.21754,0 -0.25626,0.008 -0.41726,0.0872 -0.32849,0.16173 -0.50116,0.42838 -0.52006,0.80373 -0.01,0.1884 -0.001,0.25305 0.0486,0.38604 0.0797,0.21177 0.32239,0.45888 0.53048,0.54088 l -4.3e-4,4.4e-4 c 0.21813,0.086 0.56623,0.0697 0.77944,-0.036 0.18683,-0.0926 0.34535,-0.25818 0.44025,-0.46064 0.0602,-0.12842 0.0707,-0.18671 0.0707,-0.39038 0,-0.20388 -0.0106,-0.2622 -0.0711,-0.39124 -0.0905,-0.193 -0.26094,-0.36347 -0.46237,-0.46237 -0.13927,-0.0687 -0.18688,-0.0776 -0.39819,-0.0776 z m 0.74865,2.17221 -0.12318,0.0625 c -0.33055,0.16743 -0.77182,0.18939 -1.13035,0.0564 -0.17486,-0.0649 -0.18848,-0.0662 -0.22078,-0.023 -0.019,0.0253 -0.3259,0.54881 -0.68228,1.16332 -0.35639,0.61451 -0.74983,1.29309 -0.87444,1.50771 l -0.22641,0.39037 0.30015,0.14704 c 0.57034,0.27948 1.23429,0.4658 1.85514,0.5205 0.90043,0.0793 1.94369,-0.11875 2.74302,-0.52093 l 0.20386,-0.10237 -0.92258,-1.60096 z" /><path
           style="fill:#3e6a94;fill-opacity:1;stroke-width:0.204191"
           d="m 103.54946,118.1049 c -1.80449,-1.10271 -2.58304,-1.69451 -3.755716,-2.85485 -2.47717,-2.45108 -3.99563,-5.48856 -4.7872,-9.57616 -0.37564,-1.9398 -0.56888,-4.08835 -0.62453,-6.943917 l -0.0297,-1.52501 0.44937,0.0862 c 2.43492,0.46732 5.02014,0.7418 7.591456,0.80601 3.23129,0.0807 6.21115,-0.13183 9.53523,-0.68001 0.59294,-0.0978 1.09799,-0.17778 1.12233,-0.17778 0.0588,0 0.0577,2.1628 -0.002,3.287627 -0.2306,4.3728 -0.95905,7.62638 -2.33511,10.42972 -1.40626,2.86485 -3.46304,5.09603 -6.3218,6.85782 -0.33464,0.20624 -0.63053,0.37463 -0.65753,0.37421 -0.027,-4.1e-4 -0.1103,-0.0382 -0.18512,-0.0839 z m 0.97496,-1.38109 c 2.46484,-1.63309 4.20647,-3.61438 5.46805,-6.2205 0.60082,-1.24113 0.94389,-2.18912 1.31286,-3.62773 0.57107,-2.2266 0.82967,-4.35638 0.95199,-7.840367 l 0.0285,-0.81164 -0.21896,0.0279 c -0.12043,0.0154 -0.62708,0.0886 -1.12589,0.16285 -2.6846,0.3994 -5.45514,0.58224 -8.07171,0.53271 -2.71645,-0.0514 -4.555516,-0.22202 -7.455616,-0.69157 l -0.20016,-0.0324 0.0305,1.17466 c 0.23302,8.962517 2.55162,14.043997 7.996646,17.525577 l 0.48536,0.31033 0.16113,-0.0972 c 0.0886,-0.0534 0.37539,-0.23914 0.63726,-0.41265 z m -2.78883,-2.21232 c -1.52616,-1.2328 -2.901096,-3.71682 -3.310426,-5.98076 -0.11506,-0.63634 -0.14213,-1.91003 -0.0526,-2.47429 0.0908,-0.57245 0.25262,-1.13048 0.4592,-1.58377 0.16966,-0.3723 0.58622,-1.03138 0.73959,-1.17018 0.0881,-0.0798 0.0889,-0.0781 0.0489,0.11359 -0.0706,0.33862 -0.0999,1.70841 -0.0441,2.06406 0.10341,0.66009 0.37375,1.16247 0.750196,1.39412 0.41808,0.25726 0.98674,0.1563 1.46069,-0.25934 0.26417,-0.23166 0.49973,-0.55495 0.61128,-0.8389 0.0954,-0.24275 0.10465,-0.35673 0.13401,-1.64391 0.0337,-1.47878 0.0545,-1.62801 0.29421,-2.11801 0.25542,-0.52207 0.90565,-1.06604 1.63115,-1.36459 0.33299,-0.13703 0.56556,-0.20704 0.56556,-0.17024 0,0.0121 -0.0619,0.1196 -0.13763,0.23893 -0.77837,1.22712 -0.4186,3.8419 0.73942,5.37401 0.71961,0.95206 1.43387,0.99127 1.87952,0.10317 0.0938,-0.18696 0.1957,-0.48444 0.28642,-0.83626 l 0.0519,-0.2014 0.15926,0.36012 c 0.43219,0.97724 0.64014,1.85791 0.67929,2.87685 0.0314,0.81625 -0.0185,1.28791 -0.21484,2.03105 -0.28093,1.06342 -0.80068,2.02045 -1.57842,2.90638 -0.26446,0.30125 -0.97644,0.9174 -1.23196,1.06615 l -0.14746,0.0858 0.13658,-0.19921 c 0.89986,-1.3125 0.99093,-3.32274 0.21722,-4.79511 -0.18267,-0.34761 -0.57828,-0.85081 -0.78415,-0.99741 l -0.13372,-0.0952 0.11356,0.30485 c 0.15205,0.40816 0.19153,1.16657 0.0832,1.5981 -0.34881,1.38929 -1.58734,2.16127 -2.76222,1.72169 -0.49009,-0.18337 -0.99696,-0.67104 -1.22477,-1.1784 l -0.0916,-0.20406 -0.0444,0.13604 c -0.0244,0.0748 -0.0461,0.48294 -0.0481,0.90693 -0.003,0.65403 0.0116,0.83122 0.0968,1.16878 0.17096,0.67709 0.49894,1.33995 0.84084,1.6994 0.19293,0.20284 0.10138,0.18211 -0.17237,-0.039 z"
           id="path28"
           inkscape:label="fire" /></g></g><rect
       style="display:inline;fill:#e36600;fill-opacity:1;stroke:#000000;stroke-width:0;stroke-linejoin:bevel;stroke-miterlimit:3.3;stroke-dashoffset:370.663"
       id="rect2"
       width="101.59982"
       height="18.07555"
       x="54.045109"
       y="72.266876"
       inkscape:label="Card Title Backing" /><text
       xml:space="preserve"
       style="font-style:normal;font-variant:normal;font-weight:bold;font-stretch:normal;font-size:8.46667px;line-height:0.8;font-family:Arial;-inkscape-font-specification:'Arial, Bold';font-variant-ligatures:normal;font-variant-position:normal;font-variant-caps:normal;font-variant-numeric:normal;font-variant-alternates:normal;font-variant-east-asian:normal;text-indent:0;text-align:center;text-decoration-line:none;text-decoration-style:solid;text-decoration-color:#000000;letter-spacing:normal;word-spacing:normal;text-transform:none;writing-mode:lr-tb;direction:ltr;text-orientation:mixed;dominant-baseline:auto;baseline-shift:baseline;text-anchor:middle;white-space:pre;inline-size:76.0664;display:inline;vector-effect:none;fill:#ffffff;fill-opacity:1;stroke:#000000;stroke-width:0;stroke-linecap:butt;stroke-linejoin:bevel;stroke-miterlimit:3.3;stroke-dasharray:none;stroke-dashoffset:370.663;stroke-opacity:1;-inkscape-stroke:none;stop-color:#000000"
       x="104.94299"
       y="83.013756"
       id="text7-0-9-5"
       inkscape:label="Card Title"
       transform="translate(-0.40633074,-2.0675336)"><tspan
         x="104.94299"
         y="83.013756"
         id="tspan9">ENVIRONMENTAL<tspan
   y="83.013756"
   id="tspan10"> </tspan></tspan><tspan
         x="104.94299"
         y="89.787094"
         id="tspan11">SHIELDING</tspan></text><g
       id="g1"
       inkscape:label="Title Icons"
       style="fill:#ffffff;fill-opacity:1"><g
         id="g3"
         inkscape:label="Tactical advantage"
         style="display:inline;fill:#ffffff;fill-opacity:1"><path
           fill="currentColor"
           d="m 144.30684,75.267418 -1.79472,1.794721 v 1.196482 h 0.59824 l 2.39296,-2.392962 v -0.598241 z m 7.21408,0 v 0.598241 l 2.39296,2.392962 h 0.59824 v -1.196482 l -1.79472,-1.794721 z m -3.0088,1.794721 q -0.86217,0 -1.478,0.615836 -0.61584,0.615836 -0.61584,1.495601 0,0.862171 0.61584,1.478006 0.61583,0.615835 1.478,0.615835 0.86217,0 1.47801,-0.615835 0.61583,-0.615835 0.61583,-1.478006 0,-0.879765 -0.61583,-1.495601 -0.61584,-0.615836 -1.47801,-0.615836 z m -2.70968,4.504398 v 0.651027 q -0.19354,0.123167 -0.41349,0.255133 l -0.48387,0.290322 q -0.0528,0.211144 -0.0968,0.3783 -0.044,0.167156 -0.0968,0.343108 l 3.80059,1.98827 3.80059,-1.98827 q -0.0528,-0.175952 -0.0968,-0.343108 -0.044,-0.167156 -0.0968,-0.3783 l -0.48387,-0.290322 q 0,0 -0.41349,-0.255133 v -0.651027 h -0.70381 q -0.28153,0.316716 -0.64223,0.52786 -0.36071,0.211143 -0.7654,0.29912 v 1.284459 l -0.59824,0.59824 -0.59824,-0.59824 v -1.284459 q -0.40469,-0.08798 -0.76539,-0.29912 -0.36071,-0.211144 -0.64223,-0.52786 z m -3.29032,2.709679 v 1.196481 l 1.79472,1.794721 h 1.19648 v -0.598241 l -2.39296,-2.392961 z m 11.40176,0 -2.39296,2.392961 v 0.598241 h 1.19648 l 1.79472,-1.794721 v -1.196481 z"
           id="path1-3-1"
           style="fill:#ffffff;fill-opacity:1;stroke-width:0.0175954"
           inkscape:label="Right Tactical advantages" /><path
           fill="currentColor"
           d="m 56.898162,75.267419 -1.794721,1.794721 v 1.196482 h 0.59824 l 2.392963,-2.392962 v -0.598241 z m 7.214076,0 v 0.598241 l 2.392961,2.392962 H 67.10344 V 77.06214 L 65.308718,75.267419 Z M 61.10344,77.06214 q -0.862169,0 -1.478005,0.615836 -0.615836,0.615836 -0.615836,1.495601 0,0.862171 0.615836,1.478006 0.615836,0.615835 1.478005,0.615835 0.86217,0 1.478006,-0.615835 0.615836,-0.615835 0.615836,-1.478006 0,-0.879765 -0.615836,-1.495601 Q 61.96561,77.06214 61.10344,77.06214 Z m -2.709677,4.504398 v 0.651027 q -0.193548,0.123167 -0.413489,0.255133 l -0.483871,0.290322 q -0.05279,0.211144 -0.09678,0.3783 -0.04399,0.167156 -0.09677,0.343108 l 3.800586,1.98827 3.800586,-1.98827 q -0.05279,-0.175952 -0.09677,-0.343108 -0.04399,-0.167156 -0.09678,-0.3783 l -0.483868,-0.290322 q 0,0 -0.413489,-0.255133 v -0.651027 h -0.703813 q -0.281525,0.316716 -0.642229,0.52786 -0.360703,0.211143 -0.765395,0.29912 v 1.284459 l -0.598241,0.59824 -0.598241,-0.59824 v -1.284459 q -0.40469,-0.08798 -0.765394,-0.29912 -0.360704,-0.211144 -0.64223,-0.52786 z m -3.290322,2.709679 v 1.196481 l 1.794721,1.794721 h 1.196482 v -0.598241 l -2.392963,-2.392961 z m 11.401758,0 -2.392961,2.392961 v 0.598241 h 1.19648 l 1.794722,-1.794721 v -1.196481 z"
           id="path1-3"
           style="fill:#ffffff;fill-opacity:1;stroke-width:0.0175954"
           inkscape:label="Left Tactical advantages" /></g></g></g></svg>
