<?xml version="1.0" encoding="UTF-8" standalone="no"?>
<!-- Created with Inkscape (http://www.inkscape.org/) -->

<svg
   width="101.6mm"
   height="152.40001mm"
   viewBox="0 0 101.6 152.40001"
   version="1.1"
   id="svg1"
   xml:space="preserve"
   inkscape:version="1.3.1 (91b66b0783, 2023-11-16)"
   sodipodi:docname="ExtendedHarness.svg"
   inkscape:export-filename="Reserves\TacticalAdvantages\ExtendedHarnessBack.svg"
   inkscape:export-xdpi="96"
   inkscape:export-ydpi="96"
   xmlns:inkscape="http://www.inkscape.org/namespaces/inkscape"
   xmlns:sodipodi="http://sodipodi.sourceforge.net/DTD/sodipodi-0.dtd"
   xmlns="http://www.w3.org/2000/svg"
   xmlns:svg="http://www.w3.org/2000/svg"><sodipodi:namedview
     id="namedview1"
     pagecolor="#ffffff"
     bordercolor="#000000"
     borderopacity="0.25"
     inkscape:showpageshadow="2"
     inkscape:pageopacity="0.0"
     inkscape:pagecheckerboard="true"
     inkscape:deskcolor="#d1d1d1"
     inkscape:document-units="mm"
     inkscape:zoom="1"
     inkscape:cx="99.5"
     inkscape:cy="324.5"
     inkscape:window-width="1920"
     inkscape:window-height="1009"
     inkscape:window-x="1912"
     inkscape:window-y="-8"
     inkscape:window-maximized="1"
     inkscape:current-layer="layer1"
     inkscape:clip-to-page="true"
     showgrid="false" /><defs
     id="defs1"><rect
       x="35.355339"
       y="130.10765"
       width="361.7666"
       height="517.56348"
       id="rect13-8" /><rect
       x="21"
       y="490"
       width="352.14645"
       height="278.58704"
       id="rect10-0" /></defs><g
     inkscape:label="Layer 1"
     inkscape:groupmode="layer"
     id="layer1"
     transform="translate(-54.045021,-72.300003)"><path
       id="rect3-8"
       style="display:inline;fill:#000000;fill-opacity:1;stroke:#e36600;stroke-width:0.6;stroke-linecap:round;stroke-linejoin:bevel;stroke-miterlimit:3.3;stroke-dasharray:none;stroke-dashoffset:370.663;stroke-opacity:1"
       d="m 56.811648,93.750003 -0.239262,0.23306 V 143.625 l 12.69845,12.69792 h 83.801614 l 0.25322,-0.25321 V 106.4562 L 140.61999,93.750003 Z"
       inkscape:label="Window Background"
       sodipodi:nodetypes="ccccccccc" /><path
       id="rect1"
       style="fill:#333333;fill-opacity:1;stroke:none;stroke-width:0.5;stroke-linecap:butt;stroke-linejoin:bevel;stroke-miterlimit:3.3;stroke-dasharray:none;stroke-dashoffset:370.663;stroke-opacity:1"
       d="M 54.045539,72.300003 V 224.6969 H 155.64709 V 72.300003 Z m 2.801896,21.440954 h 83.808315 l 12.70569,12.706203 v 49.60729 l -0.25322,0.25321 H 69.306623 L 56.608173,143.60973 V 93.974018 Z"
       sodipodi:nodetypes="cccccccccccccc"
       inkscape:label="Card Background"
       inkscape:export-filename="Acrobatics1Back.png"
       inkscape:export-xdpi="96"
       inkscape:export-ydpi="96" /><text
       xml:space="preserve"
       id="text10-0"
       style="font-style:normal;font-variant:normal;font-weight:normal;font-stretch:normal;font-size:16px;line-height:1;font-family:Arial;-inkscape-font-specification:'Arial, Normal';font-variant-ligatures:normal;font-variant-caps:normal;font-variant-numeric:normal;font-variant-east-asian:normal;white-space:pre;shape-inside:url(#rect10-0);display:inline;fill:#ffffff;fill-opacity:1;stroke:#000000;stroke-width:0;stroke-linejoin:bevel;stroke-miterlimit:3.3;stroke-dashoffset:370.663"
       inkscape:label="BODY Trigger"
       transform="matrix(0.26458333,0,0,0.26458333,53.275939,32.807923)"><tspan
         x="21"
         y="502.41207"
         id="tspan1">A custom harness that allows you to carry an </tspan><tspan
         x="21"
         y="518.41207"
         id="tspan2">extra pilot weapon and two extra pieces of pilot </tspan><tspan
         x="21"
         y="534.41207"
         id="tspan3">gear for the duration of this mission.</tspan></text><g
       id="g6"
       inkscape:label="Card Logos"
       transform="matrix(1.1913928,0,0,1.1913928,-18.727345,-12.668094)"><path
         style="fill:#3e6a94;fill-opacity:1;stroke-width:0.303858"
         d="m 98.481981,134.42429 -0.38188,-0.0301 v -1.974 -1.97401 l 0.186882,0.0469 c 0.399355,0.10024 2.227817,0.37155 3.069147,0.45542 1.14982,0.11461 3.84906,0.11249 5.02473,-0.004 0.85474,-0.0847 2.46974,-0.33128 2.93652,-0.44844 l 0.19892,-0.0499 v 1.96637 1.96637 l -0.73592,0.0522 c -0.75296,0.0535 -9.608397,0.0476 -10.298399,-0.007 z m -2.994742,-0.10489 c -0.530612,-0.0305 -1.02806,-0.0603 -1.105441,-0.0663 -0.128647,-0.01 -0.140693,-0.14102 -0.140693,-1.53069 v -1.5198 l 0.422078,0.16147 c 0.499953,0.19127 1.311829,0.16954 1.72915,-0.0463 l 0.260645,-0.13478 v 1.60998 c 0,1.2419 -0.02297,1.60675 -0.100495,1.59588 -0.05527,-0.008 -0.534632,-0.039 -1.065244,-0.0695 z m 15.476061,-1.5367 1.2e-4,-1.5801 0.42208,0.16147 c 0.49995,0.19127 1.31183,0.16954 1.72915,-0.0463 l 0.26064,-0.13478 v 1.52958 c 0,1.39996 -0.0119,1.53029 -0.14069,1.53796 -0.0774,0.005 -0.62011,0.0317 -1.20606,0.0603 l -1.06536,0.0519 z m -19.765435,1.29236 c -0.457797,-0.0351 -0.84637,-0.0779 -0.863496,-0.095 -0.04989,-0.0499 -0.258519,-1.99437 -0.368671,-3.43607 -0.127872,-1.67363 -0.127083,-7.57145 0.0013,-9.5269 0.14549,-2.21645 0.346788,-4.73968 0.380942,-4.77506 0.01684,-0.0174 0.565049,0.0188 1.218243,0.0805 l 1.187626,0.11219 0.02109,2.95446 0.02109,2.95445 H 92.151836 91.50768 v 2.69326 2.69326 h 0.643166 0.643166 v 3.21583 3.21583 l -0.38188,-0.0115 c -0.210034,-0.006 -0.756441,-0.0402 -1.214237,-0.0753 z m 23.624555,-3.11872 v -3.2262 h 0.64316 0.64317 v -2.69326 -2.69326 h -0.64317 -0.64316 v -2.96244 -2.96243 l 1.20947,-0.10247 c 0.66521,-0.0563 1.22393,-0.088 1.24159,-0.0703 0.038,0.038 0.24792,2.68692 0.36223,4.57016 0.26002,4.28411 0.13359,9.90468 -0.28871,12.8347 l -0.048,0.33316 -0.49462,0.047 c -0.27205,0.0259 -0.82927,0.0706 -1.23829,0.0993 l -0.74366,0.0523 z m -27.386386,1.56164 c -0.139049,-0.0605 -0.40134,-0.24419 -0.582869,-0.40819 l -0.330052,-0.29818 v -1.39757 -1.39757 h 0.948169 0.948169 l 0.101728,1.62801 c 0.05595,0.89541 0.121601,1.70942 0.145889,1.80891 0.04235,0.17348 0.02323,0.18076 -0.467028,0.17774 -0.281154,-0.002 -0.624956,-0.0526 -0.764006,-0.11315 z m 31.513326,-0.11799 c 0.0258,-0.12886 0.0914,-0.94287 0.1458,-1.8089 l 0.099,-1.57462 h 0.94959 0.94959 v 1.39757 1.39757 l -0.33047,0.29855 c -0.43969,0.39724 -0.7702,0.52412 -1.36531,0.52412 h -0.49501 z m -23.944495,-2.46435 c -0.132653,-0.0687 -0.358766,-0.23842 -0.502474,-0.37706 -0.259875,-0.25071 -0.261286,-0.25633 -0.261286,-1.04026 v -0.78818 h 0.241187 c 0.222046,0 0.241188,0.0223 0.241188,0.28138 v 0.28139 h 0.723561 0.723562 v -0.28139 c 0,-0.25905 0.01914,-0.28138 0.241187,-0.28138 h 0.241188 v 0.78818 c 0,0.78543 -9.12e-4,0.78905 -0.261286,1.033 -0.57261,0.5365 -0.911786,0.63049 -1.386827,0.38432 z m 16.722315,0 c -0.13265,-0.0687 -0.35877,-0.23842 -0.50247,-0.37706 -0.25988,-0.25071 -0.26129,-0.25633 -0.26129,-1.04026 v -0.78818 h 0.24119 c 0.22204,0 0.24118,0.0223 0.24118,0.28138 v 0.28139 h 0.72357 0.72356 v -0.28139 c 0,-0.25905 0.0191,-0.28138 0.24118,-0.28138 h 0.24119 v 0.78818 c 0,0.78543 -9.1e-4,0.78905 -0.26128,1.033 -0.57261,0.5365 -0.91179,0.63049 -1.38683,0.38432 z m -10.04947,-0.40666 c -0.69152,-0.0704 -2.676057,-0.36744 -3.095235,-0.46329 l -0.442176,-0.10111 -0.02348,-0.61722 -0.02348,-0.61722 h 0.646547 0.646548 v -1.17116 c 0,-1.09963 0.009,-1.16829 0.147584,-1.12431 0.481132,0.1527 2.021982,0.45789 2.726562,0.54003 l 0.82406,0.0961 v 0.46791 0.46789 h 0.72356 0.72356 v -0.46789 -0.46791 l 0.82406,-0.0961 c 0.70458,-0.0821 2.24542,-0.38733 2.72656,-0.54003 0.13857,-0.044 0.14758,0.0247 0.14758,1.12431 v 1.17116 h 0.64317 0.64317 v 0.62981 0.62981 l -0.98485,0.17611 c -0.54167,0.0969 -1.2381,0.21459 -1.54762,0.26164 -0.55937,0.085 -4.69149,0.16404 -5.30612,0.10147 z m -15.154597,-2.5626 v -0.52257 h 0.924551 0.924551 v 0.52257 0.52257 h -0.924551 -0.924551 z m 32.721067,0 v -0.52257 h 0.92455 0.92455 v 0.52257 0.52257 h -0.92455 -0.92455 z m -26.289407,-1.9295 v -1.16574 h 2.492268 2.492269 v 1.16574 1.16574 h -0.884354 -0.884353 v -0.92455 -0.92456 H 95.447041 94.72348 v 0.92456 0.92455 h -0.884353 -0.884354 z m 16.722317,0 v -1.16574 h 2.49227 2.49226 v 1.16574 1.16574 h -0.88435 -0.88435 v -0.92455 -0.92456 h -0.72356 -0.72357 v 0.92456 0.92455 h -0.88435 -0.88435 z m -23.153977,-2.39289 v -2.2723 l 1.093373,-1.08422 1.093373,-1.08423 -0.04836,0.52257 c -0.07098,0.76697 -0.194941,3.04394 -0.257141,4.72325 l -0.05434,1.46723 h -0.913449 -0.91345 z m 32.688067,0.72468 c -0.0585,-1.64263 -0.17499,-3.77703 -0.25339,-4.64286 l -0.0473,-0.52257 1.09141,1.08423 1.0914,1.08422 v 2.2723 2.2723 h -0.91349 -0.91349 z m -17.0511,1.16827 c -0.44581,-0.0622 -1.63924,-0.33477 -2.208856,-0.50441 l -0.564791,-0.1682 v -0.76035 -0.76036 h -0.645207 -0.645208 l 0.02214,-1.26302 0.02214,-1.26303 0.482375,-0.10066 c 3.073057,-0.64131 6.866097,-0.6725 9.928877,-0.0817 l 0.92455,0.17836 0.0221,1.26501 0.0221,1.265 h -0.64521 -0.64521 v 0.76036 0.76035 l -0.56479,0.1682 c -0.83076,0.24742 -1.90919,0.47148 -2.56063,0.53203 -0.49937,0.0464 -0.57278,0.0363 -0.57278,-0.0789 0,-0.11279 -0.1059,-0.13214 -0.72356,-0.13214 -0.58957,0 -0.72356,0.0223 -0.72356,0.1206 0,0.122 -0.33677,0.14489 -0.92455,0.0628 z m -7.918975,-5.09572 v -2.90241 l 0.542672,0.0463 c 0.298469,0.0255 0.84114,0.0691 1.205936,0.0969 l 0.663265,0.0506 v 2.80549 2.80548 h -1.205937 -1.205936 z m 16.722315,0.0967 v -2.80569 l 0.54267,-0.0464 c 0.29847,-0.0255 0.84114,-0.0691 1.20594,-0.0969 l 0.66326,-0.0506 v 2.90262 2.90261 h -1.20593 -1.20594 z M 86.523113,117.4635 v -0.89985 l 1.097793,-0.97264 c 0.682495,-0.60469 1.126285,-0.94415 1.173108,-0.89732 0.04142,0.0414 0.08104,0.35034 0.08804,0.68648 l 0.01273,0.61117 -1.185837,1.18601 -1.185837,1.186 z m 11.576988,0.0956 v -0.78345 l 1.049164,0.058 c 1.358235,0.0751 7.783175,0.0751 9.241065,2e-5 l 1.12597,-0.058 v 0.77407 c 0,0.42574 -0.0111,0.77406 -0.0247,0.77406 -0.0136,0 -0.41876,-0.0724 -0.9004,-0.16089 -2.06158,-0.37876 -5.27737,-0.51942 -7.28686,-0.31872 -0.74406,0.0743 -2.395162,0.32373 -2.98316,0.45064 l -0.221089,0.0477 z m 21.815629,-0.38091 c -0.72743,-0.73407 -1.15422,-1.22749 -1.18802,-1.37348 -0.0623,-0.26927 0.0276,-1.17908 0.11652,-1.17908 0.0339,0 0.55382,0.43605 1.15536,0.96901 l 1.09369,0.96901 v 0.88009 c 0,0.48405 -0.01,0.88009 -0.0212,0.88009 -0.0116,0 -0.53201,-0.51553 -1.15641,-1.14564 z m -20.810682,-1.80413 c -1.478891,-0.0533 -4.970482,-0.2822 -6.527563,-0.42795 -0.920042,-0.0861 -1.769709,-0.15728 -1.888149,-0.15813 -0.364943,-0.003 -0.431157,-0.15726 -0.573683,-1.33962 -0.460942,-3.82385 -0.47533,-7.06493 -0.04866,-10.96248 0.08955,-0.81803 0.181734,-1.56401 0.204856,-1.65774 0.03563,-0.14441 0.122385,-0.17864 0.568649,-0.22436 0.289636,-0.0297 0.54612,-0.0345 0.569964,-0.0106 0.02384,0.0238 -0.02593,1.01117 -0.110618,2.19406 -0.110801,1.54771 -0.152918,2.96218 -0.150214,5.04496 0.0033,2.57877 0.02309,3.01693 0.18109,4.01978 0.09753,0.61905 0.206745,1.23408 0.242695,1.36673 l 0.06536,0.24119 1.200671,0.17218 c 1.278696,0.18337 3.777131,0.44414 5.823427,0.6078 1.967137,0.15734 8.714307,0.13118 10.853427,-0.0421 2.04444,-0.16559 3.43805,-0.31355 5.16572,-0.54844 l 1.26653,-0.1722 0.12356,-0.41061 c 0.64543,-2.14476 0.70223,-6.88242 0.1446,-12.0602 l -0.0511,-0.47459 0.55177,0.0565 c 0.30348,0.0311 0.56005,0.0648 0.57017,0.0749 0.0451,0.0451 0.1929,1.17417 0.32271,2.46583 0.17994,1.79038 0.20385,7.09813 0.0395,8.76313 -0.17726,1.79559 -0.31782,2.75353 -0.41262,2.81212 -0.18654,0.11529 -5.31912,0.51064 -8.36396,0.64426 -1.60312,0.0704 -8.05584,0.0872 -9.768087,0.0255 z m 1.097022,-2.5197 c -1.713447,-0.0822 -3.599429,-0.2432 -5.775024,-0.49282 -1.418415,-0.16274 -1.545786,-0.19037 -1.582559,-0.34328 -0.293927,-1.22218 -0.337372,-5.27479 -0.09636,-8.98824 0.08533,-1.31467 0.182585,-2.43472 0.216129,-2.48899 0.157354,-0.2546 9.371624,-0.50253 14.461744,-0.38912 3.221,0.0718 6.77409,0.21466 7.12345,0.28649 0.1871,0.0385 0.15695,-0.17489 0.39727,2.81124 0.26299,3.26783 0.23309,6.91852 -0.0691,8.4392 l -0.0954,0.48003 -0.73649,0.0983 c -1.06794,0.14259 -3.81571,0.41104 -5.2128,0.50929 -1.6636,0.11699 -6.8425,0.16371 -8.63086,0.0779 z m 6.90235,-2.59639 v -0.74984 l 0.64924,-0.0994 c 1.51645,-0.23215 2.9755,-0.91746 3.59528,-1.6887 0.67239,-0.83669 0.89736,-1.67693 0.89942,-3.35927 l 10e-4,-1.13993 -0.42208,-0.0853 c -1.47902,-0.29886 -3.76108,-0.54613 -6.10058,-0.66101 -2.78563,-0.13678 -6.169994,0.0586 -9.194712,0.53087 -1.311066,0.20469 -1.166172,0.0614 -1.162934,1.1502 0.0054,1.8191 0.342228,2.85587 1.209564,3.72321 0.729458,0.72946 2.097033,1.32402 3.591282,1.56135 l 0.34168,0.0543 v 0.75669 0.75669 h 3.29622 3.29623 z m -5.14532,-1.9434 v -1.16574 h 1.8491 1.8491 v 1.16574 1.16574 h -1.8491 -1.8491 z m -2.009897,-0.4128 C 97.897945,107.4877 97.020864,106.668 96.856598,105.0115 l -0.05649,-0.56961 0.991676,-0.13464 c 4.197686,-0.56994 8.254316,-0.55783 12.387776,0.037 l 0.62306,0.0897 -6e-4,0.33243 c -9.8e-4,0.53592 -0.15484,1.33329 -0.31956,1.65619 -0.17832,0.34953 -0.59937,0.73938 -1.04298,0.9657 -0.35421,0.1807 -1.47821,0.51604 -1.99338,0.59471 l -0.34168,0.0522 v -1.20688 -1.20689 h -3.29413 -3.29413 l -0.0222,1.19298 -0.0222,1.19297 z m -2.733455,-9.153476 c 0,-0.02166 0.225443,-0.491974 0.500984,-1.045145 l 0.500984,-1.005765 h 5.590484 5.59048 l 0.50517,1.014163 c 0.27784,0.55779 0.49362,1.025708 0.47951,1.039819 -0.0141,0.01411 -0.37981,0.0045 -0.81267,-0.0213 l -0.78702,-0.04695 -0.15789,-0.3095 -0.1579,-0.309501 h -4.65968 -4.659686 l -0.157844,0.309399 -0.157843,0.309398 -0.61968,0.05238 c -0.740393,0.06259 -0.997399,0.06594 -0.997399,0.013 z"
         id="path33"
         inkscape:label="Extended Harness Logo" /></g><rect
       style="display:inline;fill:#e36600;fill-opacity:1;stroke:#000000;stroke-width:0;stroke-linejoin:bevel;stroke-miterlimit:3.3;stroke-dashoffset:370.663"
       id="rect2"
       width="101.59982"
       height="18.07555"
       x="54.045109"
       y="72.266876"
       inkscape:label="Card Title Backing" /><text
       xml:space="preserve"
       style="font-style:normal;font-variant:normal;font-weight:bold;font-stretch:normal;font-size:9.17222px;line-height:0.8;font-family:Arial;-inkscape-font-specification:'Arial, Bold';font-variant-ligatures:normal;font-variant-position:normal;font-variant-caps:normal;font-variant-numeric:normal;font-variant-alternates:normal;font-variant-east-asian:normal;text-indent:0;text-align:center;text-decoration-line:none;text-decoration-style:solid;text-decoration-color:#000000;letter-spacing:normal;word-spacing:normal;text-transform:none;writing-mode:lr-tb;direction:ltr;text-orientation:mixed;dominant-baseline:auto;baseline-shift:baseline;text-anchor:middle;white-space:pre;inline-size:76.0664;display:inline;vector-effect:none;fill:#ffffff;fill-opacity:1;stroke:#000000;stroke-width:0;stroke-linecap:butt;stroke-linejoin:bevel;stroke-miterlimit:3.3;stroke-dasharray:none;stroke-dashoffset:370.663;stroke-opacity:1;-inkscape-stroke:none;stop-color:#000000"
       x="104.94299"
       y="83.013756"
       id="text7-0-9-5"
       inkscape:label="Card Title"
       transform="translate(-0.43199689,-2.1533852)"><tspan
         x="104.94299"
         y="83.013756"
         id="tspan4">EXTENDED<tspan
   y="83.013756"
   id="tspan5"> </tspan></tspan><tspan
         x="104.94299"
         y="90.351535"
         id="tspan6">HARNESS</tspan></text><g
       id="g1"
       inkscape:label="Title Icons"
       style="fill:#ffffff;fill-opacity:1"><g
         id="g3"
         inkscape:label="Tactical advantage"
         style="display:inline;fill:#ffffff;fill-opacity:1"><path
           fill="currentColor"
           d="m 144.30684,75.267418 -1.79472,1.794721 v 1.196482 h 0.59824 l 2.39296,-2.392962 v -0.598241 z m 7.21408,0 v 0.598241 l 2.39296,2.392962 h 0.59824 v -1.196482 l -1.79472,-1.794721 z m -3.0088,1.794721 q -0.86217,0 -1.478,0.615836 -0.61584,0.615836 -0.61584,1.495601 0,0.862171 0.61584,1.478006 0.61583,0.615835 1.478,0.615835 0.86217,0 1.47801,-0.615835 0.61583,-0.615835 0.61583,-1.478006 0,-0.879765 -0.61583,-1.495601 -0.61584,-0.615836 -1.47801,-0.615836 z m -2.70968,4.504398 v 0.651027 q -0.19354,0.123167 -0.41349,0.255133 l -0.48387,0.290322 q -0.0528,0.211144 -0.0968,0.3783 -0.044,0.167156 -0.0968,0.343108 l 3.80059,1.98827 3.80059,-1.98827 q -0.0528,-0.175952 -0.0968,-0.343108 -0.044,-0.167156 -0.0968,-0.3783 l -0.48387,-0.290322 q 0,0 -0.41349,-0.255133 v -0.651027 h -0.70381 q -0.28153,0.316716 -0.64223,0.52786 -0.36071,0.211143 -0.7654,0.29912 v 1.284459 l -0.59824,0.59824 -0.59824,-0.59824 v -1.284459 q -0.40469,-0.08798 -0.76539,-0.29912 -0.36071,-0.211144 -0.64223,-0.52786 z m -3.29032,2.709679 v 1.196481 l 1.79472,1.794721 h 1.19648 v -0.598241 l -2.39296,-2.392961 z m 11.40176,0 -2.39296,2.392961 v 0.598241 h 1.19648 l 1.79472,-1.794721 v -1.196481 z"
           id="path1-3-1"
           style="fill:#ffffff;fill-opacity:1;stroke-width:0.0175954"
           inkscape:label="Right Tactical advantages" /><path
           fill="currentColor"
           d="m 56.898162,75.267419 -1.794721,1.794721 v 1.196482 h 0.59824 l 2.392963,-2.392962 v -0.598241 z m 7.214076,0 v 0.598241 l 2.392961,2.392962 H 67.10344 V 77.06214 L 65.308718,75.267419 Z M 61.10344,77.06214 q -0.862169,0 -1.478005,0.615836 -0.615836,0.615836 -0.615836,1.495601 0,0.862171 0.615836,1.478006 0.615836,0.615835 1.478005,0.615835 0.86217,0 1.478006,-0.615835 0.615836,-0.615835 0.615836,-1.478006 0,-0.879765 -0.615836,-1.495601 Q 61.96561,77.06214 61.10344,77.06214 Z m -2.709677,4.504398 v 0.651027 q -0.193548,0.123167 -0.413489,0.255133 l -0.483871,0.290322 q -0.05279,0.211144 -0.09678,0.3783 -0.04399,0.167156 -0.09677,0.343108 l 3.800586,1.98827 3.800586,-1.98827 q -0.05279,-0.175952 -0.09677,-0.343108 -0.04399,-0.167156 -0.09678,-0.3783 l -0.483868,-0.290322 q 0,0 -0.413489,-0.255133 v -0.651027 h -0.703813 q -0.281525,0.316716 -0.642229,0.52786 -0.360703,0.211143 -0.765395,0.29912 v 1.284459 l -0.598241,0.59824 -0.598241,-0.59824 v -1.284459 q -0.40469,-0.08798 -0.765394,-0.29912 -0.360704,-0.211144 -0.64223,-0.52786 z m -3.290322,2.709679 v 1.196481 l 1.794721,1.794721 h 1.196482 v -0.598241 l -2.392963,-2.392961 z m 11.401758,0 -2.392961,2.392961 v 0.598241 h 1.19648 l 1.794722,-1.794721 v -1.196481 z"
           id="path1-3"
           style="fill:#ffffff;fill-opacity:1;stroke-width:0.0175954"
           inkscape:label="Left Tactical advantages" /></g></g></g></svg>
