<?xml version="1.0" encoding="UTF-8" standalone="no"?>
<!-- Created with Inkscape (http://www.inkscape.org/) -->

<svg
   width="101.6mm"
   height="152.40001mm"
   viewBox="0 0 101.6 152.40001"
   version="1.1"
   id="svg1"
   xml:space="preserve"
   inkscape:version="1.3.1 (91b66b0783, 2023-11-16)"
   sodipodi:docname="NHPAssistant.svg"
   inkscape:export-filename="Reserves\TacticalAdvantages\OrbitalDrop.svg"
   inkscape:export-xdpi="96"
   inkscape:export-ydpi="96"
   xmlns:inkscape="http://www.inkscape.org/namespaces/inkscape"
   xmlns:sodipodi="http://sodipodi.sourceforge.net/DTD/sodipodi-0.dtd"
   xmlns="http://www.w3.org/2000/svg"
   xmlns:svg="http://www.w3.org/2000/svg"><sodipodi:namedview
     id="namedview1"
     pagecolor="#ffffff"
     bordercolor="#000000"
     borderopacity="0.25"
     inkscape:showpageshadow="2"
     inkscape:pageopacity="0.0"
     inkscape:pagecheckerboard="true"
     inkscape:deskcolor="#d1d1d1"
     inkscape:document-units="mm"
     inkscape:zoom="1"
     inkscape:cx="334.5"
     inkscape:cy="345.5"
     inkscape:window-width="1920"
     inkscape:window-height="1009"
     inkscape:window-x="1912"
     inkscape:window-y="-8"
     inkscape:window-maximized="1"
     inkscape:current-layer="layer1"
     inkscape:clip-to-page="true"
     showgrid="false" /><defs
     id="defs1"><rect
       x="35.355339"
       y="130.10765"
       width="361.7666"
       height="517.56348"
       id="rect13-8" /><rect
       x="21"
       y="490"
       width="352.14645"
       height="278.58704"
       id="rect10-0" /></defs><g
     inkscape:label="Layer 1"
     inkscape:groupmode="layer"
     id="layer1"
     transform="translate(-54.045021,-72.300003)"><path
       id="rect3-8"
       style="display:inline;fill:#000000;fill-opacity:1;stroke:#e36600;stroke-width:0.6;stroke-linecap:round;stroke-linejoin:bevel;stroke-miterlimit:3.3;stroke-dasharray:none;stroke-dashoffset:370.663;stroke-opacity:1"
       d="m 56.811648,93.750003 -0.239262,0.23306 V 143.625 l 12.69845,12.69792 h 83.801614 l 0.25322,-0.25321 V 106.4562 L 140.61999,93.750003 Z"
       inkscape:label="Window Background"
       sodipodi:nodetypes="ccccccccc" /><path
       id="rect1"
       style="fill:#333333;fill-opacity:1;stroke:none;stroke-width:0.5;stroke-linecap:butt;stroke-linejoin:bevel;stroke-miterlimit:3.3;stroke-dasharray:none;stroke-dashoffset:370.663;stroke-opacity:1"
       d="M 54.045539,72.300003 V 224.6969 H 155.64709 V 72.300003 Z m 2.801896,21.440954 h 83.808315 l 12.70569,12.706203 v 49.60729 l -0.25322,0.25321 H 69.306623 L 56.608173,143.60973 V 93.974018 Z"
       sodipodi:nodetypes="cccccccccccccc"
       inkscape:label="Card Background"
       inkscape:export-filename="Acrobatics1Back.png"
       inkscape:export-xdpi="96"
       inkscape:export-ydpi="96" /><g
       id="g8"
       inkscape:label="Details Panel"
       style="display:inline"><rect
         style="fill:#3e6a94;fill-opacity:1;stroke-width:0.200206;stroke-linecap:round;stroke-linejoin:bevel;stroke-miterlimit:3.3"
         id="rect8"
         width="93.740364"
         height="5.2426105"
         x="58.155125"
         y="177.44383"
         inkscape:label="Details Title Banner" /><text
         xml:space="preserve"
         style="font-style:normal;font-variant:normal;font-weight:bold;font-stretch:normal;font-size:4.93889px;line-height:1.5;font-family:Arial;-inkscape-font-specification:'Arial, Bold';font-variant-ligatures:normal;font-variant-caps:normal;font-variant-numeric:normal;font-variant-east-asian:normal;text-align:end;letter-spacing:0px;word-spacing:0px;text-anchor:end;fill:#ffffff;fill-opacity:1;stroke-width:0.2;stroke-linecap:round;stroke-linejoin:bevel;stroke-miterlimit:3.3"
         x="79.489082"
         y="181.8316"
         id="text6"
         inkscape:label="Details Title"><tspan
           sodipodi:role="line"
           id="tspan6"
           style="font-size:4.93889px;fill:#ffffff;stroke-width:0.2"
           x="79.489082"
           y="181.8316">DETAILS</tspan></text><rect
         style="fill:#ffffff;fill-opacity:1;stroke-width:0.290019;stroke-linecap:round;stroke-linejoin:bevel;stroke-miterlimit:3.3"
         id="rect9"
         width="93.734917"
         height="33.533577"
         x="58.160973"
         y="182.68231"
         inkscape:label="Details Panel Background" /><path
         id="path11"
         style="fill:#1e1e1e;fill-opacity:1;stroke:#1e1e1e;stroke-width:0.2;stroke-linecap:round;stroke-linejoin:bevel;stroke-miterlimit:3.3;stroke-opacity:1"
         d="m 62.959722,191.23021 h 84.137498 z m 0,7.98763 h 84.137498 z m 0,7.98762 h 84.137498 z"
         inkscape:label="Writing Lines" /><text
         xml:space="preserve"
         style="font-weight:bold;font-size:4.9389px;line-height:1.5;font-family:Arial;-inkscape-font-specification:'Arial, Bold';text-align:start;letter-spacing:0px;word-spacing:0px;text-anchor:start;white-space:pre;inline-size:84.3242;display:inline;fill:#ffffff;fill-opacity:1;stroke:#1e1e1e;stroke-width:0.2;stroke-linecap:round;stroke-linejoin:bevel;stroke-miterlimit:3.3;stroke-opacity:1"
         x="62.589531"
         y="190.30417"
         id="text11"
         inkscape:label="Details Body"><tspan
           x="62.589531"
           y="190.30417"
           id="tspan11"><tspan
             style="font-variant-caps:small-caps"
             id="tspan7">
</tspan></tspan></text></g><text
       xml:space="preserve"
       id="text10-0"
       style="font-style:normal;font-variant:normal;font-weight:normal;font-stretch:normal;font-size:16px;line-height:1;font-family:Arial;-inkscape-font-specification:'Arial, Normal';font-variant-ligatures:normal;font-variant-caps:normal;font-variant-numeric:normal;font-variant-east-asian:normal;white-space:pre;shape-inside:url(#rect10-0);display:inline;fill:#ffffff;fill-opacity:1;stroke:#000000;stroke-width:0;stroke-linejoin:bevel;stroke-miterlimit:3.3;stroke-dashoffset:370.663"
       inkscape:label="BODY Trigger"
       transform="matrix(0.26458333,0,0,0.26458333,53.275939,32.807923)"><tspan
         x="21"
         y="502.41207"
         id="tspan12">A non-human person (NHP) – an advanced </tspan><tspan
         x="21"
         y="518.41207"
         id="tspan13">artificial intelligence – controlled by the GM, that </tspan><tspan
         x="21"
         y="534.41207"
         id="tspan14">can give you advice on the current situation.</tspan></text><g
       id="g6"
       inkscape:label="Card Logos"
       transform="matrix(1.1913811,-0.00529117,0.00529117,1.1913811,-10.994552,12.061685)"><g
         id="g48"
         inkscape:label="NHP Assistant Logo"
         transform="matrix(0.3297112,0.00146432,-0.00146432,0.3297112,23.412815,49.190514)"><path
           d="m 205.28104,195.59083 c -0.8772,-0.4862 -1.33163,-1.41508 -1.34266,-2.74452 -0.0105,-1.25937 1.33075,-5.57537 2.84682,-9.16106 l 0.99485,-2.35294 1.41819,-0.36294 c 5.2428,-1.34173 11.0951,-7.62114 12.30185,-13.19966 l 0.17435,-0.80597 -2.31547,-0.44638 c -1.27351,-0.24551 -2.3941,-0.35907 -2.4902,-0.25236 -0.0961,0.10671 -0.37434,0.80952 -0.61832,1.5618 -0.51435,1.58598 -2.57243,4.63069 -3.94433,5.83524 -1.45481,1.27733 -3.18613,2.19849 -4.86664,2.58931 -5.14426,1.19635 -12.04487,1.52721 -16.37426,0.78509 -8.74278,-1.49863 -14.64572,-6.06254 -17.43873,-13.4829 -0.371,-0.98566 -0.62397,-1.84269 -0.56214,-1.90452 0.0618,-0.0618 0.87018,0.37934 1.79634,0.98036 5.65442,3.66938 12.13929,5.55052 19.12692,5.54837 4.32958,-0.001 7.62194,-0.52573 11.56098,-1.8414 3.45809,-1.15502 5.65979,-2.20405 9.88979,-4.7121 10.35358,-6.13884 21.50717,-10.36281 30.07751,-11.39063 l 1.7671,-0.21193 -0.36611,0.67804 c -1.98389,3.6742 -8.3183,9.9774 -14.29599,14.22554 -3.01185,2.14043 -9.31892,8.42761 -12.73215,12.692 -2.92713,3.65707 -6.80166,9.55465 -9.00873,13.71258 -2.3212,4.37293 -3.61733,5.35932 -5.59897,4.26098 z"
           style="fill:#3e6a94;fill-opacity:1"
           id="path1-06"
           inkscape:label="BottomBrain" /><path
           style="fill:none;fill-opacity:1;stroke:#3e6a94;stroke-width:3;stroke-dasharray:none;stroke-opacity:1"
           d="m 188.32106,162.67204 c -6.94778,-1.14655 -11.75247,-6.46944 -11.76837,-13.03764 -0.009,-3.81241 1.35191,-6.42549 4.13282,-7.93405 l 5.08995,-6.02964 c -4.46045,0.005 -7.40432,1.08022 -10.13333,3.70075 -3.49572,3.35676 -4.94905,8.75241 -3.74096,13.88872 0.20508,0.87192 0.34037,1.61781 0.30065,1.65754 -0.0397,0.0397 -1.01664,-0.9118 -2.17094,-2.11449 -5.61601,-5.85147 -8.89417,-13.64137 -9.28424,-22.06215 -0.13094,-2.82672 0.24778,-8.01013 0.63103,-8.63658 l 3.86934,-7.32588 c 0.25628,-3.52091 1.58411,-6.97577 3.77567,-9.82386 l 8.22859,-8.15921 c 2.2046,-2.57559 11.31045,-7.6274 17.68432,-9.81105 3.12146,-1.06939 8.23851,-2.45114 10.31875,-2.78637 0.58209,-0.0938 1.24996,-0.22239 1.48416,-0.28576 l 7.64392,-0.54175 c 1.73288,-0.73961 11.59184,-0.46529 17.06562,0.47483 l 12.67723,3.20551 c 0.19459,-0.1946 5.40169,1.87999 8.7539,3.48769 6.02617,2.89011 12.3633,7.616255 14.90802,9.52866 2.90709,2.18473 4.67373,3.71996 7.09185,5.91631 l 2.03543,2.19095 c 4.01916,4.32624 7.21398,9.91425 8.55781,14.96833 0.89145,3.35269 1.00558,8.66306 0.24928,11.5986 -2.11331,8.20266 -8.9061,13.49673 -16.70281,13.01759 -5.49474,-0.33767 -7.8807,-3.69717 -8.78287,-8.18517 l -4.14866,5.27689 c -0.0577,0.0577 -1.13206,-0.0318 -2.38747,-0.19886 l -21.39296,2.4942 c -5.32604,1.9395 -6.86989,2.55444 -10.05314,4.00431 l -3.63802,1.65702 v -0.7412 c 0,-0.40765 -0.22557,-1.46595 -0.50127,-2.35177 -3.96003,-12.72361 -24.6686,-11.32055 -23.77947,1.01443 0.14187,1.96829 1.01129,3.94325 2.2559,5.12448 l 0.77866,0.73901 1.46304,-1.89879 1.46304,-1.89879 -0.62953,-0.92767 c -1.03558,-1.526 -0.74298,-3.07968 0.8682,-4.6101 1.12851,-1.07194 2.49648,-1.53539 4.53205,-1.53539 2.23475,0 3.76103,0.50011 5.46939,1.79212 3.63145,2.74642 4.01905,6.03406 1.05207,8.92351 -1.98649,1.93457 -7.63848,4.53831 -12.41895,5.72112 -2.36758,0.58579 -8.61701,0.88157 -10.84792,0.51342 z"
           id="path48"
           sodipodi:nodetypes="ccccsssssccccssccccsscssssccccscsssscccsssssscc"
           inkscape:label="TopBrain" /><path
           style="fill:#3e6a94;fill-opacity:1;stroke-width:0.442823"
           d="m 220.01887,140.45775 c -2.42029,-0.67645 -3.23814,-3.67092 -1.48731,-5.44566 0.21169,-0.21459 0.58542,-0.49247 0.83048,-0.6175 l 0.44556,-0.2273 v -5.03566 -5.03565 h 0.99589 0.99589 v 4.9849 4.98491 l 0.37393,0.19958 c 0.20567,0.10978 0.62578,0.42932 0.93359,0.71009 1.63802,1.49413 1.2376,4.25754 -0.75637,5.21992 -0.76048,0.36704 -1.61367,0.46305 -2.33166,0.26237 z m 8.65847,-0.0326 c -0.0453,-0.0453 -0.0824,-3.73796 -0.0824,-8.2058 V 124.096 h 1.05527 1.05527 l -0.03,8.17216 -0.03,8.17217 -0.94272,0.0337 c -0.51851,0.0185 -0.97984,-0.003 -1.02519,-0.0489 z m 11.09594,-2.83486 c -1.5419,-0.53301 -2.48272,-2.14123 -2.16053,-3.69318 0.22245,-1.07152 1.01188,-2.0681 1.90815,-2.40886 l 0.32169,-0.12231 v -5.56817 -5.56818 h -2.63618 -2.6362 v -1.05446 -1.05448 h 3.63208 3.63208 v 6.60857 6.60856 l 0.63632,0.35911 c 1.04083,0.58741 1.59071,1.58198 1.58865,2.87345 -0.001,0.9398 -0.37366,1.73934 -1.11214,2.38938 -0.91645,0.80669 -2.02646,1.02722 -3.17392,0.63057 z m -32.38579,-3.2864 c -1.33778,-0.43865 -2.34251,-1.77647 -2.34251,-3.1191 0,-1.23165 0.70103,-2.39415 1.77059,-2.93614 l 0.57268,-0.2902 v -4.92154 -4.92155 l 2.13824,0.032 2.13823,0.032 v 0.99589 0.99589 l -1.14234,0.0335 -1.14234,0.0335 v 3.89165 3.89165 l 0.53316,0.28284 c 1.75632,0.93173 2.22077,3.39241 0.92587,4.90522 -0.66748,0.77981 -1.33141,1.10982 -2.32085,1.15366 -0.46039,0.0204 -0.96921,-0.006 -1.13073,-0.0592 z m 8.08505,-7.10306 V 124.096 h 1.05447 1.05448 v 3.10483 3.10484 h -1.05448 -1.05447 z m 8.67012,0 V 124.096 h 1.05447 1.05447 v 3.10483 3.10484 h -1.05447 -1.05447 z m -25.14505,-0.95103 c -0.70265,-0.2492 -1.39094,-0.89442 -1.761,-1.65078 -0.41422,-0.84666 -0.44346,-1.92405 -0.0746,-2.74745 0.29288,-0.65371 1.07265,-1.44192 1.62357,-1.64114 l 0.39883,-0.14422 0.0305,-5.27855 0.0305,-5.27853 h 6.20968 6.20967 l 0.0338,1.02518 0.0339,1.02518 h -5.21834 -5.21835 v 4.25766 4.25767 l 0.28661,0.13059 c 0.52464,0.23905 1.26992,1.01286 1.54667,1.6059 0.30628,0.65634 0.36288,1.82402 0.1203,2.482 -0.46909,1.27234 -1.72997,2.1539 -3.05605,2.13671 -0.39246,-0.005 -0.9305,-0.0862 -1.19566,-0.18022 z m 14.71747,-13.63584 v -9.3731 h 9.3731 9.37309 v 9.3731 9.3731 h -9.37309 -9.3731 z m 16.75441,6.56117 v -1.05448 h -4.36309 -4.36309 l -1.96374,-1.9612 -1.96375,-1.9612 v -4.54138 -4.54138 h -0.99589 -0.9959 v 5.0056 5.00559 l 0.70546,0.71178 0.70547,0.71178 -0.46831,0.20661 c -1.22797,0.54179 -1.41102,2.25341 -0.32379,3.02759 0.51138,0.36413 1.43478,0.41258 1.93056,0.10128 0.32775,-0.20581 0.73406,-0.71538 0.89354,-1.12065 0.0254,-0.0645 0.40732,0.23872 0.84882,0.6737 l 0.80271,0.79085 h 4.7755 4.7755 z m 0,-6.56117 v -1.05447 h -3.10483 -3.10485 v -3.22201 -3.22199 h -0.99588 -0.9959 v 4.27647 4.27648 h 4.10073 4.10073 z m 14.31725,5.67209 c -0.74583,-0.37166 -1.35919,-1.06565 -1.61047,-1.82217 l -0.1891,-0.56934 h -4.20847 -4.20849 v -0.99589 -0.99589 h 4.39364 c 2.4165,0 4.39365,-0.0432 4.39365,-0.0961 0,-0.25586 0.89729,-1.09607 1.46951,-1.37603 1.63968,-0.80223 3.7135,-0.0257 4.45828,1.66924 0.46401,1.056 0.15325,2.64735 -0.69073,3.53717 -0.92063,0.97062 -2.59107,1.25532 -3.80782,0.64899 z m -39.39026,-3.3874 v -0.99589 h 3.16341 3.16341 v 0.99589 0.99589 h -3.16341 -3.16341 z m 29.17373,-4.39555 v -1.05639 l 3.13414,0.0312 3.13412,0.0312 0.0339,1.02519 0.0338,1.02518 h -3.16798 -3.16798 z M 204.342,103.82835 v -3.28225 h -3.92498 -3.92499 v -0.995897 -0.995896 h 4.92087 4.92088 v 3.219813 3.21979 l 2.66548,0.0315 2.66546,0.0314 v 0.99589 0.99589 l -3.66136,0.031 -3.66136,0.031 z m 30.22821,2.22443 v -1.05447 h 5.44812 5.44811 v -1.57622 -1.57623 l -0.5039,-0.2229 c -2.45647,-1.08661 -2.66249,-4.487532 -0.35382,-5.840502 0.71609,-0.419658 2.01586,-0.518042 2.81448,-0.213052 1.73253,0.661663 2.59449,2.839634 1.76387,4.456884 -0.29483,0.57406 -0.98122,1.29956 -1.48415,1.56873 -0.23725,0.12697 -0.2447,0.21287 -0.2447,2.8216 v 2.69064 h -6.444 -6.44401 z m -19.09767,-9.431673 v -4.510795 h -2.61264 -2.61265 l -0.14733,0.407464 c -0.34685,0.959183 -1.8246,1.935803 -2.92913,1.935803 -1.27895,0 -2.55705,-0.841351 -3.06233,-2.01589 -0.3186,-0.740631 -0.29299,-2.000563 0.0552,-2.717914 0.48055,-0.989868 1.51319,-1.694519 2.63021,-1.794797 1.27538,-0.114496 2.49741,0.503523 3.11333,1.574523 l 0.35148,0.611195 3.66136,0.0043 3.66138,0.0043 v 5.50669 5.506694 h -1.05448 -1.05447 z m 4.33506,-2.167528 v -6.678324 h 0.99589 0.99589 v 6.678324 6.678341 h -0.99589 -0.99589 z m 4.33506,3.573495 V 94.92224 h 1.05447 1.05447 v 3.104834 3.104846 h -1.05447 -1.05447 z m 4.45221,-0.324848 v -3.429691 l -0.42201,-0.22727 c -1.0821,-0.582739 -1.76138,-1.875864 -1.65852,-3.157236 0.26074,-3.248355 4.66448,-4.115774 6.13749,-1.208927 0.79996,1.578656 0.26338,3.386314 -1.27432,4.292974 l -0.67369,0.397207 v 3.381312 3.381325 h -1.05448 -1.05447 z"
           id="path49"
           inkscape:label="Processor" /></g></g><rect
       style="display:inline;fill:#e36600;fill-opacity:1;stroke:#000000;stroke-width:0;stroke-linejoin:bevel;stroke-miterlimit:3.3;stroke-dashoffset:370.663"
       id="rect2"
       width="101.59982"
       height="18.07555"
       x="54.045109"
       y="72.266876"
       inkscape:label="Card Title Backing" /><text
       xml:space="preserve"
       style="font-style:normal;font-variant:normal;font-weight:bold;font-stretch:normal;font-size:9.87778px;line-height:0.8;font-family:Arial;-inkscape-font-specification:'Arial, Bold';font-variant-ligatures:normal;font-variant-position:normal;font-variant-caps:normal;font-variant-numeric:normal;font-variant-alternates:normal;font-variant-east-asian:normal;text-indent:0;text-align:center;text-decoration-line:none;text-decoration-style:solid;text-decoration-color:#000000;letter-spacing:normal;word-spacing:normal;text-transform:none;writing-mode:lr-tb;direction:ltr;text-orientation:mixed;dominant-baseline:auto;baseline-shift:baseline;text-anchor:middle;white-space:pre;inline-size:76.0664;display:inline;vector-effect:none;fill:#ffffff;fill-opacity:1;stroke:#000000;stroke-width:0;stroke-linecap:butt;stroke-linejoin:bevel;stroke-miterlimit:3.3;stroke-dasharray:none;stroke-dashoffset:370.663;stroke-opacity:1;-inkscape-stroke:none;stop-color:#000000"
       x="104.94299"
       y="83.013756"
       id="text7-0-9-5"
       inkscape:label="Card Title"
       transform="translate(0.00294596,-2.1875565)"><tspan
         x="104.94299"
         y="83.013756"
         id="tspan15">NHP<tspan
   y="83.013756"
   id="tspan16"> </tspan></tspan><tspan
         x="104.94299"
         y="90.915974"
         id="tspan17">ASSISTANT</tspan></text><g
       id="g1"
       inkscape:label="Title Icons"
       style="fill:#ffffff;fill-opacity:1"><g
         id="g3"
         inkscape:label="Tactical advantage"
         style="display:inline;fill:#ffffff;fill-opacity:1"><path
           fill="currentColor"
           d="m 144.30684,75.267418 -1.79472,1.794721 v 1.196482 h 0.59824 l 2.39296,-2.392962 v -0.598241 z m 7.21408,0 v 0.598241 l 2.39296,2.392962 h 0.59824 v -1.196482 l -1.79472,-1.794721 z m -3.0088,1.794721 q -0.86217,0 -1.478,0.615836 -0.61584,0.615836 -0.61584,1.495601 0,0.862171 0.61584,1.478006 0.61583,0.615835 1.478,0.615835 0.86217,0 1.47801,-0.615835 0.61583,-0.615835 0.61583,-1.478006 0,-0.879765 -0.61583,-1.495601 -0.61584,-0.615836 -1.47801,-0.615836 z m -2.70968,4.504398 v 0.651027 q -0.19354,0.123167 -0.41349,0.255133 l -0.48387,0.290322 q -0.0528,0.211144 -0.0968,0.3783 -0.044,0.167156 -0.0968,0.343108 l 3.80059,1.98827 3.80059,-1.98827 q -0.0528,-0.175952 -0.0968,-0.343108 -0.044,-0.167156 -0.0968,-0.3783 l -0.48387,-0.290322 q 0,0 -0.41349,-0.255133 v -0.651027 h -0.70381 q -0.28153,0.316716 -0.64223,0.52786 -0.36071,0.211143 -0.7654,0.29912 v 1.284459 l -0.59824,0.59824 -0.59824,-0.59824 v -1.284459 q -0.40469,-0.08798 -0.76539,-0.29912 -0.36071,-0.211144 -0.64223,-0.52786 z m -3.29032,2.709679 v 1.196481 l 1.79472,1.794721 h 1.19648 v -0.598241 l -2.39296,-2.392961 z m 11.40176,0 -2.39296,2.392961 v 0.598241 h 1.19648 l 1.79472,-1.794721 v -1.196481 z"
           id="path1-3-1"
           style="fill:#ffffff;fill-opacity:1;stroke-width:0.0175954"
           inkscape:label="Right Tactical advantages" /><path
           fill="currentColor"
           d="m 56.898162,75.267419 -1.794721,1.794721 v 1.196482 h 0.59824 l 2.392963,-2.392962 v -0.598241 z m 7.214076,0 v 0.598241 l 2.392961,2.392962 H 67.10344 V 77.06214 L 65.308718,75.267419 Z M 61.10344,77.06214 q -0.862169,0 -1.478005,0.615836 -0.615836,0.615836 -0.615836,1.495601 0,0.862171 0.615836,1.478006 0.615836,0.615835 1.478005,0.615835 0.86217,0 1.478006,-0.615835 0.615836,-0.615835 0.615836,-1.478006 0,-0.879765 -0.615836,-1.495601 Q 61.96561,77.06214 61.10344,77.06214 Z m -2.709677,4.504398 v 0.651027 q -0.193548,0.123167 -0.413489,0.255133 l -0.483871,0.290322 q -0.05279,0.211144 -0.09678,0.3783 -0.04399,0.167156 -0.09677,0.343108 l 3.800586,1.98827 3.800586,-1.98827 q -0.05279,-0.175952 -0.09677,-0.343108 -0.04399,-0.167156 -0.09678,-0.3783 l -0.483868,-0.290322 q 0,0 -0.413489,-0.255133 v -0.651027 h -0.703813 q -0.281525,0.316716 -0.642229,0.52786 -0.360703,0.211143 -0.765395,0.29912 v 1.284459 l -0.598241,0.59824 -0.598241,-0.59824 v -1.284459 q -0.40469,-0.08798 -0.765394,-0.29912 -0.360704,-0.211144 -0.64223,-0.52786 z m -3.290322,2.709679 v 1.196481 l 1.794721,1.794721 h 1.196482 v -0.598241 l -2.392963,-2.392961 z m 11.401758,0 -2.392961,2.392961 v 0.598241 h 1.19648 l 1.794722,-1.794721 v -1.196481 z"
           id="path1-3"
           style="fill:#ffffff;fill-opacity:1;stroke-width:0.0175954"
           inkscape:label="Left Tactical advantages" /></g></g></g></svg>
