<?xml version="1.0" encoding="UTF-8" standalone="no"?>
<!-- Created with Inkscape (http://www.inkscape.org/) -->

<svg
   width="101.6mm"
   height="152.40001mm"
   viewBox="0 0 101.6 152.40001"
   version="1.1"
   id="svg1"
   xml:space="preserve"
   inkscape:version="1.3.1 (91b66b0783, 2023-11-16)"
   sodipodi:docname="Reinforcements.svg"
   inkscape:export-filename="Reserves\TacticalAdvantages\Vehicle.svg"
   inkscape:export-xdpi="96"
   inkscape:export-ydpi="96"
   xmlns:inkscape="http://www.inkscape.org/namespaces/inkscape"
   xmlns:sodipodi="http://sodipodi.sourceforge.net/DTD/sodipodi-0.dtd"
   xmlns="http://www.w3.org/2000/svg"
   xmlns:svg="http://www.w3.org/2000/svg"><sodipodi:namedview
     id="namedview1"
     pagecolor="#ffffff"
     bordercolor="#000000"
     borderopacity="0.25"
     inkscape:showpageshadow="2"
     inkscape:pageopacity="0.0"
     inkscape:pagecheckerboard="true"
     inkscape:deskcolor="#d1d1d1"
     inkscape:document-units="mm"
     inkscape:zoom="1"
     inkscape:cx="168"
     inkscape:cy="315.5"
     inkscape:window-width="1920"
     inkscape:window-height="1009"
     inkscape:window-x="3832"
     inkscape:window-y="-8"
     inkscape:window-maximized="1"
     inkscape:current-layer="layer1"
     inkscape:clip-to-page="true"
     showgrid="false" /><defs
     id="defs1"><rect
       x="35.355339"
       y="130.10765"
       width="361.7666"
       height="517.56348"
       id="rect13-8" /><rect
       x="21"
       y="490"
       width="352.14645"
       height="278.58704"
       id="rect10-0" /></defs><g
     inkscape:label="Layer 1"
     inkscape:groupmode="layer"
     id="layer1"
     transform="translate(-54.045021,-72.300003)"><path
       id="rect3-8"
       style="display:inline;fill:#000000;fill-opacity:1;stroke:#e36600;stroke-width:0.6;stroke-linecap:round;stroke-linejoin:bevel;stroke-miterlimit:3.3;stroke-dasharray:none;stroke-dashoffset:370.663;stroke-opacity:1"
       d="m 56.811648,93.750003 -0.239262,0.23306 V 143.625 l 12.69845,12.69792 h 83.801614 l 0.25322,-0.25321 V 106.4562 L 140.61999,93.750003 Z"
       inkscape:label="Window Background"
       sodipodi:nodetypes="ccccccccc" /><path
       id="rect1"
       style="fill:#333333;fill-opacity:1;stroke:none;stroke-width:0.5;stroke-linecap:butt;stroke-linejoin:bevel;stroke-miterlimit:3.3;stroke-dasharray:none;stroke-dashoffset:370.663;stroke-opacity:1"
       d="M 54.045539,72.300003 V 224.6969 H 155.64709 V 72.300003 Z m 2.801896,21.440954 h 83.808315 l 12.70569,12.706203 v 49.60729 l -0.25322,0.25321 H 69.306623 L 56.608173,143.60973 V 93.974018 Z"
       sodipodi:nodetypes="cccccccccccccc"
       inkscape:label="Card Background"
       inkscape:export-filename="Acrobatics1Back.png"
       inkscape:export-xdpi="96"
       inkscape:export-ydpi="96" /><g
       id="g8"
       inkscape:label="Details Panel"
       style="display:inline"
       transform="translate(-0.17919247,0.16033666)"><rect
         style="fill:#3e6a94;fill-opacity:1;stroke-width:0.200206;stroke-linecap:round;stroke-linejoin:bevel;stroke-miterlimit:3.3"
         id="rect8"
         width="93.740364"
         height="5.2426105"
         x="58.155125"
         y="177.44383"
         inkscape:label="Details Title Banner" /><text
         xml:space="preserve"
         style="font-style:normal;font-variant:normal;font-weight:bold;font-stretch:normal;font-size:4.93889px;line-height:1.5;font-family:Arial;-inkscape-font-specification:'Arial, Bold';font-variant-ligatures:normal;font-variant-caps:normal;font-variant-numeric:normal;font-variant-east-asian:normal;text-align:end;letter-spacing:0px;word-spacing:0px;text-anchor:end;fill:#ffffff;fill-opacity:1;stroke-width:0.2;stroke-linecap:round;stroke-linejoin:bevel;stroke-miterlimit:3.3"
         x="79.489082"
         y="181.8316"
         id="text6"
         inkscape:label="Details Title"><tspan
           sodipodi:role="line"
           id="tspan6"
           style="font-size:4.93889px;fill:#ffffff;stroke-width:0.2"
           x="79.489082"
           y="181.8316">DETAILS</tspan></text><rect
         style="fill:#ffffff;fill-opacity:1;stroke-width:0.290019;stroke-linecap:round;stroke-linejoin:bevel;stroke-miterlimit:3.3"
         id="rect9"
         width="93.734917"
         height="33.533577"
         x="58.160973"
         y="182.68231"
         inkscape:label="Details Panel Background" /><path
         id="path11"
         style="fill:#1e1e1e;fill-opacity:1;stroke:#1e1e1e;stroke-width:0.2;stroke-linecap:round;stroke-linejoin:bevel;stroke-miterlimit:3.3;stroke-opacity:1"
         d="m 62.959722,191.23021 h 84.137498 z m 0,7.98763 h 84.137498 z m 0,7.98762 h 84.137498 z"
         inkscape:label="Writing Lines" /><text
         xml:space="preserve"
         style="font-weight:bold;font-size:4.9389px;line-height:1.5;font-family:Arial;-inkscape-font-specification:'Arial, Bold';text-align:start;letter-spacing:0px;word-spacing:0px;text-anchor:start;white-space:pre;inline-size:84.3242;display:inline;fill:#ffffff;fill-opacity:1;stroke:#1e1e1e;stroke-width:0.2;stroke-linecap:round;stroke-linejoin:bevel;stroke-miterlimit:3.3;stroke-opacity:1"
         x="62.589531"
         y="190.30417"
         id="text11"
         inkscape:label="Details Body"><tspan
           x="62.589531"
           y="190.30417"
           id="tspan7"><tspan
             style="font-variant-caps:small-caps"
             id="tspan5">
</tspan></tspan></text></g><text
       xml:space="preserve"
       id="text10-0"
       style="font-style:normal;font-variant:normal;font-weight:normal;font-stretch:normal;font-size:16px;line-height:1;font-family:Arial;-inkscape-font-specification:'Arial, Normal';font-variant-ligatures:normal;font-variant-caps:normal;font-variant-numeric:normal;font-variant-east-asian:normal;white-space:pre;shape-inside:url(#rect10-0);display:inline;fill:#ffffff;fill-opacity:1;stroke:#000000;stroke-width:0;stroke-linejoin:bevel;stroke-miterlimit:3.3;stroke-dashoffset:370.663"
       inkscape:label="BODY Trigger"
       transform="matrix(0.26458333,0,0,0.26458333,53.275939,32.807923)"><tspan
         x="21"
         y="502.41207"
         id="tspan8">The ability to call in a friendly NPC mech of any </tspan><tspan
         x="21"
         y="518.41207"
         id="tspan9">Tier, once per mission.</tspan></text><g
       id="g6"
       inkscape:label="Card Logos"
       transform="matrix(1.1913928,0,0,1.1913928,-24.340005,-14.632525)"><g
         id="g27"
         style="fill:#3e6a94;fill-opacity:1"
         inkscape:label="Reinforcements Logo"
         transform="translate(35.754721,-9.7714764)"><path
           style="fill:#3e6a94;fill-opacity:1;stroke-width:0.239317"
           d="m 69.480981,128.45613 0.01946,-0.76502 -4.386335,-4.80411 c -2.412484,-2.64225 -4.386335,-4.81265 -4.386335,-4.82311 0,-0.0105 0.294148,-0.019 0.653662,-0.019 h 0.653662 l 3.951326,4.33151 c 2.17323,2.38232 3.965779,4.33143 3.98344,4.33135 0.05569,-2.4e-4 0.245484,-0.32138 0.227813,-0.38543 -0.01474,-0.0534 -0.695589,-1.18078 -4.268718,-7.06833 l -0.7338,-1.2091 h 0.578875 0.578875 l 2.321121,3.82661 c 1.276617,2.10463 2.333429,3.8266 2.34847,3.8266 0.01505,0 0.144134,-0.0536 0.286867,-0.11905 0.177552,-0.0815 0.251845,-0.1444 0.235232,-0.19931 l 1.214512,-0.15992 1.22829,0.109 c -0.02892,0.12188 -0.0046,0.14852 0.240186,0.26318 0.231398,0.10838 0.279632,0.11596 0.320651,0.0504 0.02655,-0.0424 1.071308,-1.76818 2.321677,-3.83497 l 2.273395,-3.75781 0.571333,-0.002 c 0.314233,-10e-4 0.571334,0.008 0.571334,0.0215 0,0.0131 -1.124065,1.87652 -2.497922,4.14084 -1.373859,2.26432 -2.497063,4.13697 -2.496012,4.16145 9.57e-4,0.0245 0.06037,0.11606 0.131825,0.20352 0.129231,0.15816 0.13044,0.15844 0.229287,0.0531 0.05466,-0.0582 1.837915,-2.01318 3.962799,-4.34436 l 3.863426,-4.23849 h 0.672845 0.672844 l -0.189986,0.1993 c -0.104493,0.10962 -2.095544,2.28968 -4.424558,4.84459 -3.094178,3.39429 -4.202875,5.0877 -4.176797,5.14968 l -1.115249,-2.04957 -2.149501,-0.48353 -2.297195,0.53168 -0.71503,1.96219 z m -9.177967,-11.48749 c 2.32e-4,-0.0365 0.05858,-0.34591 0.129651,-0.6875 0.369517,-1.77588 1.266506,-3.62331 2.445294,-5.03631 0.797587,-0.95605 1.993818,-1.98746 3.058526,-2.6371 0.440792,-0.26895 1.842748,-0.97973 1.932445,-0.97973 0.01787,0 -0.212375,0.24586 -0.511653,0.54636 -0.299277,0.3005 -0.699597,0.74401 -0.889599,0.98558 -1.496291,1.90236 -2.570115,4.62214 -2.873192,7.27723 l -0.06825,0.5979 h -1.611822 c -1.25425,0 -1.611728,-0.0147 -1.6114,-0.0664 z m 4.276612,-0.29231 c 0.165721,-1.57977 0.690868,-3.40547 1.388158,-4.826 1.110792,-2.26293 2.803463,-3.97464 4.650279,-4.70258 0.148743,-0.0586 0.262076,-0.0882 0.25185,-0.0656 -0.01022,0.0225 -0.154735,0.31601 -0.321132,0.65217 -0.773396,1.56243 -1.330382,3.89962 -1.633891,6.856 -0.05687,0.55395 -0.159479,2.01841 -0.161056,2.29862 l -7.18e-4,0.14615 h -2.105614 -2.105509 z m 5.204147,-0.29231 c 0.226406,-4.09226 1.038107,-7.53302 2.124963,-9.00758 0.813415,-1.10359 1.551241,-0.82421 2.368114,0.89667 0.490655,1.03365 0.885181,2.43418 1.171435,4.15848 0.225061,1.35569 0.314367,2.19865 0.449698,4.24474 l 0.02372,0.35874 h -3.086979 -3.086982 z m 7.130142,0.58462 c -0.01125,-0.0365 -0.03404,-0.3893 -0.05066,-0.78392 -0.08929,-2.11957 -0.493709,-4.75879 -0.988513,-6.45091 -0.268655,-0.91874 -0.511318,-1.54884 -0.847798,-2.20142 -0.145014,-0.28124 -0.255409,-0.5196 -0.245317,-0.52969 0.03982,-0.0398 0.87727,0.31768 1.272799,0.54335 2.143122,1.22276 3.808244,3.57888 4.687052,6.6321 0.205672,0.71456 0.43431,1.8817 0.484175,2.47161 l 0.03257,0.38531 H 79.09629 c -1.683212,0 -2.166458,-0.0147 -2.182375,-0.0664 z m 5.370964,-0.0532 c -0.01249,-0.0658 -0.0732,-0.48369 -0.134894,-0.92871 -0.414301,-2.98837 -1.734505,-5.84477 -3.552283,-7.68575 l -0.464194,-0.47012 0.311242,0.13728 c 0.485208,0.21401 1.504103,0.83476 2.112229,1.28685 0.659062,0.48996 1.672146,1.46592 2.174228,2.09455 1.300861,1.62873 2.087441,3.38844 2.464174,5.51275 l 0.03063,0.17273 h -1.459207 -1.459209 z"
           id="path27"
           inkscape:label="parachute"
           sodipodi:nodetypes="cccsscccsscccssccccscsccsscscccccssccccccscsssscscsssssccssccccscssssccccscsssssscsssccscsssscccc" /><path
           style="fill:#3e6a94;fill-opacity:1;stroke-width:0.205997"
           d="m 65.733591,147.26023 c 0,-0.0145 0.08963,-0.20748 0.199161,-0.42886 l 0.199161,-0.40249 1.839766,-0.73564 1.839766,-0.73564 0.277463,1.10906 c 0.152605,0.60998 0.277463,1.134 0.277463,1.16449 0,0.0367 -0.782824,0.0554 -2.31639,0.0554 -1.274015,0 -2.31639,-0.012 -2.31639,-0.0264 z m 9.429069,-0.029 c 0,-0.0305 0.12486,-0.55451 0.277464,-1.16449 l 0.277463,-1.10906 1.839765,0.73563 1.839766,0.73565 0.19916,0.40249 c 0.109535,0.22137 0.199162,0.41436 0.199162,0.42885 0,0.0145 -1.042374,0.0264 -2.31639,0.0264 -1.533567,0 -2.31639,-0.0187 -2.31639,-0.0554 z m -8.774874,-2.11606 c 8.5e-5,-0.0797 0.0736,-0.86844 0.163354,-1.75277 0.08976,-0.88431 0.16327,-1.63672 0.163355,-1.67202 9.6e-5,-0.0398 0.326952,0.0452 0.861223,0.22401 l 0.861066,0.28822 0.569645,-0.28936 c 0.313303,-0.15915 0.58804,-0.29061 0.610522,-0.29215 0.02249,-0.001 0.04087,0.52192 0.04087,1.16323 v 1.16602 l -1.635097,0.65485 -1.635099,0.65487 z m 11.104891,-0.51497 -1.621475,-0.64961 v -1.16614 c 0,-0.64139 0.0184,-1.16488 0.04087,-1.16335 0.02249,10e-4 0.297219,0.133 0.610522,0.29215 l 0.569644,0.28936 0.861069,-0.28822 c 0.490819,-0.16428 0.861066,-0.26232 0.861066,-0.228 0,0.0331 0.07463,0.79768 0.165839,1.69904 0.09121,0.90136 0.158659,1.68957 0.149883,1.7516 -0.01475,0.10428 -0.138451,0.0637 -1.637426,-0.53683 z m -9.952776,-3.72851 -0.728092,-0.24748 0.02947,-0.19787 c 0.01621,-0.10884 0.08558,-0.78297 0.154161,-1.49809 l 0.124692,-1.30022 1.241143,-0.62102 c 0.682628,-0.34157 1.253609,-0.62102 1.268848,-0.62102 0.01524,0 0.02771,0.92636 0.02771,2.05859 v 2.05859 l -0.627387,0.3123 c -0.345064,0.17177 -0.657777,0.31037 -0.694917,0.30801 -0.03714,-0.002 -0.39517,-0.11568 -0.795621,-0.25179 z m 8.944463,-0.0594 -0.613162,-0.3091 v -2.05862 c 0,-1.13224 0.01247,-2.05862 0.02771,-2.05862 0.01524,0 0.58622,0.27946 1.268848,0.62103 l 1.241142,0.62102 0.124692,1.30022 c 0.06858,0.71511 0.137956,1.38927 0.154165,1.49811 l 0.02947,0.19789 -0.75541,0.25176 c -0.415477,0.13847 -0.77991,0.25033 -0.809851,0.24859 -0.02994,-0.001 -0.330363,-0.14226 -0.667604,-0.31228 z m -5.845478,-2.68223 v -0.43603 h 2.125628 2.125629 v 0.43603 0.43602 h -2.125629 -2.125628 z m -5.527999,-0.92937 c -0.08482,-0.23871 -1.502925,-4.5836 -1.502925,-4.60474 0,-0.0139 0.398922,-0.0252 0.886493,-0.0252 h 0.886493 l 0.371328,1.86212 0.371327,1.86212 -0.492334,0.49234 c -0.339336,0.33933 -0.50105,0.4678 -0.520382,0.41338 z m 14.773882,-0.4256 -0.4791,-0.48133 0.371207,-1.86152 0.371208,-1.86152 h 0.890165 0.890164 l -0.0371,0.12263 c -0.17161,0.56744 -1.467769,4.4919 -1.493842,4.52298 -0.01848,0.0221 -0.24921,-0.17651 -0.512715,-0.44124 z m -9.245883,-0.71702 v -0.65492 l -1.320655,-1.75686 -1.320656,-1.75686 -0.445215,-1.09951 -0.445217,-1.0995 0.255547,-1.02613 0.255546,-1.02611 1.478116,-0.49878 1.478117,-0.49877 0.522945,0.78492 0.522945,0.78491 h 1.144155 1.144158 l 0.522946,-0.78491 0.522945,-0.78492 1.478117,0.49877 1.478114,0.49878 0.255547,1.02611 0.255545,1.02613 -0.445214,1.0995 -0.445216,1.09951 -1.320655,1.75686 -1.320658,1.75686 v 0.65492 0.65491 h -2.125629 -2.125628 z m 3.938056,-3.05478 c 0.965455,-0.24172 1.762989,-0.4471 1.772299,-0.45641 0.0094,-0.01 -0.03528,-0.22507 -0.09908,-0.47947 l -0.116015,-0.46254 -1.371421,0.34522 c -0.754284,0.18987 -1.402082,0.34587 -1.439554,0.34666 -0.05279,0.001 -0.06812,-0.31753 -0.06812,-1.41563 v -1.41709 H 72.76452 72.273991 v 1.41709 c 0,1.0981 -0.01532,1.41676 -0.06812,1.41563 -0.03748,-8.1e-4 -0.68527,-0.15679 -1.439551,-0.34666 l -1.371423,-0.34522 -0.116004,0.46254 c -0.0638,0.2544 -0.108299,0.47025 -0.09887,0.47969 0.02807,0.0281 3.439821,0.88533 3.54491,0.89072 0.05316,0.002 0.886573,-0.19282 1.85203,-0.43453 z m -11.282438,-1.48176 c 0.01387,-0.0374 0.278682,-0.83103 0.588465,-1.76349 l 0.563239,-1.69535 1.161474,-0.58 c 0.638809,-0.31899 1.161472,-0.55504 1.161472,-0.52456 0,0.0458 -0.916341,3.75139 -1.094796,4.42714 l -0.05398,0.2044 h -1.17555 c -0.917559,0 -1.170016,-0.015 -1.150328,-0.0682 z m 16.56017,-0.13626 c -0.178457,-0.67575 -1.094796,-4.38127 -1.094796,-4.42714 0,-0.0305 0.522663,0.20557 1.161471,0.52456 l 1.161474,0.58 0.56324,1.69535 c 0.30978,0.93246 0.57459,1.72603 0.58846,1.76349 0.0197,0.0532 -0.23276,0.0682 -1.150325,0.0682 h -1.175551 z m -8.45274,-5.30044 c -0.420372,-0.62952 -0.746323,-1.14457 -0.724334,-1.14457 0.02198,0 0.500536,0.15281 1.063445,0.33957 l 1.023469,0.33957 1.023473,-0.33957 c 0.562908,-0.18676 1.041459,-0.33957 1.063446,-0.33957 0.02198,0 -0.303963,0.51505 -0.724334,1.14457 l -0.764312,1.14457 h -0.598273 -0.59827 z m 0.231638,-1.87019 -0.994686,-0.33498 v -0.88682 -0.88679 h 2.125628 2.125629 v 0.88676 0.88675 l -1.02347,0.33956 c -0.562908,0.18677 -1.071834,0.33753 -1.130942,0.33502 -0.05911,-0.002 -0.555083,-0.15531 -1.102159,-0.33954 z"
           id="path27-7"
           inkscape:label="Mech 1" /></g></g><rect
       style="display:inline;fill:#e36600;fill-opacity:1;stroke:#000000;stroke-width:0;stroke-linejoin:bevel;stroke-miterlimit:3.3;stroke-dashoffset:370.663"
       id="rect2"
       width="101.59982"
       height="18.07555"
       x="54.045109"
       y="72.266876"
       inkscape:label="Card Title Backing" /><text
       xml:space="preserve"
       style="font-style:normal;font-variant:normal;font-weight:bold;font-stretch:normal;font-size:7.76111px;line-height:0.8;font-family:Arial;-inkscape-font-specification:'Arial, Bold';font-variant-ligatures:normal;font-variant-position:normal;font-variant-caps:normal;font-variant-numeric:normal;font-variant-alternates:normal;font-variant-east-asian:normal;text-indent:0;text-align:center;text-decoration-line:none;text-decoration-style:solid;text-decoration-color:#000000;letter-spacing:normal;word-spacing:normal;text-transform:none;writing-mode:lr-tb;direction:ltr;text-orientation:mixed;dominant-baseline:auto;baseline-shift:baseline;text-anchor:middle;white-space:pre;inline-size:76.0664;display:inline;vector-effect:none;fill:#ffffff;fill-opacity:1;stroke:#000000;stroke-width:0;stroke-linecap:butt;stroke-linejoin:bevel;stroke-miterlimit:3.3;stroke-dasharray:none;stroke-dashoffset:370.663;stroke-opacity:1;-inkscape-stroke:none;stop-color:#000000"
       x="104.94299"
       y="83.013756"
       id="text7-0-9-5"
       inkscape:label="Card Title"
       transform="translate(-0.19308017,1.0667807)"><tspan
         x="104.94299"
         y="83.013756"
         id="tspan10">REINFORCEMENTS</tspan></text><g
       id="g1"
       inkscape:label="Title Icons"
       style="fill:#ffffff;fill-opacity:1"><g
         id="g3"
         inkscape:label="Tactical advantage"
         style="display:inline;fill:#ffffff;fill-opacity:1"><path
           fill="currentColor"
           d="m 144.30684,75.267418 -1.79472,1.794721 v 1.196482 h 0.59824 l 2.39296,-2.392962 v -0.598241 z m 7.21408,0 v 0.598241 l 2.39296,2.392962 h 0.59824 v -1.196482 l -1.79472,-1.794721 z m -3.0088,1.794721 q -0.86217,0 -1.478,0.615836 -0.61584,0.615836 -0.61584,1.495601 0,0.862171 0.61584,1.478006 0.61583,0.615835 1.478,0.615835 0.86217,0 1.47801,-0.615835 0.61583,-0.615835 0.61583,-1.478006 0,-0.879765 -0.61583,-1.495601 -0.61584,-0.615836 -1.47801,-0.615836 z m -2.70968,4.504398 v 0.651027 q -0.19354,0.123167 -0.41349,0.255133 l -0.48387,0.290322 q -0.0528,0.211144 -0.0968,0.3783 -0.044,0.167156 -0.0968,0.343108 l 3.80059,1.98827 3.80059,-1.98827 q -0.0528,-0.175952 -0.0968,-0.343108 -0.044,-0.167156 -0.0968,-0.3783 l -0.48387,-0.290322 q 0,0 -0.41349,-0.255133 v -0.651027 h -0.70381 q -0.28153,0.316716 -0.64223,0.52786 -0.36071,0.211143 -0.7654,0.29912 v 1.284459 l -0.59824,0.59824 -0.59824,-0.59824 v -1.284459 q -0.40469,-0.08798 -0.76539,-0.29912 -0.36071,-0.211144 -0.64223,-0.52786 z m -3.29032,2.709679 v 1.196481 l 1.79472,1.794721 h 1.19648 v -0.598241 l -2.39296,-2.392961 z m 11.40176,0 -2.39296,2.392961 v 0.598241 h 1.19648 l 1.79472,-1.794721 v -1.196481 z"
           id="path1-3-1"
           style="fill:#ffffff;fill-opacity:1;stroke-width:0.0175954"
           inkscape:label="Right Tactical advantages" /><path
           fill="currentColor"
           d="m 56.898162,75.267419 -1.794721,1.794721 v 1.196482 h 0.59824 l 2.392963,-2.392962 v -0.598241 z m 7.214076,0 v 0.598241 l 2.392961,2.392962 H 67.10344 V 77.06214 L 65.308718,75.267419 Z M 61.10344,77.06214 q -0.862169,0 -1.478005,0.615836 -0.615836,0.615836 -0.615836,1.495601 0,0.862171 0.615836,1.478006 0.615836,0.615835 1.478005,0.615835 0.86217,0 1.478006,-0.615835 0.615836,-0.615835 0.615836,-1.478006 0,-0.879765 -0.615836,-1.495601 Q 61.96561,77.06214 61.10344,77.06214 Z m -2.709677,4.504398 v 0.651027 q -0.193548,0.123167 -0.413489,0.255133 l -0.483871,0.290322 q -0.05279,0.211144 -0.09678,0.3783 -0.04399,0.167156 -0.09677,0.343108 l 3.800586,1.98827 3.800586,-1.98827 q -0.05279,-0.175952 -0.09677,-0.343108 -0.04399,-0.167156 -0.09678,-0.3783 l -0.483868,-0.290322 q 0,0 -0.413489,-0.255133 v -0.651027 h -0.703813 q -0.281525,0.316716 -0.642229,0.52786 -0.360703,0.211143 -0.765395,0.29912 v 1.284459 l -0.598241,0.59824 -0.598241,-0.59824 v -1.284459 q -0.40469,-0.08798 -0.765394,-0.29912 -0.360704,-0.211144 -0.64223,-0.52786 z m -3.290322,2.709679 v 1.196481 l 1.794721,1.794721 h 1.196482 v -0.598241 l -2.392963,-2.392961 z m 11.401758,0 -2.392961,2.392961 v 0.598241 h 1.19648 l 1.794722,-1.794721 v -1.196481 z"
           id="path1-3"
           style="fill:#ffffff;fill-opacity:1;stroke-width:0.0175954"
           inkscape:label="Left Tactical advantages" /></g></g></g></svg>
