<?xml version="1.0" encoding="UTF-8" standalone="no"?>
<!-- Created with Inkscape (http://www.inkscape.org/) -->

<svg
   width="101.6mm"
   height="152.40001mm"
   viewBox="0 0 101.6 152.40001"
   version="1.1"
   id="svg1"
   xml:space="preserve"
   inkscape:version="1.3.1 (91b66b0783, 2023-11-16)"
   sodipodi:docname="Scouting.svg"
   inkscape:export-filename="Reserves\Equipment\JumpJets.svg"
   inkscape:export-xdpi="96"
   inkscape:export-ydpi="96"
   xmlns:inkscape="http://www.inkscape.org/namespaces/inkscape"
   xmlns:sodipodi="http://sodipodi.sourceforge.net/DTD/sodipodi-0.dtd"
   xmlns="http://www.w3.org/2000/svg"
   xmlns:svg="http://www.w3.org/2000/svg"><sodipodi:namedview
     id="namedview1"
     pagecolor="#ffffff"
     bordercolor="#000000"
     borderopacity="0.25"
     inkscape:showpageshadow="2"
     inkscape:pageopacity="0.0"
     inkscape:pagecheckerboard="true"
     inkscape:deskcolor="#d1d1d1"
     inkscape:document-units="mm"
     inkscape:zoom="1"
     inkscape:cx="220.5"
     inkscape:cy="364.5"
     inkscape:window-width="1920"
     inkscape:window-height="1009"
     inkscape:window-x="1912"
     inkscape:window-y="-8"
     inkscape:window-maximized="1"
     inkscape:current-layer="layer1"
     inkscape:clip-to-page="true"
     showgrid="false" /><defs
     id="defs1"><rect
       x="35.355339"
       y="130.10765"
       width="361.7666"
       height="517.56348"
       id="rect13-8" /><rect
       x="21"
       y="490"
       width="352.14645"
       height="278.58704"
       id="rect10-0" /></defs><g
     inkscape:label="Layer 1"
     inkscape:groupmode="layer"
     id="layer1"
     transform="translate(-54.045021,-72.300003)"><path
       id="rect3-8"
       style="display:inline;fill:#000000;fill-opacity:1;stroke:#e36600;stroke-width:0.6;stroke-linecap:round;stroke-linejoin:bevel;stroke-miterlimit:3.3;stroke-dasharray:none;stroke-dashoffset:370.663;stroke-opacity:1"
       d="m 56.811648,93.750003 -0.239262,0.23306 V 143.625 l 12.69845,12.69792 h 83.801614 l 0.25322,-0.25321 V 106.4562 L 140.61999,93.750003 Z"
       inkscape:label="Window Background"
       sodipodi:nodetypes="ccccccccc" /><path
       id="rect1"
       style="fill:#333333;fill-opacity:1;stroke:none;stroke-width:0.5;stroke-linecap:butt;stroke-linejoin:bevel;stroke-miterlimit:3.3;stroke-dasharray:none;stroke-dashoffset:370.663;stroke-opacity:1"
       d="M 54.045539,72.300003 V 224.6969 H 155.64709 V 72.300003 Z m 2.801896,21.440954 h 83.808315 l 12.70569,12.706203 v 49.60729 l -0.25322,0.25321 H 69.306623 L 56.608173,143.60973 V 93.974018 Z"
       sodipodi:nodetypes="cccccccccccccc"
       inkscape:label="Card Background"
       inkscape:export-filename="Acrobatics1Back.png"
       inkscape:export-xdpi="96"
       inkscape:export-ydpi="96" /><text
       xml:space="preserve"
       id="text10-0"
       style="font-style:normal;font-variant:normal;font-weight:normal;font-stretch:normal;font-size:16px;line-height:1;font-family:Arial;-inkscape-font-specification:'Arial, Normal';font-variant-ligatures:normal;font-variant-caps:normal;font-variant-numeric:normal;font-variant-east-asian:normal;white-space:pre;shape-inside:url(#rect10-0);display:inline;fill:#ffffff;fill-opacity:1;stroke:#000000;stroke-width:0;stroke-linejoin:bevel;stroke-miterlimit:3.3;stroke-dashoffset:370.663"
       inkscape:label="BODY Trigger"
       transform="matrix(0.26458333,0,0,0.26458333,53.275939,32.807923)"><tspan
         x="21"
         y="502.41207"
         id="tspan1">Detailed information on the kinds of mechs and </tspan><tspan
         x="21"
         y="518.41207"
         id="tspan2">threats you will face on the mission, such as </tspan><tspan
         x="21"
         y="534.41207"
         id="tspan3">number, type, and statistics.</tspan></text><g
       id="g6"
       inkscape:label="Card Logos"
       transform="matrix(1.1913928,0,0,1.1913928,-24.340005,-22.521629)"><path
         style="fill:#3e6a94;fill-opacity:1;stroke-width:0.375714"
         d="m 93.309284,140.59357 c -0.859884,-0.16522 -1.926979,-0.49274 -2.56337,-0.78677 -2.805654,-1.29629 -4.850491,-3.93515 -5.38418,-6.94827 -0.14795,-0.8353 -0.129489,-2.59316 0.03625,-3.45227 0.647636,-3.3569 3.040177,-6.07343 6.338335,-7.19664 1.600189,-0.54495 3.948658,-0.58876 5.577285,-0.10405 3.214196,0.95661 5.674316,3.47006 6.531996,6.67362 0.26712,0.99772 0.36587,2.80977 0.20842,3.82423 -0.28546,1.83911 -1.18247,3.68399 -2.46088,5.06128 -1.791747,1.93033 -3.911967,2.86864 -6.643634,2.94017 -0.76544,0.02 -1.503542,0.015 -1.640227,-0.0113 z m 3.727789,-2.16346 c 1.993475,-0.68017 3.776957,-2.27809 4.587007,-4.10974 0.73259,-1.65654 0.83835,-3.87427 0.26324,-5.52041 -0.87926,-2.51671 -2.813569,-4.30849 -5.338335,-4.945 -1.510917,-0.38091 -3.745659,-0.20877 -4.886247,0.37639 l -0.3674,0.18848 0.335971,0.20793 c 0.824323,0.51017 1.275255,1.30799 1.277189,2.25972 0.003,1.45611 -1.073334,2.52744 -2.544454,2.53271 -0.952441,0.003 -1.723955,-0.43139 -2.236228,-1.26026 l -0.218704,-0.35387 -0.188487,0.3674 c -0.594583,1.15896 -0.776263,3.46395 -0.389473,4.94127 0.635394,2.42684 2.593193,4.52354 4.941825,5.29242 0.896357,0.29345 1.360469,0.34919 2.676534,0.3215 1.101984,-0.0232 1.409417,-0.0672 2.087562,-0.29854 z m 23.957257,2.15521 c -0.16402,-0.0222 -0.65609,-0.13368 -1.09348,-0.24777 -3.60035,-0.93915 -6.33221,-4.001 -6.91996,-7.75583 -0.15514,-0.99114 -0.0541,-2.81283 0.21083,-3.80253 0.4203,-1.56985 1.16461,-2.88195 2.33475,-4.11578 1.18846,-1.25314 2.61602,-2.10652 4.37618,-2.61604 0.68645,-0.19871 1.01466,-0.22965 2.43369,-0.22941 1.25471,2.1e-4 1.78831,0.0411 2.27028,0.17415 3.77669,1.04224 6.48281,3.97403 7.07891,7.66924 0.18836,1.16759 0.076,3.09099 -0.24324,4.16362 -1.02386,3.44022 -3.84408,6.0172 -7.30275,6.67291 -0.76034,0.14415 -2.39074,0.18948 -3.14521,0.0874 z m 3.19,-2.01737 c 2.18517,-0.5523 3.98815,-2.01663 4.95718,-4.02608 0.56842,-1.17873 0.78855,-2.12879 0.78311,-3.37986 -0.005,-1.2494 -0.21324,-2.12947 -0.77461,-3.28046 -1.30711,-2.68001 -3.8185,-4.2274 -6.85443,-4.22336 -1.19052,0.002 -2.00617,0.15144 -2.85184,0.52394 l -0.53697,0.23652 0.29822,0.15723 c 1.1454,0.60389 1.67964,2.04781 1.21096,3.27298 -0.19843,0.51872 -0.87967,1.20932 -1.41258,1.43198 -0.53288,0.22265 -1.50129,0.17984 -2.08548,-0.0922 -0.50846,-0.23677 -1.07322,-0.78319 -1.1901,-1.15143 -0.0358,-0.11294 -0.1017,-0.20535 -0.14636,-0.20535 -0.12663,0 -0.58145,1.31133 -0.70915,2.04462 -0.18524,1.06373 -0.0733,2.72539 0.24741,3.67132 0.85566,2.52408 3.05238,4.52249 5.57642,5.07301 0.93901,0.20481 2.56637,0.18015 3.48822,-0.0529 z m -16.21241,-4.85924 c -0.74457,-0.19147 -1.37461,-0.68365 -1.7091,-1.33512 -0.72174,-1.40571 0.007,-3.15663 1.49913,-3.59961 0.62071,-0.18433 0.89272,-0.18433 1.51342,0 0.63081,0.18733 1.25022,0.71728 1.5414,1.31877 0.45033,0.93026 0.20784,2.30599 -0.52378,2.97164 -0.57498,0.52312 -1.6413,0.81913 -2.32107,0.64432 z m -2.03786,-12.63475 v -6.57564 l 0.82309,-0.38572 c 1.19735,-0.56109 1.65296,-0.66545 2.2337,-0.51163 0.47409,0.12557 1.75585,0.66826 1.98815,0.84178 0.0972,0.0726 0.12426,1.51999 0.12426,6.64983 0,3.60636 -0.0336,6.53996 -0.0746,6.51912 -0.81968,-0.41671 -1.34527,-0.61479 -1.86958,-0.7046 -0.99051,-0.16967 -1.7766,0.006 -3.15051,0.7046 -0.041,0.0209 -0.0746,-2.92114 -0.0746,-6.53774 z m -2.04819,3.65017 c -1.02863,-1.58291 -3.09644,-3.22013 -5.040895,-3.99122 -1.533779,-0.60823 -2.046173,-0.69405 -4.143984,-0.69405 -2.079862,0 -2.648824,0.0935 -4.074936,0.66952 -0.328475,0.13267 -0.597226,0.21831 -0.597226,0.1903 0,-0.0959 3.409478,-6.03912 3.655237,-6.37157 0.352036,-0.47623 1.337588,-1.17871 2.259522,-1.61056 2.490656,-1.16665 5.292492,-0.85134 7.579842,0.85302 l 0.62129,0.46294 v 5.40796 c 0,2.97438 -0.0112,5.40741 -0.0249,5.40673 -0.0137,-7.5e-4 -0.11896,-0.14606 -0.23399,-0.32307 z m 9.00673,-5.06874 v -5.42288 l 0.6213,-0.46294 c 2.28649,-1.70373 5.11387,-2.01736 7.61895,-0.84515 0.67995,0.31817 1.71146,1.0181 2.06626,1.40207 0.23035,0.24928 3.81771,6.47223 3.76274,6.52719 -0.0178,0.0179 -0.41612,-0.103 -0.88508,-0.26853 -1.41811,-0.50053 -2.37933,-0.63527 -4.13807,-0.58009 -1.12003,0.0351 -1.74949,0.10446 -2.30494,0.25381 -2.65055,0.71268 -4.883,2.23486 -6.42669,4.38199 l -0.31447,0.4374 z m -9.42544,-8.02611 c -1.15681,-0.69602 -3.07685,-1.19378 -4.604762,-1.19378 H 98.26662 l 0.528415,-1.01367 c 0.901764,-1.72987 1.815695,-2.44481 2.999745,-2.34662 0.70347,0.0583 1.38628,0.49406 1.93512,1.23485 l 0.41482,0.55992 v 1.57802 c 0,0.86791 -0.0112,1.57375 -0.0249,1.56853 -0.0137,-0.005 -0.30738,-0.17949 -0.6527,-0.38725 z m 9.42544,-1.1889 v -1.5704 l 0.41483,-0.55992 c 0.54883,-0.74079 1.23165,-1.17652 1.93512,-1.23485 1.18405,-0.0982 2.09798,0.61675 2.99974,2.34662 l 0.52842,1.01367 h -0.59578 c -1.52452,0 -3.3709,0.47627 -4.61133,1.18948 l -0.671,0.38581 z"
         id="path22"
         inkscape:label="Scouting Logo" /></g><rect
       style="display:inline;fill:#e36600;fill-opacity:1;stroke:#000000;stroke-width:0;stroke-linejoin:bevel;stroke-miterlimit:3.3;stroke-dashoffset:370.663"
       id="rect2"
       width="101.59982"
       height="18.07555"
       x="54.045109"
       y="72.266876"
       inkscape:label="Card Title Backing" /><text
       xml:space="preserve"
       style="font-style:normal;font-variant:normal;font-weight:bold;font-stretch:normal;font-size:9.87778px;line-height:0.8;font-family:Arial;-inkscape-font-specification:'Arial, Bold';font-variant-ligatures:normal;font-variant-position:normal;font-variant-caps:normal;font-variant-numeric:normal;font-variant-alternates:normal;font-variant-east-asian:normal;text-indent:0;text-align:center;text-decoration-line:none;text-decoration-style:solid;text-decoration-color:#000000;letter-spacing:normal;word-spacing:normal;text-transform:none;writing-mode:lr-tb;direction:ltr;text-orientation:mixed;dominant-baseline:auto;baseline-shift:baseline;text-anchor:middle;white-space:pre;inline-size:76.0664;display:inline;vector-effect:none;fill:#ffffff;fill-opacity:1;stroke:#000000;stroke-width:0;stroke-linecap:butt;stroke-linejoin:bevel;stroke-miterlimit:3.3;stroke-dasharray:none;stroke-dashoffset:370.663;stroke-opacity:1;-inkscape-stroke:none;stop-color:#000000"
       x="104.94299"
       y="83.013756"
       id="text7-0-9-5"
       inkscape:label="Card Title"
       transform="translate(0.05841379,1.8238417)"><tspan
         x="104.94299"
         y="83.013756"
         id="tspan4">SCOUTING</tspan></text><g
       id="g1"
       inkscape:label="Title Icons"
       style="fill:#ffffff;fill-opacity:1"><g
         id="g3"
         inkscape:label="Tactical advantage"
         style="display:inline;fill:#ffffff;fill-opacity:1"><path
           fill="currentColor"
           d="m 144.30684,75.267418 -1.79472,1.794721 v 1.196482 h 0.59824 l 2.39296,-2.392962 v -0.598241 z m 7.21408,0 v 0.598241 l 2.39296,2.392962 h 0.59824 v -1.196482 l -1.79472,-1.794721 z m -3.0088,1.794721 q -0.86217,0 -1.478,0.615836 -0.61584,0.615836 -0.61584,1.495601 0,0.862171 0.61584,1.478006 0.61583,0.615835 1.478,0.615835 0.86217,0 1.47801,-0.615835 0.61583,-0.615835 0.61583,-1.478006 0,-0.879765 -0.61583,-1.495601 -0.61584,-0.615836 -1.47801,-0.615836 z m -2.70968,4.504398 v 0.651027 q -0.19354,0.123167 -0.41349,0.255133 l -0.48387,0.290322 q -0.0528,0.211144 -0.0968,0.3783 -0.044,0.167156 -0.0968,0.343108 l 3.80059,1.98827 3.80059,-1.98827 q -0.0528,-0.175952 -0.0968,-0.343108 -0.044,-0.167156 -0.0968,-0.3783 l -0.48387,-0.290322 q 0,0 -0.41349,-0.255133 v -0.651027 h -0.70381 q -0.28153,0.316716 -0.64223,0.52786 -0.36071,0.211143 -0.7654,0.29912 v 1.284459 l -0.59824,0.59824 -0.59824,-0.59824 v -1.284459 q -0.40469,-0.08798 -0.76539,-0.29912 -0.36071,-0.211144 -0.64223,-0.52786 z m -3.29032,2.709679 v 1.196481 l 1.79472,1.794721 h 1.19648 v -0.598241 l -2.39296,-2.392961 z m 11.40176,0 -2.39296,2.392961 v 0.598241 h 1.19648 l 1.79472,-1.794721 v -1.196481 z"
           id="path1-3-1"
           style="fill:#ffffff;fill-opacity:1;stroke-width:0.0175954"
           inkscape:label="Right Tactical advantages" /><path
           fill="currentColor"
           d="m 56.898162,75.267419 -1.794721,1.794721 v 1.196482 h 0.59824 l 2.392963,-2.392962 v -0.598241 z m 7.214076,0 v 0.598241 l 2.392961,2.392962 H 67.10344 V 77.06214 L 65.308718,75.267419 Z M 61.10344,77.06214 q -0.862169,0 -1.478005,0.615836 -0.615836,0.615836 -0.615836,1.495601 0,0.862171 0.615836,1.478006 0.615836,0.615835 1.478005,0.615835 0.86217,0 1.478006,-0.615835 0.615836,-0.615835 0.615836,-1.478006 0,-0.879765 -0.615836,-1.495601 Q 61.96561,77.06214 61.10344,77.06214 Z m -2.709677,4.504398 v 0.651027 q -0.193548,0.123167 -0.413489,0.255133 l -0.483871,0.290322 q -0.05279,0.211144 -0.09678,0.3783 -0.04399,0.167156 -0.09677,0.343108 l 3.800586,1.98827 3.800586,-1.98827 q -0.05279,-0.175952 -0.09677,-0.343108 -0.04399,-0.167156 -0.09678,-0.3783 l -0.483868,-0.290322 q 0,0 -0.413489,-0.255133 v -0.651027 h -0.703813 q -0.281525,0.316716 -0.642229,0.52786 -0.360703,0.211143 -0.765395,0.29912 v 1.284459 l -0.598241,0.59824 -0.598241,-0.59824 v -1.284459 q -0.40469,-0.08798 -0.765394,-0.29912 -0.360704,-0.211144 -0.64223,-0.52786 z m -3.290322,2.709679 v 1.196481 l 1.794721,1.794721 h 1.196482 v -0.598241 l -2.392963,-2.392961 z m 11.401758,0 -2.392961,2.392961 v 0.598241 h 1.19648 l 1.794722,-1.794721 v -1.196481 z"
           id="path1-3"
           style="fill:#ffffff;fill-opacity:1;stroke-width:0.0175954"
           inkscape:label="Left Tactical advantages" /></g></g></g></svg>
