<?xml version="1.0" encoding="UTF-8" standalone="no"?>
<!-- Created with Inkscape (http://www.inkscape.org/) -->

<svg
   width="101.6mm"
   height="152.40001mm"
   viewBox="0 0 101.6 152.40001"
   version="1.1"
   id="svg1"
   xml:space="preserve"
   inkscape:version="1.3.1 (91b66b0783, 2023-11-16)"
   sodipodi:docname="Vehicle.svg"
   inkscape:export-filename="Reserves\TacticalAdvantages\Scouting.svg"
   inkscape:export-xdpi="96"
   inkscape:export-ydpi="96"
   xmlns:inkscape="http://www.inkscape.org/namespaces/inkscape"
   xmlns:sodipodi="http://sodipodi.sourceforge.net/DTD/sodipodi-0.dtd"
   xmlns="http://www.w3.org/2000/svg"
   xmlns:svg="http://www.w3.org/2000/svg"><sodipodi:namedview
     id="namedview1"
     pagecolor="#ffffff"
     bordercolor="#000000"
     borderopacity="0.25"
     inkscape:showpageshadow="2"
     inkscape:pageopacity="0.0"
     inkscape:pagecheckerboard="true"
     inkscape:deskcolor="#d1d1d1"
     inkscape:document-units="mm"
     inkscape:zoom="1"
     inkscape:cx="149.5"
     inkscape:cy="238.5"
     inkscape:window-width="1920"
     inkscape:window-height="1009"
     inkscape:window-x="1912"
     inkscape:window-y="-8"
     inkscape:window-maximized="1"
     inkscape:current-layer="layer1"
     inkscape:clip-to-page="true"
     showgrid="false" /><defs
     id="defs1"><rect
       x="35.355339"
       y="130.10765"
       width="361.7666"
       height="517.56348"
       id="rect13-8" /><rect
       x="21"
       y="490"
       width="352.14645"
       height="278.58704"
       id="rect10-0" /></defs><g
     inkscape:label="Layer 1"
     inkscape:groupmode="layer"
     id="layer1"
     transform="translate(-54.045021,-72.300003)"><path
       id="rect3-8"
       style="display:inline;fill:#000000;fill-opacity:1;stroke:#e36600;stroke-width:0.6;stroke-linecap:round;stroke-linejoin:bevel;stroke-miterlimit:3.3;stroke-dasharray:none;stroke-dashoffset:370.663;stroke-opacity:1"
       d="m 56.811648,93.750003 -0.239262,0.23306 V 143.625 l 12.69845,12.69792 h 83.801614 l 0.25322,-0.25321 V 106.4562 L 140.61999,93.750003 Z"
       inkscape:label="Window Background"
       sodipodi:nodetypes="ccccccccc" /><path
       id="rect1"
       style="fill:#333333;fill-opacity:1;stroke:none;stroke-width:0.5;stroke-linecap:butt;stroke-linejoin:bevel;stroke-miterlimit:3.3;stroke-dasharray:none;stroke-dashoffset:370.663;stroke-opacity:1"
       d="M 54.045539,72.300003 V 224.6969 H 155.64709 V 72.300003 Z m 2.801896,21.440954 h 83.808315 l 12.70569,12.706203 v 49.60729 l -0.25322,0.25321 H 69.306623 L 56.608173,143.60973 V 93.974018 Z"
       sodipodi:nodetypes="cccccccccccccc"
       inkscape:label="Card Background"
       inkscape:export-filename="Acrobatics1Back.png"
       inkscape:export-xdpi="96"
       inkscape:export-ydpi="96" /><g
       id="g8"
       inkscape:label="Details Panel"
       style="display:inline"><rect
         style="fill:#3e6a94;fill-opacity:1;stroke-width:0.200206;stroke-linecap:round;stroke-linejoin:bevel;stroke-miterlimit:3.3"
         id="rect8"
         width="93.740364"
         height="5.2426105"
         x="58.155125"
         y="177.44383"
         inkscape:label="Details Title Banner" /><text
         xml:space="preserve"
         style="font-style:normal;font-variant:normal;font-weight:bold;font-stretch:normal;font-size:4.93889px;line-height:1.5;font-family:Arial;-inkscape-font-specification:'Arial, Bold';font-variant-ligatures:normal;font-variant-caps:normal;font-variant-numeric:normal;font-variant-east-asian:normal;text-align:end;letter-spacing:0px;word-spacing:0px;text-anchor:end;fill:#ffffff;fill-opacity:1;stroke-width:0.2;stroke-linecap:round;stroke-linejoin:bevel;stroke-miterlimit:3.3"
         x="79.489082"
         y="181.8316"
         id="text6"
         inkscape:label="Details Title"><tspan
           sodipodi:role="line"
           id="tspan6"
           style="font-size:4.93889px;fill:#ffffff;stroke-width:0.2"
           x="79.489082"
           y="181.8316">DETAILS</tspan></text><rect
         style="fill:#ffffff;fill-opacity:1;stroke-width:0.290019;stroke-linecap:round;stroke-linejoin:bevel;stroke-miterlimit:3.3"
         id="rect9"
         width="93.734917"
         height="33.533577"
         x="58.160973"
         y="182.68231"
         inkscape:label="Details Panel Background" /><path
         id="path11"
         style="fill:#1e1e1e;fill-opacity:1;stroke:#1e1e1e;stroke-width:0.2;stroke-linecap:round;stroke-linejoin:bevel;stroke-miterlimit:3.3;stroke-opacity:1"
         d="m 62.959722,191.23021 h 84.137498 z m 0,7.98763 h 84.137498 z m 0,7.98762 h 84.137498 z"
         inkscape:label="Writing Lines" /><text
         xml:space="preserve"
         style="font-weight:bold;font-size:4.9389px;line-height:1.5;font-family:Arial;-inkscape-font-specification:'Arial, Bold';text-align:start;letter-spacing:0px;word-spacing:0px;text-anchor:start;white-space:pre;inline-size:84.3242;display:inline;fill:#ffffff;fill-opacity:1;stroke:#1e1e1e;stroke-width:0.2;stroke-linecap:round;stroke-linejoin:bevel;stroke-miterlimit:3.3;stroke-opacity:1"
         x="62.589531"
         y="190.30417"
         id="text11"
         inkscape:label="Details Body"><tspan
           x="62.589531"
           y="190.30417"
           id="tspan11"><tspan
             style="font-variant-caps:small-caps"
             id="tspan9">
</tspan></tspan></text></g><text
       xml:space="preserve"
       id="text10-0"
       style="font-style:normal;font-variant:normal;font-weight:normal;font-stretch:normal;font-size:16px;line-height:1;font-family:Arial;-inkscape-font-specification:'Arial, Normal';font-variant-ligatures:normal;font-variant-caps:normal;font-variant-numeric:normal;font-variant-east-asian:normal;white-space:pre;shape-inside:url(#rect10-0);display:inline;fill:#ffffff;fill-opacity:1;stroke:#000000;stroke-width:0;stroke-linejoin:bevel;stroke-miterlimit:3.3;stroke-dashoffset:370.663"
       inkscape:label="BODY Trigger"
       transform="matrix(0.26458333,0,0,0.26458333,53.275939,32.807923)"><tspan
         x="21"
         y="502.41207"
         id="tspan12">Use of a transport vehicle or starship (e.g., a </tspan><tspan
         x="21"
         y="518.41207"
         id="tspan16"><tspan
   style="font-weight:bold"
   id="tspan13">TIER 1 NPC</tspan> with the <tspan
   style="font-weight:bold"
   id="tspan14">VEHICLE</tspan> or <tspan
   style="font-weight:bold"
   id="tspan15">SHIP</tspan> template.</tspan></text><g
       id="g6"
       inkscape:label="Card Logos"
       transform="matrix(1.1913928,0,0,1.1913928,-24.340005,-22.521629)"><g
         id="g24"
         inkscape:label="Vehicle Logo"
         transform="matrix(0.29198625,0,0,0.29198625,63.891927,72.47481)"><path
           style="fill:#3e6a94;fill-opacity:1;stroke-width:0.56"
           d="m 156.711,231.40344 c -1.70889,-0.42927 -3.32823,-1.80486 -4.1387,-3.51573 -0.42741,-0.90224 -0.47191,-1.1289 -0.47191,-2.40376 0,-1.27484 0.0445,-1.5015 0.47191,-2.40375 0.65583,-1.38442 1.6233,-2.37003 2.98891,-3.04496 1.05502,-0.52141 1.19592,-0.55203 2.53993,-0.55203 1.34402,0 1.48492,0.0306 2.53993,0.55203 1.36562,0.67493 2.33309,1.66054 2.98891,3.04496 0.42741,0.90225 0.47191,1.12891 0.47191,2.40375 0,1.27486 -0.0445,1.50152 -0.47191,2.40376 -1.01693,2.1467 -2.95711,3.49785 -5.17544,3.60421 -0.64257,0.0308 -1.42716,-0.009 -1.74354,-0.0885 z m 2.4842,-2.69276 c 1.23605,-0.36707 2.31378,-1.87003 2.31378,-3.22673 0,-1.81197 -1.59586,-3.40783 -3.40784,-3.40783 -0.89722,0 -1.68393,0.34224 -2.37477,1.03306 -1.38896,1.38898 -1.38896,3.35885 0,4.75115 0.96533,0.96766 2.12038,1.25079 3.46883,0.85035 z m 12.92514,2.69276 c -1.70889,-0.42927 -3.32823,-1.80486 -4.13871,-3.51573 -0.42741,-0.90224 -0.4719,-1.1289 -0.4719,-2.40376 0,-1.27484 0.0445,-1.5015 0.4719,-2.40375 0.65583,-1.38442 1.6233,-2.37003 2.98892,-3.04496 1.05501,-0.52141 1.19591,-0.55203 2.53993,-0.55203 1.34402,0 1.48491,0.0306 2.53993,0.55203 1.36561,0.67493 2.33308,1.66054 2.98891,3.04496 0.42741,0.90225 0.47191,1.12891 0.47191,2.40375 0,1.27486 -0.0445,1.50152 -0.47191,2.40376 -1.01693,2.1467 -2.95711,3.49785 -5.17545,3.60421 -0.64257,0.0308 -1.42716,-0.009 -1.74353,-0.0885 z m 2.4842,-2.69276 c 1.23605,-0.36707 2.31377,-1.87003 2.31377,-3.22673 0,-1.35669 -1.07772,-2.85965 -2.31377,-3.22672 -1.3484,-0.40043 -2.49905,-0.11783 -3.46883,0.85195 -1.38897,1.38898 -1.38897,3.35885 0,4.75115 0.96532,0.96766 2.12038,1.25079 3.46883,0.85035 z m 33.0758,2.69276 c -1.70888,-0.42927 -3.32823,-1.80486 -4.13869,-3.51573 -0.42742,-0.90224 -0.47191,-1.1289 -0.47191,-2.40376 0,-1.27484 0.0445,-1.5015 0.47191,-2.40375 0.65582,-1.38442 1.6233,-2.37003 2.9889,-3.04496 1.05502,-0.52141 1.19592,-0.55203 2.53993,-0.55203 1.34402,0 1.48492,0.0306 2.53993,0.55203 1.36562,0.67493 2.33309,1.66054 2.98892,3.04496 0.42741,0.90225 0.4719,1.12891 0.4719,2.40375 0,1.27486 -0.0446,1.50152 -0.4719,2.40376 -1.01693,2.1467 -2.95712,3.49785 -5.17545,3.60421 -0.64257,0.0308 -1.42716,-0.009 -1.74354,-0.0885 z m 2.48421,-2.69276 c 1.23605,-0.36707 2.31377,-1.87003 2.31377,-3.22673 0,-1.81197 -1.59585,-3.40783 -3.40784,-3.40783 -1.35669,0 -2.85965,1.07772 -3.22672,2.31378 -0.40028,1.34787 -0.11786,2.49829 0.85195,3.47043 0.96533,0.96766 2.12039,1.25079 3.46884,0.85035 z m -25.8379,-4.41206 v -2.2225 h 6.96382 6.96384 v 2.2225 2.2225 h -6.96384 -6.96382 z m -34.37468,-3.556 v -1.03717 h 0.94687 0.94687 l -0.68559,1.03717 c -0.4183,0.63281 -0.78745,1.03717 -0.94687,1.03717 -0.22471,0 -0.26128,-0.14516 -0.26128,-1.03717 z m 15.09055,5.5e-4 -0.68594,-1.03772 h 1.45229 1.45229 l -0.66849,1.00013 c -0.36768,0.55007 -0.71253,1.01704 -0.76635,1.03771 -0.0538,0.0207 -0.40652,-0.42939 -0.7838,-1.00012 z m 15.40898,-5.5e-4 -0.68559,-1.03717 h 0.94687 0.94687 v 1.03717 c 0,0.89201 -0.0366,1.03717 -0.26128,1.03717 -0.15942,0 -0.52857,-0.40436 -0.94687,-1.03717 z m 20.46982,-0.14817 v -1.18533 h -0.59267 -0.59267 v -10.41891 -10.4189 l 7.22559,1.03098 7.22557,1.03098 2.10893,3.16441 2.10892,3.1644 v 2.66752 2.66751 h -1.18534 -1.18533 v 4.13336 4.13333 l -1.00254,-1.00254 c -1.61074,-1.61074 -3.7593,-2.51843 -5.9613,-2.51843 -2.77153,0 -5.64558,1.57278 -7.0592,3.86303 -0.34521,0.5593 -0.63851,0.87393 -0.81468,0.87393 -0.24532,0 -0.27528,-0.129 -0.27528,-1.18534 z m 14.81667,-11.49569 v -1.27221 l -1.83757,-2.62073 -1.83757,-2.62073 -4.20023,-0.49081 c -2.31012,-0.26997 -4.48359,-0.52746 -4.82992,-0.57222 l -0.62972,-0.0814 v 4.36636 c 0,2.4015 0.0445,4.41081 0.0988,4.46514 0.0543,0.0544 3.05471,0.0988 6.6675,0.0988 h 6.56873 z m 2.96333,9.27319 v -3.40784 h 1.03717 1.03716 v 3.40784 3.40784 h -1.03716 -1.03717 z m -66.37335,-3.14853 0.005,-1.81504 0.35038,0.42849 c 0.28729,0.35132 1.65666,2.64966 1.83677,3.08281 0.0272,0.0653 -0.45623,0.11877 -1.07421,0.11877 h -1.1236 z m 5.27326,1.36571 c -0.20795,-0.24714 -0.88729,-1.30603 -1.50963,-2.35309 -1.32714,-2.23282 -2.15408,-3.23014 -3.09004,-3.72666 l -0.67892,-0.36016 v -9.44589 -9.44588 h 21.18784 21.18783 v 11.41766 11.41764 l -0.70379,-0.59267 c -1.46277,-1.23183 -2.67955,-1.48151 -4.0039,-0.82156 -0.85061,0.42387 -1.39084,1.08119 -2.38161,2.89772 -0.77983,1.42978 -0.97959,1.61119 -1.35202,1.22777 -0.1518,-0.15627 -0.52616,-0.75086 -0.83191,-1.3213 -0.91501,-1.70714 -1.4745,-2.38415 -2.31742,-2.80419 -0.9669,-0.48184 -1.63279,-0.48184 -2.5997,0 -0.85061,0.42387 -1.39085,1.08119 -2.38162,2.89772 -0.77982,1.42978 -0.97959,1.61119 -1.35202,1.22777 -0.1518,-0.15627 -0.52616,-0.75086 -0.83191,-1.3213 -0.915,-1.70714 -1.4745,-2.38415 -2.31741,-2.80419 -0.96691,-0.48184 -1.6328,-0.48184 -2.59971,0 -0.85061,0.42387 -1.39085,1.08119 -2.38162,2.89772 -0.77982,1.42978 -0.97958,1.61119 -1.35202,1.22777 -0.15179,-0.15627 -0.52615,-0.75086 -0.83191,-1.3213 -0.915,-1.70714 -1.4745,-2.38415 -2.31741,-2.80419 -0.42095,-0.20977 -1.00589,-0.38141 -1.29985,-0.38141 -0.29397,0 -0.8789,0.17164 -1.29985,0.38141 -0.83912,0.41815 -1.38922,1.0813 -2.32614,2.80419 -0.58433,1.07451 -0.93237,1.55574 -1.12514,1.55574 -0.0616,0 -0.28217,-0.2022 -0.49012,-0.44932 z m 3.90775,0.35624 c 0,-0.17942 0.8931,-1.65203 1.11219,-1.83386 0.17281,-0.14343 0.2684,-0.1446 0.43621,-0.005 0.20138,0.16713 1.1186,1.68894 1.1186,1.85593 0,0.042 -0.60008,0.0763 -1.3335,0.0763 -0.73343,0 -1.3335,-0.0418 -1.3335,-0.0931 z m 9.48266,0 c 0,-0.17942 0.89311,-1.65203 1.11219,-1.83386 0.17282,-0.14343 0.26841,-0.1446 0.43622,-0.005 0.20137,0.16713 1.11859,1.68894 1.11859,1.85593 0,0.042 -0.60007,0.0763 -1.3335,0.0763 -0.73342,0 -1.3335,-0.0418 -1.3335,-0.0931 z m 9.48267,0 c 0,-0.17942 0.89311,-1.65203 1.11219,-1.83386 0.17282,-0.14343 0.2684,-0.1446 0.43622,-0.005 0.20137,0.16713 1.11859,1.68894 1.11859,1.85593 0,0.042 -0.60007,0.0763 -1.3335,0.0763 -0.73342,0 -1.3335,-0.0418 -1.3335,-0.0931 z m 9.48266,-0.005 c 0,-0.14412 0.74527,-1.41529 1.00662,-1.71694 0.33946,-0.39181 0.52571,-0.32658 1.43157,0.50132 1.42776,1.30489 1.42335,1.31373 -0.65497,1.31373 -0.98077,0 -1.78322,-0.0442 -1.78322,-0.0981 z"
           id="path24"
           inkscape:label="Truck" /><path
           style="fill:#3e6a94;fill-opacity:1;stroke-width:0.233597"
           d="m 87.984075,150.004 2.664441,0.0565 -0.05651,2.66444 -0.05651,2.66443 -2.664441,-0.0565 -2.66444,-0.0565 0.05651,-2.66444 0.05651,-2.66444 z m -0.301394,14.21032 2.664441,0.0565 -0.05651,2.66444 -0.05651,2.66444 -2.664441,-0.0565 -2.664441,-0.0565 0.05651,-2.66444 0.05651,-2.66444 z m 6.840252,-14.58935 c 4.913531,-1.18683 14.983887,-3.38079 15.075857,-3.28449 0.10805,0.11308 1.65695,3.69252 2.00143,4.62507 0.13073,0.35393 -0.0545,0.42798 -3.33216,1.33232 l -3.47058,0.95756 -0.056,2.63871 -0.056,2.6387 -5.506501,-0.11679 -5.506512,-0.11679 0.09027,-4.25625 0.09027,-4.25626 z m 4.5883,11.98841 5.506497,0.11679 -0.056,2.63871 -0.056,2.6387 3.42687,1.10386 c 3.23636,1.04249 3.41828,1.12434 3.27266,1.47239 -0.3837,0.91711 -2.08301,4.42764 -2.19573,4.53607 -0.096,0.0923 -10.064243,-2.52668 -14.923035,-3.92075 l -0.662389,-0.19005 0.09027,-4.25625 0.09027,-4.25626 z m 3.119307,-27.18988 c 1.00537,-0.43304 1.8899,-0.78511 1.96562,-0.78236 0.15744,0.005 1.31705,2.62608 1.30996,2.96017 -0.004,0.18831 -3.1582,1.4454 -3.60302,1.43597 -0.0854,-0.002 -0.45796,-0.6385 -0.8279,-1.41487 l -0.67262,-1.41159 z m -2.14488,49.02434 c 0.40049,-0.749 0.80799,-1.36012 0.90555,-1.35805 0.45744,0.01 3.52061,1.39161 3.51648,1.58642 -0.008,0.36639 -1.28431,2.90366 -1.45902,2.89995 -0.0894,-0.002 -0.95642,-0.40014 -1.92682,-0.88499 l -1.764342,-0.88154 z m 16.13101,-58.60105 c 5.16888,-2.44921 9.44129,-4.4079 9.49426,-4.35263 0.0993,0.1036 3.76379,25.08874 3.7584,25.62524 -0.003,0.22254 -0.38869,0.40894 -1.49416,0.72066 -0.82014,0.23127 -1.65643,0.43828 -1.85845,0.46003 -0.26804,0.0288 -2.72954,-2.21956 -9.10893,-8.32046 -4.80788,-4.59802 -9.0673,-8.65696 -9.46535,-9.01988 l -0.72373,-0.65987 z m -0.82226,57.54849 c 7.14511,-6.26549 9.89334,-8.57396 10.15945,-8.53378 0.20064,0.0303 1.02719,0.27258 1.83678,0.53841 1.09126,0.35832 1.46946,0.56093 1.46226,0.78337 -0.0174,0.53624 -4.73796,25.34357 -4.84153,25.44285 -0.0858,0.0822 -18.42108,-9.47471 -18.41408,-9.59795 0.001,-0.0242 4.41008,-3.90902 9.79712,-8.6329 z m -7.31987,-26.6903 c 0.0758,-0.043 3.67731,-1.05463 8.00319,-2.24809 4.32587,-1.19345 8.0813,-2.23642 8.34541,-2.31772 0.45108,-0.13885 0.7844,0.14289 5.49924,4.64833 2.76049,2.63788 5.01725,4.88173 5.01504,4.98635 -0.002,0.10459 -2.34873,2.24781 -5.21446,4.76266 l -5.21042,4.57244 -1.71663,-0.55266 c -0.94415,-0.30396 -4.69505,-1.51623 -8.33532,-2.69392 l -6.61867,-2.14125 0.0474,-4.46898 c 0.026,-2.45794 0.10943,-4.50416 0.18526,-4.54716 z m 7.28614,-13.84738 c 3.64795,3.49169 6.64487,6.40971 6.65984,6.48447 0.0233,0.11641 -5.33984,1.69955 -6.69518,1.97635 -0.45922,0.0938 -0.50737,-0.005 -3.53504,-7.22026 -1.68821,-4.02345 -3.06785,-7.37694 -3.06586,-7.45223 0.002,-0.0753 2.9883,2.71996 6.63624,6.21167 z m -4.31371,35.58087 c 1.8276,-3.85852 3.36227,-7.05321 3.41039,-7.09931 0.0962,-0.0922 6.82976,2.02707 7.02714,2.21166 0.0675,0.0631 -3.01089,2.86818 -6.84074,6.23356 -3.82983,3.36538 -6.95352,6.01779 -6.94152,5.89423 0.0116,-0.12357 1.51713,-3.38163 3.34473,-7.24014 z m 17.8569,-27.54201 c 1.45358,-0.46134 4.64471,-1.25341 4.72257,-1.17217 0.10697,0.11161 1.33371,6.78803 1.32477,7.20966 -0.003,0.13569 -1.4158,-1.11487 -3.13982,-2.77903 -1.72403,-1.66417 -3.13382,-3.06216 -3.13288,-3.10662 9.4e-4,-0.0445 0.10232,-0.1128 0.22536,-0.15184 z m 2.57564,18.36725 c 2.6535,-2.35238 3.26874,-2.82241 3.25602,-2.4874 -0.0207,0.55328 -1.47594,6.84374 -1.61336,6.97546 -0.11424,0.10948 -4.52915,-1.241 -4.77237,-1.45983 -0.078,-0.0702 1.33027,-1.43297 3.12971,-3.02823 z m 0.42782,-46.78518 c 1.35538,-0.58312 2.51764,-1.05826 2.58278,-1.05591 0.16161,0.005 1.68792,4.96482 1.60211,5.20517 -0.0683,0.1911 -5.36354,2.18061 -5.7804,2.17177 -0.14315,-0.003 -0.33516,-0.82249 -0.55447,-2.36641 -0.18452,-1.29896 -0.33073,-2.48161 -0.32491,-2.6281 0.007,-0.16808 0.91969,-0.65744 2.47489,-1.32652 z m -3.61635,74.11861 c 0.2619,-1.349 0.48137,-2.07786 0.62481,-2.07482 0.4183,0.009 5.62495,2.22054 5.6852,2.41495 0.0754,0.24372 -1.65963,5.13351 -1.82137,5.13269 -0.0652,-4.6e-4 -1.2043,-0.52431 -2.53136,-1.16437 -2.80321,-1.35207 -2.61266,-0.93263 -1.95728,-4.30845 z m 6.64335,-55.17338 2.86643,-0.63679 10.7942,5.68548 10.7942,5.68546 3.11441,4.33364 3.11443,4.33364 -4.97644,-0.10555 -4.97644,-0.10554 0.0734,-3.46274 0.0734,-3.46272 -2.80724,-1.48096 -2.80727,-1.48096 -3.50593,5.61157 -3.50594,5.61156 3.01926,5.35035 c 1.6606,2.94269 3.12931,5.53228 3.26379,5.75463 l 0.24452,0.40428 2.86861,-1.36113 2.86862,-1.36111 0.0734,-3.46272 0.0734,-3.46272 4.97645,0.10554 4.97644,0.10555 -3.29538,4.19768 -3.29536,4.1977 -11.02555,5.22268 -11.02556,5.22269 -2.83685,-0.75776 c -1.56027,-0.41676 -2.83437,-0.84116 -2.83134,-0.94313 0.0122,-0.43259 0.75078,-4.00612 0.84611,-4.0975 0.0574,-0.055 0.83481,0.13173 1.72747,0.41507 1.03733,0.32928 1.66458,0.4508 1.73823,0.33678 0.0634,-0.0982 0.89778,-3.71108 1.85422,-8.0288 l 1.73899,-7.85039 -1.44089,-8.08988 c -0.79249,-4.44942 -1.47637,-8.12687 -1.51973,-8.17211 -0.0434,-0.0453 -0.81422,0.1173 -1.71305,0.36116 -0.89883,0.24389 -1.67927,0.39641 -1.73434,0.33897 -0.0914,-0.0954 -0.67711,-3.69696 -0.67161,-4.12969 0.001,-0.10202 1.29224,-0.47201 2.86878,-0.82223 z"
           id="path25"
           inkscape:label="Ship" /></g></g><rect
       style="display:inline;fill:#e36600;fill-opacity:1;stroke:#000000;stroke-width:0;stroke-linejoin:bevel;stroke-miterlimit:3.3;stroke-dashoffset:370.663"
       id="rect2"
       width="101.59982"
       height="18.07555"
       x="54.045109"
       y="72.266876"
       inkscape:label="Card Title Backing" /><text
       xml:space="preserve"
       style="font-style:normal;font-variant:normal;font-weight:bold;font-stretch:normal;font-size:9.87778px;line-height:0.8;font-family:Arial;-inkscape-font-specification:'Arial, Bold';font-variant-ligatures:normal;font-variant-position:normal;font-variant-caps:normal;font-variant-numeric:normal;font-variant-alternates:normal;font-variant-east-asian:normal;text-indent:0;text-align:center;text-decoration-line:none;text-decoration-style:solid;text-decoration-color:#000000;letter-spacing:normal;word-spacing:normal;text-transform:none;writing-mode:lr-tb;direction:ltr;text-orientation:mixed;dominant-baseline:auto;baseline-shift:baseline;text-anchor:middle;white-space:pre;inline-size:76.0664;display:inline;vector-effect:none;fill:#ffffff;fill-opacity:1;stroke:#000000;stroke-width:0;stroke-linecap:butt;stroke-linejoin:bevel;stroke-miterlimit:3.3;stroke-dasharray:none;stroke-dashoffset:370.663;stroke-opacity:1;-inkscape-stroke:none;stop-color:#000000"
       x="104.94299"
       y="83.013756"
       id="text7-0-9-5"
       inkscape:label="Card Title"
       transform="translate(0.05841379,1.8238417)"><tspan
         x="104.94299"
         y="83.013756"
         id="tspan17">VEHICLE</tspan></text><g
       id="g1"
       inkscape:label="Title Icons"
       style="fill:#ffffff;fill-opacity:1"><g
         id="g3"
         inkscape:label="Tactical advantage"
         style="display:inline;fill:#ffffff;fill-opacity:1"><path
           fill="currentColor"
           d="m 144.30684,75.267418 -1.79472,1.794721 v 1.196482 h 0.59824 l 2.39296,-2.392962 v -0.598241 z m 7.21408,0 v 0.598241 l 2.39296,2.392962 h 0.59824 v -1.196482 l -1.79472,-1.794721 z m -3.0088,1.794721 q -0.86217,0 -1.478,0.615836 -0.61584,0.615836 -0.61584,1.495601 0,0.862171 0.61584,1.478006 0.61583,0.615835 1.478,0.615835 0.86217,0 1.47801,-0.615835 0.61583,-0.615835 0.61583,-1.478006 0,-0.879765 -0.61583,-1.495601 -0.61584,-0.615836 -1.47801,-0.615836 z m -2.70968,4.504398 v 0.651027 q -0.19354,0.123167 -0.41349,0.255133 l -0.48387,0.290322 q -0.0528,0.211144 -0.0968,0.3783 -0.044,0.167156 -0.0968,0.343108 l 3.80059,1.98827 3.80059,-1.98827 q -0.0528,-0.175952 -0.0968,-0.343108 -0.044,-0.167156 -0.0968,-0.3783 l -0.48387,-0.290322 q 0,0 -0.41349,-0.255133 v -0.651027 h -0.70381 q -0.28153,0.316716 -0.64223,0.52786 -0.36071,0.211143 -0.7654,0.29912 v 1.284459 l -0.59824,0.59824 -0.59824,-0.59824 v -1.284459 q -0.40469,-0.08798 -0.76539,-0.29912 -0.36071,-0.211144 -0.64223,-0.52786 z m -3.29032,2.709679 v 1.196481 l 1.79472,1.794721 h 1.19648 v -0.598241 l -2.39296,-2.392961 z m 11.40176,0 -2.39296,2.392961 v 0.598241 h 1.19648 l 1.79472,-1.794721 v -1.196481 z"
           id="path1-3-1"
           style="fill:#ffffff;fill-opacity:1;stroke-width:0.0175954"
           inkscape:label="Right Tactical advantages" /><path
           fill="currentColor"
           d="m 56.898162,75.267419 -1.794721,1.794721 v 1.196482 h 0.59824 l 2.392963,-2.392962 v -0.598241 z m 7.214076,0 v 0.598241 l 2.392961,2.392962 H 67.10344 V 77.06214 L 65.308718,75.267419 Z M 61.10344,77.06214 q -0.862169,0 -1.478005,0.615836 -0.615836,0.615836 -0.615836,1.495601 0,0.862171 0.615836,1.478006 0.615836,0.615835 1.478005,0.615835 0.86217,0 1.478006,-0.615835 0.615836,-0.615835 0.615836,-1.478006 0,-0.879765 -0.615836,-1.495601 Q 61.96561,77.06214 61.10344,77.06214 Z m -2.709677,4.504398 v 0.651027 q -0.193548,0.123167 -0.413489,0.255133 l -0.483871,0.290322 q -0.05279,0.211144 -0.09678,0.3783 -0.04399,0.167156 -0.09677,0.343108 l 3.800586,1.98827 3.800586,-1.98827 q -0.05279,-0.175952 -0.09677,-0.343108 -0.04399,-0.167156 -0.09678,-0.3783 l -0.483868,-0.290322 q 0,0 -0.413489,-0.255133 v -0.651027 h -0.703813 q -0.281525,0.316716 -0.642229,0.52786 -0.360703,0.211143 -0.765395,0.29912 v 1.284459 l -0.598241,0.59824 -0.598241,-0.59824 v -1.284459 q -0.40469,-0.08798 -0.765394,-0.29912 -0.360704,-0.211144 -0.64223,-0.52786 z m -3.290322,2.709679 v 1.196481 l 1.794721,1.794721 h 1.196482 v -0.598241 l -2.392963,-2.392961 z m 11.401758,0 -2.392961,2.392961 v 0.598241 h 1.19648 l 1.794722,-1.794721 v -1.196481 z"
           id="path1-3"
           style="fill:#ffffff;fill-opacity:1;stroke-width:0.0175954"
           inkscape:label="Left Tactical advantages" /></g></g></g></svg>
