<?xml version="1.0" encoding="UTF-8" standalone="no"?>
<!-- Created with Inkscape (http://www.inkscape.org/) -->

<svg
   width="101.60198mm"
   height="152.43002mm"
   viewBox="0 0 101.60198 152.43001"
   version="1.1"
   id="svg1"
   xml:space="preserve"
   inkscape:version="1.3.1 (91b66b0783, 2023-11-16)"
   sodipodi:docname="SelectiveDetonation.svg"
   inkscape:export-filename="SSC\InterventionBack.svg"
   inkscape:export-xdpi="96"
   inkscape:export-ydpi="96"
   xmlns:inkscape="http://www.inkscape.org/namespaces/inkscape"
   xmlns:sodipodi="http://sodipodi.sourceforge.net/DTD/sodipodi-0.dtd"
   xmlns="http://www.w3.org/2000/svg"
   xmlns:svg="http://www.w3.org/2000/svg"><sodipodi:namedview
     id="namedview1"
     pagecolor="#ffffff"
     bordercolor="#000000"
     borderopacity="0.25"
     inkscape:showpageshadow="2"
     inkscape:pageopacity="0.0"
     inkscape:pagecheckerboard="true"
     inkscape:deskcolor="#d1d1d1"
     inkscape:document-units="mm"
     inkscape:zoom="1"
     inkscape:cx="180.5"
     inkscape:cy="300.5"
     inkscape:window-width="1920"
     inkscape:window-height="1009"
     inkscape:window-x="3832"
     inkscape:window-y="-8"
     inkscape:window-maximized="1"
     inkscape:current-layer="layer1"
     inkscape:clip-to-page="true"
     showgrid="false" /><defs
     id="defs1"><rect
       x="21"
       y="490"
       width="341.37869"
       height="135.94322"
       id="rect10" /><rect
       x="35.355339"
       y="130.10765"
       width="361.7666"
       height="517.56348"
       id="rect13-8" /><rect
       x="21"
       y="490"
       width="344.52515"
       height="65.737793"
       id="rect10-0" /><rect
       x="21"
       y="490"
       width="344.37869"
       height="347.94321"
       id="rect10-9" /><rect
       x="35.355339"
       y="130.10765"
       width="361.7666"
       height="517.56348"
       id="rect13-8-6" /><rect
       x="21"
       y="490"
       width="344.37869"
       height="347.94321"
       id="rect10-0-2" /></defs><g
     inkscape:label="Layer 1"
     inkscape:groupmode="layer"
     id="layer1"
     transform="translate(-54.045109,-72.266876)"><path
       id="rect3-8"
       style="fill:#ffffff;fill-opacity:1;stroke:#991e2a;stroke-width:0.6;stroke-linecap:round;stroke-linejoin:bevel;stroke-miterlimit:3.3;stroke-dasharray:none;stroke-dashoffset:370.663;stroke-opacity:1"
       d="m 56.704283,93.750003 -0.239262,0.23306 v 51.626307 l 12.69845,12.69792 h 83.801609 l 0.25322,-0.25321 V 106.4562 L 140.51262,93.750003 Z"
       inkscape:label="Window Background" /><path
       id="rect1"
       style="fill:#cccccc;fill-opacity:1;stroke:none;stroke-width:0.5;stroke-linecap:butt;stroke-linejoin:bevel;stroke-miterlimit:3.3;stroke-dasharray:none;stroke-dashoffset:370.663;stroke-opacity:1"
       d="M 54.045539,72.300003 V 224.6969 H 155.64709 V 72.300003 Z m 2.669604,21.440954 h 83.808317 l 12.70569,12.706203 V 158.045 l -0.25322,0.25321 H 69.174331 L 56.475881,145.60028 V 93.974018 Z"
       sodipodi:nodetypes="cccccccccccccc"
       inkscape:label="Card Background"
       inkscape:export-filename="Acrobatics1Back.png"
       inkscape:export-xdpi="96"
       inkscape:export-ydpi="96" /><text
       xml:space="preserve"
       id="text10"
       style="font-style:normal;font-variant:normal;font-weight:normal;font-stretch:normal;font-size:13.3333px;font-family:Arial;-inkscape-font-specification:'Arial, Normal';font-variant-ligatures:normal;font-variant-caps:normal;font-variant-numeric:normal;font-variant-east-asian:normal;white-space:pre;shape-inside:url(#rect10);display:inline;fill:#262626;fill-opacity:1;stroke:#000000;stroke-width:0;stroke-linejoin:bevel;stroke-miterlimit:3.3;stroke-dashoffset:370.663"
       inkscape:label="BODY Effect"
       transform="matrix(0.26458333,0,0,0.26458333,54.045021,61.817532)"><tspan
         x="21"
         y="502.01003"
         id="tspan14">The mine detonates and affected characters must pass </tspan><tspan
         x="21"
         y="518.67665"
         id="tspan17">an <tspan
   style="font-weight:bold"
   id="tspan15">AGILITY</tspan> save or take <tspan
   style="font-weight:bold"
   id="tspan16">2d6    damage</tspan>. On a success, </tspan><tspan
         x="21"
         y="535.34328"
         id="tspan19">they take <tspan
   style="font-weight:bold"
   id="tspan18">half damage</tspan>. </tspan></text><text
       xml:space="preserve"
       id="text10-0"
       style="font-style:normal;font-variant:normal;font-weight:normal;font-stretch:normal;font-size:13.3333px;font-family:Arial;-inkscape-font-specification:'Arial, Normal';font-variant-ligatures:normal;font-variant-caps:normal;font-variant-numeric:normal;font-variant-east-asian:normal;white-space:pre;shape-inside:url(#rect10-0);display:inline;fill:#262626;fill-opacity:1;stroke:#000000;stroke-width:0;stroke-linejoin:bevel;stroke-miterlimit:3.3;stroke-dashoffset:370.663"
       inkscape:label="BODY Trigger"
       transform="matrix(0.26458333,0,0,0.26458333,53.927888,43.733341)"><tspan
         x="21"
         y="502.01003"
         id="tspan20">A character enters the lurker mine’s space or an adjacent </tspan><tspan
         x="21"
         y="518.67665"
         id="tspan21">space, or begins their turn there.</tspan></text><g
       id="g6"
       inkscape:label="Sub Titles"
       transform="translate(0,3.1750001)"><rect
         style="fill:#424242;fill-opacity:1;stroke:#000000;stroke-width:0;stroke-linejoin:bevel;stroke-miterlimit:3.3;stroke-dashoffset:370.663"
         id="rect11-6"
         width="92.336441"
         height="5.8416877"
         x="58.551205"
         y="180.33759"
         inkscape:label="Effect Title Backing" /><rect
         style="fill:#424242;fill-opacity:1;stroke:#000000;stroke-width:0;stroke-linejoin:bevel;stroke-miterlimit:3.3;stroke-dashoffset:370.663"
         id="rect11"
         width="92.336441"
         height="5.8416877"
         x="58.551205"
         y="162.68782"
         inkscape:label="Trigger Title Backing" /><text
         xml:space="preserve"
         style="font-style:normal;font-variant:normal;font-weight:bold;font-stretch:normal;font-size:4.23333px;font-family:Arial;-inkscape-font-specification:'Arial, Bold';font-variant-ligatures:normal;font-variant-caps:normal;font-variant-numeric:normal;font-variant-east-asian:normal;fill:#ffffff;fill-opacity:1;stroke:#000000;stroke-width:0;stroke-linejoin:bevel;stroke-miterlimit:3.3;stroke-dashoffset:370.663"
         x="59.254349"
         y="185.1657"
         id="text7-7"
         inkscape:label="TITLE Effect"><tspan
           sodipodi:role="line"
           id="tspan7-8"
           style="font-style:normal;font-variant:normal;font-weight:bold;font-stretch:normal;font-size:4.93889px;font-family:Arial;-inkscape-font-specification:'Arial, Bold';font-variant-ligatures:normal;font-variant-caps:normal;font-variant-numeric:normal;font-variant-east-asian:normal;stroke-width:0"
           x="59.254349"
           y="185.1657">EFFECT</tspan></text><text
         xml:space="preserve"
         style="font-style:normal;font-variant:normal;font-weight:bold;font-stretch:normal;font-size:4.23333px;font-family:Arial;-inkscape-font-specification:'Arial, Bold';font-variant-ligatures:normal;font-variant-caps:normal;font-variant-numeric:normal;font-variant-east-asian:normal;fill:#ffffff;fill-opacity:1;stroke:#000000;stroke-width:0;stroke-linejoin:bevel;stroke-miterlimit:3.3;stroke-dashoffset:370.663"
         x="59.507565"
         y="167.45377"
         id="text7"
         inkscape:label="TITLE Trigger"><tspan
           sodipodi:role="line"
           id="tspan7"
           style="font-style:normal;font-variant:normal;font-weight:bold;font-stretch:normal;font-size:4.93889px;font-family:Arial;-inkscape-font-specification:'Arial, Bold';font-variant-ligatures:normal;font-variant-caps:normal;font-variant-numeric:normal;font-variant-east-asian:normal;stroke-width:0"
           x="59.507565"
           y="167.45377">TRIGGER</tspan></text></g><g
       id="g5"
       inkscape:label="Card Icons"
       transform="translate(63.984324,10.851143)"
       style="fill:#3e6a94;fill-opacity:1"><path
         fill="currentColor"
         d="m 45.945741,90.401622 -4.561584,4.56158 -3.813782,-3.81378 -3.589444,3.58945 3.813783,3.81378 -5.309383,5.309388 -3.888563,-3.81379 -3.589443,3.58945 3.813782,3.88857 -5.309383,5.30938 -3.813783,-3.81379 -3.589444,3.58944 3.813784,3.81379 -4.561584,4.56158 v 2.54252 l 17.872434,17.87244 h 2.542522 l 4.561584,-4.56158 3.813782,3.81378 3.589444,-3.58944 -3.813783,-3.81379 5.384164,-5.30939 3.813782,3.81379 3.589444,-3.58944 -3.813783,-3.88856 5.309383,-5.30939 3.813783,3.81379 3.589446,-3.58944 -3.813785,-3.81379 4.561582,-4.56158 v -2.54253 L 48.488263,90.401622 Z m 0,12.712618 7.702345,7.70235 -17.872433,17.87242 -7.702346,-7.70234 z"
         id="path1-56-4"
         style="display:inline;fill:#283593;fill-opacity:1;stroke:none;stroke-width:2;stroke-linecap:round;stroke-dasharray:none;stroke-opacity:1"
         inkscape:label="System Logo" /><g
         id="g8"
         inkscape:label="Manufacturer Logos"
         transform="translate(-44.714582,70.114581)"
         style="display:inline;fill:#eadbcb;fill-opacity:1;stroke-width:0.6;stroke-dasharray:none"><path
           id="path3-7"
           style="fill:#ffffff;fill-opacity:1;stroke:#991e2a;stroke-width:0.59053;stroke-dasharray:none;stroke-opacity:1"
           d="m 41.045862,16.535161 c -0.05407,0.0024 -0.107356,0.02956 -0.140044,0.08733 l -2.383317,4.215247 c -0.03015,0.05336 -0.02933,0.119087 0.0016,0.172082 l 2.3828,4.069002 c 0.08881,0.151493 0.320911,0.0888 0.320911,-0.08682 v -8.284766 c 1.1e-4,-0.110673 -0.09179,-0.176033 -0.181901,-0.172082 z m 0.756026,-1.588534 c -0.13194,0 -0.214735,0.14207 -0.149862,0.256832 l 3.177067,5.619295 c 0.03015,0.05336 0.02985,0.118571 -10e-4,0.171566 l -3.281454,5.602759 c -0.06725,0.114762 0.01579,0.258899 0.148828,0.258899 h 6.872449 c 0.06104,0 0.117245,-0.03212 0.148311,-0.08475 l 3.379638,-5.732983 c 0.03125,-0.05281 0.03204,-0.118022 0.0021,-0.171566 l -3.276286,-5.832202 c -0.03052,-0.05427 -0.08806,-0.08785 -0.150378,-0.08785 z"
           inkscape:label="GMS Logo" /></g><text
         xml:space="preserve"
         style="font-weight:bold;font-size:14.1111px;line-height:1.5;font-family:Arial;-inkscape-font-specification:'Arial, Bold';text-align:center;text-anchor:middle;display:inline;fill:#000000;fill-opacity:0;stroke:#991e2a;stroke-width:0.612;stroke-linecap:round;stroke-linejoin:bevel;stroke-miterlimit:3.3;stroke-dasharray:none;stroke-dashoffset:370.663;stroke-opacity:1"
         x="78.954506"
         y="146.19843"
         id="text1"
         inkscape:label="Expansion ID"><tspan
           sodipodi:role="line"
           id="tspan1"
           style="font-style:normal;font-variant:normal;font-weight:bold;font-stretch:normal;font-size:8.46667px;font-family:Arial;-inkscape-font-specification:'Arial, Bold';font-variant-ligatures:normal;font-variant-caps:normal;font-variant-numeric:normal;font-variant-east-asian:normal;stroke:#991e2a;stroke-width:0.612;stroke-opacity:1"
           x="78.954506"
           y="146.19843">OSR</tspan></text><g
         id="g7"
         transform="translate(0.66145833,-0.26458231)"
         inkscape:label="Text Icons"
         style="display:inline;fill:#ffffff;fill-opacity:1"><path
           fill="currentColor"
           d="m 43.014056,185.70143 -0.219707,0.98668 -0.599201,-0.30359 0.303595,0.5992 -0.986684,0.21971 0.986684,0.2197 -0.303595,0.59921 0.599201,-0.3036 0.219707,0.98269 0.219707,-0.98269 0.599201,0.3036 -0.303595,-0.59921 0.98269,-0.2197 -0.98269,-0.21971 0.303595,-0.5992 -0.599201,0.30359 z"
           id="path1-0"
           style="fill:#262626;fill-opacity:1;stroke-width:0.00399468"
           inkscape:label="Explosive damage icon" /></g></g><rect
       style="display:inline;fill:#991e2a;fill-opacity:1;stroke:#000000;stroke-width:0;stroke-linejoin:bevel;stroke-miterlimit:3.3;stroke-dashoffset:370.663"
       id="rect2"
       width="101.59982"
       height="18.07555"
       x="54.045109"
       y="72.266876"
       inkscape:label="Card Title Backing" /><text
       xml:space="preserve"
       style="font-style:normal;font-variant:normal;font-weight:bold;font-stretch:normal;font-size:10.2306px;line-height:0.8;font-family:Arial;-inkscape-font-specification:'Arial, Bold';font-variant-ligatures:normal;font-variant-position:normal;font-variant-caps:normal;font-variant-numeric:normal;font-variant-alternates:normal;font-variant-east-asian:normal;text-indent:0;text-align:center;text-decoration-line:none;text-decoration-style:solid;text-decoration-color:#000000;letter-spacing:normal;word-spacing:normal;text-transform:none;writing-mode:lr-tb;direction:ltr;text-orientation:mixed;dominant-baseline:auto;baseline-shift:baseline;text-anchor:middle;white-space:pre;inline-size:77.1889;display:inline;vector-effect:none;fill:#ffffff;fill-opacity:1;stroke:#000000;stroke-width:0;stroke-linecap:butt;stroke-linejoin:bevel;stroke-miterlimit:3.3;stroke-dasharray:none;stroke-dashoffset:370.663;stroke-opacity:1;-inkscape-stroke:none;stop-color:#000000"
       x="104.94299"
       y="83.013756"
       id="text7-0-9-5"
       inkscape:label="Card Title"
       transform="translate(-0.05740024,-2.139707)"><tspan
         x="104.94299"
         y="83.013756"
         id="tspan22">SELECTIVE<tspan
   y="83.013756"
   id="tspan23"> </tspan></tspan><tspan
         x="104.94299"
         y="91.198232"
         id="tspan24">DETONATION</tspan></text><g
       id="g1"
       inkscape:label="Activation Icons"
       style="display:inline;fill:#ffffff;fill-opacity:1"><g
         id="g4"
         inkscape:label="Activate"
         style="display:inline;fill:#ffffff;fill-opacity:1"><path
           fill="currentColor"
           d="m 148.41047,75.045442 -6.25921,6.259209 0.40123,0.385182 5.85798,5.874027 6.25921,-6.259209 z m 0,1.556778 4.70243,4.702431 -4.70243,4.702431 -4.70243,-4.702431 z m -1.09135,2.198747 q -0.72221,0.320986 -1.18764,0.995055 -0.46543,0.674068 -0.46543,1.508629 0,1.123449 0.81049,1.933935 0.81049,0.810488 1.93393,0.810488 1.12345,0 1.93394,-0.810488 0.81049,-0.810486 0.81049,-1.933935 0,-0.834561 -0.46543,-1.508629 -0.46543,-0.674069 -1.18765,-0.995055 v 1.283941 q 0.25679,0.22469 0.40123,0.537651 0.14445,0.312959 0.14445,0.682092 0,0.690118 -0.47346,1.163572 -0.47345,0.473453 -1.16357,0.473453 -0.69011,0 -1.16357,-0.473453 -0.47345,-0.473454 -0.47345,-1.163572 0,-0.369133 0.14444,-0.682092 0.14445,-0.312961 0.40123,-0.537651 z m 0.54568,-0.786412 v 3.290096 h 1.09135 v -3.290096 z"
           id="path1-3-9"
           style="display:inline;fill:#ffffff;fill-opacity:1;stroke-width:0.0160494"
           inkscape:label="Activate Right" /><path
           fill="currentColor"
           d="m 61.304229,75.046003 -6.259208,6.259209 0.401231,0.385182 5.857977,5.874027 6.25921,-6.259209 z m 0,1.556778 4.702432,4.702431 -4.702432,4.702431 -4.70243,-4.702431 z m -1.091348,2.198747 q -0.722216,0.320986 -1.187645,0.995055 -0.465428,0.674068 -0.465428,1.508629 0,1.123449 0.810487,1.933935 0.810488,0.810488 1.933934,0.810488 1.123448,0 1.933936,-0.810488 0.810488,-0.810486 0.810488,-1.933935 0,-0.834561 -0.465429,-1.508629 -0.465429,-0.674069 -1.187645,-0.995055 v 1.283941 q 0.256789,0.22469 0.401232,0.537651 0.144442,0.312959 0.144442,0.682092 0,0.690118 -0.473452,1.163572 -0.473454,0.473453 -1.163572,0.473453 -0.690116,0 -1.16357,-0.473453 -0.473452,-0.473454 -0.473452,-1.163572 0,-0.369133 0.144443,-0.682092 0.144443,-0.312961 0.401231,-0.537651 z m 0.545674,-0.786412 v 3.290096 h 1.09135 v -3.290096 z"
           id="path1-3"
           style="display:inline;fill:#ffffff;fill-opacity:1;stroke-width:0.0160494"
           inkscape:label="Activate Left" /></g></g></g></svg>
