<?xml version="1.0" encoding="UTF-8" standalone="no"?>
<!-- Created with Inkscape (http://www.inkscape.org/) -->

<svg
   width="101.6mm"
   height="152.40001mm"
   viewBox="0 0 101.6 152.40001"
   version="1.1"
   id="svg1"
   xml:space="preserve"
   sodipodi:docname="TurretAttack.svg"
   inkscape:export-filename="TurretAttackBack.svg"
   inkscape:export-xdpi="96"
   inkscape:export-ydpi="96"
   inkscape:version="1.3.1 (91b66b0783, 2023-11-16)"
   xmlns:inkscape="http://www.inkscape.org/namespaces/inkscape"
   xmlns:sodipodi="http://sodipodi.sourceforge.net/DTD/sodipodi-0.dtd"
   xmlns="http://www.w3.org/2000/svg"
   xmlns:svg="http://www.w3.org/2000/svg"><sodipodi:namedview
     id="namedview1"
     pagecolor="#ffffff"
     bordercolor="#000000"
     borderopacity="0.25"
     inkscape:showpageshadow="2"
     inkscape:pageopacity="0.0"
     inkscape:pagecheckerboard="0"
     inkscape:deskcolor="#d1d1d1"
     inkscape:document-units="mm"
     inkscape:zoom="0.7213541"
     inkscape:cx="55.451269"
     inkscape:cy="293.19858"
     inkscape:window-width="1920"
     inkscape:window-height="1009"
     inkscape:window-x="-8"
     inkscape:window-y="-8"
     inkscape:window-maximized="1"
     inkscape:current-layer="layer1" /><defs
     id="defs1"><rect
       x="21"
       y="490"
       width="344.37869"
       height="347.94321"
       id="rect10" /><rect
       x="8"
       y="376"
       width="370.94974"
       height="185.12132"
       id="rect5" /><rect
       x="35.355339"
       y="130.10765"
       width="361.7666"
       height="517.56348"
       id="rect13-8" /></defs><g
     id="layer1"
     transform="translate(-54.045021,-72.300003)"><path
       id="rect3-8"
       style="fill:#ffffff;fill-opacity:1;stroke:#991e2a;stroke-width:0.6;stroke-linecap:round;stroke-linejoin:bevel;stroke-miterlimit:3.3;stroke-dasharray:none;stroke-dashoffset:370.663;stroke-opacity:1"
       d="m 56.704283,93.750003 -0.239262,0.23306 v 51.626307 l 12.69845,12.69792 h 83.801609 l 0.25322,-0.25321 V 106.4562 L 140.51261,93.750003 Z"
       inkscape:label="Window Background" /><path
       id="rect1"
       style="fill:#cccccc;fill-opacity:1;stroke:#000000;stroke-width:0;stroke-linejoin:bevel;stroke-miterlimit:3.3;stroke-dashoffset:370.663"
       d="M 54.045539,72.300003 V 224.6969 H 155.64709 V 72.300003 Z m 2.669604,21.440954 h 83.808317 l 12.70569,12.706203 V 158.045 l -0.25322,0.25321 H 69.174331 L 56.475881,145.60028 V 93.974018 Z" /><text
       xml:space="preserve"
       id="text10"
       style="font-style:normal;font-variant:normal;font-weight:normal;font-stretch:normal;font-size:13.3333px;font-family:Arial;-inkscape-font-specification:'Arial, Normal';font-variant-ligatures:normal;font-variant-caps:normal;font-variant-numeric:normal;font-variant-east-asian:normal;white-space:pre;shape-inside:url(#rect10);display:inline;fill:#262626;fill-opacity:1;stroke:#000000;stroke-width:0;stroke-linejoin:bevel;stroke-miterlimit:3.3;stroke-dashoffset:370.663"
       transform="matrix(0.26458333,0,0,0.26458333,54.045021,67.109202)"><tspan
         x="21"
         y="502.01003"
         id="tspan1">The turret drone deals 3    to their target, as long as it has </tspan><tspan
         x="21"
         y="518.67665"
         id="tspan2">line of sight to their target.</tspan></text><text
       xml:space="preserve"
       transform="matrix(0.25232334,0,0,0.26458333,56.29158,73.231548)"
       id="text4"
       style="font-style:normal;font-variant:normal;font-weight:normal;font-stretch:normal;font-size:13.6534px;font-family:Arial;-inkscape-font-specification:'Arial, Normal';font-variant-ligatures:normal;font-variant-caps:normal;font-variant-numeric:normal;font-variant-east-asian:normal;white-space:pre;shape-inside:url(#rect5);shape-padding:5.19025;display:inline;fill:#262626;fill-opacity:1;stroke:#000000;stroke-width:0;stroke-linejoin:bevel;stroke-miterlimit:3.3;stroke-dashoffset:370.663"><tspan
         x="13.189453"
         y="393.48781"
         id="tspan4">An allied character within    <tspan
   style="font-weight:bold"
   id="tspan3">10</tspan> of a turret drone makes a </tspan><tspan
         x="13.189453"
         y="410.55456"
         id="tspan5">successful attack.</tspan></text><g
       id="g6"
       transform="translate(0,3.1750001)"><rect
         style="fill:#424242;fill-opacity:1;stroke:#000000;stroke-width:0;stroke-linejoin:bevel;stroke-miterlimit:3.3;stroke-dashoffset:370.663"
         id="rect11"
         width="92.336441"
         height="5.8416877"
         x="58.551205"
         y="163.21698" /><rect
         style="fill:#424242;fill-opacity:1;stroke:#000000;stroke-width:0;stroke-linejoin:bevel;stroke-miterlimit:3.3;stroke-dashoffset:370.663"
         id="rect11-6"
         width="92.336441"
         height="5.8416877"
         x="58.551205"
         y="186.15834" /><text
         xml:space="preserve"
         style="font-style:normal;font-variant:normal;font-weight:bold;font-stretch:normal;font-size:4.23333px;font-family:Arial;-inkscape-font-specification:'Arial, Bold';font-variant-ligatures:normal;font-variant-caps:normal;font-variant-numeric:normal;font-variant-east-asian:normal;fill:#ffffff;fill-opacity:1;stroke:#000000;stroke-width:0;stroke-linejoin:bevel;stroke-miterlimit:3.3;stroke-dashoffset:370.663"
         x="59.254349"
         y="190.98645"
         id="text7-7"><tspan
           id="tspan7-8"
           style="font-style:normal;font-variant:normal;font-weight:bold;font-stretch:normal;font-size:4.93889px;font-family:Arial;-inkscape-font-specification:'Arial, Bold';font-variant-ligatures:normal;font-variant-caps:normal;font-variant-numeric:normal;font-variant-east-asian:normal;stroke-width:0"
           x="59.254349"
           y="190.98645">EFFECT</tspan></text><text
         xml:space="preserve"
         style="font-style:normal;font-variant:normal;font-weight:bold;font-stretch:normal;font-size:4.23333px;font-family:Arial;-inkscape-font-specification:'Arial, Bold';font-variant-ligatures:normal;font-variant-caps:normal;font-variant-numeric:normal;font-variant-east-asian:normal;fill:#ffffff;fill-opacity:1;stroke:#000000;stroke-width:0;stroke-linejoin:bevel;stroke-miterlimit:3.3;stroke-dashoffset:370.663"
         x="59.507565"
         y="167.98293"
         id="text7"><tspan
           id="tspan7"
           style="font-style:normal;font-variant:normal;font-weight:bold;font-stretch:normal;font-size:4.93889px;font-family:Arial;-inkscape-font-specification:'Arial, Bold';font-variant-ligatures:normal;font-variant-caps:normal;font-variant-numeric:normal;font-variant-east-asian:normal;stroke-width:0"
           x="59.507565"
           y="167.98293">TRIGGER</tspan></text></g><g
       id="g5"
       transform="translate(63.984324,10.851143)"><path
         fill="currentColor"
         d="m 45.945741,90.401624 -4.561584,4.561583 -3.813782,-3.813782 -3.589444,3.589442 3.813783,3.81379 -5.309383,5.309383 -3.888563,-3.81379 -3.589443,3.58945 3.813782,3.88857 -5.309383,5.30938 -3.813783,-3.81379 -3.589444,3.58944 3.813784,3.81379 -4.561584,4.56158 v 2.54252 l 17.872434,17.87244 h 2.542522 l 4.561584,-4.56158 3.813782,3.81378 3.589444,-3.58944 -3.813783,-3.81379 5.384164,-5.30939 3.813782,3.81379 3.589444,-3.58944 -3.813783,-3.88856 5.309383,-5.30939 3.813783,3.81379 3.589446,-3.58944 -3.813785,-3.81379 4.561582,-4.56158 v -2.54253 L 48.488263,90.401624 Z m 0,12.712616 7.702345,7.70235 -17.872433,17.87242 -7.702346,-7.70234 z"
         id="path1-56"
         style="fill:#283593;fill-opacity:1;stroke-width:0.0747802" /><path
         id="path3"
         style="fill:#ffffff;stroke:#991e2a;stroke-width:32.315;stroke-dasharray:none;stroke-opacity:1"
         d="m 306.65387,301.07516 c -2.95875,0.12973 -5.87469,1.6178 -7.66344,4.77905 L 168.57058,536.52088 c -1.64999,2.91999 -1.60516,6.5167 0.0848,9.4167 l 130.39157,222.66389 c 4.85999,8.28999 17.56087,4.85922 17.56087,-4.75077 V 310.49186 c 0.006,-6.05625 -5.02275,-9.63291 -9.95399,-9.4167 z m 41.37126,-86.92771 c -7.21999,0 -11.75072,7.77436 -8.20073,14.05435 l 173.85542,307.499 c 1.65,2.92 1.63344,6.48843 -0.0565,9.38842 l -179.56766,306.5941 c -3.67999,6.27999 0.86419,14.16747 8.14417,14.16747 h 376.07406 c 3.33999,0 6.41589,-1.75766 8.11589,-4.63766 L 911.33027,547.49289 c 1.71,-2.89 1.75312,-6.45843 0.11312,-9.38842 L 732.15852,218.95477 c -1.67,-2.96999 -4.81902,-4.80732 -8.22901,-4.80732 z"
         transform="matrix(0.01827419,0,0,0.01827419,-9.379706,80.398176)" /><g
         id="g7"
         transform="translate(0.66145833,-0.26458231)"
         style="display:inline"><path
           fill="currentColor"
           d="m 34.369965,166.92909 -0.515038,-0.51504 0.184211,-0.18045 0.511278,0.51128 z m -0.255639,-0.43985 2.30827,-2.30827 0.180452,0.18045 -2.308271,2.30827 z m 1.135338,-1.35338 0.398496,0.39849 -0.180451,0.18045 -0.398496,-0.39849 z m 1.428572,-0.51128 -0.511279,-0.51504 0.180452,-0.18045 0.511278,0.51504 z"
           id="path1-35"
           style="fill:#2f2f2f;fill-opacity:1;stroke-width:0.00375941" /><path
           fill="currentColor"
           d="m 35.502377,188.08895 q 0,0.21114 -0.08578,0.40909 -0.08578,0.19795 -0.22214,0.33431 -0.136364,0.13637 -0.334311,0.22214 -0.197947,0.0858 -0.409091,0.0858 -0.211144,0 -0.409091,-0.0858 -0.197947,-0.0858 -0.334311,-0.22214 -0.136363,-0.13636 -0.222141,-0.33431 -0.08578,-0.19795 -0.08578,-0.40909 0,-0.21114 0.08578,-0.40909 0.08578,-0.19795 0.222141,-0.33431 0.136364,-0.13637 0.334311,-0.22214 0.197947,-0.0858 0.409091,-0.0858 0.211144,0 0.409091,0.0858 0.197947,0.0858 0.334311,0.22214 0.136363,0.13636 0.22214,0.33431 0.08578,0.19795 0.08578,0.40909 z m -0.519062,-0.53226 q -0.109971,-0.10557 -0.239736,-0.16275 -0.129766,-0.0572 -0.292522,-0.0572 -0.162757,0 -0.292522,0.0572 -0.129765,0.0572 -0.239736,0.16275 -0.105572,0.10997 -0.162757,0.23974 -0.05718,0.12976 -0.05718,0.29252 0,0.16276 0.05718,0.29252 0.05719,0.12977 0.162757,0.23974 0.109971,0.10557 0.239736,0.16275 0.129765,0.0572 0.292522,0.0572 0.162756,0 0.292522,-0.0572 0.129765,-0.0572 0.239736,-0.16275 0.105572,-0.10997 0.162756,-0.23974 0.05719,-0.12976 0.05719,-0.29252 0,-0.16276 -0.05719,-0.29252 -0.05718,-0.12977 -0.162756,-0.23974 z m -2.032258,2.03226 q 0.44868,-0.28153 0.870968,-0.61584 0.417888,-0.33431 0.798387,-0.71481 0.380498,-0.38049 0.714809,-0.79838 0.334311,-0.42229 0.615836,-0.87097 -0.44868,0.28153 -0.870968,0.61584 -0.417888,0.33431 -0.798387,0.71481 -0.380498,0.38049 -0.714809,0.79838 -0.334311,0.42229 -0.615836,0.87097 z"
           id="path1-52"
           style="fill:#2f2f2f;fill-opacity:1;stroke-width:0.00439884" /></g></g><rect
       style="display:inline;fill:#991e2a;fill-opacity:1;stroke:#000000;stroke-width:0;stroke-linejoin:bevel;stroke-miterlimit:3.3;stroke-dashoffset:370.663"
       id="rect2"
       width="101.59982"
       height="18.07555"
       x="54.045109"
       y="72.266876" /><text
       xml:space="preserve"
       style="font-style:normal;font-variant:normal;font-weight:bold;font-stretch:normal;font-size:14.1111px;line-height:0.6;font-family:Arial;-inkscape-font-specification:'Arial, Bold';font-variant-ligatures:normal;font-variant-position:normal;font-variant-caps:normal;font-variant-numeric:normal;font-variant-alternates:normal;font-variant-east-asian:normal;text-indent:0;text-align:center;text-decoration-line:none;text-decoration-style:solid;text-decoration-color:#000000;letter-spacing:normal;word-spacing:normal;text-transform:none;writing-mode:lr-tb;direction:ltr;text-orientation:mixed;dominant-baseline:auto;baseline-shift:baseline;text-anchor:middle;white-space:pre;inline-size:80.2014;vector-effect:none;fill:#ffffff;fill-opacity:1;stroke:#000000;stroke-width:0;stroke-linecap:butt;stroke-linejoin:bevel;stroke-miterlimit:3.3;stroke-dasharray:none;stroke-dashoffset:370.663;stroke-opacity:1;-inkscape-stroke:none;stop-color:#000000"
       x="104.94299"
       y="83.013756"
       id="text7-0-9-5"
       transform="translate(-0.30131139,-1.902023)"><tspan
         x="104.94299"
         y="83.013756"
         id="tspan8"><tspan
   style="font-size:11.2889px"
   id="tspan6">TURRET</tspan><tspan
   y="83.013756"
   id="tspan9"> </tspan></tspan><tspan
         x="104.94299"
         y="91.480417"
         id="tspan11"><tspan
           style="font-size:11.2889px"
           id="tspan10">ATTACK</tspan></tspan></text><g
       id="g1"
       style="display:inline"><g
         id="g4"
         style="display:inline"><path
           fill="currentColor"
           d="m 148.41047,75.045442 -6.25921,6.259209 0.40123,0.385182 5.85798,5.874027 6.25921,-6.259209 z m 0,1.556778 4.70243,4.702431 -4.70243,4.702431 -4.70243,-4.702431 z m -1.09135,2.198747 q -0.72221,0.320986 -1.18764,0.995055 -0.46543,0.674068 -0.46543,1.508629 0,1.123449 0.81049,1.933935 0.81049,0.810488 1.93393,0.810488 1.12345,0 1.93394,-0.810488 0.81049,-0.810486 0.81049,-1.933935 0,-0.834561 -0.46543,-1.508629 -0.46543,-0.674069 -1.18765,-0.995055 v 1.283941 q 0.25679,0.22469 0.40123,0.537651 0.14445,0.312959 0.14445,0.682092 0,0.690118 -0.47346,1.163572 -0.47345,0.473453 -1.16357,0.473453 -0.69011,0 -1.16357,-0.473453 -0.47345,-0.473454 -0.47345,-1.163572 0,-0.369133 0.14444,-0.682092 0.14445,-0.312961 0.40123,-0.537651 z m 0.54568,-0.786412 v 3.290096 h 1.09135 v -3.290096 z"
           id="path1-3-9"
           style="display:inline;fill:#ffffff;stroke-width:0.0160494" /><path
           fill="currentColor"
           d="m 61.304229,75.046003 -6.259208,6.259209 0.401231,0.385182 5.857977,5.874027 6.25921,-6.259209 z m 0,1.556778 4.702432,4.702431 -4.702432,4.702431 -4.70243,-4.702431 z m -1.091348,2.198747 q -0.722216,0.320986 -1.187645,0.995055 -0.465428,0.674068 -0.465428,1.508629 0,1.123449 0.810487,1.933935 0.810488,0.810488 1.933934,0.810488 1.123448,0 1.933936,-0.810488 0.810488,-0.810486 0.810488,-1.933935 0,-0.834561 -0.465429,-1.508629 -0.465429,-0.674069 -1.187645,-0.995055 v 1.283941 q 0.256789,0.22469 0.401232,0.537651 0.144442,0.312959 0.144442,0.682092 0,0.690118 -0.473452,1.163572 -0.473454,0.473453 -1.163572,0.473453 -0.690116,0 -1.16357,-0.473453 -0.473452,-0.473454 -0.473452,-1.163572 0,-0.369133 0.144443,-0.682092 0.144443,-0.312961 0.401231,-0.537651 z m 0.545674,-0.786412 v 3.290096 h 1.09135 v -3.290096 z"
           id="path1-3"
           style="display:inline;fill:#ffffff;stroke-width:0.0160494" /></g></g></g></svg>
