<?xml version="1.0" encoding="UTF-8" standalone="no"?>
<!-- Created with Inkscape (http://www.inkscape.org/) -->

<svg
   width="101.6mm"
   height="152.40001mm"
   viewBox="0 0 101.6 152.40001"
   version="1.1"
   id="svg1"
   xml:space="preserve"
   inkscape:version="1.3.1 (91b66b0783, 2023-11-16)"
   sodipodi:docname="BoostedServos.svg"
   inkscape:export-filename="Reserves\Equipment\SmartAmmoBack.svg"
   inkscape:export-xdpi="96"
   inkscape:export-ydpi="96"
   xmlns:inkscape="http://www.inkscape.org/namespaces/inkscape"
   xmlns:sodipodi="http://sodipodi.sourceforge.net/DTD/sodipodi-0.dtd"
   xmlns="http://www.w3.org/2000/svg"
   xmlns:svg="http://www.w3.org/2000/svg"><sodipodi:namedview
     id="namedview1"
     pagecolor="#ffffff"
     bordercolor="#000000"
     borderopacity="0.25"
     inkscape:showpageshadow="2"
     inkscape:pageopacity="0.0"
     inkscape:pagecheckerboard="true"
     inkscape:deskcolor="#d1d1d1"
     inkscape:document-units="mm"
     inkscape:zoom="1"
     inkscape:cx="48"
     inkscape:cy="395.5"
     inkscape:window-width="1920"
     inkscape:window-height="1009"
     inkscape:window-x="-8"
     inkscape:window-y="-8"
     inkscape:window-maximized="1"
     inkscape:current-layer="layer1"
     inkscape:clip-to-page="true"
     showgrid="false" /><defs
     id="defs1"><rect
       x="35.355339"
       y="130.10765"
       width="361.7666"
       height="517.56348"
       id="rect13-8" /><rect
       x="21"
       y="490"
       width="352.14645"
       height="278.58704"
       id="rect10-0" /></defs><g
     inkscape:label="Layer 1"
     inkscape:groupmode="layer"
     id="layer1"
     transform="translate(-54.045021,-72.300003)"><path
       id="rect3-8"
       style="display:inline;fill:#000000;fill-opacity:1;stroke:#e36600;stroke-width:0.6;stroke-linecap:round;stroke-linejoin:bevel;stroke-miterlimit:3.3;stroke-dasharray:none;stroke-dashoffset:370.663;stroke-opacity:1"
       d="m 56.811648,93.750003 -0.239262,0.23306 V 143.625 l 12.69845,12.69792 h 83.801614 l 0.25322,-0.25321 V 106.4562 L 140.61999,93.750003 Z"
       inkscape:label="Window Background"
       sodipodi:nodetypes="ccccccccc" /><path
       id="rect1"
       style="fill:#333333;fill-opacity:1;stroke:none;stroke-width:0.5;stroke-linecap:butt;stroke-linejoin:bevel;stroke-miterlimit:3.3;stroke-dasharray:none;stroke-dashoffset:370.663;stroke-opacity:1"
       d="M 54.045539,72.300003 V 224.6969 H 155.64709 V 72.300003 Z m 2.801896,21.440954 h 83.808315 l 12.70569,12.706203 v 49.60729 l -0.25322,0.25321 H 69.306623 L 56.608173,143.60973 V 93.974018 Z"
       sodipodi:nodetypes="cccccccccccccc"
       inkscape:label="Card Background"
       inkscape:export-filename="Acrobatics1Back.png"
       inkscape:export-xdpi="96"
       inkscape:export-ydpi="96" /><text
       xml:space="preserve"
       id="text10-0"
       style="font-style:normal;font-variant:normal;font-weight:normal;font-stretch:normal;font-size:16px;line-height:1;font-family:Arial;-inkscape-font-specification:'Arial, Normal';font-variant-ligatures:normal;font-variant-caps:normal;font-variant-numeric:normal;font-variant-east-asian:normal;white-space:pre;shape-inside:url(#rect10-0);display:inline;fill:#ffffff;fill-opacity:1;stroke:#000000;stroke-width:0;stroke-linejoin:bevel;stroke-miterlimit:3.3;stroke-dashoffset:370.663"
       inkscape:label="BODY Trigger"
       transform="matrix(0.26458333,0,0,0.26458333,53.275939,32.807923)"><tspan
         x="21"
         y="502.41207"
         id="tspan6"><tspan
   style="font-weight:bold"
   id="tspan1">IMMUNITY</tspan> to the <tspan
   style="font-weight:bold"
   id="tspan2">SLOWED</tspan> condition.</tspan></text><g
       id="g6"
       inkscape:label="Card Logos"
       transform="matrix(1.3403164,0,0,1.3403164,-40.501079,-40.966328)"><path
         id="path21"
         style="fill:#3e6a94;fill-opacity:1;stroke-width:0.360842"
         inkscape:label="BoostedServosLogo"
         d="m 106.7084,107.06637 -0.51114,1.84047 c -0.28116,1.01223 -0.53883,1.86442 -0.57264,1.89376 -0.0338,0.0293 -0.32495,0.12355 -0.64692,0.20938 -0.82962,0.22117 -2.07481,0.73303 -2.88961,1.18784 -0.38333,0.21397 -0.72344,0.38899 -0.75586,0.38899 -0.0324,0 -0.79652,-0.4167 -1.698014,-0.92601 -0.901489,-0.5093 -1.66752,-0.92601 -1.70232,-0.92601 -0.0348,0 -0.621783,0.55918 -1.304426,1.24266 -1.143836,1.14524 -1.23528,1.25556 -1.166276,1.40682 0.04118,0.0903 0.463709,0.84854 0.939087,1.68493 0.475378,0.8364 0.864377,1.54844 0.864377,1.5824 0,0.034 -0.178081,0.37942 -0.395808,0.76768 -0.465395,0.82992 -0.951134,2.01068 -1.176571,2.86053 -0.08834,0.33301 -0.185033,0.63355 -0.214947,0.66793 -0.02992,0.0344 -0.882106,0.29307 -1.893755,0.57473 l -1.839359,0.51197 v 1.80694 1.80695 l 1.839359,0.51197 c 1.011649,0.28166 1.863841,0.54034 1.893755,0.57472 0.02991,0.0344 0.12661,0.33493 0.214947,0.66794 0.225437,0.84984 0.711176,2.03061 1.176571,2.86053 0.217727,0.38826 0.395808,0.73373 0.395808,0.76768 0,0.034 -0.388999,0.746 -0.864377,1.5824 -0.475378,0.83639 -0.897906,1.59466 -0.939087,1.68493 -0.069,0.15126 0.02244,0.26158 1.166276,1.40682 0.682643,0.68348 1.269627,1.24266 1.304426,1.24266 0.0348,0 0.800831,-0.41671 1.70232,-0.92601 0.901494,-0.50931 1.669074,-0.92601 1.705804,-0.92601 0.0367,0 0.29202,0.13144 0.56721,0.29216 0.94011,0.54905 2.70243,1.25148 3.46001,1.37899 0.16651,0.028 0.30274,0.0616 0.30274,0.0746 0,0.0366 0.99259,3.62028 1.03104,3.72254 0.0264,0.0701 0.43133,0.0861 1.82907,0.0712 l 1.79497,-0.0191 0.47456,-1.70956 c 0.26099,-0.94025 0.49643,-1.7977 0.5231,-1.90544 0.0294,-0.11857 0.0972,-0.19634 0.17182,-0.19742 0.47786,-0.006 2.45645,-0.76089 3.45584,-1.31889 0.38333,-0.21403 0.72878,-0.38913 0.76769,-0.38913 0.0389,0 0.74453,0.38601 1.56806,0.85784 0.82353,0.47182 1.57757,0.89449 1.67575,0.93922 0.1702,0.0776 0.23647,0.0235 1.42129,-1.15988 0.68348,-0.68264 1.24266,-1.26867 1.24266,-1.30234 0,-0.0337 -0.41671,-0.79821 -0.92601,-1.69898 -0.50931,-0.90076 -0.92601,-1.66654 -0.92601,-1.70176 0,-0.0352 0.17463,-0.37695 0.38802,-0.75934 0.21338,-0.38239 0.51597,-1.01574 0.67252,-1.40752 0.27905,-0.69833 0.64901,-1.87964 0.64901,-2.07239 0,-0.0536 0.0881,-0.11954 0.19589,-0.14649 0.10774,-0.0269 0.96519,-0.26123 1.90544,-0.52061 l 1.70956,-0.47149 v -1.81111 -1.81126 l -0.60547,-0.16625 c -0.33301,-0.0915 -1.18755,-0.32807 -1.8989,-0.52589 l -1.2933,-0.35978 -0.0486,-0.26002 c -0.15619,-0.83748 -0.80502,-2.48626 -1.35103,-3.43288 -0.17772,-0.30811 -0.32319,-0.59095 -0.32319,-0.62856 0,-0.0376 0.41671,-0.80392 0.92601,-1.70288 0.50931,-0.89896 0.92601,-1.66324 0.92601,-1.69857 0,-0.0353 -0.55917,-0.62275 -1.24265,-1.3054 -1.18483,-1.18336 -1.2511,-1.23742 -1.42129,-1.15987 -0.0982,0.0447 -0.85222,0.4674 -1.67575,0.93922 -0.82353,0.47183 -1.53056,0.85784 -1.57113,0.85784 -0.0406,0 -0.36232,-0.16406 -0.7151,-0.36464 -0.79198,-0.4503 -1.88602,-0.90716 -2.77775,-1.15988 -0.37154,-0.1053 -0.71977,-0.21512 -0.7738,-0.24402 -0.0553,-0.0296 -0.32206,-0.86122 -0.61006,-1.90225 l -0.5117,-1.84965 h -1.80903 z m 1.81084,7.91602 4.53349,3.02246 4.53349,3.02261 v 2.08018 2.08033 l -4.53349,-3.02247 -4.53349,-3.02247 -4.5335,3.02247 -4.533497,3.02247 v -2.08033 -2.08018 l 4.533497,-3.02261 z m 0.002,5.02126 2.96069,1.99351 2.9607,1.9935 0.002,1.77759 0.002,1.77759 -0.7752,-0.52575 c -0.42636,-0.28919 -1.75948,-1.19031 -2.9625,-2.00241 l -2.18731,-1.47652 -2.01257,1.35854 c -1.1069,0.74724 -2.4408,1.64846 -2.96431,2.00269 l -0.95189,0.64401 v -1.78162 c 0,-1.69074 0.004,-1.78348 0.0722,-1.81711 0.0397,-0.0195 1.37366,-0.91489 2.96431,-1.98975 z m -4.2e-4,4.39576 1.7058,1.14986 1.7058,1.14972 9.7e-4,1.32502 9.7e-4,1.32488 -1.70747,-1.13873 -1.70732,-1.13873 -1.70747,1.13873 -1.70747,1.13873 0.001,-1.32488 8.3e-4,-1.32502 0.42099,-0.28033 c 0.23154,-0.15423 0.99984,-0.6717 1.70719,-1.14986 z m -0.001,3.53556 1.70747,1.13873 1.70733,1.13873 v 1.25601 1.25601 l -1.70733,-1.13873 -1.70747,-1.13873 -1.70747,1.13873 -1.70733,1.13873 v -1.25601 -1.25601 l 1.70733,-1.13873 z" /></g><rect
       style="display:inline;fill:#e36600;fill-opacity:1;stroke:#000000;stroke-width:0;stroke-linejoin:bevel;stroke-miterlimit:3.3;stroke-dashoffset:370.663"
       id="rect2"
       width="101.59982"
       height="18.07555"
       x="54.045109"
       y="72.266876"
       inkscape:label="Card Title Backing" /><text
       xml:space="preserve"
       style="font-style:normal;font-variant:normal;font-weight:bold;font-stretch:normal;font-size:9.87778px;line-height:0.8;font-family:Arial;-inkscape-font-specification:'Arial, Bold';font-variant-ligatures:normal;font-variant-position:normal;font-variant-caps:normal;font-variant-numeric:normal;font-variant-alternates:normal;font-variant-east-asian:normal;text-indent:0;text-align:center;text-decoration-line:none;text-decoration-style:solid;text-decoration-color:#000000;letter-spacing:normal;word-spacing:normal;text-transform:none;writing-mode:lr-tb;direction:ltr;text-orientation:mixed;dominant-baseline:auto;baseline-shift:baseline;text-anchor:middle;white-space:pre;inline-size:76.0664;display:inline;vector-effect:none;fill:#ffffff;fill-opacity:1;stroke:#000000;stroke-width:0;stroke-linecap:butt;stroke-linejoin:bevel;stroke-miterlimit:3.3;stroke-dasharray:none;stroke-dashoffset:370.663;stroke-opacity:1;-inkscape-stroke:none;stop-color:#000000"
       x="104.94299"
       y="83.013756"
       id="text7-0-9-5"
       inkscape:label="Card Title"
       transform="translate(-0.46007506,-2.1272673)"><tspan
         x="104.94299"
         y="83.013756"
         id="tspan7">BOOSTED<tspan
   y="83.013756"
   id="tspan11"> </tspan></tspan><tspan
         x="104.94299"
         y="90.915974"
         id="tspan12">SERVOS</tspan></text><g
       id="g1"
       inkscape:label="Title Icons"
       style="fill:#ffffff;fill-opacity:1"><g
         id="g4"
         inkscape:label="Mech Equipment &amp; Gear"
         style="display:inline;fill:#ffffff;fill-opacity:1"><path
           fill="currentColor"
           d="m 144.30685,75.267419 -1.79472,1.794725 v 1.196481 h 0.59824 l 2.39296,-2.392962 v -0.598244 z m 7.21408,0 v 0.598244 l 2.39296,2.392962 h 0.59823 v -1.196482 l -1.79472,-1.794725 z m -3.60704,1.794725 v 1.266858 q -0.28152,0.05279 -0.55425,0.167158 -0.27273,0.114369 -0.50147,0.272725 l -0.89736,-0.897357 -0.84458,0.844571 0.89736,0.897362 q -0.15836,0.228742 -0.27273,0.501468 -0.11437,0.272726 -0.16715,0.554248 h -1.26686 v 1.196483 h 1.26686 q 0.0528,0.281528 0.16715,0.554254 0.11437,0.272726 0.27273,0.501462 l -0.89736,0.897363 0.84458,0.844576 0.89736,-0.897364 q 0.22874,0.158361 0.50147,0.272727 0.27273,0.114371 0.55425,0.167157 v 1.266863 h 1.19647 v -1.266863 0 q 0.28153,-0.05279 0.55426,-0.167157 0.27272,-0.114366 0.50146,-0.272727 l 0.89736,0.897364 0.84458,-0.844576 -0.89736,-0.897363 q 0.15836,-0.228736 0.27273,-0.501462 0.11437,-0.272726 0.16715,-0.554254 h 1.26686 v -1.196483 h -1.26686 q -0.0528,-0.281522 -0.16715,-0.554248 -0.11437,-0.272726 -0.27273,-0.501468 l 0.89736,-0.897362 -0.84458,-0.844571 -0.89736,0.897357 q -0.24633,-0.158356 -0.51026,-0.272725 -0.26393,-0.114371 -0.54546,-0.167158 v -1.266858 z m 0.59824,2.410552 q 0.75659,0 1.27566,0.519064 0.51906,0.519063 0.51906,1.275661 0,0.756597 -0.51906,1.275656 -0.51907,0.519063 -1.27566,0.519063 -0.7566,0 -1.27567,-0.519063 -0.51906,-0.519058 -0.51906,-1.275656 0,-0.756598 0.51906,-1.275661 0.51907,-0.519064 1.27567,-0.519064 z m -6,4.803521 v 1.196481 l 1.79472,1.79472 h 1.19648 v -0.598243 l -2.39296,-2.392958 z m 11.40176,0 -2.39296,2.392958 v 0.598243 h 1.19647 l 1.79472,-1.79472 v -1.196481 z"
           id="path1-2"
           style="fill:#ffffff;fill-opacity:1;stroke-width:0.0175953"
           inkscape:label="Right Mech Equipment &amp; Gear" /><path
           fill="currentColor"
           d="m 56.898163,75.267419 -1.794721,1.794725 v 1.196481 h 0.598241 l 2.392961,-2.392962 v -0.598244 z m 7.214075,0 v 0.598244 l 2.39296,2.392962 h 0.598241 v -1.196481 l -1.794722,-1.794725 z m -3.607039,1.794725 v 1.266859 q -0.281524,0.05279 -0.554251,0.167157 -0.272726,0.11437 -0.501466,0.272725 l -0.897359,-0.897357 -0.844577,0.844572 0.897361,0.897361 q -0.158358,0.228743 -0.272728,0.501468 -0.114368,0.272727 -0.167155,0.554249 h -1.266861 v 1.196482 h 1.266861 q 0.05278,0.281528 0.167155,0.554255 0.11437,0.272725 0.272728,0.501462 l -0.897361,0.897362 0.844577,0.844577 0.897359,-0.897364 q 0.22874,0.15836 0.501466,0.272727 0.272727,0.114371 0.554251,0.167156 v 1.266864 h 1.196481 v -1.266864 0 q 0.281525,-0.05279 0.554252,-0.167156 0.272728,-0.114367 0.501467,-0.272727 l 0.89736,0.897364 0.844576,-0.844577 -0.897362,-0.897362 q 0.158358,-0.228737 0.272728,-0.501462 0.114369,-0.272727 0.167155,-0.554255 h 1.266861 v -1.196482 h -1.266861 q -0.05278,-0.281522 -0.167155,-0.554249 -0.11437,-0.272725 -0.272728,-0.501468 l 0.897362,-0.897361 -0.844576,-0.844572 -0.89736,0.897357 Q 62.511064,78.61053 62.247135,78.49616 61.983205,78.381789 61.70168,78.329003 v -1.266859 z m 0.598241,2.410553 q 0.756598,0 1.275661,0.519063 0.51906,0.519063 0.51906,1.275661 0,0.756598 -0.51906,1.275657 -0.519063,0.519063 -1.275661,0.519063 -0.756598,0 -1.27566,-0.519063 -0.519061,-0.519059 -0.519061,-1.275657 0,-0.756598 0.519061,-1.275661 0.519062,-0.519063 1.27566,-0.519063 z m -5.999998,4.803521 v 1.196481 l 1.794721,1.79472 h 1.196481 v -0.598243 l -2.392961,-2.392958 z m 11.401756,0 -2.39296,2.392958 v 0.598243 h 1.196479 l 1.794722,-1.79472 v -1.196481 z"
           id="path1"
           style="fill:#ffffff;fill-opacity:1;stroke-width:0.0175953"
           inkscape:label="Left Mech Equipment &amp; Gear" /></g></g></g></svg>
