<?xml version="1.0" encoding="UTF-8" standalone="no"?>
<!-- Created with Inkscape (http://www.inkscape.org/) -->

<svg
   width="101.6mm"
   height="152.40001mm"
   viewBox="0 0 101.6 152.40001"
   version="1.1"
   id="svg1"
   xml:space="preserve"
   inkscape:version="1.3.1 (91b66b0783, 2023-11-16)"
   sodipodi:docname="CoreBattery.svg"
   inkscape:export-filename="Reserves\Equipment\CoreBattery.svg"
   inkscape:export-xdpi="96"
   inkscape:export-ydpi="96"
   xmlns:inkscape="http://www.inkscape.org/namespaces/inkscape"
   xmlns:sodipodi="http://sodipodi.sourceforge.net/DTD/sodipodi-0.dtd"
   xmlns="http://www.w3.org/2000/svg"
   xmlns:svg="http://www.w3.org/2000/svg"><sodipodi:namedview
     id="namedview1"
     pagecolor="#ffffff"
     bordercolor="#000000"
     borderopacity="0.25"
     inkscape:showpageshadow="2"
     inkscape:pageopacity="0.0"
     inkscape:pagecheckerboard="true"
     inkscape:deskcolor="#d1d1d1"
     inkscape:document-units="mm"
     inkscape:zoom="1"
     inkscape:cx="47"
     inkscape:cy="301.5"
     inkscape:window-width="1920"
     inkscape:window-height="1009"
     inkscape:window-x="-8"
     inkscape:window-y="-8"
     inkscape:window-maximized="1"
     inkscape:current-layer="layer1"
     inkscape:clip-to-page="true"
     showgrid="false" /><defs
     id="defs1"><rect
       x="35.355339"
       y="130.10765"
       width="361.7666"
       height="517.56348"
       id="rect13-8" /><rect
       x="21"
       y="490"
       width="352.14645"
       height="278.58704"
       id="rect10-0" /></defs><g
     inkscape:label="Layer 1"
     inkscape:groupmode="layer"
     id="layer1"
     transform="translate(-54.045021,-72.300003)"><path
       id="rect3-8"
       style="display:inline;fill:#000000;fill-opacity:1;stroke:#e36600;stroke-width:0.6;stroke-linecap:round;stroke-linejoin:bevel;stroke-miterlimit:3.3;stroke-dasharray:none;stroke-dashoffset:370.663;stroke-opacity:1"
       d="m 56.811648,93.750003 -0.239262,0.23306 V 143.625 l 12.69845,12.69792 h 83.801614 l 0.25322,-0.25321 V 106.4562 L 140.61999,93.750003 Z"
       inkscape:label="Window Background"
       sodipodi:nodetypes="ccccccccc" /><path
       id="rect1"
       style="fill:#333333;fill-opacity:1;stroke:none;stroke-width:0.5;stroke-linecap:butt;stroke-linejoin:bevel;stroke-miterlimit:3.3;stroke-dasharray:none;stroke-dashoffset:370.663;stroke-opacity:1"
       d="M 54.045539,72.300003 V 224.6969 H 155.64709 V 72.300003 Z m 2.801896,21.440954 h 83.808315 l 12.70569,12.706203 v 49.60729 l -0.25322,0.25321 H 69.306623 L 56.608173,143.60973 V 93.974018 Z"
       sodipodi:nodetypes="cccccccccccccc"
       inkscape:label="Card Background"
       inkscape:export-filename="Acrobatics1Back.png"
       inkscape:export-xdpi="96"
       inkscape:export-ydpi="96" /><text
       xml:space="preserve"
       id="text10-0"
       style="font-style:normal;font-variant:normal;font-weight:normal;font-stretch:normal;font-size:16px;font-family:Arial;-inkscape-font-specification:'Arial, Normal';font-variant-ligatures:normal;font-variant-caps:normal;font-variant-numeric:normal;font-variant-east-asian:normal;white-space:pre;shape-inside:url(#rect10-0);display:inline;fill:#ffffff;fill-opacity:1;stroke:#000000;stroke-width:0;stroke-linejoin:bevel;stroke-miterlimit:3.3;stroke-dashoffset:370.663"
       inkscape:label="BODY Trigger"
       transform="matrix(0.26458333,0,0,0.26458333,53.275939,30.691255)"><tspan
         x="21"
         y="504.41207"
         id="tspan1">An extra battery that allows a second use of a </tspan><tspan
         x="21"
         y="524.41207"
         id="tspan6">mech's <tspan
   style="font-weight:bold"
   id="tspan2">CORE SYSTEM</tspan>.</tspan></text><rect
       style="display:inline;fill:#e36600;fill-opacity:1;stroke:#000000;stroke-width:0;stroke-linejoin:bevel;stroke-miterlimit:3.3;stroke-dashoffset:370.663"
       id="rect2"
       width="101.59982"
       height="18.07555"
       x="54.045109"
       y="72.266876"
       inkscape:label="Card Title Backing" /><text
       xml:space="preserve"
       style="font-style:normal;font-variant:normal;font-weight:bold;font-stretch:normal;font-size:10.5833px;line-height:0.8;font-family:Arial;-inkscape-font-specification:'Arial, Bold';font-variant-ligatures:normal;font-variant-position:normal;font-variant-caps:normal;font-variant-numeric:normal;font-variant-alternates:normal;font-variant-east-asian:normal;text-indent:0;text-align:center;text-decoration-line:none;text-decoration-style:solid;text-decoration-color:#000000;letter-spacing:normal;word-spacing:normal;text-transform:none;writing-mode:lr-tb;direction:ltr;text-orientation:mixed;dominant-baseline:auto;baseline-shift:baseline;text-anchor:middle;white-space:pre;inline-size:72.6988;display:inline;vector-effect:none;fill:#ffffff;fill-opacity:1;stroke:#000000;stroke-width:0;stroke-linecap:butt;stroke-linejoin:bevel;stroke-miterlimit:3.3;stroke-dasharray:none;stroke-dashoffset:370.663;stroke-opacity:1;-inkscape-stroke:none;stop-color:#000000"
       x="104.94299"
       y="83.013756"
       id="text7-0-9-5"
       inkscape:label="Card Title"
       transform="translate(-0.48591106,-2.2191483)"><tspan
         x="104.94299"
         y="83.013756"
         id="tspan7">CORE<tspan
   y="83.013756"
   id="tspan11"> </tspan></tspan><tspan
         x="104.94299"
         y="91.480394"
         id="tspan12">BATTERY</tspan></text><g
       id="g1"
       inkscape:label="Title Icons"
       style="fill:#ffffff;fill-opacity:1"><g
         id="g4"
         inkscape:label="Mech Equipment &amp; Gear"
         style="display:inline;fill:#ffffff;fill-opacity:1"><path
           fill="currentColor"
           d="m 144.30685,75.267419 -1.79472,1.794725 v 1.196481 h 0.59824 l 2.39296,-2.392962 v -0.598244 z m 7.21408,0 v 0.598244 l 2.39296,2.392962 h 0.59823 v -1.196482 l -1.79472,-1.794725 z m -3.60704,1.794725 v 1.266858 q -0.28152,0.05279 -0.55425,0.167158 -0.27273,0.114369 -0.50147,0.272725 l -0.89736,-0.897357 -0.84458,0.844571 0.89736,0.897362 q -0.15836,0.228742 -0.27273,0.501468 -0.11437,0.272726 -0.16715,0.554248 h -1.26686 v 1.196483 h 1.26686 q 0.0528,0.281528 0.16715,0.554254 0.11437,0.272726 0.27273,0.501462 l -0.89736,0.897363 0.84458,0.844576 0.89736,-0.897364 q 0.22874,0.158361 0.50147,0.272727 0.27273,0.114371 0.55425,0.167157 v 1.266863 h 1.19647 v -1.266863 0 q 0.28153,-0.05279 0.55426,-0.167157 0.27272,-0.114366 0.50146,-0.272727 l 0.89736,0.897364 0.84458,-0.844576 -0.89736,-0.897363 q 0.15836,-0.228736 0.27273,-0.501462 0.11437,-0.272726 0.16715,-0.554254 h 1.26686 v -1.196483 h -1.26686 q -0.0528,-0.281522 -0.16715,-0.554248 -0.11437,-0.272726 -0.27273,-0.501468 l 0.89736,-0.897362 -0.84458,-0.844571 -0.89736,0.897357 q -0.24633,-0.158356 -0.51026,-0.272725 -0.26393,-0.114371 -0.54546,-0.167158 v -1.266858 z m 0.59824,2.410552 q 0.75659,0 1.27566,0.519064 0.51906,0.519063 0.51906,1.275661 0,0.756597 -0.51906,1.275656 -0.51907,0.519063 -1.27566,0.519063 -0.7566,0 -1.27567,-0.519063 -0.51906,-0.519058 -0.51906,-1.275656 0,-0.756598 0.51906,-1.275661 0.51907,-0.519064 1.27567,-0.519064 z m -6,4.803521 v 1.196481 l 1.79472,1.79472 h 1.19648 v -0.598243 l -2.39296,-2.392958 z m 11.40176,0 -2.39296,2.392958 v 0.598243 h 1.19647 l 1.79472,-1.79472 v -1.196481 z"
           id="path1-2"
           style="fill:#ffffff;fill-opacity:1;stroke-width:0.0175953"
           inkscape:label="Right Mech Equipment &amp; Gear" /><path
           fill="currentColor"
           d="m 56.898163,75.267419 -1.794721,1.794725 v 1.196481 h 0.598241 l 2.392961,-2.392962 v -0.598244 z m 7.214075,0 v 0.598244 l 2.39296,2.392962 h 0.598241 v -1.196481 l -1.794722,-1.794725 z m -3.607039,1.794725 v 1.266859 q -0.281524,0.05279 -0.554251,0.167157 -0.272726,0.11437 -0.501466,0.272725 l -0.897359,-0.897357 -0.844577,0.844572 0.897361,0.897361 q -0.158358,0.228743 -0.272728,0.501468 -0.114368,0.272727 -0.167155,0.554249 h -1.266861 v 1.196482 h 1.266861 q 0.05278,0.281528 0.167155,0.554255 0.11437,0.272725 0.272728,0.501462 l -0.897361,0.897362 0.844577,0.844577 0.897359,-0.897364 q 0.22874,0.15836 0.501466,0.272727 0.272727,0.114371 0.554251,0.167156 v 1.266864 h 1.196481 v -1.266864 0 q 0.281525,-0.05279 0.554252,-0.167156 0.272728,-0.114367 0.501467,-0.272727 l 0.89736,0.897364 0.844576,-0.844577 -0.897362,-0.897362 q 0.158358,-0.228737 0.272728,-0.501462 0.114369,-0.272727 0.167155,-0.554255 h 1.266861 v -1.196482 h -1.266861 q -0.05278,-0.281522 -0.167155,-0.554249 -0.11437,-0.272725 -0.272728,-0.501468 l 0.897362,-0.897361 -0.844576,-0.844572 -0.89736,0.897357 Q 62.511064,78.61053 62.247135,78.49616 61.983205,78.381789 61.70168,78.329003 v -1.266859 z m 0.598241,2.410553 q 0.756598,0 1.275661,0.519063 0.51906,0.519063 0.51906,1.275661 0,0.756598 -0.51906,1.275657 -0.519063,0.519063 -1.275661,0.519063 -0.756598,0 -1.27566,-0.519063 -0.519061,-0.519059 -0.519061,-1.275657 0,-0.756598 0.519061,-1.275661 0.519062,-0.519063 1.27566,-0.519063 z m -5.999998,4.803521 v 1.196481 l 1.794721,1.79472 h 1.196481 v -0.598243 l -2.392961,-2.392958 z m 11.401756,0 -2.39296,2.392958 v 0.598243 h 1.196479 l 1.794722,-1.79472 v -1.196481 z"
           id="path1"
           style="fill:#ffffff;fill-opacity:1;stroke-width:0.0175953"
           inkscape:label="Left Mech Equipment &amp; Gear" /></g></g><path
       style="fill:#3e6a94;fill-opacity:1;stroke-width:0.400268"
       d="m 97.865393,149.92998 c -0.0258,-0.0831 -0.29622,-2.39105 -0.60099,-5.12867 -0.30477,-2.73763 -0.56914,-4.99512 -0.58749,-5.01665 -0.0361,-0.0424 -9.884537,2.51606 -10.038484,2.60778 -0.261172,0.1556 0.261175,-0.48377 3.402667,-4.16502 1.87847,-2.20123 3.415404,-4.03088 3.415404,-4.0659 0,-0.035 -1.918186,-0.6276 -4.262636,-1.31684 -2.34445,-0.68922 -4.296559,-1.2839 -4.338021,-1.32146 -0.04146,-0.0376 2.328978,-1.04473 5.267643,-2.2381 2.938664,-1.19339 5.342117,-2.19361 5.340997,-2.22274 -0.001,-0.0291 -1.719086,-1.14227 -3.817713,-2.47366 -2.098626,-1.3314 -3.799104,-2.4373 -3.778839,-2.45756 0.02026,-0.0203 2.227204,-0.1145 4.90431,-0.20929 2.677102,-0.0949 4.879632,-0.18458 4.894502,-0.19943 0.0149,-0.0149 -0.96209,-0.62335 -2.17103,-1.35225 -1.208938,-0.72888 -4.265757,-2.57907 -6.792932,-4.11151 l -4.594861,-2.78626 3.032777,-0.901 c 1.668029,-0.49555 3.032779,-0.9301 3.032779,-0.96568 0,-0.0356 -2.275612,-1.14636 -5.056916,-2.4684 l -5.056917,-2.40372 -0.02796,-3.33838 -0.02796,-3.33837 h 4.254378 4.254379 l 3.610481,2.18446 c 1.985766,1.20145 3.672972,2.2426 3.749342,2.31366 0.14618,0.13603 0.25552,0.0962 -3.355107,1.2205 -0.808558,0.25176 -1.37615,0.48059 -1.323256,0.53349 0.05094,0.051 2.046307,1.37967 4.434143,2.95274 2.6375,1.73753 4.35373,2.80576 4.372617,2.72165 0.0171,-0.0761 -0.113997,-2.07885 -0.291237,-4.45043 -0.17728,-2.37157 -0.32233,-4.37775 -0.32233,-4.45816 0,-0.082 1.257127,0.67086 2.865377,1.71616 1.60044,1.04023 2.90302,1.82061 2.95065,1.76775 0.0469,-0.052 0.54887,-1.52434 1.11554,-3.27176 0.56665,-1.74741 1.06173,-3.20975 1.10017,-3.24964 0.0385,-0.0399 0.88989,1.31834 1.8921,3.01826 1.00222,1.69994 1.88388,3.17303 1.95924,3.27353 0.12275,0.16379 0.46939,-0.13619 3.34062,-2.89149 2.82052,-2.70661 3.20284,-3.03872 3.19723,-2.77739 -0.004,0.16327 -0.13936,1.82187 -0.30189,3.68577 -0.16252,1.86391 -0.28094,3.40665 -0.26314,3.4283 0.0179,0.0216 1.92887,-0.29577 4.24679,-0.70539 2.31795,-0.40963 4.22167,-0.73711 4.23048,-0.72775 0.009,0.01 -1.03054,1.22547 -2.30968,2.70247 -1.27914,1.477 -2.31097,2.69907 -2.29296,2.71569 0.018,0.0166 1.38116,0.49548 3.02923,1.06414 1.64806,0.56865 2.95862,1.06532 2.91235,1.10372 -0.0462,0.0384 -1.68969,0.85305 -3.65205,1.81035 -1.96237,0.95732 -3.57079,1.76491 -3.57426,1.79464 -0.004,0.0297 1.68864,0.6183 3.76029,1.30794 2.07165,0.68963 3.74788,1.27263 3.72494,1.29556 -0.0229,0.0229 -1.99064,0.92472 -4.37267,2.00395 -2.38203,1.07924 -4.3692,2.00048 -4.41593,2.04722 -0.0468,0.0468 2.27354,1.63023 5.15614,3.51891 2.88261,1.88869 5.2428,3.46169 5.24488,3.49555 0.002,0.0339 -1.08043,0.14709 -2.40556,0.25157 -1.32512,0.1045 -2.5952,0.22027 -2.82238,0.25727 l -0.41307,0.0673 3.30238,2.78685 3.30238,2.78685 -0.0299,4.27238 c -0.0165,2.3498 -0.0595,4.30189 -0.0955,4.33797 -0.0647,0.0646 -10.28855,-6.97874 -10.33879,-7.12259 -0.0143,-0.0408 1.1057,-0.23448 2.48874,-0.43054 2.39677,-0.33976 2.66071,-0.38877 2.55874,-0.4752 -0.2837,-0.24044 -8.71098,-5.25744 -8.75582,-5.21259 -0.0336,0.0336 0.18442,2.78619 0.48465,6.1167 0.30023,3.33052 0.53465,6.06668 0.52095,6.08037 -0.0136,0.0136 -1.1108,-0.54303 -2.438,-1.23712 -1.32721,-0.6941 -2.45351,-1.262 -2.5029,-1.262 -0.0494,0 -0.51165,1.69182 -1.02726,3.7596 -0.51561,2.06778 -0.96325,3.75961 -0.99475,3.75961 -0.0315,0 -1.15212,-1.76241 -2.49026,-3.91643 -1.33814,-2.15405 -2.46628,-3.91735 -2.50698,-3.91846 -0.0407,-0.001 -1.53716,1.72553 -3.32546,3.837 -3.914867,4.6223 -3.517747,4.17921 -3.576327,3.99021 z M 115.5016,126.53224 c 2.02365,-7.54267 3.68166,-13.7429 3.68446,-13.7783 0.002,-0.0354 -0.48337,-0.19401 -1.08041,-0.3525 -0.59703,-0.15849 -1.3319,-0.35817 -1.63304,-0.44375 l -0.54752,-0.15559 0.24626,-0.89508 c 0.13544,-0.49229 0.2128,-0.91575 0.17191,-0.94103 -0.11475,-0.071 -8.80286,-2.38995 -8.95387,-2.38995 -0.0781,0 -0.23252,0.37563 -0.37289,0.907 -0.15769,0.5969 -0.28348,0.89018 -0.3679,0.85778 -0.5416,-0.20783 -3.07483,-0.80293 -3.1352,-0.73652 -0.0816,0.0897 -7.432067,27.47636 -7.384657,27.51411 0.0887,0.0706 15.411107,4.15631 15.538947,4.1434 0.11312,-0.0112 1.14067,-3.69117 3.83391,-13.72957 z m -11.10335,9.75883 c -3.15596,-0.85285 -5.762437,-1.57571 -5.792157,-1.60635 -0.0565,-0.0583 6.222447,-23.58355 6.320767,-23.68187 0.031,-0.031 0.76068,0.13775 1.62151,0.37503 0.98103,0.2704 1.58975,0.39157 1.63108,0.3247 0.0362,-0.0586 0.14997,-0.4631 0.25266,-0.89871 0.1339,-0.56797 0.23355,-0.79203 0.35225,-0.79203 0.22419,0 5.0406,1.28099 5.12813,1.3639 0.0382,0.0361 -0.032,0.4563 -0.15598,0.93356 -0.124,0.47728 -0.19852,0.89468 -0.16564,0.92757 0.0329,0.0329 0.7226,0.23028 1.53272,0.43866 0.81011,0.20837 1.50598,0.41051 1.54637,0.44919 0.0544,0.052 -3.76809,14.51655 -6.15455,23.28977 -0.0674,0.24757 -0.18017,0.44495 -0.25074,0.43867 -0.0705,-0.006 -2.71045,-0.70924 -5.86642,-1.56209 z m 5.1433,-2.94143 c 0.3059,-1.14353 0.51721,-2.11685 0.4696,-2.16292 -0.0476,-0.0461 -1.25418,-0.71178 -2.68123,-1.47938 -1.42706,-0.7676 -2.63637,-1.4349 -2.68736,-1.48288 -0.0517,-0.0486 0.21911,-0.67667 0.61293,-1.421 l 0.70563,-1.33375 -0.45407,-0.19748 c -0.24974,-0.10862 -0.82556,-0.36806 -1.27961,-0.57657 -0.57203,-0.26268 -0.83985,-0.33963 -0.8721,-0.25057 -0.1544,0.42638 -2.36088,8.8138 -2.32744,8.84724 0.0473,0.0472 7.67506,2.11719 7.8446,2.12876 0.0621,0.004 0.36316,-0.92791 0.66905,-2.07145 z m 3.34859,-12.49713 c 0.78023,-2.90439 1.38531,-5.30946 1.3446,-5.34457 -0.0992,-0.0856 -7.86195,-2.13899 -7.90703,-2.0915 -0.058,0.0611 -1.44605,5.30274 -1.41197,5.33203 0.0173,0.0149 1.35015,0.63587 2.96201,1.3801 l 2.93066,1.35314 -0.4684,0.88406 c -0.25761,0.48624 -0.68312,1.28921 -0.94557,1.78439 l -0.47719,0.90032 0.71546,0.32025 c 0.39351,0.17614 0.95376,0.43151 1.245,0.5675 0.29123,0.13599 0.54398,0.23549 0.56166,0.22111 0.0176,-0.0144 0.67053,-2.40245 1.45077,-5.30683 z"
       id="path17" /></g></svg>
