<?xml version="1.0" encoding="UTF-8" standalone="no"?>
<!-- Created with Inkscape (http://www.inkscape.org/) -->

<svg
   width="101.6mm"
   height="152.40001mm"
   viewBox="0 0 101.6 152.40001"
   version="1.1"
   id="svg1"
   xml:space="preserve"
   inkscape:version="1.3.1 (91b66b0783, 2023-11-16)"
   sodipodi:docname="DeployableShield.svg"
   inkscape:export-filename="Reserves\Equipment\CoreBattery.svg"
   inkscape:export-xdpi="96"
   inkscape:export-ydpi="96"
   xmlns:inkscape="http://www.inkscape.org/namespaces/inkscape"
   xmlns:sodipodi="http://sodipodi.sourceforge.net/DTD/sodipodi-0.dtd"
   xmlns="http://www.w3.org/2000/svg"
   xmlns:svg="http://www.w3.org/2000/svg"><sodipodi:namedview
     id="namedview1"
     pagecolor="#ffffff"
     bordercolor="#000000"
     borderopacity="0.25"
     inkscape:showpageshadow="2"
     inkscape:pageopacity="0.0"
     inkscape:pagecheckerboard="true"
     inkscape:deskcolor="#d1d1d1"
     inkscape:document-units="mm"
     inkscape:zoom="1"
     inkscape:cx="13"
     inkscape:cy="327.5"
     inkscape:window-width="1920"
     inkscape:window-height="1009"
     inkscape:window-x="1912"
     inkscape:window-y="-8"
     inkscape:window-maximized="1"
     inkscape:current-layer="layer1"
     inkscape:clip-to-page="true"
     showgrid="false"
     showguides="false" /><defs
     id="defs1"><rect
       x="35.355339"
       y="130.10765"
       width="361.7666"
       height="517.56348"
       id="rect13-8" /><rect
       x="21"
       y="490"
       width="352.14645"
       height="278.58704"
       id="rect10-0" /></defs><g
     inkscape:label="Layer 1"
     inkscape:groupmode="layer"
     id="layer1"
     transform="translate(-54.045021,-72.300003)"><path
       id="rect3-8"
       style="display:inline;fill:#000000;fill-opacity:1;stroke:#e36600;stroke-width:0.6;stroke-linecap:round;stroke-linejoin:bevel;stroke-miterlimit:3.3;stroke-dasharray:none;stroke-dashoffset:370.663;stroke-opacity:1"
       d="m 56.811648,93.750003 -0.239262,0.23306 V 143.625 l 12.69845,12.69792 h 83.801614 l 0.25322,-0.25321 V 106.4562 L 140.61999,93.750003 Z"
       inkscape:label="Window Background"
       sodipodi:nodetypes="ccccccccc" /><path
       id="rect1"
       style="fill:#333333;fill-opacity:1;stroke:none;stroke-width:0.5;stroke-linecap:butt;stroke-linejoin:bevel;stroke-miterlimit:3.3;stroke-dasharray:none;stroke-dashoffset:370.663;stroke-opacity:1"
       d="M 54.045539,72.300003 V 224.6969 H 155.64709 V 72.300003 Z m 2.801896,21.440954 h 83.808315 l 12.70569,12.706203 v 49.60729 l -0.25322,0.25321 H 69.306623 L 56.608173,143.60973 V 93.974018 Z"
       sodipodi:nodetypes="cccccccccccccc"
       inkscape:label="Card Background"
       inkscape:export-filename="Acrobatics1Back.png"
       inkscape:export-xdpi="96"
       inkscape:export-ydpi="96" /><text
       xml:space="preserve"
       id="text10-0"
       style="font-style:normal;font-variant:normal;font-weight:normal;font-stretch:normal;font-size:16px;font-family:Arial;-inkscape-font-specification:'Arial, Normal';font-variant-ligatures:normal;font-variant-caps:normal;font-variant-numeric:normal;font-variant-east-asian:normal;white-space:pre;shape-inside:url(#rect10-0);display:inline;fill:#ffffff;fill-opacity:1;stroke:#000000;stroke-width:0;stroke-linejoin:bevel;stroke-miterlimit:3.3;stroke-dashoffset:370.663"
       inkscape:label="BODY Trigger"
       transform="matrix(0.26458333,0,0,0.26458333,53.275939,30.691255)"><tspan
         x="21"
         y="504.41207"
         id="tspan1">A single-use deployable shield generator – a </tspan><tspan
         x="21"
         y="524.41207"
         id="tspan3"><tspan
   style="font-weight:bold"
   id="tspan2">SIZE 1 </tspan>deployable that grants soft cover to all </tspan><tspan
         x="21"
         y="544.41207"
         id="tspan5">friendly characters in a    <tspan
   style="font-weight:bold"
   id="tspan4">2</tspan> radius.</tspan></text><g
       id="g5"
       inkscape:label="Card Icons"
       transform="translate(64.513491,10.851143)"
       style="display:inline;fill:#ffffff;fill-opacity:1"><g
         id="g7"
         transform="translate(0.66145833,-0.26458231)"
         inkscape:label="Text Icons"
         style="display:inline;fill:#ffffff;fill-opacity:1"><path
           fill="currentColor"
           d="m 40.189602,162.63064 q 0,0.30319 -0.12168,0.58245 -0.12167,0.27925 -0.31715,0.47872 -0.19947,0.19548 -0.47872,0.31715 -0.27926,0.12168 -0.58245,0.12168 -0.30319,0 -0.58245,-0.12168 -0.27925,-0.12167 -0.47473,-0.31715 -0.19947,-0.19947 -0.32115,-0.47872 -0.12167,-0.27926 -0.12167,-0.58245 0,-0.30319 0.12167,-0.58245 0.12168,-0.27925 0.32115,-0.47473 0.19548,-0.19947 0.47473,-0.32114 0.27926,-0.12168 0.58245,-0.12168 0.30319,0 0.58245,0.12168 0.27925,0.12167 0.47872,0.32114 0.19548,0.19548 0.31715,0.47473 0.12168,0.27926 0.12168,0.58245 z m -0.63431,-0.86569 q -0.17154,-0.17154 -0.38697,-0.26529 -0.21542,-0.0937 -0.47872,-0.0937 -0.25931,0 -0.47673,0.0937 -0.21742,0.0937 -0.38896,0.26529 -0.17155,0.17154 -0.2653,0.38896 -0.0937,0.21742 -0.0937,0.47673 0,0.2633 0.0937,0.47872 0.0937,0.21543 0.2653,0.38697 0.17154,0.17154 0.38896,0.26529 0.21742,0.0937 0.47673,0.0937 0.2633,0 0.47872,-0.0937 0.21543,-0.0937 0.38697,-0.26529 0.17154,-0.17154 0.26529,-0.38697 0.0937,-0.21542 0.0937,-0.47872 0,-0.25931 -0.0937,-0.47673 -0.0937,-0.21742 -0.26529,-0.38896 z m -1.54787,0.86569 0.68218,-0.68218 0.68218,0.68218 -0.68218,0.68218 z"
           id="path1-71"
           style="fill:#ffffff;stroke-width:0.00398937"
           inkscape:label="Burst icon" /></g></g><g
       id="g6"
       inkscape:label="Card Logos"
       transform="matrix(1.3403164,0,0,1.3403164,-40.501079,-40.966328)"><path
         style="fill:#3e6a94;fill-opacity:1;stroke-width:0.309702"
         d="m 105.89733,140.5603 c -6.707572,-0.44709 -12.384319,-2.46448 -15.806205,-5.61718 l -0.687873,-0.63376 0.05542,-1.22816 c 0.340871,-7.55394 4.058525,-16.25602 9.104834,-21.31211 5.454774,-5.46534 11.751354,-6.19671 17.549164,-2.03838 4.61042,3.3067 8.74807,10.09404 10.54533,17.29839 0.56466,2.26347 0.82604,3.99563 0.92429,6.1253 l 0.0529,1.14719 -0.56598,0.53354 c -2.64144,2.49001 -6.67262,4.29717 -11.58467,5.1934 -2.97193,0.54225 -6.49682,0.73776 -9.58723,0.53177 z m 5.08042,-1.46737 c 6.29888,-0.43791 11.73759,-2.31416 14.84452,-5.12109 l 0.33687,-0.30434 -0.0546,-0.83015 c -0.26803,-4.07551 -1.46589,-8.40343 -3.45028,-12.46593 -0.64752,-1.32564 -1.45957,-2.75841 -2.10671,-3.71709 l -0.29662,-0.43939 -0.12465,0.24105 c -0.44625,0.86295 -1.19308,2.59972 -1.13481,2.63903 0.36017,0.24295 2.31328,1.92337 2.29452,1.97413 -0.04,0.10811 -5.92288,9.65083 -5.94036,9.63592 -0.009,-0.008 0.6457,-2.08792 1.45447,-4.62309 0.80878,-2.5352 1.4705,-4.65592 1.4705,-4.71272 0,-0.0568 -0.47937,-0.32004 -1.06525,-0.585 -0.58589,-0.26496 -1.06525,-0.49131 -1.06525,-0.50301 0,-0.0117 0.27988,-1.71084 0.62195,-3.77586 l 0.62195,-3.7546 -0.4889,-0.45958 c -2.39967,-2.25582 -5.11235,-3.55923 -7.77245,-3.73459 l -0.74887,-0.0494 -0.0476,0.2371 c -0.095,0.47367 -0.40326,2.90449 -0.37175,2.93152 0.0178,0.0153 0.58549,-0.0415 1.26151,-0.12606 0.67603,-0.0846 1.28726,-0.14398 1.3583,-0.13195 0.10559,0.0179 -0.092,0.7316 -1.08238,3.91063 -0.66635,2.13883 -1.19765,3.90268 -1.18066,3.91967 0.017,0.017 0.72017,-0.24793 1.56261,-0.5887 1.19624,-0.4839 1.52416,-0.58861 1.49722,-0.4781 -0.48174,1.97554 -3.39239,13.02559 -3.42299,12.99504 -0.0237,-0.0237 -0.0616,-2.21147 -0.0841,-4.86167 l -0.041,-4.81856 -1.31107,0.47801 c -0.72109,0.26292 -1.35573,0.47998 -1.41031,0.48239 -0.0596,0.002 0.42409,-1.54044 1.20972,-3.85949 0.71992,-2.12514 1.29925,-3.87249 1.2874,-3.88303 -0.0119,-0.0101 -0.71659,0.10823 -1.56606,0.26398 -0.84948,0.15573 -1.55868,0.26897 -1.576,0.25164 -0.0173,-0.0173 0.27576,-1.43025 0.65129,-3.13985 0.37553,-1.7096 0.65703,-3.1188 0.62555,-3.13156 -0.10283,-0.0416 -1.25453,0.40484 -1.96665,0.76247 -1.52201,0.76435 -3.0286,1.91394 -4.452511,3.39745 -0.783737,0.81654 -2.102868,2.40453 -2.102868,2.53147 0,0.0349 1.048271,2.21734 2.329491,4.84989 1.281218,2.63256 2.315278,4.80068 2.297908,4.81805 -0.0174,0.0173 -0.69848,-0.23565 -1.5136,-0.56227 -0.815108,-0.32661 -1.493856,-0.58006 -1.508325,-0.56323 -0.01959,0.0228 2.027655,4.77167 3.068825,7.11861 0.0631,0.14219 0.0637,0.1784 0.002,0.11835 -0.0488,-0.0476 -1.48616,-1.92814 -3.194201,-4.17904 -2.768831,-3.64885 -3.086388,-4.09786 -2.92897,-4.14142 0.09711,-0.0269 0.832701,-0.0975 1.634652,-0.15709 0.80195,-0.0595 1.472428,-0.1314 1.489949,-0.15976 0.02955,-0.0478 -3.747424,-3.53998 -3.882921,-3.59011 -0.08511,-0.0315 -1.145539,2.1923 -1.675731,3.51412 -1.233761,3.07587 -2.082009,6.48268 -2.344047,9.41437 -0.142416,1.59336 -0.156791,1.52897 0.457254,2.04856 1.995106,1.68822 5.027428,3.11387 8.430629,3.96368 3.424756,0.85519 7.480566,1.20242 11.103166,0.95057 z"
         id="path18"
         inkscape:label="Deployable Shield Logo" /></g><rect
       style="display:inline;fill:#e36600;fill-opacity:1;stroke:#000000;stroke-width:0;stroke-linejoin:bevel;stroke-miterlimit:3.3;stroke-dashoffset:370.663"
       id="rect2"
       width="101.59982"
       height="18.07555"
       x="54.045109"
       y="72.266876"
       inkscape:label="Card Title Backing" /><text
       xml:space="preserve"
       style="font-style:normal;font-variant:normal;font-weight:bold;font-stretch:normal;font-size:10.5833px;line-height:0.8;font-family:Arial;-inkscape-font-specification:'Arial, Bold';font-variant-ligatures:normal;font-variant-position:normal;font-variant-caps:normal;font-variant-numeric:normal;font-variant-alternates:normal;font-variant-east-asian:normal;text-indent:0;text-align:center;text-decoration-line:none;text-decoration-style:solid;text-decoration-color:#000000;letter-spacing:normal;word-spacing:normal;text-transform:none;writing-mode:lr-tb;direction:ltr;text-orientation:mixed;dominant-baseline:auto;baseline-shift:baseline;text-anchor:middle;white-space:pre;inline-size:72.6988;display:inline;vector-effect:none;fill:#ffffff;fill-opacity:1;stroke:#000000;stroke-width:0;stroke-linecap:butt;stroke-linejoin:bevel;stroke-miterlimit:3.3;stroke-dasharray:none;stroke-dashoffset:370.663;stroke-opacity:1;-inkscape-stroke:none;stop-color:#000000"
       x="104.94299"
       y="83.013756"
       id="text7-0-9-5"
       inkscape:label="Card Title"
       transform="translate(-0.48591106,-2.2191483)"><tspan
         x="104.94299"
         y="83.013756"
         id="tspan6">DEPLOYABLE<tspan
   y="83.013756"
   id="tspan7"> </tspan></tspan><tspan
         x="104.94299"
         y="91.480394"
         id="tspan8">SHIELD</tspan></text><g
       id="g1"
       inkscape:label="Title Icons"
       style="fill:#ffffff;fill-opacity:1"><g
         id="g4"
         inkscape:label="Mech Equipment &amp; Gear"
         style="display:inline;fill:#ffffff;fill-opacity:1"><path
           fill="currentColor"
           d="m 144.30685,75.267419 -1.79472,1.794725 v 1.196481 h 0.59824 l 2.39296,-2.392962 v -0.598244 z m 7.21408,0 v 0.598244 l 2.39296,2.392962 h 0.59823 v -1.196482 l -1.79472,-1.794725 z m -3.60704,1.794725 v 1.266858 q -0.28152,0.05279 -0.55425,0.167158 -0.27273,0.114369 -0.50147,0.272725 l -0.89736,-0.897357 -0.84458,0.844571 0.89736,0.897362 q -0.15836,0.228742 -0.27273,0.501468 -0.11437,0.272726 -0.16715,0.554248 h -1.26686 v 1.196483 h 1.26686 q 0.0528,0.281528 0.16715,0.554254 0.11437,0.272726 0.27273,0.501462 l -0.89736,0.897363 0.84458,0.844576 0.89736,-0.897364 q 0.22874,0.158361 0.50147,0.272727 0.27273,0.114371 0.55425,0.167157 v 1.266863 h 1.19647 v -1.266863 0 q 0.28153,-0.05279 0.55426,-0.167157 0.27272,-0.114366 0.50146,-0.272727 l 0.89736,0.897364 0.84458,-0.844576 -0.89736,-0.897363 q 0.15836,-0.228736 0.27273,-0.501462 0.11437,-0.272726 0.16715,-0.554254 h 1.26686 v -1.196483 h -1.26686 q -0.0528,-0.281522 -0.16715,-0.554248 -0.11437,-0.272726 -0.27273,-0.501468 l 0.89736,-0.897362 -0.84458,-0.844571 -0.89736,0.897357 q -0.24633,-0.158356 -0.51026,-0.272725 -0.26393,-0.114371 -0.54546,-0.167158 v -1.266858 z m 0.59824,2.410552 q 0.75659,0 1.27566,0.519064 0.51906,0.519063 0.51906,1.275661 0,0.756597 -0.51906,1.275656 -0.51907,0.519063 -1.27566,0.519063 -0.7566,0 -1.27567,-0.519063 -0.51906,-0.519058 -0.51906,-1.275656 0,-0.756598 0.51906,-1.275661 0.51907,-0.519064 1.27567,-0.519064 z m -6,4.803521 v 1.196481 l 1.79472,1.79472 h 1.19648 v -0.598243 l -2.39296,-2.392958 z m 11.40176,0 -2.39296,2.392958 v 0.598243 h 1.19647 l 1.79472,-1.79472 v -1.196481 z"
           id="path1-2"
           style="fill:#ffffff;fill-opacity:1;stroke-width:0.0175953"
           inkscape:label="Right Mech Equipment &amp; Gear" /><path
           fill="currentColor"
           d="m 56.898163,75.267419 -1.794721,1.794725 v 1.196481 h 0.598241 l 2.392961,-2.392962 v -0.598244 z m 7.214075,0 v 0.598244 l 2.39296,2.392962 h 0.598241 v -1.196481 l -1.794722,-1.794725 z m -3.607039,1.794725 v 1.266859 q -0.281524,0.05279 -0.554251,0.167157 -0.272726,0.11437 -0.501466,0.272725 l -0.897359,-0.897357 -0.844577,0.844572 0.897361,0.897361 q -0.158358,0.228743 -0.272728,0.501468 -0.114368,0.272727 -0.167155,0.554249 h -1.266861 v 1.196482 h 1.266861 q 0.05278,0.281528 0.167155,0.554255 0.11437,0.272725 0.272728,0.501462 l -0.897361,0.897362 0.844577,0.844577 0.897359,-0.897364 q 0.22874,0.15836 0.501466,0.272727 0.272727,0.114371 0.554251,0.167156 v 1.266864 h 1.196481 v -1.266864 0 q 0.281525,-0.05279 0.554252,-0.167156 0.272728,-0.114367 0.501467,-0.272727 l 0.89736,0.897364 0.844576,-0.844577 -0.897362,-0.897362 q 0.158358,-0.228737 0.272728,-0.501462 0.114369,-0.272727 0.167155,-0.554255 h 1.266861 v -1.196482 h -1.266861 q -0.05278,-0.281522 -0.167155,-0.554249 -0.11437,-0.272725 -0.272728,-0.501468 l 0.897362,-0.897361 -0.844576,-0.844572 -0.89736,0.897357 Q 62.511064,78.61053 62.247135,78.49616 61.983205,78.381789 61.70168,78.329003 v -1.266859 z m 0.598241,2.410553 q 0.756598,0 1.275661,0.519063 0.51906,0.519063 0.51906,1.275661 0,0.756598 -0.51906,1.275657 -0.519063,0.519063 -1.275661,0.519063 -0.756598,0 -1.27566,-0.519063 -0.519061,-0.519059 -0.519061,-1.275657 0,-0.756598 0.519061,-1.275661 0.519062,-0.519063 1.27566,-0.519063 z m -5.999998,4.803521 v 1.196481 l 1.794721,1.79472 h 1.196481 v -0.598243 l -2.392961,-2.392958 z m 11.401756,0 -2.39296,2.392958 v 0.598243 h 1.196479 l 1.794722,-1.79472 v -1.196481 z"
           id="path1"
           style="fill:#ffffff;fill-opacity:1;stroke-width:0.0175953"
           inkscape:label="Left Mech Equipment &amp; Gear" /></g></g></g></svg>
