<?xml version="1.0" encoding="UTF-8" standalone="no"?>
<!-- Created with Inkscape (http://www.inkscape.org/) -->

<svg
   width="101.6mm"
   height="152.40001mm"
   viewBox="0 0 101.6 152.40001"
   version="1.1"
   id="svg1"
   xml:space="preserve"
   inkscape:version="1.3.1 (91b66b0783, 2023-11-16)"
   sodipodi:docname="JumpJets.svg"
   inkscape:export-filename="Reserves\Equipment\JumpJetsBack.svg"
   inkscape:export-xdpi="96"
   inkscape:export-ydpi="96"
   xmlns:inkscape="http://www.inkscape.org/namespaces/inkscape"
   xmlns:sodipodi="http://sodipodi.sourceforge.net/DTD/sodipodi-0.dtd"
   xmlns="http://www.w3.org/2000/svg"
   xmlns:svg="http://www.w3.org/2000/svg"><sodipodi:namedview
     id="namedview1"
     pagecolor="#ffffff"
     bordercolor="#000000"
     borderopacity="0.25"
     inkscape:showpageshadow="2"
     inkscape:pageopacity="0.0"
     inkscape:pagecheckerboard="true"
     inkscape:deskcolor="#d1d1d1"
     inkscape:document-units="mm"
     inkscape:zoom="1"
     inkscape:cx="48"
     inkscape:cy="395.5"
     inkscape:window-width="1920"
     inkscape:window-height="1009"
     inkscape:window-x="1912"
     inkscape:window-y="-8"
     inkscape:window-maximized="1"
     inkscape:current-layer="layer1"
     inkscape:clip-to-page="true"
     showgrid="false" /><defs
     id="defs1"><rect
       x="35.355339"
       y="130.10765"
       width="361.7666"
       height="517.56348"
       id="rect13-8" /><rect
       x="21"
       y="490"
       width="352.14645"
       height="278.58704"
       id="rect10-0" /></defs><g
     inkscape:label="Layer 1"
     inkscape:groupmode="layer"
     id="layer1"
     transform="translate(-54.045021,-72.300003)"><path
       id="rect3-8"
       style="display:inline;fill:#000000;fill-opacity:1;stroke:#e36600;stroke-width:0.6;stroke-linecap:round;stroke-linejoin:bevel;stroke-miterlimit:3.3;stroke-dasharray:none;stroke-dashoffset:370.663;stroke-opacity:1"
       d="m 56.811648,93.750003 -0.239262,0.23306 V 143.625 l 12.69845,12.69792 h 83.801614 l 0.25322,-0.25321 V 106.4562 L 140.61999,93.750003 Z"
       inkscape:label="Window Background"
       sodipodi:nodetypes="ccccccccc" /><path
       id="rect1"
       style="fill:#333333;fill-opacity:1;stroke:none;stroke-width:0.5;stroke-linecap:butt;stroke-linejoin:bevel;stroke-miterlimit:3.3;stroke-dasharray:none;stroke-dashoffset:370.663;stroke-opacity:1"
       d="M 54.045539,72.300003 V 224.6969 H 155.64709 V 72.300003 Z m 2.801896,21.440954 h 83.808315 l 12.70569,12.706203 v 49.60729 l -0.25322,0.25321 H 69.306623 L 56.608173,143.60973 V 93.974018 Z"
       sodipodi:nodetypes="cccccccccccccc"
       inkscape:label="Card Background"
       inkscape:export-filename="Acrobatics1Back.png"
       inkscape:export-xdpi="96"
       inkscape:export-ydpi="96" /><text
       xml:space="preserve"
       id="text10-0"
       style="font-style:normal;font-variant:normal;font-weight:normal;font-stretch:normal;font-size:16px;line-height:1;font-family:Arial;-inkscape-font-specification:'Arial, Normal';font-variant-ligatures:normal;font-variant-caps:normal;font-variant-numeric:normal;font-variant-east-asian:normal;white-space:pre;shape-inside:url(#rect10-0);display:inline;fill:#ffffff;fill-opacity:1;stroke:#000000;stroke-width:0;stroke-linejoin:bevel;stroke-miterlimit:3.3;stroke-dashoffset:370.663"
       inkscape:label="BODY Trigger"
       transform="matrix(0.26458333,0,0,0.26458333,53.275939,32.807923)"><tspan
         x="21"
         y="502.41207"
         id="tspan2">During this mission your mech can <tspan
   style="font-weight:bold"
   id="tspan1">FLY</tspan> when </tspan><tspan
         x="21"
         y="518.41207"
         id="tspan6">moving, but must end movement on land.</tspan></text><g
       id="g6"
       inkscape:label="Card Logos"
       transform="matrix(1.3403164,0,0,1.3403164,-40.501079,-40.966328)"><path
         style="fill:#3e6a94;fill-opacity:1;stroke-width:0.268805"
         d="m 92.853967,140.52768 c 0.04774,-0.12441 6.229563,-10.78503 6.295485,-10.85664 0.03703,-0.0402 0.983308,0.46551 1.112198,0.59441 0.0238,0.0238 -1.307691,2.36681 -2.958862,5.20671 l -3.002129,5.16344 h -0.744052 c -0.635955,0 -0.738036,-0.0157 -0.70264,-0.10792 z m 3.267569,0.0546 c 0.711573,-1.24122 5.479064,-9.51879 5.490604,-9.53309 0.009,-0.0114 0.2723,0.12879 0.58476,0.3114 l 0.56813,0.33203 -0.98818,1.71555 c -0.5435,0.94355 -1.69922,2.95488 -2.568284,4.46962 l -1.580107,2.75408 -0.768752,0.002 c -0.422813,0.001 -0.75499,-0.0221 -0.738171,-0.0515 z m 3.988484,-0.059 c 0.056,-0.14607 4.31296,-7.65623 4.38553,-7.73707 0.058,-0.0647 1.13405,0.51173 1.13405,0.60747 0,0.0304 -0.91817,1.67228 -2.04038,3.6486 l -2.04038,3.5933 h -0.74096 c -0.64588,0 -0.73543,-0.0144 -0.69786,-0.1123 z m 3.54044,-0.43987 c 1.70607,-3.08791 3.30381,-5.91745 3.34198,-5.91853 0.0345,-0.001 0.9493,0.49748 1.10979,0.60471 0.0104,0.007 -0.71096,1.32165 -1.60305,2.92154 l -1.62199,2.90888 -0.76726,0.0203 -0.76727,0.0202 z m 3.06599,0.46033 c 0.0627,-0.16329 2.62124,-4.84902 2.68251,-4.9127 0.0329,-0.0342 0.30117,0.0719 0.60335,0.23872 0.41699,0.23019 0.53384,0.32763 0.50029,0.41721 -0.0241,0.0643 -0.56023,1.06903 -1.19146,2.23275 l -1.1477,2.11586 h -0.74112 c -0.57632,0 -0.73328,-0.0204 -0.70587,-0.0918 z m -14.955497,-2.44638 v -1.28647 l 2.470365,-4.27521 c 1.3587,-2.35136 2.502864,-4.27377 2.542585,-4.27201 0.03972,0.002 0.303791,0.13961 0.586821,0.30634 l 0.5146,0.30314 -2.994134,5.18778 c -1.646773,2.85328 -3.022507,5.21819 -3.057185,5.25535 -0.03682,0.0395 -0.06305,-0.46764 -0.06305,-1.21892 z m 16.465407,-4.79187 c -1.68156,-0.97264 -3.0679,-1.79999 -3.08075,-1.83854 -0.0395,-0.11853 1.27052,-1.37408 1.83746,-1.76103 0.29456,-0.20105 0.81991,-0.51186 1.16744,-0.69068 l 0.63188,-0.32514 0.21942,0.13432 c 0.12068,0.0739 0.81106,0.47563 1.53418,0.89278 0.72312,0.41715 1.3411,0.79612 1.37328,0.84215 0.0989,0.14139 10e-4,2.52392 -0.12433,3.03522 -0.13772,0.56067 -0.39548,1.36958 -0.45666,1.43312 -0.0245,0.0254 -1.42036,-0.74955 -3.10192,-1.7222 z m 11.37857,-1.36016 c -1.6429,-1.2527 -3.04575,-2.3191 -3.11745,-2.36976 -0.12106,-0.0855 0.023,-0.35808 2.0172,-3.81517 1.18117,-2.04767 2.15518,-3.73159 2.16447,-3.74204 0.0284,-0.032 4.60986,7.48177 4.60836,7.55786 -0.001,0.0687 -2.54617,4.50315 -2.6394,4.59925 -0.0254,0.0261 -1.39028,-0.97744 -3.03318,-2.23014 z m -19.12999,-3.11627 c -1.681127,-0.97233 -3.068496,-1.80358 -3.083046,-1.84723 -0.04258,-0.12773 1.326055,-1.44002 1.908479,-1.82992 0.293686,-0.1966 0.795547,-0.48897 1.115257,-0.64972 l 0.58127,-0.29226 1.56199,0.90249 1.56198,0.9025 0.0431,0.31482 c 0.15369,1.12124 -0.10123,3.0263 -0.54302,4.0582 l -0.0895,0.20899 z m 10.50177,-0.39084 c -1.77265,-1.02876 -3.23444,-1.8819 -3.24841,-1.89587 -0.014,-0.014 0.31622,-0.61583 0.73376,-1.33746 l 0.75917,-1.31206 0.67565,0.0177 c 0.78606,0.0206 1.27921,-0.0884 2.05504,-0.45437 0.77542,-0.36574 1.43506,-0.82958 2.15755,-1.51712 1.22893,-1.16949 2.12997,-2.52377 2.54893,-3.83112 0.0909,-0.2836 0.18903,-0.51563 0.21811,-0.51563 0.0722,0 3.58188,2.03703 3.58188,2.07895 0,0.10546 -6.12883,10.64729 -6.18755,10.64283 -0.0391,-0.003 -1.52148,-0.8471 -3.29413,-1.87586 z m -7.74586,-4.47346 c -1.76916,-1.02571 -3.234735,-1.88302 -3.256836,-1.90512 -0.0221,-0.0221 1.315836,-2.38848 2.973196,-5.25863 1.65735,-2.87015 3.04376,-5.27369 3.0809,-5.34121 0.0594,-0.10801 0.28085,7.5e-4 1.84369,0.90555 0.97688,0.56556 1.80816,1.03967 1.84728,1.05357 0.0391,0.0139 -0.10849,0.21955 -0.32802,0.45699 -0.98931,1.07009 -1.75493,2.63191 -2.1356,4.35649 -0.19814,0.89767 -0.23367,2.54942 -0.0688,3.20045 0.13693,0.54081 0.40129,1.12393 0.65102,1.43604 0.11554,0.14439 0.21008,0.28945 0.21008,0.32235 0,0.10173 -1.46606,2.6068 -1.53514,2.6231 -0.0358,0.008 -1.51259,-0.82387 -3.28174,-1.84958 z m 6.46835,-1.40018 c -0.84012,-0.16067 -1.29587,-1.04151 -1.29587,-2.50458 0,-1.66486 0.65759,-3.59336 1.68413,-4.93902 0.46957,-0.61555 0.9604,-1.02543 1.58745,-1.32568 0.40006,-0.19155 0.53888,-0.22111 1.03126,-0.21961 0.49083,0.002 0.6361,0.0333 1.05776,0.23149 1.30295,0.61245 1.82528,1.33928 1.82976,2.54614 0.003,0.75516 -0.14788,1.32786 -0.5786,2.19912 -0.78349,1.58487 -2.21276,3.03678 -3.63602,3.69364 -0.28713,0.13251 -0.65007,0.26163 -0.80654,0.28692 -0.15647,0.0253 -0.34849,0.0558 -0.42673,0.0679 -0.0782,0.012 -0.2792,-0.004 -0.4466,-0.0363 z m -13.700316,-4.26363 c -1.952416,-0.81972 -3.557392,-1.49853 -3.566613,-1.50847 -0.0189,-0.0204 2.5841,-4.54143 2.660524,-4.62098 0.02703,-0.0281 1.760773,-0.005 3.852768,0.0519 2.091997,0.0567 4.071087,0.10371 4.397987,0.10449 0.53638,0.001 0.58974,0.0135 0.54701,0.12587 -0.11926,0.31349 -4.207763,7.33844 -4.270706,7.33803 -0.03912,-2.6e-4 -1.668553,-0.67115 -3.62097,-1.49087 z m 22.953666,-1.08034 -2.00369,-1.15637 -0.0476,-0.31773 c -0.0958,-0.63867 -0.40324,-1.30934 -0.88814,-1.93727 l -0.14784,-0.19145 0.51855,-0.34991 c 0.63835,-0.43074 1.37979,-0.80805 2.14319,-1.09064 0.73489,-0.27204 2.19612,-0.64485 2.2571,-0.57587 0.0643,0.0728 0.39765,1.28715 0.54142,1.97258 0.0876,0.4176 0.1193,0.92849 0.11921,1.92028 -1.3e-4,1.37802 -0.0754,1.88697 -0.39211,2.65045 l -0.0964,0.2323 z m -9.90913,-5.71877 c -1.03659,-0.60512 -1.93065,-1.12714 -1.9868,-1.16005 -0.0793,-0.0465 -1.5e-4,-0.16633 0.35561,-0.53802 0.845,-0.88286 1.81649,-1.5153 3.1128,-2.02643 0.61634,-0.24302 2.21673,-0.71098 2.43151,-0.71098 0.16102,0 0.6641,2.2099 0.74888,3.28964 0.0269,0.34243 0.0267,0.91852 -5.4e-4,1.28019 l -0.0493,0.65758 -0.93707,0.002 c -0.80184,10e-4 -0.99351,0.0245 -1.32823,0.15999 -0.21514,0.0871 -0.40717,0.15571 -0.42673,0.1525 -0.0196,-0.003 -0.88368,-0.50094 -1.92027,-1.10607 z"
         id="path23"
         inkscape:label="Jump Jet Logo" /></g><rect
       style="display:inline;fill:#e36600;fill-opacity:1;stroke:#000000;stroke-width:0;stroke-linejoin:bevel;stroke-miterlimit:3.3;stroke-dashoffset:370.663"
       id="rect2"
       width="101.59982"
       height="18.07555"
       x="54.045109"
       y="72.266876"
       inkscape:label="Card Title Backing" /><text
       xml:space="preserve"
       style="font-style:normal;font-variant:normal;font-weight:bold;font-stretch:normal;font-size:9.87778px;line-height:0.8;font-family:Arial;-inkscape-font-specification:'Arial, Bold';font-variant-ligatures:normal;font-variant-position:normal;font-variant-caps:normal;font-variant-numeric:normal;font-variant-alternates:normal;font-variant-east-asian:normal;text-indent:0;text-align:center;text-decoration-line:none;text-decoration-style:solid;text-decoration-color:#000000;letter-spacing:normal;word-spacing:normal;text-transform:none;writing-mode:lr-tb;direction:ltr;text-orientation:mixed;dominant-baseline:auto;baseline-shift:baseline;text-anchor:middle;white-space:pre;inline-size:76.0664;display:inline;vector-effect:none;fill:#ffffff;fill-opacity:1;stroke:#000000;stroke-width:0;stroke-linecap:butt;stroke-linejoin:bevel;stroke-miterlimit:3.3;stroke-dasharray:none;stroke-dashoffset:370.663;stroke-opacity:1;-inkscape-stroke:none;stop-color:#000000"
       x="104.94299"
       y="83.013756"
       id="text7-0-9-5"
       inkscape:label="Card Title"
       transform="translate(0.05841379,1.8238417)"><tspan
         x="104.94299"
         y="83.013756"
         id="tspan7">JUMP JETS</tspan></text><g
       id="g1"
       inkscape:label="Title Icons"
       style="fill:#ffffff;fill-opacity:1"><g
         id="g4"
         inkscape:label="Mech Equipment &amp; Gear"
         style="display:inline;fill:#ffffff;fill-opacity:1"><path
           fill="currentColor"
           d="m 144.30685,75.267419 -1.79472,1.794725 v 1.196481 h 0.59824 l 2.39296,-2.392962 v -0.598244 z m 7.21408,0 v 0.598244 l 2.39296,2.392962 h 0.59823 v -1.196482 l -1.79472,-1.794725 z m -3.60704,1.794725 v 1.266858 q -0.28152,0.05279 -0.55425,0.167158 -0.27273,0.114369 -0.50147,0.272725 l -0.89736,-0.897357 -0.84458,0.844571 0.89736,0.897362 q -0.15836,0.228742 -0.27273,0.501468 -0.11437,0.272726 -0.16715,0.554248 h -1.26686 v 1.196483 h 1.26686 q 0.0528,0.281528 0.16715,0.554254 0.11437,0.272726 0.27273,0.501462 l -0.89736,0.897363 0.84458,0.844576 0.89736,-0.897364 q 0.22874,0.158361 0.50147,0.272727 0.27273,0.114371 0.55425,0.167157 v 1.266863 h 1.19647 v -1.266863 0 q 0.28153,-0.05279 0.55426,-0.167157 0.27272,-0.114366 0.50146,-0.272727 l 0.89736,0.897364 0.84458,-0.844576 -0.89736,-0.897363 q 0.15836,-0.228736 0.27273,-0.501462 0.11437,-0.272726 0.16715,-0.554254 h 1.26686 v -1.196483 h -1.26686 q -0.0528,-0.281522 -0.16715,-0.554248 -0.11437,-0.272726 -0.27273,-0.501468 l 0.89736,-0.897362 -0.84458,-0.844571 -0.89736,0.897357 q -0.24633,-0.158356 -0.51026,-0.272725 -0.26393,-0.114371 -0.54546,-0.167158 v -1.266858 z m 0.59824,2.410552 q 0.75659,0 1.27566,0.519064 0.51906,0.519063 0.51906,1.275661 0,0.756597 -0.51906,1.275656 -0.51907,0.519063 -1.27566,0.519063 -0.7566,0 -1.27567,-0.519063 -0.51906,-0.519058 -0.51906,-1.275656 0,-0.756598 0.51906,-1.275661 0.51907,-0.519064 1.27567,-0.519064 z m -6,4.803521 v 1.196481 l 1.79472,1.79472 h 1.19648 v -0.598243 l -2.39296,-2.392958 z m 11.40176,0 -2.39296,2.392958 v 0.598243 h 1.19647 l 1.79472,-1.79472 v -1.196481 z"
           id="path1-2"
           style="fill:#ffffff;fill-opacity:1;stroke-width:0.0175953"
           inkscape:label="Right Mech Equipment &amp; Gear" /><path
           fill="currentColor"
           d="m 56.898163,75.267419 -1.794721,1.794725 v 1.196481 h 0.598241 l 2.392961,-2.392962 v -0.598244 z m 7.214075,0 v 0.598244 l 2.39296,2.392962 h 0.598241 v -1.196481 l -1.794722,-1.794725 z m -3.607039,1.794725 v 1.266859 q -0.281524,0.05279 -0.554251,0.167157 -0.272726,0.11437 -0.501466,0.272725 l -0.897359,-0.897357 -0.844577,0.844572 0.897361,0.897361 q -0.158358,0.228743 -0.272728,0.501468 -0.114368,0.272727 -0.167155,0.554249 h -1.266861 v 1.196482 h 1.266861 q 0.05278,0.281528 0.167155,0.554255 0.11437,0.272725 0.272728,0.501462 l -0.897361,0.897362 0.844577,0.844577 0.897359,-0.897364 q 0.22874,0.15836 0.501466,0.272727 0.272727,0.114371 0.554251,0.167156 v 1.266864 h 1.196481 v -1.266864 0 q 0.281525,-0.05279 0.554252,-0.167156 0.272728,-0.114367 0.501467,-0.272727 l 0.89736,0.897364 0.844576,-0.844577 -0.897362,-0.897362 q 0.158358,-0.228737 0.272728,-0.501462 0.114369,-0.272727 0.167155,-0.554255 h 1.266861 v -1.196482 h -1.266861 q -0.05278,-0.281522 -0.167155,-0.554249 -0.11437,-0.272725 -0.272728,-0.501468 l 0.897362,-0.897361 -0.844576,-0.844572 -0.89736,0.897357 Q 62.511064,78.61053 62.247135,78.49616 61.983205,78.381789 61.70168,78.329003 v -1.266859 z m 0.598241,2.410553 q 0.756598,0 1.275661,0.519063 0.51906,0.519063 0.51906,1.275661 0,0.756598 -0.51906,1.275657 -0.519063,0.519063 -1.275661,0.519063 -0.756598,0 -1.27566,-0.519063 -0.519061,-0.519059 -0.519061,-1.275657 0,-0.756598 0.519061,-1.275661 0.519062,-0.519063 1.27566,-0.519063 z m -5.999998,4.803521 v 1.196481 l 1.794721,1.79472 h 1.196481 v -0.598243 l -2.392961,-2.392958 z m 11.401756,0 -2.39296,2.392958 v 0.598243 h 1.196479 l 1.794722,-1.79472 v -1.196481 z"
           id="path1"
           style="fill:#ffffff;fill-opacity:1;stroke-width:0.0175953"
           inkscape:label="Left Mech Equipment &amp; Gear" /></g></g></g></svg>
