<?xml version="1.0" encoding="UTF-8" standalone="no"?>
<!-- Created with Inkscape (http://www.inkscape.org/) -->

<svg
   width="101.6mm"
   height="152.40001mm"
   viewBox="0 0 101.6 152.40001"
   version="1.1"
   id="svg1"
   xml:space="preserve"
   inkscape:version="1.3.1 (91b66b0783, 2023-11-16)"
   sodipodi:docname="RedundantRepair.svg"
   inkscape:export-filename="Reserves\Equipment\RedundantRepairBack.svg"
   inkscape:export-xdpi="96"
   inkscape:export-ydpi="96"
   xmlns:inkscape="http://www.inkscape.org/namespaces/inkscape"
   xmlns:sodipodi="http://sodipodi.sourceforge.net/DTD/sodipodi-0.dtd"
   xmlns="http://www.w3.org/2000/svg"
   xmlns:svg="http://www.w3.org/2000/svg"><sodipodi:namedview
     id="namedview1"
     pagecolor="#ffffff"
     bordercolor="#000000"
     borderopacity="0.25"
     inkscape:showpageshadow="2"
     inkscape:pageopacity="0.0"
     inkscape:pagecheckerboard="true"
     inkscape:deskcolor="#d1d1d1"
     inkscape:document-units="mm"
     inkscape:zoom="1"
     inkscape:cx="13"
     inkscape:cy="327.5"
     inkscape:window-width="1920"
     inkscape:window-height="1009"
     inkscape:window-x="1912"
     inkscape:window-y="-8"
     inkscape:window-maximized="1"
     inkscape:current-layer="layer1"
     inkscape:clip-to-page="true"
     showgrid="false" /><defs
     id="defs1"><rect
       x="21"
       y="490"
       width="352.14645"
       height="278.58704"
       id="rect10-0" /></defs><g
     inkscape:label="Layer 1"
     inkscape:groupmode="layer"
     id="layer1"
     transform="translate(-54.045021,-72.300003)"><path
       id="rect3-8"
       style="display:inline;fill:#000000;fill-opacity:1;stroke:#e36600;stroke-width:0.6;stroke-linecap:round;stroke-linejoin:bevel;stroke-miterlimit:3.3;stroke-dasharray:none;stroke-dashoffset:370.663;stroke-opacity:1"
       d="m 56.811648,93.750003 -0.239262,0.23306 V 143.625 l 12.69845,12.69792 h 83.801614 l 0.25322,-0.25321 V 106.4562 L 140.61999,93.750003 Z"
       inkscape:label="Window Background"
       sodipodi:nodetypes="ccccccccc" /><path
       id="rect1"
       style="fill:#333333;fill-opacity:1;stroke:none;stroke-width:0.5;stroke-linecap:butt;stroke-linejoin:bevel;stroke-miterlimit:3.3;stroke-dasharray:none;stroke-dashoffset:370.663;stroke-opacity:1"
       d="M 54.045539,72.300003 V 224.6969 H 155.64709 V 72.300003 Z m 2.801896,21.440954 h 83.808315 l 12.70569,12.706203 v 49.60729 l -0.25322,0.25321 H 69.306623 L 56.608173,143.60973 V 93.974018 Z"
       sodipodi:nodetypes="cccccccccccccc"
       inkscape:label="Card Background"
       inkscape:export-filename="Acrobatics1Back.png"
       inkscape:export-xdpi="96"
       inkscape:export-ydpi="96" /><text
       xml:space="preserve"
       id="text10-0"
       style="font-style:normal;font-variant:normal;font-weight:normal;font-stretch:normal;font-size:16px;font-family:Arial;-inkscape-font-specification:'Arial, Normal';font-variant-ligatures:normal;font-variant-caps:normal;font-variant-numeric:normal;font-variant-east-asian:normal;white-space:pre;shape-inside:url(#rect10-0);display:inline;fill:#ffffff;fill-opacity:1;stroke:#000000;stroke-width:0;stroke-linejoin:bevel;stroke-miterlimit:3.3;stroke-dashoffset:370.663"
       inkscape:label="BODY Trigger"
       transform="matrix(0.26458333,0,0,0.26458333,53.275939,30.691255)"><tspan
         x="21"
         y="504.41207"
         id="tspan3">The ability to <tspan
   style="font-weight:bold"
   id="tspan1">STABILIZE</tspan> as a<tspan
   style="font-weight:bold"
   id="tspan2"> free action </tspan>once </tspan><tspan
         x="21"
         y="524.41207"
         id="tspan4">per mission.</tspan></text><g
       id="g6"
       inkscape:label="Card Logos"
       transform="matrix(1.3403164,0,0,1.3403164,-40.501079,-40.966328)"><path
         fill="currentColor"
         d="m 98.423576,129.95856 3.907604,-3.83356 c 0.68532,-0.67234 1.12926,-1.79506 1.35119,-3.34861 0.22193,-1.55353 0.65927,-2.66973 1.31202,-3.34859 0.67886,-0.67886 1.40342,-1.1162 2.17367,-1.31203 0.77024,-0.19583 1.83422,-0.20233 3.19193,-0.0195 l -3.48567,3.40737 0.58747,3.48568 3.44652,0.58747 3.44652,-3.48569 c 0.18277,1.20107 0.17627,2.22588 -0.0195,3.07445 -0.19583,0.84857 -0.63317,1.61229 -1.31202,2.29115 -0.65275,0.65275 -1.76243,1.0901 -3.32903,1.31203 -1.56659,0.22193 -2.67627,0.67233 -3.32902,1.35119 l -2.8414,2.64987 z m 23.020094,-13.54647 v 14.88268 l -12.92442,7.48051 -12.924453,-7.48051 v -14.88268 l 12.924453,-7.48051 z m -23.146483,1.52743 v 11.82782 l 10.222063,5.91391 10.26122,-5.91391 v -11.82782 l -10.26122,-5.91391 z"
         id="path1-18"
         style="display:inline;fill:none;fill-opacity:1;stroke:#3e6a94;stroke-width:0.746092;stroke-dasharray:none;stroke-opacity:1"
         inkscape:label="Repair"
         sodipodi:nodetypes="csscsccccccssccccccccccccccccc" /></g><rect
       style="display:inline;fill:#e36600;fill-opacity:1;stroke:#000000;stroke-width:0;stroke-linejoin:bevel;stroke-miterlimit:3.3;stroke-dashoffset:370.663"
       id="rect2"
       width="101.59982"
       height="18.07555"
       x="54.045109"
       y="72.266876"
       inkscape:label="Card Title Backing" /><text
       xml:space="preserve"
       style="font-style:normal;font-variant:normal;font-weight:bold;font-stretch:normal;font-size:10.5833px;line-height:0.8;font-family:Arial;-inkscape-font-specification:'Arial, Bold';font-variant-ligatures:normal;font-variant-position:normal;font-variant-caps:normal;font-variant-numeric:normal;font-variant-alternates:normal;font-variant-east-asian:normal;text-indent:0;text-align:center;text-decoration-line:none;text-decoration-style:solid;text-decoration-color:#000000;letter-spacing:normal;word-spacing:normal;text-transform:none;writing-mode:lr-tb;direction:ltr;text-orientation:mixed;dominant-baseline:auto;baseline-shift:baseline;text-anchor:middle;white-space:pre;inline-size:72.6988;display:inline;vector-effect:none;fill:#ffffff;fill-opacity:1;stroke:#000000;stroke-width:0;stroke-linecap:butt;stroke-linejoin:bevel;stroke-miterlimit:3.3;stroke-dasharray:none;stroke-dashoffset:370.663;stroke-opacity:1;-inkscape-stroke:none;stop-color:#000000"
       x="104.94299"
       y="83.013756"
       id="text7-0-9-5"
       inkscape:label="Card Title"
       transform="translate(-0.48591106,-2.2191483)"><tspan
         x="104.94299"
         y="83.013756"
         id="tspan5">REDUNDANT<tspan
   y="83.013756"
   id="tspan6"> </tspan></tspan><tspan
         x="104.94299"
         y="91.480394"
         id="tspan7">REPAIR</tspan></text><g
       id="g1"
       inkscape:label="Title Icons"
       style="fill:#ffffff;fill-opacity:1"><g
         id="g4"
         inkscape:label="Mech Equipment &amp; Gear"
         style="display:inline;fill:#ffffff;fill-opacity:1"><path
           fill="currentColor"
           d="m 144.30685,75.267419 -1.79472,1.794725 v 1.196481 h 0.59824 l 2.39296,-2.392962 v -0.598244 z m 7.21408,0 v 0.598244 l 2.39296,2.392962 h 0.59823 v -1.196482 l -1.79472,-1.794725 z m -3.60704,1.794725 v 1.266858 q -0.28152,0.05279 -0.55425,0.167158 -0.27273,0.114369 -0.50147,0.272725 l -0.89736,-0.897357 -0.84458,0.844571 0.89736,0.897362 q -0.15836,0.228742 -0.27273,0.501468 -0.11437,0.272726 -0.16715,0.554248 h -1.26686 v 1.196483 h 1.26686 q 0.0528,0.281528 0.16715,0.554254 0.11437,0.272726 0.27273,0.501462 l -0.89736,0.897363 0.84458,0.844576 0.89736,-0.897364 q 0.22874,0.158361 0.50147,0.272727 0.27273,0.114371 0.55425,0.167157 v 1.266863 h 1.19647 v -1.266863 0 q 0.28153,-0.05279 0.55426,-0.167157 0.27272,-0.114366 0.50146,-0.272727 l 0.89736,0.897364 0.84458,-0.844576 -0.89736,-0.897363 q 0.15836,-0.228736 0.27273,-0.501462 0.11437,-0.272726 0.16715,-0.554254 h 1.26686 v -1.196483 h -1.26686 q -0.0528,-0.281522 -0.16715,-0.554248 -0.11437,-0.272726 -0.27273,-0.501468 l 0.89736,-0.897362 -0.84458,-0.844571 -0.89736,0.897357 q -0.24633,-0.158356 -0.51026,-0.272725 -0.26393,-0.114371 -0.54546,-0.167158 v -1.266858 z m 0.59824,2.410552 q 0.75659,0 1.27566,0.519064 0.51906,0.519063 0.51906,1.275661 0,0.756597 -0.51906,1.275656 -0.51907,0.519063 -1.27566,0.519063 -0.7566,0 -1.27567,-0.519063 -0.51906,-0.519058 -0.51906,-1.275656 0,-0.756598 0.51906,-1.275661 0.51907,-0.519064 1.27567,-0.519064 z m -6,4.803521 v 1.196481 l 1.79472,1.79472 h 1.19648 v -0.598243 l -2.39296,-2.392958 z m 11.40176,0 -2.39296,2.392958 v 0.598243 h 1.19647 l 1.79472,-1.79472 v -1.196481 z"
           id="path1-2"
           style="fill:#ffffff;fill-opacity:1;stroke-width:0.0175953"
           inkscape:label="Right Mech Equipment &amp; Gear" /><path
           fill="currentColor"
           d="m 56.898163,75.267419 -1.794721,1.794725 v 1.196481 h 0.598241 l 2.392961,-2.392962 v -0.598244 z m 7.214075,0 v 0.598244 l 2.39296,2.392962 h 0.598241 v -1.196481 l -1.794722,-1.794725 z m -3.607039,1.794725 v 1.266859 q -0.281524,0.05279 -0.554251,0.167157 -0.272726,0.11437 -0.501466,0.272725 l -0.897359,-0.897357 -0.844577,0.844572 0.897361,0.897361 q -0.158358,0.228743 -0.272728,0.501468 -0.114368,0.272727 -0.167155,0.554249 h -1.266861 v 1.196482 h 1.266861 q 0.05278,0.281528 0.167155,0.554255 0.11437,0.272725 0.272728,0.501462 l -0.897361,0.897362 0.844577,0.844577 0.897359,-0.897364 q 0.22874,0.15836 0.501466,0.272727 0.272727,0.114371 0.554251,0.167156 v 1.266864 h 1.196481 v -1.266864 0 q 0.281525,-0.05279 0.554252,-0.167156 0.272728,-0.114367 0.501467,-0.272727 l 0.89736,0.897364 0.844576,-0.844577 -0.897362,-0.897362 q 0.158358,-0.228737 0.272728,-0.501462 0.114369,-0.272727 0.167155,-0.554255 h 1.266861 v -1.196482 h -1.266861 q -0.05278,-0.281522 -0.167155,-0.554249 -0.11437,-0.272725 -0.272728,-0.501468 l 0.897362,-0.897361 -0.844576,-0.844572 -0.89736,0.897357 Q 62.511064,78.61053 62.247135,78.49616 61.983205,78.381789 61.70168,78.329003 v -1.266859 z m 0.598241,2.410553 q 0.756598,0 1.275661,0.519063 0.51906,0.519063 0.51906,1.275661 0,0.756598 -0.51906,1.275657 -0.519063,0.519063 -1.275661,0.519063 -0.756598,0 -1.27566,-0.519063 -0.519061,-0.519059 -0.519061,-1.275657 0,-0.756598 0.519061,-1.275661 0.519062,-0.519063 1.27566,-0.519063 z m -5.999998,4.803521 v 1.196481 l 1.794721,1.79472 h 1.196481 v -0.598243 l -2.392961,-2.392958 z m 11.401756,0 -2.39296,2.392958 v 0.598243 h 1.196479 l 1.794722,-1.79472 v -1.196481 z"
           id="path1"
           style="fill:#ffffff;fill-opacity:1;stroke-width:0.0175953"
           inkscape:label="Left Mech Equipment &amp; Gear" /></g></g></g></svg>
