<?xml version="1.0" encoding="UTF-8" standalone="no"?>
<!-- Created with Inkscape (http://www.inkscape.org/) -->

<svg
   width="101.6mm"
   height="152.40001mm"
   viewBox="0 0 101.6 152.40001"
   version="1.1"
   id="svg1"
   xml:space="preserve"
   inkscape:version="1.3.1 (91b66b0783, 2023-11-16)"
   sodipodi:docname="RentedGear.svg"
   inkscape:export-filename="Reserves\Equipment\Ammo.svg"
   inkscape:export-xdpi="96"
   inkscape:export-ydpi="96"
   xmlns:inkscape="http://www.inkscape.org/namespaces/inkscape"
   xmlns:sodipodi="http://sodipodi.sourceforge.net/DTD/sodipodi-0.dtd"
   xmlns="http://www.w3.org/2000/svg"
   xmlns:svg="http://www.w3.org/2000/svg"><sodipodi:namedview
     id="namedview1"
     pagecolor="#ffffff"
     bordercolor="#000000"
     borderopacity="0.25"
     inkscape:showpageshadow="2"
     inkscape:pageopacity="0.0"
     inkscape:pagecheckerboard="true"
     inkscape:deskcolor="#d1d1d1"
     inkscape:document-units="mm"
     inkscape:zoom="1"
     inkscape:cx="61"
     inkscape:cy="257.5"
     inkscape:window-width="1920"
     inkscape:window-height="1009"
     inkscape:window-x="1912"
     inkscape:window-y="-8"
     inkscape:window-maximized="1"
     inkscape:current-layer="layer1"
     inkscape:clip-to-page="true"
     showgrid="false" /><defs
     id="defs1"><rect
       x="35.355339"
       y="130.10765"
       width="361.7666"
       height="517.56348"
       id="rect13-8" /><rect
       x="21"
       y="490"
       width="352.14645"
       height="278.58704"
       id="rect10-0" /></defs><g
     inkscape:label="Layer 1"
     inkscape:groupmode="layer"
     id="layer1"
     transform="translate(-54.045021,-72.300003)"><path
       id="rect3-8"
       style="display:inline;fill:#000000;fill-opacity:1;stroke:#e36600;stroke-width:0.6;stroke-linecap:round;stroke-linejoin:bevel;stroke-miterlimit:3.3;stroke-dasharray:none;stroke-dashoffset:370.663;stroke-opacity:1"
       d="m 56.811648,93.750003 -0.239262,0.23306 V 143.625 l 12.69845,12.69792 h 83.801614 l 0.25322,-0.25321 V 106.4562 L 140.61999,93.750003 Z"
       inkscape:label="Window Background"
       sodipodi:nodetypes="ccccccccc" /><path
       id="rect1"
       style="fill:#333333;fill-opacity:1;stroke:none;stroke-width:0.5;stroke-linecap:butt;stroke-linejoin:bevel;stroke-miterlimit:3.3;stroke-dasharray:none;stroke-dashoffset:370.663;stroke-opacity:1"
       d="M 54.045539,72.300003 V 224.6969 H 155.64709 V 72.300003 Z m 2.801896,21.440954 h 83.808315 l 12.70569,12.706203 v 49.60729 l -0.25322,0.25321 H 69.306623 L 56.608173,143.60973 V 93.974018 Z"
       sodipodi:nodetypes="cccccccccccccc"
       inkscape:label="Card Background"
       inkscape:export-filename="Acrobatics1Back.png"
       inkscape:export-xdpi="96"
       inkscape:export-ydpi="96" /><g
       id="g8"
       inkscape:label="Details Panel"
       style="display:inline"><rect
         style="fill:#3e6a94;fill-opacity:1;stroke-width:0.200206;stroke-linecap:round;stroke-linejoin:bevel;stroke-miterlimit:3.3"
         id="rect8"
         width="93.740364"
         height="5.2426105"
         x="58.155125"
         y="177.44383"
         inkscape:label="Details Title Banner" /><text
         xml:space="preserve"
         style="font-style:normal;font-variant:normal;font-weight:bold;font-stretch:normal;font-size:4.93889px;line-height:1.5;font-family:Arial;-inkscape-font-specification:'Arial, Bold';font-variant-ligatures:normal;font-variant-caps:normal;font-variant-numeric:normal;font-variant-east-asian:normal;text-align:end;letter-spacing:0px;word-spacing:0px;text-anchor:end;fill:#ffffff;fill-opacity:1;stroke-width:0.2;stroke-linecap:round;stroke-linejoin:bevel;stroke-miterlimit:3.3"
         x="79.489082"
         y="181.8316"
         id="text6"
         inkscape:label="Details Title"><tspan
           sodipodi:role="line"
           id="tspan6"
           style="font-size:4.93889px;fill:#ffffff;stroke-width:0.2"
           x="79.489082"
           y="181.8316">DETAILS</tspan></text><rect
         style="fill:#ffffff;fill-opacity:1;stroke-width:0.290019;stroke-linecap:round;stroke-linejoin:bevel;stroke-miterlimit:3.3"
         id="rect9"
         width="93.734917"
         height="33.533577"
         x="58.160973"
         y="182.68231"
         inkscape:label="Details Panel Background" /><path
         id="path11"
         style="fill:#1e1e1e;fill-opacity:1;stroke:#1e1e1e;stroke-width:0.2;stroke-linecap:round;stroke-linejoin:bevel;stroke-miterlimit:3.3;stroke-opacity:1"
         d="m 62.959722,191.23021 h 84.137498 z m 0,7.98763 h 84.137498 z m 0,7.98762 h 84.137498 z"
         inkscape:label="Writing Lines" /><text
         xml:space="preserve"
         style="font-weight:bold;font-size:4.9389px;line-height:1.5;font-family:Arial;-inkscape-font-specification:'Arial, Bold';text-align:start;letter-spacing:0px;word-spacing:0px;text-anchor:start;white-space:pre;inline-size:84.3242;display:inline;fill:#ffffff;fill-opacity:1;stroke:#1e1e1e;stroke-width:0.2;stroke-linecap:round;stroke-linejoin:bevel;stroke-miterlimit:3.3;stroke-opacity:1"
         x="62.589531"
         y="190.30417"
         id="text11"
         inkscape:label="Details Body"><tspan
           x="62.589531"
           y="190.30417"
           id="tspan3"><tspan
             style="font-variant-caps:small-caps"
             id="tspan1">
</tspan></tspan></text></g><text
       xml:space="preserve"
       id="text10-0"
       style="font-style:normal;font-variant:normal;font-weight:normal;font-stretch:normal;font-size:16px;font-family:Arial;-inkscape-font-specification:'Arial, Normal';font-variant-ligatures:normal;font-variant-caps:normal;font-variant-numeric:normal;font-variant-east-asian:normal;white-space:pre;shape-inside:url(#rect10-0);display:inline;fill:#ffffff;fill-opacity:1;stroke:#000000;stroke-width:0;stroke-linejoin:bevel;stroke-miterlimit:3.3;stroke-dashoffset:370.663"
       inkscape:label="BODY Trigger"
       transform="matrix(0.26458333,0,0,0.26458333,53.275939,30.691255)"><tspan
         x="21"
         y="504.41207"
         id="tspan4">Temporary access to a new weapon or piece of </tspan><tspan
         x="21"
         y="524.41207"
         id="tspan7">mech gear.</tspan></text><g
       id="g6"
       inkscape:label="Card Logos"
       transform="matrix(1.3403164,0,0,1.3403164,-40.501079,-40.966328)"><g
         id="g10"
         inkscape:label="Supply Logo"
         style="display:inline" /><path
         fill="currentColor"
         d="m 131.29441,99.350602 -8.83551,2.931588 v 3.94951 l -16.16449,16.1645 v 1.95439 h 1.9544 L 124.4133,108.1861 h 3.94951 z m -27.76873,0 2.93159,8.835498 h 3.94951 l 3.25734,3.25733 1.95439,-1.9544 -3.25733,-3.25733 v -3.94951 z m 17.63029,15.675888 -1.9544,1.9544 7.36971,7.3697 h 1.9544 v -1.95439 z"
         id="path1-7"
         style="fill:#3e6a94;fill-opacity:1;stroke-width:0.0407167"
         inkscape:label="Weapon Logo"
         transform="matrix(0.7460925,0,0,0.7460925,30.287437,30.564669)" /><path
         fill="currentColor"
         d="m 119.90271,125.72231 -2.23606,2.23608 -1.8695,-1.86951 -1.75954,1.75954 1.8695,1.8695 -2.60264,2.60264 -1.90615,-1.86951 -1.75953,1.75954 1.8695,1.90616 -2.60264,2.60263 -1.8695,-1.8695 -1.75953,1.75953 1.8695,1.8695 -2.23607,2.23608 v 1.24633 l 8.76099,8.761 h 1.24634 l 2.23607,-2.23607 1.8695,1.8695 1.75953,-1.75953 -1.8695,-1.8695 2.6393,-2.60264 1.86949,1.8695 1.75953,-1.75953 -1.8695,-1.90616 2.60264,-2.60264 1.8695,1.8695 1.75953,-1.75953 -1.8695,-1.8695 2.23607,-2.23607 v -1.24634 l -8.76099,-8.761 z m 0,6.23168 3.77566,3.77566 -8.76099,8.761 -3.77566,-3.77566 z"
         id="path1-4"
         style="fill:#3e6a94;fill-opacity:1;stroke-width:0.036657"
         inkscape:label="System Logo"
         transform="matrix(0.7460925,0,0,0.7460925,30.287437,30.564669)" /><path
         style="fill:#3e6a94;fill-opacity:1;stroke-width:0.197884"
         d="m 88.216022,135.56972 c -1.275687,-0.0986 -2.531416,-0.44589 -3.764477,-1.04104 -3.166348,-1.52829 -5.350441,-4.51741 -5.861369,-8.02181 -0.106857,-0.73292 -0.106952,-2.23692 -1.89e-4,-2.9709 0.669474,-4.60253 4.13882,-8.17339 8.707119,-8.96189 0.617116,-0.10651 1.003014,-0.13089 1.002184,-0.0633 -2.58e-4,0.0216 -0.09187,0.29844 -0.203566,0.61519 l -0.203083,0.57593 -0.568698,0.11526 c -2.924983,0.59283 -5.364574,2.4541 -6.642767,5.06807 -1.776318,3.63265 -1.058944,7.91171 1.803868,10.75988 1.097132,1.09153 2.415503,1.8782 3.897471,2.32564 0.807589,0.24382 1.445219,0.34668 2.36229,0.38105 1.210475,0.0454 2.241246,-0.10406 3.371935,-0.48884 0.359874,-0.12246 0.574707,-0.17052 0.633212,-0.14165 0.14766,0.0729 1.045484,0.72202 1.046417,0.75659 0.0012,0.0459 -0.623008,0.31893 -1.177159,0.51491 -1.366896,0.48343 -2.9423,0.68984 -4.403188,0.5769 z m 5.641679,-2.27385 c -1.104198,-0.787 -2.029946,-1.45322 -2.057218,-1.48049 -0.03121,-0.0312 0.08658,-0.15311 0.317833,-0.32892 0.231948,-0.17633 0.35138,-0.30003 0.323922,-0.33548 -0.53584,-0.69192 -2.571761,-3.44401 -2.571761,-3.47642 0,-0.0247 0.09016,-0.0719 0.200357,-0.10493 0.110197,-0.033 0.348578,-0.15583 0.529736,-0.27292 0.308587,-0.19945 0.333579,-0.20692 0.39593,-0.11842 0.318484,0.45208 2.450801,3.23975 2.488202,3.25294 0.02661,0.009 0.192169,-0.0936 0.3679,-0.2288 0.175731,-0.13522 0.338719,-0.22536 0.362196,-0.20031 0.02348,0.0251 0.235987,0.59923 0.472247,1.27594 0.805177,2.30625 1.201285,3.45556 1.18978,3.45214 -0.0063,-0.002 -0.914926,-0.64733 -2.019124,-1.43433 z m -5.296145,-0.83232 v -0.90879 l -0.31621,-0.0331 c -0.416752,-0.0436 -1.077814,-0.21466 -1.585276,-0.41032 -0.225124,-0.0868 -0.416212,-0.1496 -0.42464,-0.13956 -0.0084,0.01 -0.2095,0.35401 -0.446827,0.76435 -0.237326,0.41035 -0.454437,0.74609 -0.482469,0.74609 -0.08241,0 -0.776054,-0.41919 -0.776054,-0.46899 0,-0.025 0.197841,-0.38636 0.439647,-0.80296 l 0.439646,-0.75745 -0.439963,-0.34979 c -0.396898,-0.31556 -0.858076,-0.79685 -1.149229,-1.19935 l -0.107797,-0.14903 -0.780977,0.45015 c -0.429537,0.24758 -0.794501,0.45015 -0.81103,0.45015 -0.05676,0 -0.476427,-0.74524 -0.453073,-0.80456 0.01284,-0.0326 0.366309,-0.25455 0.785474,-0.49315 l 0.762118,-0.43382 -0.152174,-0.3576 c -0.187422,-0.44044 -0.35922,-1.05626 -0.439623,-1.57585 l -0.06076,-0.39268 -0.927152,-0.0143 -0.927152,-0.0143 v -0.47 -0.47 h 0.910643 c 0.996316,0 0.974203,0.007 0.974203,-0.32063 0,-0.26493 0.155438,-0.93809 0.347788,-1.50616 0.147885,-0.43676 0.170476,-0.5531 0.114551,-0.5899 -0.03832,-0.0252 -0.36417,-0.21413 -0.724123,-0.41981 -0.359954,-0.20568 -0.684307,-0.39698 -0.720787,-0.42511 -0.05154,-0.0398 -0.02429,-0.12833 0.122298,-0.39742 0.103743,-0.19045 0.216052,-0.3746 0.249575,-0.40923 0.04714,-0.0487 0.23846,0.039 0.844103,0.38683 l 0.783152,0.44979 0.133092,-0.17557 c 0.347948,-0.45898 0.778114,-0.9181 1.158661,-1.23664 0.22983,-0.19239 0.407818,-0.3748 0.395528,-0.40537 -0.01229,-0.0306 -0.213264,-0.38468 -0.446609,-0.78694 -0.335705,-0.5787 -0.410654,-0.74442 -0.359057,-0.79394 0.03587,-0.0344 0.222431,-0.14824 0.41459,-0.25292 l 0.349382,-0.19034 0.177007,0.30365 c 0.09735,0.167 0.302359,0.52158 0.455568,0.78794 0.153208,0.26637 0.286782,0.4843 0.29683,0.4843 0.01005,0 0.124407,-0.0516 0.254128,-0.11459 0.129722,-0.063 0.251048,-0.0994 0.269613,-0.0808 0.02732,0.0273 -0.150085,0.5649 -0.647643,1.96247 -0.01788,0.0502 0.136426,0.0654 0.66294,0.0654 h 0.686241 l -6.14e-4,0.95551 -6.13e-4,0.95551 -0.264926,0.26179 c -0.346662,0.34255 -0.655467,0.96632 -0.732233,1.47908 -0.162029,1.08227 0.353084,2.14551 1.337632,2.761 0.08581,0.0536 0.326243,0.15823 0.534305,0.23243 l 0.378294,0.13489 1.20656,1.60941 c 0.663607,0.88518 1.206559,1.6282 1.206559,1.65116 0,0.023 -0.116633,0.12881 -0.259184,0.23523 -0.209158,0.15615 -0.332953,0.20453 -0.641371,0.25061 -0.698747,0.10441 -0.617793,-0.0257 -0.617793,0.99288 v 0.88907 h -0.497389 -0.49739 z m 7.673247,0.2765 c -0.1876,-0.51986 -0.395647,-1.15845 -0.395647,-1.21441 0,-0.039 0.073,-0.14012 0.162227,-0.2247 0.275447,-0.26109 0.908937,-1.13515 1.216461,-1.67841 1.687025,-2.98024 1.618071,-6.59156 -0.182075,-9.53539 -1.111456,-1.81759 -2.958923,-3.27565 -5.018662,-3.96083 -0.302361,-0.10058 -0.795676,-0.23268 -1.096257,-0.29355 -0.30058,-0.0609 -0.561608,-0.12001 -0.580062,-0.13141 -0.05899,-0.0365 -0.432376,-1.18051 -0.396874,-1.21601 0.05256,-0.0526 1.007151,0.0802 1.583289,0.2202 3.087175,0.75019 5.662306,2.8008 7.037149,5.60376 0.701772,1.43075 1.024925,2.71425 1.081558,4.29576 0.09667,2.69957 -0.760336,5.19664 -2.487866,7.24892 -0.566129,0.67256 -0.888607,0.98205 -0.923241,0.88607 z m -0.735968,-3.34783 c -0.560509,-0.33159 -0.519735,-0.28124 -0.774354,-0.95624 -0.0302,-0.0801 -0.104966,-0.0409 -0.525097,0.27487 -0.269436,0.20252 -0.502747,0.36822 -0.518468,0.36822 -0.01572,0 -0.501712,-0.63138 -1.079978,-1.40308 l -1.051394,-1.40308 0.131715,-0.3261 c 0.378689,-0.93754 0.128932,-2.08771 -0.619665,-2.85366 l -0.301051,-0.30803 v -0.91068 -0.91068 h 0.680639 c 0.374351,0 0.680638,-0.0192 0.680638,-0.0426 0,-0.0234 -0.153143,-0.481 -0.340319,-1.01683 -0.187176,-0.53582 -0.340319,-0.98751 -0.340319,-1.00376 0,-0.0162 0.117739,0.0169 0.261644,0.0736 l 0.261644,0.10313 0.122004,-0.19552 c 0.0671,-0.10754 0.258261,-0.43724 0.424799,-0.73268 0.166539,-0.29543 0.32481,-0.55076 0.351716,-0.56739 0.04914,-0.0304 0.830215,0.39029 0.828758,0.44634 -4.35e-4,0.0165 -0.197729,0.36925 -0.438448,0.78397 l -0.437671,0.75404 0.373003,0.29755 c 0.408809,0.32612 0.96939,0.90178 1.212498,1.24512 0.08541,0.12062 0.170884,0.21982 0.189951,0.22043 0.01907,5.9e-4 0.367714,-0.19095 0.77477,-0.4257 0.43155,-0.24888 0.758888,-0.40713 0.785163,-0.37959 0.02478,0.026 0.133653,0.20957 0.241933,0.40797 0.231628,0.42443 0.30119,0.3295 -0.638243,0.871 -0.356699,0.2056 -0.648543,0.39806 -0.648543,0.42769 0,0.0296 0.08015,0.26917 0.17812,0.53232 0.17197,0.46193 0.302352,1.01729 0.373531,1.59104 l 0.0341,0.27487 h 0.885154 0.885153 v 0.47121 0.47121 h -0.889069 c -0.880412,0 -0.889287,0.001 -0.911613,0.1178 -0.01241,0.0648 -0.04941,0.28273 -0.08225,0.48431 -0.07814,0.47963 -0.238451,1.01811 -0.427555,1.43618 -0.08376,0.18518 -0.134171,0.35424 -0.11202,0.37568 0.02215,0.0214 0.358343,0.22058 0.747092,0.44253 0.388749,0.22196 0.71557,0.41114 0.726268,0.42041 0.01696,0.0147 -0.461297,0.86365 -0.482548,0.85658 -0.0045,-0.002 -0.24372,-0.14208 -0.531683,-0.31243 z m -6.832565,-2.69776 c -1.367116,-0.38089 -1.752173,-2.10498 -0.675878,-3.02625 0.346294,-0.29641 0.721685,-0.41543 1.225624,-0.38858 0.514165,0.0274 0.837292,0.17691 1.184487,0.54809 0.340632,0.36417 0.481594,0.7613 0.452899,1.27597 -0.03716,0.66638 -0.367804,1.17679 -0.945855,1.46008 -0.404465,0.19822 -0.835879,0.24364 -1.241277,0.13069 z m -0.261784,-5.50066 v -1.17246 h -0.471212 c -0.363474,0 -0.471211,-0.0164 -0.471211,-0.0715 0,-0.073 1.549862,-4.50496 1.619653,-4.63158 0.03107,-0.0564 0.553061,1.39538 1.667534,4.63768 0.01697,0.0494 -0.101009,0.0654 -0.480496,0.0654 h -0.502991 v 1.14527 1.14528 l -0.458122,-0.0245 c -0.251967,-0.0135 -0.558255,-0.001 -0.680639,0.0272 l -0.222516,0.0517 z"
         id="path16"
         inkscape:label="Clock Logo"
         sodipodi:nodetypes="scssssscsssscscccssssscscsccccscscccsssssscsscsssscsscccccssscscssccsscscscsssscsscccsscccsssssccccssssssccccssssscssscsscccssssccsscsscsscscssssscccccscsscsscsssssssssccsscssccccccc"
         transform="matrix(0.7460925,0,0,0.7460925,30.21755,30.56467)" /></g><rect
       style="display:inline;fill:#e36600;fill-opacity:1;stroke:#000000;stroke-width:0;stroke-linejoin:bevel;stroke-miterlimit:3.3;stroke-dashoffset:370.663"
       id="rect2"
       width="101.59982"
       height="18.07555"
       x="54.045109"
       y="72.266876"
       inkscape:label="Card Title Backing" /><text
       xml:space="preserve"
       style="font-style:normal;font-variant:normal;font-weight:bold;font-stretch:normal;font-size:10.5833px;line-height:0.8;font-family:Arial;-inkscape-font-specification:'Arial, Bold';font-variant-ligatures:normal;font-variant-position:normal;font-variant-caps:normal;font-variant-numeric:normal;font-variant-alternates:normal;font-variant-east-asian:normal;text-indent:0;text-align:center;text-decoration-line:none;text-decoration-style:solid;text-decoration-color:#000000;letter-spacing:normal;word-spacing:normal;text-transform:none;writing-mode:lr-tb;direction:ltr;text-orientation:mixed;dominant-baseline:auto;baseline-shift:baseline;text-anchor:middle;white-space:pre;inline-size:72.6988;display:inline;vector-effect:none;fill:#ffffff;fill-opacity:1;stroke:#000000;stroke-width:0;stroke-linecap:butt;stroke-linejoin:bevel;stroke-miterlimit:3.3;stroke-dasharray:none;stroke-dashoffset:370.663;stroke-opacity:1;-inkscape-stroke:none;stop-color:#000000"
       x="104.94299"
       y="83.013756"
       id="text7-0-9-5"
       inkscape:label="Card Title"
       transform="translate(-0.48591106,-2.2191483)"><tspan
         x="104.94299"
         y="83.013756"
         id="tspan8">RENTED<tspan
   y="83.013756"
   id="tspan9"> </tspan></tspan><tspan
         x="104.94299"
         y="91.480394"
         id="tspan10">GEAR</tspan></text><g
       id="g1"
       inkscape:label="Title Icons"
       style="fill:#ffffff;fill-opacity:1"><g
         id="g4"
         inkscape:label="Mech Equipment &amp; Gear"
         style="display:inline;fill:#ffffff;fill-opacity:1"><path
           fill="currentColor"
           d="m 144.30685,75.267419 -1.79472,1.794725 v 1.196481 h 0.59824 l 2.39296,-2.392962 v -0.598244 z m 7.21408,0 v 0.598244 l 2.39296,2.392962 h 0.59823 v -1.196482 l -1.79472,-1.794725 z m -3.60704,1.794725 v 1.266858 q -0.28152,0.05279 -0.55425,0.167158 -0.27273,0.114369 -0.50147,0.272725 l -0.89736,-0.897357 -0.84458,0.844571 0.89736,0.897362 q -0.15836,0.228742 -0.27273,0.501468 -0.11437,0.272726 -0.16715,0.554248 h -1.26686 v 1.196483 h 1.26686 q 0.0528,0.281528 0.16715,0.554254 0.11437,0.272726 0.27273,0.501462 l -0.89736,0.897363 0.84458,0.844576 0.89736,-0.897364 q 0.22874,0.158361 0.50147,0.272727 0.27273,0.114371 0.55425,0.167157 v 1.266863 h 1.19647 v -1.266863 0 q 0.28153,-0.05279 0.55426,-0.167157 0.27272,-0.114366 0.50146,-0.272727 l 0.89736,0.897364 0.84458,-0.844576 -0.89736,-0.897363 q 0.15836,-0.228736 0.27273,-0.501462 0.11437,-0.272726 0.16715,-0.554254 h 1.26686 v -1.196483 h -1.26686 q -0.0528,-0.281522 -0.16715,-0.554248 -0.11437,-0.272726 -0.27273,-0.501468 l 0.89736,-0.897362 -0.84458,-0.844571 -0.89736,0.897357 q -0.24633,-0.158356 -0.51026,-0.272725 -0.26393,-0.114371 -0.54546,-0.167158 v -1.266858 z m 0.59824,2.410552 q 0.75659,0 1.27566,0.519064 0.51906,0.519063 0.51906,1.275661 0,0.756597 -0.51906,1.275656 -0.51907,0.519063 -1.27566,0.519063 -0.7566,0 -1.27567,-0.519063 -0.51906,-0.519058 -0.51906,-1.275656 0,-0.756598 0.51906,-1.275661 0.51907,-0.519064 1.27567,-0.519064 z m -6,4.803521 v 1.196481 l 1.79472,1.79472 h 1.19648 v -0.598243 l -2.39296,-2.392958 z m 11.40176,0 -2.39296,2.392958 v 0.598243 h 1.19647 l 1.79472,-1.79472 v -1.196481 z"
           id="path1-2"
           style="fill:#ffffff;fill-opacity:1;stroke-width:0.0175953"
           inkscape:label="Right Mech Equipment &amp; Gear" /><path
           fill="currentColor"
           d="m 56.898163,75.267419 -1.794721,1.794725 v 1.196481 h 0.598241 l 2.392961,-2.392962 v -0.598244 z m 7.214075,0 v 0.598244 l 2.39296,2.392962 h 0.598241 v -1.196481 l -1.794722,-1.794725 z m -3.607039,1.794725 v 1.266859 q -0.281524,0.05279 -0.554251,0.167157 -0.272726,0.11437 -0.501466,0.272725 l -0.897359,-0.897357 -0.844577,0.844572 0.897361,0.897361 q -0.158358,0.228743 -0.272728,0.501468 -0.114368,0.272727 -0.167155,0.554249 h -1.266861 v 1.196482 h 1.266861 q 0.05278,0.281528 0.167155,0.554255 0.11437,0.272725 0.272728,0.501462 l -0.897361,0.897362 0.844577,0.844577 0.897359,-0.897364 q 0.22874,0.15836 0.501466,0.272727 0.272727,0.114371 0.554251,0.167156 v 1.266864 h 1.196481 v -1.266864 0 q 0.281525,-0.05279 0.554252,-0.167156 0.272728,-0.114367 0.501467,-0.272727 l 0.89736,0.897364 0.844576,-0.844577 -0.897362,-0.897362 q 0.158358,-0.228737 0.272728,-0.501462 0.114369,-0.272727 0.167155,-0.554255 h 1.266861 v -1.196482 h -1.266861 q -0.05278,-0.281522 -0.167155,-0.554249 -0.11437,-0.272725 -0.272728,-0.501468 l 0.897362,-0.897361 -0.844576,-0.844572 -0.89736,0.897357 Q 62.511064,78.61053 62.247135,78.49616 61.983205,78.381789 61.70168,78.329003 v -1.266859 z m 0.598241,2.410553 q 0.756598,0 1.275661,0.519063 0.51906,0.519063 0.51906,1.275661 0,0.756598 -0.51906,1.275657 -0.519063,0.519063 -1.275661,0.519063 -0.756598,0 -1.27566,-0.519063 -0.519061,-0.519059 -0.519061,-1.275657 0,-0.756598 0.519061,-1.275661 0.519062,-0.519063 1.27566,-0.519063 z m -5.999998,4.803521 v 1.196481 l 1.794721,1.79472 h 1.196481 v -0.598243 l -2.392961,-2.392958 z m 11.401756,0 -2.39296,2.392958 v 0.598243 h 1.196479 l 1.794722,-1.79472 v -1.196481 z"
           id="path1"
           style="fill:#ffffff;fill-opacity:1;stroke-width:0.0175953"
           inkscape:label="Left Mech Equipment &amp; Gear" /></g></g></g></svg>
