<?xml version="1.0" encoding="UTF-8" standalone="no"?>
<!-- Created with Inkscape (http://www.inkscape.org/) -->

<svg
   width="101.6mm"
   height="152.40001mm"
   viewBox="0 0 101.6 152.40001"
   version="1.1"
   id="svg1"
   xml:space="preserve"
   inkscape:version="1.3.1 (91b66b0783, 2023-11-16)"
   sodipodi:docname="SmartAmmo.svg"
   inkscape:export-filename="Reserves\Equipment\SystemsReinforcementBack.svg"
   inkscape:export-xdpi="96"
   inkscape:export-ydpi="96"
   xmlns:inkscape="http://www.inkscape.org/namespaces/inkscape"
   xmlns:sodipodi="http://sodipodi.sourceforge.net/DTD/sodipodi-0.dtd"
   xmlns="http://www.w3.org/2000/svg"
   xmlns:svg="http://www.w3.org/2000/svg"><sodipodi:namedview
     id="namedview1"
     pagecolor="#ffffff"
     bordercolor="#000000"
     borderopacity="0.25"
     inkscape:showpageshadow="2"
     inkscape:pageopacity="0.0"
     inkscape:pagecheckerboard="true"
     inkscape:deskcolor="#d1d1d1"
     inkscape:document-units="mm"
     inkscape:zoom="0.70710678"
     inkscape:cx="260.2153"
     inkscape:cy="398.10112"
     inkscape:window-width="1920"
     inkscape:window-height="1009"
     inkscape:window-x="3832"
     inkscape:window-y="-8"
     inkscape:window-maximized="1"
     inkscape:current-layer="layer1"
     inkscape:clip-to-page="true"
     showgrid="false" /><defs
     id="defs1"><rect
       x="35.355339"
       y="130.10765"
       width="361.7666"
       height="517.56348"
       id="rect13-8" /><rect
       x="21"
       y="490"
       width="352.14645"
       height="278.58704"
       id="rect10-0" /></defs><g
     inkscape:label="Layer 1"
     inkscape:groupmode="layer"
     id="layer1"
     transform="translate(-54.045021,-72.300003)"><path
       id="rect3-8"
       style="display:inline;fill:#000000;fill-opacity:1;stroke:#e36600;stroke-width:0.6;stroke-linecap:round;stroke-linejoin:bevel;stroke-miterlimit:3.3;stroke-dasharray:none;stroke-dashoffset:370.663;stroke-opacity:1"
       d="m 56.811648,93.750003 -0.239262,0.23306 V 143.625 l 12.69845,12.69792 h 83.801614 l 0.25322,-0.25321 V 106.4562 L 140.61999,93.750003 Z"
       inkscape:label="Window Background"
       sodipodi:nodetypes="ccccccccc" /><path
       id="rect1"
       style="fill:#333333;fill-opacity:1;stroke:none;stroke-width:0.5;stroke-linecap:butt;stroke-linejoin:bevel;stroke-miterlimit:3.3;stroke-dasharray:none;stroke-dashoffset:370.663;stroke-opacity:1"
       d="M 54.045539,72.300003 V 224.6969 H 155.64709 V 72.300003 Z m 2.801896,21.440954 h 83.808315 l 12.70569,12.706203 v 49.60729 l -0.25322,0.25321 H 69.306623 L 56.608173,143.60973 V 93.974018 Z"
       sodipodi:nodetypes="cccccccccccccc"
       inkscape:label="Card Background"
       inkscape:export-filename="Acrobatics1Back.png"
       inkscape:export-xdpi="96"
       inkscape:export-ydpi="96" /><text
       xml:space="preserve"
       id="text10-0"
       style="font-style:normal;font-variant:normal;font-weight:normal;font-stretch:normal;font-size:16px;line-height:1;font-family:Arial;-inkscape-font-specification:'Arial, Normal';font-variant-ligatures:normal;font-variant-caps:normal;font-variant-numeric:normal;font-variant-east-asian:normal;white-space:pre;shape-inside:url(#rect10-0);display:inline;fill:#ffffff;fill-opacity:1;stroke:#000000;stroke-width:0;stroke-linejoin:bevel;stroke-miterlimit:3.3;stroke-dashoffset:370.663"
       inkscape:label="BODY Trigger"
       transform="matrix(0.26458333,0,0,0.26458333,53.275939,32.807923)"><tspan
         x="21"
         y="502.41207"
         id="tspan1">All weapons of your choice can be fired as if they </tspan><tspan
         x="21"
         y="518.41207"
         id="tspan3">are <tspan
   style="font-weight:bold"
   id="tspan2">SMART</tspan>.</tspan></text><path
       id="path19"
       style="fill:#3e6a94;fill-opacity:1;stroke-width:0.295262"
       d="M 169.57972 120.25981 C 169.57974 120.25981 169.58056 120.26173 169.58057 120.26174 C 169.58059 120.26173 169.58141 120.25981 169.58142 120.25981 L 169.57972 120.25981 z M 169.58057 120.26174 C 169.55311 120.2649 168.5798 122.64326 167.41602 125.55231 C 167.38962 125.61831 167.37996 125.64292 167.35426 125.7073 L 167.62046 125.70692 L 168.80539 125.70306 L 169.11546 126.01343 C 169.42062 126.31877 169.42647 126.32337 169.46174 126.31108 C 169.48144 126.30408 169.54056 126.30104 169.59292 126.30414 C 169.702 126.31014 169.77025 126.34289 169.83783 126.4198 C 169.99527 126.59913 169.93761 126.88143 169.72198 126.9858 C 169.64748 127.0219 169.52921 127.02852 169.45279 127.00122 C 169.32274 126.95452 169.23473 126.84964 169.21129 126.71283 C 169.19939 126.64283 169.20095 126.62567 169.22535 126.55128 L 169.25261 126.46838 L 168.98641 126.20158 L 168.7202 125.93516 L 167.57404 125.93516 L 167.26311 125.93516 C 167.19091 126.11575 167.14983 126.21961 167.08294 126.38703 L 167.281 126.38703 L 168.13328 126.38703 L 168.43952 126.69355 L 168.74618 126.99968 L 168.80368 126.98503 C 168.92966 126.95333 169.07321 126.99948 169.16231 127.10069 C 169.28263 127.23737 169.27864 127.45185 169.15337 127.58225 C 169.07947 127.65915 169.01844 127.68586 168.90335 127.69175 C 168.81295 127.69575 168.79977 127.6936 168.72957 127.6582 C 168.6049 127.5951 168.54265 127.49981 168.53365 127.35863 C 168.52965 127.29303 168.53349 127.25815 168.55196 127.2098 L 168.57624 127.14696 L 168.30535 126.87707 L 168.03446 126.60718 L 167.23159 126.60718 L 166.99563 126.60718 C 166.93073 126.76968 166.87351 126.91304 166.81376 127.06291 L 166.94196 127.06214 L 167.44924 127.05905 L 167.75974 127.36981 C 168.05417 127.66445 168.07176 127.67964 168.10176 127.66823 C 168.11916 127.66123 168.17058 127.65656 168.21591 127.65666 C 168.31603 127.65686 168.38426 127.68448 168.46081 127.75498 C 168.64268 127.92262 168.59281 128.23212 168.36626 128.34179 C 168.30566 128.37119 168.18925 128.3825 168.12178 128.3657 C 168.01497 128.339 167.91627 128.24836 167.87006 128.13436 C 167.84566 128.07416 167.84827 127.95669 167.87517 127.88568 L 167.89774 127.82631 L 167.63069 127.55873 L 167.36363 127.29154 L 166.89554 127.29154 L 166.72219 127.29154 C 166.64589 127.48309 166.54801 127.7281 166.48026 127.89879 C 166.52196 127.93739 166.95491 128.36698 167.52804 128.93901 L 168.61585 130.02435 L 168.61585 130.70447 L 168.61585 131.38458 L 168.50554 131.38458 L 168.39565 131.38458 L 168.39565 130.91112 L 168.39565 130.43766 L 167.41219 129.45411 L 166.42872 128.47018 L 165.42822 130.98939 C 165.71202 131.30695 166.55319 131.60801 167.66689 131.79057 C 168.53535 131.93293 171.2116 131.87961 171.996 131.70421 C 172.8025 131.52391 173.38715 131.29248 173.64816 131.05031 L 173.87007 130.84442 L 172.16892 126.5987 L 172.17105 127.1751 L 171.75876 127.58726 L 171.34646 128.00019 L 171.71276 128.36647 L 172.07948 128.73313 L 171.17524 129.63725 L 170.27142 130.54138 L 170.13981 130.41029 L 170.0082 130.27881 L 169.72155 130.56567 L 169.43448 130.85252 L 169.43065 131.11508 L 169.42639 131.37841 L 169.31352 131.38227 L 169.20065 131.38613 L 169.20065 131.0773 L 169.20065 130.76808 L 169.52435 130.4446 L 169.84805 130.12112 L 169.15465 129.42751 L 168.46167 128.73429 L 169.36548 127.82978 L 170.26929 126.92604 L 170.47757 127.13347 L 170.68542 127.34128 L 170.96909 127.05713 L 171.25318 126.77297 L 171.25318 126.17112 L 171.25318 125.56966 L 171.36307 125.56966 L 171.47296 125.56966 L 171.47296 126.22626 L 171.47296 126.88285 L 171.16161 127.19477 L 170.84983 127.5063 L 171.01509 127.67093 L 171.17992 127.83556 L 171.55857 127.45733 L 171.93722 127.0791 L 171.94105 126.32727 L 171.9419 126.03618 L 171.74811 125.55269 C 170.58247 122.64369 169.6081 120.26499 169.58057 120.26174 z M 181.52097 120.25981 C 181.52098 120.25981 181.52181 120.26135 181.52182 120.26135 C 181.52183 120.26135 181.52223 120.25981 181.52225 120.25981 L 181.52097 120.25981 z M 181.52182 120.26135 C 181.49463 120.26381 180.52122 122.64282 179.35727 125.55231 C 179.33087 125.61831 179.32121 125.64292 179.29551 125.7073 L 179.56129 125.70692 L 180.74664 125.70306 L 181.05671 126.01343 C 181.36186 126.31877 181.36772 126.32337 181.40299 126.31108 C 181.42269 126.30408 181.48138 126.30104 181.53375 126.30414 C 181.64283 126.31014 181.71151 126.3429 181.77908 126.4198 C 181.93652 126.59913 181.87842 126.88143 181.6628 126.9858 C 181.5883 127.0219 181.47046 127.02852 181.39404 127.00122 C 181.26399 126.95452 181.17598 126.84964 181.15254 126.71283 C 181.14064 126.64283 181.1422 126.62566 181.1666 126.55128 L 181.19386 126.46838 L 180.92765 126.20158 L 180.66103 125.93516 L 179.51529 125.93516 L 179.20436 125.93516 C 179.13216 126.11576 179.09108 126.21963 179.02419 126.38703 L 179.22225 126.38703 L 180.07453 126.38703 L 180.38077 126.69355 L 180.68701 126.99968 L 180.74493 126.98503 C 180.87092 126.95333 181.01445 126.99948 181.10356 127.10069 C 181.22387 127.23737 181.21946 127.45186 181.09419 127.58225 C 181.02029 127.65905 180.95926 127.68586 180.84417 127.69175 C 180.75377 127.69575 180.74102 127.6936 180.67082 127.6582 C 180.54615 127.5951 180.48347 127.4998 180.47447 127.35863 C 180.47047 127.29303 180.47474 127.25816 180.49321 127.2098 L 180.51749 127.14696 L 180.2466 126.87707 L 179.97529 126.60718 L 179.17284 126.60718 L 178.93645 126.60718 C 178.87155 126.76968 178.81476 126.91304 178.75501 127.06291 L 178.88321 127.06214 L 179.39006 127.05905 L 179.70056 127.36981 C 179.99498 127.66444 180.01258 127.67963 180.04258 127.66823 C 180.05998 127.66123 180.11141 127.65656 180.15673 127.65666 C 180.25686 127.65686 180.32551 127.68448 180.40206 127.75498 C 180.58393 127.92262 180.53407 128.23212 180.30751 128.34179 C 180.24681 128.37119 180.1305 128.3825 180.06303 128.3657 L 180.0626 128.3657 C 179.95579 128.339 179.85752 128.24836 179.8113 128.13436 C 179.7869 128.07416 179.78909 127.95668 179.81599 127.88568 L 179.83899 127.82631 L 179.57193 127.55873 L 179.30488 127.29154 L 178.83679 127.29154 L 178.66343 127.29154 C 178.58713 127.48308 178.48926 127.72811 178.42151 127.89879 C 178.46321 127.93739 178.89616 128.36699 179.46929 128.93901 L 180.55667 130.02435 L 180.55667 130.70447 L 180.55667 131.38458 L 180.44678 131.38458 L 180.3369 131.38458 L 180.3369 130.91112 L 180.3369 130.43766 L 179.35343 129.45411 L 178.36955 128.47018 L 177.36905 130.98939 C 177.65286 131.30695 178.49443 131.608 179.60814 131.79057 C 180.4766 131.93294 183.15284 131.87961 183.93724 131.70421 C 184.74374 131.52391 185.32841 131.29248 185.58941 131.05031 L 185.81132 130.84442 L 184.11017 126.5987 L 184.1123 127.1751 L 183.7 127.58726 L 183.28771 128.00019 L 183.654 128.36647 L 184.0203 128.73313 L 183.11649 129.63725 L 182.21267 130.54138 L 182.08106 130.41029 L 181.94945 130.27881 L 181.66238 130.56567 L 181.37573 130.85252 L 181.3719 131.11508 L 181.36764 131.37841 L 181.25477 131.38227 L 181.14147 131.38613 L 181.1419 131.0773 L 181.1419 130.76808 L 181.4656 130.4446 L 181.7893 130.12112 L 181.0959 129.42751 L 180.40249 128.73429 L 181.3063 127.82978 L 182.21054 126.92604 L 182.41839 127.13347 L 182.62625 127.34128 L 182.91034 127.05713 L 183.19443 126.77297 L 183.19443 126.17112 L 183.19443 125.56966 L 183.30432 125.56966 L 183.41421 125.56966 L 183.41421 126.22626 L 183.41421 126.88285 L 183.10286 127.19477 L 182.79108 127.5063 L 182.95591 127.67093 L 183.12117 127.83556 L 183.49982 127.45733 L 183.87847 127.0791 L 183.8823 126.32727 L 183.88315 126.03618 L 183.68936 125.55269 C 182.5236 122.64337 181.54916 120.26408 181.52182 120.26135 z M 193.46222 120.25981 C 193.46223 120.25981 193.46306 120.26135 193.46307 120.26135 C 193.46308 120.26135 193.46348 120.25981 193.4635 120.25981 L 193.46222 120.25981 z M 193.46307 120.26135 C 193.43588 120.26381 192.46247 122.64282 191.29852 125.55231 C 191.27212 125.61831 191.26203 125.64292 191.23633 125.7073 L 191.50253 125.70692 L 192.68789 125.70306 L 192.99796 126.01343 C 193.30311 126.31877 193.30855 126.32337 193.34381 126.31108 C 193.36351 126.30408 193.42263 126.30104 193.475 126.30414 C 193.58408 126.31014 193.65276 126.3429 193.72033 126.4198 C 193.87777 126.59913 193.81967 126.88143 193.60405 126.9858 C 193.52955 127.0219 193.41171 127.02852 193.33529 127.00122 C 193.20523 126.95452 193.11723 126.84964 193.09379 126.71283 C 193.08189 126.64283 193.08345 126.62566 193.10785 126.55128 L 193.13511 126.46838 L 192.86848 126.20158 L 192.60227 125.93516 L 191.45611 125.93516 L 191.14561 125.93516 C 191.07341 126.11576 191.03233 126.21963 190.96544 126.38703 L 191.1635 126.38703 L 192.01535 126.38703 L 192.32202 126.69355 L 192.62826 126.99968 L 192.68618 126.98503 C 192.81217 126.95333 192.95527 126.99948 193.04438 127.10069 C 193.16469 127.23737 193.16071 127.45186 193.03544 127.58225 C 192.96154 127.65905 192.90051 127.68586 192.78542 127.69175 C 192.69502 127.69575 192.68184 127.6936 192.61164 127.6582 C 192.48697 127.5951 192.42471 127.4998 192.41572 127.35863 C 192.41172 127.29303 192.41598 127.25816 192.43446 127.2098 L 192.45831 127.14696 L 192.18742 126.87707 L 191.91653 126.60718 L 191.11409 126.60718 L 190.8777 126.60718 C 190.8128 126.76968 190.75557 126.91304 190.69583 127.06291 L 190.82446 127.06214 L 191.33131 127.05905 L 191.64181 127.36981 C 191.93623 127.66444 191.95383 127.67963 191.98383 127.66823 C 192.00123 127.66123 192.05266 127.65656 192.09798 127.65666 C 192.19811 127.65686 192.26676 127.68448 192.34331 127.75498 C 192.52517 127.92262 192.47531 128.23212 192.24876 128.34179 C 192.18806 128.37119 192.07132 128.3825 192.00385 128.3657 C 191.89704 128.339 191.79834 128.24836 191.75213 128.13436 C 191.72773 128.07416 191.73034 127.95668 191.75724 127.88568 L 191.78024 127.82631 L 191.51318 127.55873 L 191.2457 127.29154 L 190.77803 127.29154 L 190.60468 127.29154 C 190.52838 127.48308 190.4305 127.72811 190.36276 127.89879 C 190.40446 127.93739 190.83741 128.36699 191.41053 128.93901 L 192.49792 130.02435 L 192.49792 130.70447 L 192.49792 131.38458 L 192.38803 131.38458 L 192.27814 131.38458 L 192.27814 130.91112 L 192.27814 130.43766 L 191.29468 129.45411 L 190.31079 128.47018 L 189.3103 130.98939 C 189.5941 131.30695 190.43568 131.608 191.54939 131.79057 C 192.41785 131.93294 195.09366 131.87961 195.87807 131.70421 C 196.68457 131.52391 197.26966 131.29248 197.53066 131.05031 L 197.75257 130.84442 L 196.05142 126.5987 L 196.05355 127.1751 L 195.64083 127.58726 L 195.22853 128.00019 L 195.59525 128.36647 L 195.96155 128.73313 L 195.05731 129.63725 L 194.15349 130.54138 L 194.02188 130.41029 L 193.8907 130.27881 L 193.60363 130.56567 L 193.31698 130.85252 L 193.31272 131.11508 L 193.30888 131.37841 L 193.19559 131.38227 L 193.08272 131.38613 L 193.08272 131.0773 L 193.08272 130.76808 L 193.40685 130.4446 L 193.73055 130.12112 L 193.03714 129.42751 L 192.34374 128.73429 L 193.24755 127.82978 L 194.15179 126.92604 L 194.35964 127.13347 L 194.56749 127.34128 L 194.85159 127.05713 L 195.13525 126.77297 L 195.13525 126.17112 L 195.13525 125.56966 L 195.24557 125.56966 L 195.35546 125.56966 L 195.35546 126.22626 L 195.35546 126.88285 L 195.04368 127.19477 L 194.73233 127.5063 L 194.89716 127.67093 L 195.06242 127.83556 L 195.44107 127.45733 L 195.81929 127.0791 L 195.82355 126.32727 L 195.82397 126.03618 L 195.63018 125.55269 C 194.46441 122.64337 193.4904 120.26408 193.46307 120.26135 z M 170.27142 127.2553 C 170.26442 127.2553 169.92659 127.58784 169.52009 127.99441 L 168.78111 128.7339 L 169.52648 129.47918 L 170.27142 130.22445 L 171.01679 129.47918 L 171.76216 128.7339 L 171.02318 127.99441 C 170.61665 127.58784 170.27818 127.2553 170.27142 127.2553 z M 182.21267 127.2553 C 182.20567 127.2553 181.86785 127.58785 181.46134 127.99441 L 180.72236 128.7339 L 181.4673 129.47918 L 182.21267 130.22445 L 182.95804 129.47918 L 183.70341 128.7339 L 182.964 127.99441 C 182.55748 127.58785 182.21943 127.2553 182.21267 127.2553 z M 194.15392 127.2553 C 194.14692 127.2553 193.8091 127.58785 193.40259 127.99441 L 192.66318 128.7339 L 193.40855 129.47918 L 194.15392 130.22445 L 194.89929 129.47918 L 195.64423 128.7339 L 194.90525 127.99441 C 194.49872 127.58785 194.16068 127.2553 194.15392 127.2553 z M 170.25311 127.57917 L 170.33574 127.66167 L 170.41794 127.74418 L 169.92046 128.24193 L 169.42255 128.73968 L 169.92046 129.23743 L 170.41794 129.73557 L 170.33872 129.81499 L 170.25907 129.89442 L 169.67896 129.31416 L 169.09885 128.73351 L 169.67598 128.15634 L 170.25311 127.57917 z M 182.19436 127.57917 L 182.27656 127.66167 L 182.35919 127.74418 L 181.86128 128.24193 L 181.36338 128.73968 L 181.86128 129.23743 L 182.35919 129.73557 L 182.27997 129.81499 L 182.20032 129.89442 L 181.62021 129.31416 L 181.03967 128.73351 L 181.6168 128.15634 L 182.19436 127.57917 z M 194.13561 127.57917 L 194.21781 127.66167 L 194.30044 127.74418 L 193.80253 128.24193 L 193.30463 128.73968 L 193.80253 129.23743 L 194.30044 129.73557 L 194.22079 129.81499 L 194.14157 129.89442 L 193.56103 129.31416 L 192.98092 128.73351 L 193.55805 128.15634 L 194.13561 127.57917 z M 170.66881 127.94583 L 171.06279 128.33986 L 171.45677 128.7339 L 171.05939 129.13102 L 170.662 129.52814 L 170.5832 129.44833 L 170.5044 129.36891 L 170.81874 129.0543 L 171.13307 128.73968 L 170.81831 128.42507 L 170.50398 128.11046 L 170.58618 128.02834 L 170.66881 127.94583 z M 182.60963 127.94583 L 183.00362 128.33986 L 183.3976 128.7339 L 183.00063 129.13102 L 182.60325 129.52814 L 182.52445 129.44833 L 182.44523 129.36891 L 182.75956 129.0543 L 183.07389 128.73968 L 182.75956 128.42546 L 182.44523 128.11084 L 182.52743 128.02834 L 182.60963 127.94583 z M 194.55088 127.94583 L 194.94486 128.33986 L 195.33885 128.7339 L 194.94188 129.13102 L 194.54449 129.52814 L 194.46527 129.44833 L 194.38648 129.36891 L 194.70081 129.0543 L 195.01514 128.73968 L 194.70081 128.42546 L 194.38605 128.11084 L 194.46868 128.02834 L 194.55088 127.94583 z M 170.30209 128.36107 C 170.39129 128.3612 170.41478 128.3654 170.46948 128.395 C 170.61417 128.4709 170.68625 128.5959 170.67861 128.75819 C 170.67161 128.90651 170.60021 129.01721 170.4682 129.08437 C 170.3898 129.12427 170.25826 129.13379 170.17985 129.10519 C 170.01749 129.04609 169.92014 128.90909 169.91961 128.7393 C 169.91912 128.58989 170.00196 128.45779 170.13811 128.39076 C 170.18761 128.36636 170.21662 128.36097 170.30209 128.36107 z M 182.24334 128.36107 C 182.33264 128.36121 182.35603 128.3654 182.41073 128.395 C 182.55542 128.4709 182.62749 128.5959 182.61986 128.75819 C 182.61286 128.90652 182.54147 129.01721 182.40945 129.08437 C 182.33105 129.12427 182.19951 129.13379 182.1211 129.10519 C 181.95874 129.04609 181.8614 128.90909 181.86086 128.7393 C 181.86038 128.58989 181.94321 128.45779 182.07936 128.39076 C 182.12886 128.36636 182.15787 128.36097 182.24334 128.36107 z M 194.18416 128.36107 C 194.27336 128.36121 194.29729 128.3654 194.35198 128.395 C 194.49667 128.4709 194.56874 128.5959 194.56111 128.75819 C 194.55411 128.90652 194.48271 129.01721 194.3507 129.08437 C 194.2723 129.12427 194.14075 129.13379 194.06235 129.10519 C 193.89998 129.04609 193.80222 128.90909 193.80168 128.7393 C 193.8012 128.58989 193.88446 128.45779 194.02061 128.39076 C 194.07011 128.36636 194.09868 128.36097 194.18416 128.36107 z M 166.42915 128.94788 L 167.12554 129.64381 L 167.82193 130.3405 L 167.82193 130.86293 L 167.82193 131.38497 L 167.71417 131.38497 C 167.65477 131.38497 167.60237 131.38087 167.59789 131.37687 C 167.59389 131.37287 167.5898 131.2255 167.5898 131.05031 L 167.5898 130.73184 L 167.00926 130.1512 L 166.42915 129.57017 L 166.42915 129.25902 L 166.42915 128.94788 z M 178.36997 128.94788 L 179.06679 129.64381 L 179.76317 130.3405 L 179.76317 130.86293 L 179.76317 131.38497 L 179.65499 131.38497 C 179.59559 131.38497 179.54361 131.38087 179.53914 131.37687 C 179.53514 131.37287 179.53104 131.2255 179.53104 131.05031 L 179.53104 130.73184 L 178.95051 130.1512 L 178.36997 129.57017 L 178.36997 129.25902 L 178.36997 128.94788 z M 190.31122 128.94788 L 191.00761 129.64381 L 191.704 130.3405 L 191.704 130.86293 L 191.704 131.38497 L 191.59624 131.38497 C 191.53684 131.38497 191.48443 131.38087 191.47996 131.37687 C 191.47596 131.37287 191.47229 131.2255 191.47229 131.05031 L 191.47229 130.73184 L 190.89176 130.1512 L 190.31122 129.57017 L 190.31122 129.25902 L 190.31122 128.94788 z M 171.6429 129.8443 C 171.7327 129.8403 171.82349 129.86946 171.89292 129.93066 C 171.97782 130.00546 172.00637 130.0748 172.00622 130.20594 C 172.00613 130.28594 172.00037 130.32616 171.98577 130.35284 L 171.96533 130.38947 L 172.10546 130.5302 L 172.24559 130.67131 C 172.24759 130.77684 172.24559 130.88227 172.24601 130.98515 L 172.01857 130.76191 L 171.79837 130.54215 L 171.72851 130.5568 C 171.38276 130.6293 171.15041 130.20125 171.39885 129.94955 C 171.46435 129.88325 171.55311 129.84779 171.6429 129.8443 z M 183.58373 129.8443 L 183.58415 129.8443 C 183.67395 129.8403 183.76475 129.86946 183.83417 129.93066 C 183.91907 130.00546 183.94762 130.0748 183.94747 130.20594 C 183.94738 130.28594 183.94162 130.32616 183.92702 130.35284 L 183.90658 130.38947 L 184.04671 130.5302 L 184.18684 130.67131 C 184.18884 130.77684 184.18684 130.88227 184.18726 130.98515 L 183.95982 130.76191 L 183.73962 130.54215 L 183.66934 130.5568 C 183.32359 130.6293 183.09165 130.20125 183.3401 129.94955 C 183.4056 129.88325 183.49395 129.84778 183.58373 129.8443 z M 195.52498 129.8443 L 195.5254 129.8443 C 195.6152 129.8403 195.70599 129.86946 195.77542 129.93066 C 195.86032 130.00546 195.88887 130.0748 195.88872 130.20594 C 195.88864 130.28594 195.88245 130.32616 195.86785 130.35284 L 195.84783 130.38947 L 195.98753 130.5302 L 196.12766 130.67131 C 196.12966 130.77684 196.12809 130.88227 196.12851 130.98515 L 195.90107 130.76191 L 195.68086 130.54215 L 195.61059 130.5568 C 195.26484 130.6293 195.03247 130.20125 195.28092 129.94955 C 195.34642 129.88325 195.4352 129.84778 195.52498 129.8443 z M 166.43809 130.0656 C 166.44309 130.0656 166.58101 130.1987 166.74391 130.36171 L 167.03993 130.6582 L 167.03993 131.02178 L 167.03993 131.38497 L 166.93004 131.38497 L 166.82015 131.38497 L 166.82015 131.22419 L 166.82015 131.06303 L 166.62465 130.86601 L 166.42915 130.66938 L 166.42915 130.36749 C 166.42915 130.20143 166.43309 130.0656 166.43809 130.0656 z M 178.37892 130.0656 L 178.37934 130.0656 C 178.38434 130.0656 178.52182 130.1987 178.68473 130.36171 L 178.98118 130.6582 L 178.98118 131.02178 L 178.98118 131.38497 L 178.87086 131.38497 L 178.76097 131.38497 L 178.76097 131.22419 L 178.76097 131.06303 L 178.56547 130.86601 L 178.36997 130.66938 L 178.36997 130.36749 C 178.36997 130.20143 178.37392 130.0656 178.37892 130.0656 z M 190.32016 130.0656 L 190.32059 130.0656 C 190.32559 130.0656 190.46308 130.1987 190.62598 130.36171 L 190.922 130.6582 L 190.922 131.02178 L 190.922 131.38497 L 190.81211 131.38497 L 190.70222 131.38497 L 190.70222 131.22419 L 190.70222 131.06303 L 190.50672 130.86601 L 190.31122 130.66938 L 190.31122 130.36749 C 190.31122 130.20143 190.31517 130.0656 190.32016 130.0656 z M 171.00444 130.52133 C 171.1332 130.53203 171.25113 130.61149 171.30855 130.73685 C 171.34545 130.81755 171.34397 130.95657 171.30557 131.02949 L 171.27746 131.08308 L 171.42824 131.23422 L 171.57859 131.38497 L 171.41972 131.38497 L 171.26085 131.38497 L 171.18333 131.30709 L 171.10666 131.22959 L 171.00061 131.23537 C 170.89896 131.24137 170.89172 131.2393 170.81576 131.1999 C 170.72866 131.1545 170.65779 131.07456 170.63389 130.99479 C 170.61019 130.91589 170.61669 130.80032 170.64879 130.73145 C 170.68849 130.64615 170.78697 130.56003 170.87368 130.53482 C 170.91708 130.52222 170.96148 130.51783 171.00444 130.52133 z M 182.94526 130.52133 C 183.07403 130.53203 183.19238 130.61159 183.2498 130.73685 C 183.2867 130.81755 183.28522 130.95656 183.24682 131.02949 L 183.21871 131.08308 L 183.36906 131.23422 L 183.51984 131.38497 L 183.36097 131.38497 L 183.20167 131.38497 L 183.12458 131.30709 L 183.04749 131.22959 L 182.94186 131.23537 C 182.8402 131.24137 182.83296 131.2393 182.75701 131.1999 C 182.66991 131.1545 182.5986 131.07457 182.57471 130.99479 C 182.55101 130.91589 182.55752 130.80031 182.58962 130.73145 C 182.62932 130.64615 182.72821 130.56003 182.81493 130.53482 C 182.85833 130.52222 182.90231 130.51783 182.94526 130.52133 z M 194.88651 130.52133 C 195.01528 130.53203 195.13363 130.61159 195.19105 130.73685 C 195.22795 130.81755 195.22647 130.95656 195.18807 131.02949 L 195.15953 131.08308 L 195.31031 131.23422 L 195.46109 131.38497 L 195.30179 131.38497 L 195.14292 131.38497 L 195.06583 131.30709 L 194.98873 131.22959 L 194.88268 131.23537 C 194.78102 131.24137 194.77421 131.2393 194.69825 131.1999 C 194.61115 131.1545 194.53986 131.07457 194.51596 130.99479 C 194.49226 130.91589 194.49876 130.80031 194.53086 130.73145 C 194.57056 130.64615 194.66947 130.56003 194.75618 130.53482 C 194.79958 130.52222 194.84356 130.51783 194.88651 130.52133 z M 165.3473 132.63224 C 165.2914 132.65684 165.28469 132.81011 165.28469 133.29153 L 165.28469 133.99748 L 165.55856 134.22303 C 166.02195 134.60499 167.05135 134.89621 168.39693 135.02537 C 170.37712 135.21544 172.86523 134.83188 173.60387 134.22303 L 173.87774 133.99748 L 173.87774 133.29153 C 173.87774 132.64964 173.86533 132.59132 173.74101 132.64342 C 172.68605 133.08549 171.30221 133.3058 169.58142 133.3058 C 167.86066 133.3058 166.47638 133.08549 165.42141 132.64342 C 165.39031 132.63042 165.366 132.62404 165.3473 132.63224 z M 177.28855 132.63224 C 177.23255 132.65684 177.22551 132.81011 177.22551 133.29153 L 177.22551 133.99748 L 177.49938 134.22342 C 177.96277 134.60537 178.9926 134.89622 180.33817 135.02537 C 182.31837 135.21544 184.80646 134.83226 185.54511 134.22342 L 185.81898 133.99748 L 185.81898 133.29153 C 185.81898 132.64964 185.80658 132.59132 185.68226 132.64342 C 184.6273 133.0855 183.24304 133.3058 181.52225 133.3058 C 179.80148 133.3058 178.4172 133.0855 177.36223 132.64342 C 177.33113 132.63042 177.30725 132.62404 177.28855 132.63224 z M 189.2298 132.63224 C 189.1738 132.65684 189.16676 132.81011 189.16676 133.29153 L 189.16676 133.99748 L 189.44063 134.22342 C 189.90402 134.60537 190.93384 134.89622 192.27942 135.02537 C 194.25963 135.21544 196.74771 134.83226 197.48636 134.22342 L 197.76023 133.99748 L 197.76023 133.29153 C 197.76023 132.64964 197.74783 132.59132 197.62351 132.64342 C 196.56855 133.0855 195.18427 133.3058 193.4635 133.3058 C 191.74272 133.3058 190.35846 133.0855 189.30348 132.64342 C 189.27238 132.63042 189.2485 132.62404 189.2298 132.63224 z M 165.28469 135.75715 L 165.28469 141.91483 L 165.28469 148.07252 L 165.95765 149.41694 L 166.63061 150.76137 L 165.98235 152.06608 C 165.41615 153.20478 165.34713 153.38696 165.44058 153.49957 C 165.68737 153.79694 166.56923 154.10996 167.66731 154.28996 C 168.53576 154.43232 171.21202 154.379 171.99642 154.2036 C 172.76745 154.03124 173.36989 153.79982 173.62772 153.57707 L 173.83898 153.3947 L 173.18518 152.07804 L 172.53181 150.76137 L 173.20477 149.41694 L 173.87774 148.07252 L 173.87774 141.91445 L 173.87774 135.75715 L 173.23331 135.96998 C 172.14166 136.33075 171.19188 136.4577 169.58142 136.4577 C 167.97098 136.4577 167.02077 136.33075 165.92911 135.96998 L 165.28469 135.75715 z M 177.22551 135.75715 L 177.22551 141.91483 L 177.22551 148.07252 L 177.8989 149.41694 L 178.57186 150.76137 L 177.92318 152.06608 C 177.35698 153.20479 177.28794 153.38696 177.3814 153.49957 C 177.62819 153.79694 178.51048 154.10996 179.60856 154.28996 C 180.47702 154.43233 183.15285 154.379 183.93724 154.2036 C 184.70827 154.03124 185.31113 153.79982 185.56897 153.57707 L 185.7798 153.3947 L 185.12643 152.07804 L 184.47263 150.76137 L 185.14602 149.41694 L 185.81898 148.07252 L 185.81898 141.91483 L 185.81898 135.75715 L 185.17456 135.96998 C 184.0829 136.33074 183.13272 136.4577 181.52225 136.4577 C 179.9118 136.4577 178.96201 136.33074 177.87036 135.96998 L 177.22551 135.75715 z M 189.16676 135.75715 L 189.16676 141.91483 L 189.16676 148.07252 L 189.84015 149.41694 L 190.51311 150.76137 L 189.86442 152.06608 C 189.29823 153.20479 189.22919 153.38696 189.32265 153.49957 C 189.56944 153.79694 190.45131 154.10996 191.54939 154.28996 C 192.41785 154.43233 195.0941 154.379 195.87849 154.2036 C 196.64953 154.03124 197.25238 153.79982 197.51021 153.57707 L 197.72105 153.3947 L 197.06725 152.07804 L 196.41388 150.76137 L 197.08684 149.41694 L 197.76023 148.07252 L 197.76023 141.91483 L 197.76023 135.75715 L 197.11581 135.96998 C 196.02416 136.33074 195.07395 136.4577 193.4635 136.4577 C 191.85305 136.4577 190.90283 136.33074 189.81118 135.96998 L 189.16676 135.75715 z M 169.41318 139.00043 L 169.41233 139.00082 C 169.61453 139.00007 169.88841 139.01723 170.07081 139.04863 C 170.25059 139.07953 170.44323 139.21876 170.51079 139.36632 C 170.55929 139.47231 170.55273 139.60777 170.49333 139.72874 C 170.44453 139.82814 170.30997 139.95912 170.20242 140.01174 C 170.10802 140.05794 169.95768 140.09009 169.83698 140.09039 C 169.53876 140.09086 169.27635 140.33166 169.18191 140.69031 C 169.15281 140.80062 169.15286 141.0307 169.18191 141.1418 C 169.25521 141.42149 169.4516 141.65308 169.7322 141.79146 C 169.91591 141.88206 169.91918 141.88181 169.95965 141.76331 C 169.97795 141.70941 169.99274 141.65547 169.99244 141.6434 C 169.99215 141.6298 169.94008 141.5965 169.85444 141.5555 C 169.64492 141.45528 169.52421 141.33445 169.45918 141.15915 C 169.37308 140.92713 169.42776 140.64801 169.59378 140.47055 C 169.67128 140.38765 169.73384 140.36358 169.90044 140.35257 C 170.18857 140.33357 170.38582 140.24983 170.56489 140.07034 C 170.78854 139.84616 170.86673 139.55314 170.77061 139.30155 C 170.75451 139.25935 170.74396 139.22261 170.74676 139.21981 C 170.75716 139.20941 171.03484 139.31993 171.21357 139.40565 C 171.53486 139.55974 171.89333 139.78902 172.00835 139.91381 C 172.04175 139.95011 172.08086 140.00627 172.09566 140.03873 C 172.17586 140.21544 172.06502 140.42141 171.82946 140.53301 C 171.74916 140.57101 171.71617 140.57816 171.605 140.58236 C 171.48414 140.58636 171.46768 140.58427 171.38352 140.54457 C 171.31932 140.51447 171.2803 140.48512 171.2502 140.44356 C 171.1638 140.32435 171.15947 140.2276 171.23657 140.13974 L 171.28002 140.09039 L 171.21826 139.9967 C 171.18436 139.9452 171.1523 139.89609 171.1467 139.88759 C 171.1307 139.86299 171.01237 139.98972 170.96952 140.0769 C 170.93662 140.1438 170.93118 140.17179 170.93118 140.28124 C 170.93118 140.38966 170.93609 140.42014 170.96909 140.48944 C 171.04639 140.65449 171.21414 140.78573 171.40481 140.83066 C 171.81518 140.92736 172.27161 140.67755 172.3674 140.30322 L 172.38614 140.22919 L 172.49475 140.34601 C 172.70904 140.57666 172.87928 140.87465 172.95092 141.14411 C 172.99842 141.32286 173.00485 141.60603 172.96455 141.76254 C 172.85188 142.19988 172.48962 142.48209 172.07394 142.45654 C 171.78098 142.43844 171.58475 142.25585 171.60542 142.02009 C 171.62372 141.81092 171.77633 141.68466 172.0109 141.68466 L 172.09098 141.68466 L 172.09992 141.58943 C 172.11652 141.41326 172.11754 141.41658 172.04924 141.4167 C 171.84176 141.417 171.62469 141.50464 171.5049 141.63569 C 171.34801 141.80736 171.2974 142.03366 171.36989 142.23908 C 171.38089 142.27038 171.38747 142.29844 171.38437 142.30154 C 171.38137 142.30454 171.32402 142.29925 171.25702 142.29075 C 171.19012 142.28175 171.04653 142.27697 170.938 142.27957 C 170.82948 142.28257 170.74079 142.28372 170.74079 142.28072 C 170.74081 142.27872 170.7622 142.24697 170.7885 142.21017 C 170.91563 142.03165 170.98059 141.83479 170.98059 141.62798 C 170.98059 141.32516 170.85257 141.08391 170.60578 140.9228 C 170.50352 140.856 170.33513 140.79214 170.21691 140.77475 L 170.15089 140.76473 L 170.14194 140.87538 C 170.13694 140.93628 170.13132 140.99487 170.13002 141.0057 C 170.12802 141.0193 170.15798 141.03189 170.22628 141.04579 C 170.49222 141.09999 170.65765 141.25215 170.70757 141.4888 C 170.75687 141.72258 170.67093 141.97717 170.47459 142.17778 C 170.38649 142.26788 170.20867 142.38993 170.11681 142.42338 C 169.83285 142.52679 169.75072 142.55929 169.581 142.63659 L 169.3872 142.72527 L 169.3872 142.68556 C 169.3872 142.66376 169.37507 142.60748 169.36037 142.56025 C 169.26717 142.26073 168.96377 142.06397 168.62522 142.08332 C 168.2947 142.10212 168.0715 142.32451 168.09239 142.61423 C 168.10039 142.71917 168.1466 142.82461 168.21293 142.88759 L 168.25424 142.92691 L 168.33261 142.8259 L 168.41055 142.7245 L 168.37691 142.67515 C 168.32171 142.59385 168.33701 142.51075 168.42291 142.42916 C 168.48301 142.37196 168.55631 142.34743 168.66483 142.34743 C 168.78399 142.34743 168.86509 142.37414 168.95617 142.44304 C 169.14979 142.58947 169.17058 142.76476 169.01239 142.91882 C 168.90647 143.02196 168.60494 143.16072 168.35007 143.22379 C 168.22384 143.25509 167.89061 143.27076 167.77167 143.25116 L 167.77167 143.25078 C 167.40124 143.18968 167.14512 142.9058 167.14428 142.55562 C 167.14398 142.35235 167.21626 142.21309 167.36448 142.13267 C 167.44768 142.08757 167.59311 142.05928 167.6818 142.07098 L 167.74696 142.08024 L 167.75506 142.02009 C 167.75906 141.98699 167.76752 141.9263 167.77252 141.88553 L 167.78146 141.81151 L 167.63494 141.81151 C 167.39712 141.81172 167.24037 141.86917 167.09487 142.00891 C 166.9085 142.18789 166.83114 142.47571 166.89554 142.74956 C 166.90644 142.79606 166.9134 142.83575 166.9113 142.83785 C 166.9093 142.83985 166.85742 142.78942 166.79587 142.72527 C 166.49645 142.41329 166.32131 141.99791 166.30052 141.54894 C 166.29352 141.39824 166.31377 141.12161 166.33417 141.08821 C 166.33817 141.08221 166.36585 141.11074 166.39635 141.15144 C 166.49395 141.28138 166.61051 141.35762 166.80482 141.41863 C 166.95201 141.46483 167.29628 141.46568 167.49098 141.41978 C 167.74805 141.35978 168.04276 141.2201 168.2223 141.07317 C 168.38808 140.93752 168.52554 140.72048 168.58391 140.50293 C 168.62671 140.34371 168.62636 140.12595 168.58348 140.01559 C 168.50358 139.81145 168.35481 139.70492 168.10602 139.67361 L 168.03233 139.66474 L 168.03233 139.79814 L 168.03233 139.93154 L 168.10304 139.93964 C 168.36461 139.97064 168.42989 140.23185 168.26361 140.5839 C 168.16701 140.7885 168.05558 140.89691 167.82065 141.01457 C 167.60582 141.12213 167.40785 141.17461 167.17878 141.18537 C 166.74268 141.20577 166.51674 141.03281 166.54117 140.69725 C 166.55477 140.50952 166.62535 140.32551 166.7422 140.17367 C 166.8073 140.08907 166.83335 140.0791 166.83335 140.1382 C 166.83335 140.201 166.91745 140.34017 167.00287 140.41927 C 167.16363 140.56811 167.38797 140.61401 167.66178 140.55344 C 167.70248 140.54444 167.73589 140.53023 167.73589 140.52183 C 167.73585 140.51383 167.72099 140.45858 167.70309 140.40038 C 167.67179 140.29818 167.66951 140.29471 167.62941 140.29821 C 167.32664 140.32461 167.2782 140.31827 167.18943 140.24037 C 167.05556 140.12284 167.05155 139.88991 167.18133 139.73877 C 167.29888 139.60145 167.78451 139.332 168.12433 139.21557 C 168.29076 139.15857 168.56328 139.08501 168.6742 139.06713 C 168.7052 139.06213 168.74092 139.05501 168.75342 139.05171 C 168.77392 139.04671 168.77458 139.05262 168.75768 139.11957 C 168.67588 139.43493 168.90184 139.76741 169.23515 139.82166 C 169.37771 139.84486 169.53536 139.81242 169.71005 139.72412 L 169.79865 139.67939 L 169.77394 139.64161 C 169.76034 139.62071 169.72771 139.5707 169.70111 139.53057 L 169.65298 139.4577 L 169.55502 139.50474 C 169.36579 139.59544 169.21853 139.58411 169.10567 139.47081 C 168.95407 139.31854 168.98119 139.09974 169.16146 139.02279 C 169.19606 139.00799 169.29186 139.00103 169.41318 139.00043 z M 181.35358 139.00082 C 181.55579 139.00007 181.82925 139.01723 182.01164 139.04863 C 182.19142 139.07953 182.38449 139.21876 182.45204 139.36632 C 182.50054 139.47231 182.49398 139.60777 182.43458 139.72874 C 182.38578 139.82814 182.25081 139.95912 182.14325 140.01174 C 182.04885 140.05794 181.89893 140.09048 181.77823 140.09078 C 181.48001 140.09126 181.21758 140.33166 181.12315 140.69031 C 181.09405 140.80063 181.0941 141.03071 181.12315 141.1418 C 181.19645 141.4215 181.39286 141.65308 181.67345 141.79146 C 181.85717 141.88206 181.86042 141.88181 181.90089 141.76331 C 181.91919 141.70941 181.93399 141.65547 181.93369 141.6434 C 181.93339 141.6298 181.88092 141.5965 181.79527 141.5555 C 181.58576 141.45528 181.46547 141.33445 181.40043 141.15915 C 181.31433 140.92713 181.36857 140.64801 181.5346 140.47055 C 181.6121 140.38765 181.6751 140.36357 181.84169 140.35257 C 182.12983 140.33357 182.32664 140.24983 182.50571 140.07034 C 182.72936 139.84615 182.80797 139.55314 182.71186 139.30155 C 182.69576 139.25935 182.68478 139.22261 182.68758 139.21981 C 182.69798 139.20941 182.97565 139.31993 183.15439 139.40565 C 183.47567 139.55973 183.83414 139.78902 183.94917 139.91381 C 183.98257 139.95011 184.02211 140.00626 184.03691 140.03873 C 184.11711 140.21543 184.00627 140.42142 183.77071 140.53301 C 183.69041 140.57101 183.65741 140.57816 183.54625 140.58236 C 183.42539 140.58636 183.40892 140.58427 183.32476 140.54457 C 183.26056 140.51447 183.22155 140.48512 183.19145 140.44356 C 183.10505 140.32434 183.10072 140.22761 183.17782 140.13974 L 183.22084 140.09039 L 183.1595 139.9967 C 183.1256 139.9451 183.09355 139.89609 183.08795 139.88759 C 183.07195 139.86309 182.95319 139.98972 182.91034 140.0769 C 182.87744 140.1438 182.87243 140.17178 182.87243 140.28124 C 182.87243 140.38965 182.87734 140.42013 182.91034 140.48944 C 182.98764 140.65448 183.15539 140.78572 183.34606 140.83066 C 183.75643 140.92736 184.21244 140.67755 184.30823 140.30322 L 184.32739 140.22919 L 184.436 140.34601 C 184.65028 140.57667 184.82052 140.87465 184.89217 141.14411 C 184.93967 141.32287 184.94567 141.60604 184.90537 141.76254 C 184.79269 142.19988 184.43045 142.48209 184.01476 142.45654 C 183.7218 142.43854 183.52601 142.25585 183.54667 142.02009 C 183.56507 141.81092 183.71759 141.68466 183.95215 141.68466 L 184.0318 141.68466 L 184.04074 141.58943 C 184.05734 141.41327 184.05836 141.41658 183.99006 141.4167 C 183.78258 141.41699 183.56593 141.50464 183.44615 141.63569 C 183.28925 141.80735 183.23865 142.03366 183.31113 142.23908 C 183.32213 142.27038 183.32872 142.29844 183.32562 142.30154 C 183.32262 142.30454 183.26526 142.29925 183.19826 142.29075 C 183.13136 142.28175 182.98777 142.27697 182.87925 142.27957 C 182.77073 142.28257 182.68204 142.2835 182.68204 142.2815 C 182.68205 142.2795 182.70302 142.24774 182.72932 142.21094 C 182.85644 142.03242 182.92184 141.83556 182.92184 141.62875 C 182.92184 141.32593 182.7934 141.08507 182.5466 140.92396 C 182.44434 140.85716 182.27596 140.79291 182.15773 140.77552 L 182.09214 140.7655 L 182.08319 140.87654 C 182.07819 140.93744 182.07256 140.99602 182.07126 141.00685 C 182.06926 141.02055 182.09922 141.03257 182.16752 141.04657 C 182.43347 141.10077 182.5989 141.2533 182.64882 141.48995 C 182.69812 141.72373 182.61166 141.97832 182.41541 142.17894 C 182.32731 142.26904 182.14992 142.39108 182.05806 142.42454 C 181.7741 142.52794 181.69196 142.56044 181.52225 142.63775 L 181.32802 142.72604 L 181.32802 142.68671 C 181.32802 142.66491 181.31632 142.60824 181.30162 142.56102 C 181.20842 142.26149 180.90503 142.06513 180.56647 142.08448 C 180.23596 142.10328 180.01276 142.32567 180.03364 142.61539 C 180.04164 142.72034 180.08742 142.82576 180.15375 142.88874 L 180.19549 142.92807 L 180.27343 142.82667 L 180.35138 142.72565 L 180.31773 142.67592 C 180.26253 142.59462 180.27816 142.51192 180.36416 142.43032 C 180.42426 142.37312 180.49755 142.3482 180.60608 142.3482 C 180.72523 142.3482 180.80633 142.37491 180.89741 142.44381 C 181.09103 142.59024 181.11183 142.76553 180.95364 142.91959 C 180.84772 143.02273 180.54618 143.16188 180.29132 143.22495 C 180.16508 143.25625 179.83187 143.27153 179.71292 143.25193 C 179.34249 143.19083 179.08594 142.90697 179.0851 142.55678 C 179.0848 142.35351 179.15751 142.21425 179.30573 142.13383 C 179.38893 142.08873 179.53436 142.06044 179.62304 142.07214 L 179.68821 142.08101 L 179.6963 142.02086 C 179.7003 141.98776 179.70877 141.92747 179.71377 141.88669 L 179.72271 141.81266 L 179.57619 141.81266 C 179.33837 141.81287 179.18162 141.87032 179.03612 142.01007 C 178.84974 142.18904 178.77196 142.47687 178.83636 142.75071 C 178.84726 142.79721 178.85465 142.83681 178.85255 142.83901 C 178.85055 142.84101 178.79824 142.7901 178.73669 142.72604 C 178.43727 142.41406 178.26256 141.99906 178.24177 141.5501 C 178.23477 141.39939 178.25502 141.12275 178.27542 141.08936 C 178.27942 141.08336 178.3071 141.11189 178.3376 141.15259 C 178.4352 141.28254 178.55175 141.35877 178.74606 141.41978 C 178.89325 141.46598 179.23753 141.46684 179.43223 141.42094 C 179.68931 141.36094 179.984 141.22125 180.16354 141.07433 C 180.32933 140.93867 180.46678 140.72165 180.52516 140.50409 C 180.56796 140.34486 180.56761 140.12711 180.52473 140.01675 C 180.44483 139.81261 180.29607 139.70607 180.04727 139.67476 L 179.97358 139.66551 L 179.97358 139.7993 L 179.97358 139.9327 L 180.04429 139.94041 C 180.30587 139.97141 180.37114 140.23301 180.20486 140.58506 C 180.10826 140.78967 179.99683 140.89768 179.7619 141.01534 C 179.54707 141.12292 179.3491 141.17576 179.12003 141.18652 C 178.68394 141.20692 178.45799 141.03397 178.48242 140.69841 C 178.49602 140.51069 178.5666 140.32668 178.68345 140.17483 C 178.74855 140.09023 178.77418 140.08026 178.77418 140.13936 C 178.77418 140.20216 178.85827 140.34133 178.94369 140.42043 C 179.10445 140.56928 179.32922 140.61517 179.60303 140.5546 C 179.64373 140.5456 179.67714 140.53138 179.67714 140.52298 C 179.67709 140.51498 179.66224 140.45973 179.64434 140.40153 C 179.61304 140.29933 179.61033 140.29586 179.57023 140.29936 C 179.26746 140.32576 179.21945 140.31943 179.13067 140.24153 C 178.99681 140.12399 178.99281 139.89106 179.12258 139.73992 C 179.24013 139.6026 179.72576 139.33315 180.06558 139.21673 C 180.23201 139.15973 180.50454 139.08577 180.61545 139.0679 C 180.64645 139.0629 180.68217 139.05617 180.69467 139.05287 C 180.71517 139.04787 180.71583 139.05376 180.69893 139.12072 C 180.61713 139.43608 180.84309 139.76819 181.1764 139.82243 C 181.31896 139.84563 181.4766 139.81357 181.6513 139.72527 L 181.73989 139.68055 L 181.71519 139.64276 C 181.70159 139.62186 181.66853 139.57184 181.64193 139.53172 L 181.59423 139.45885 L 181.49584 139.50551 C 181.3066 139.59621 181.15976 139.58526 181.04691 139.47196 C 180.8953 139.31969 180.92243 139.10091 181.10271 139.02395 C 181.13731 139.00915 181.23311 139.0018 181.35443 139.0012 L 181.35358 139.00082 z M 193.29483 139.00082 C 193.49704 139.00007 193.77048 139.01723 193.95288 139.04863 C 194.13266 139.07953 194.32532 139.21876 194.39287 139.36632 C 194.44137 139.47231 194.4348 139.60777 194.3754 139.72874 C 194.3266 139.82814 194.19205 139.95912 194.08449 140.01174 C 193.9901 140.05794 193.84019 140.09048 193.71948 140.09078 C 193.42126 140.09126 193.15841 140.33166 193.06398 140.69031 C 193.03488 140.80063 193.03525 141.03071 193.0644 141.1418 C 193.1377 141.4215 193.33367 141.65308 193.61427 141.79146 C 193.79798 141.88206 193.80168 141.88181 193.84214 141.76331 C 193.86054 141.70941 193.87524 141.65547 193.87494 141.6434 C 193.87464 141.6298 193.82215 141.5965 193.73651 141.5555 C 193.52699 141.45528 193.40629 141.33445 193.34125 141.15915 C 193.25515 140.92713 193.30982 140.64801 193.47585 140.47055 C 193.55335 140.38765 193.61591 140.36357 193.78251 140.35257 C 194.07064 140.33357 194.26789 140.24983 194.44696 140.07034 C 194.67061 139.84615 194.74922 139.55314 194.65311 139.30155 C 194.63701 139.25935 194.62603 139.22261 194.62883 139.21981 C 194.63923 139.20941 194.91691 139.31993 195.09564 139.40565 C 195.41692 139.55973 195.77539 139.78902 195.89042 139.91381 C 195.92382 139.95011 195.96336 140.00626 195.97816 140.03873 C 196.05836 140.21543 195.94751 140.42142 195.71196 140.53301 C 195.63166 140.57101 195.59824 140.57816 195.48707 140.58236 C 195.36621 140.58636 195.35017 140.58427 195.26601 140.54457 C 195.20181 140.51447 195.16279 140.48512 195.1327 140.44356 C 195.0463 140.32434 195.04197 140.22761 195.11907 140.13974 L 195.16209 140.09039 L 195.10075 139.9967 C 195.06685 139.9451 195.0348 139.89609 195.0292 139.88759 C 195.0132 139.86309 194.89444 139.98972 194.85159 140.0769 C 194.81869 140.1438 194.81325 140.17178 194.81325 140.28124 C 194.81325 140.38965 194.81859 140.42013 194.85159 140.48944 C 194.92889 140.65448 195.09664 140.78572 195.28731 140.83066 C 195.69769 140.92736 196.15368 140.67755 196.24947 140.30322 L 196.26864 140.22919 L 196.37683 140.34601 C 196.59112 140.57667 196.76177 140.87465 196.83342 141.14411 C 196.88092 141.32287 196.88692 141.60604 196.84662 141.76254 C 196.73395 142.19988 196.3717 142.48209 195.95601 142.45654 C 195.66305 142.43854 195.46725 142.25585 195.48792 142.02009 C 195.50622 141.81092 195.65883 141.68466 195.8934 141.68466 L 195.97305 141.68466 L 195.98242 141.58943 C 195.99902 141.41327 195.99961 141.41658 195.93131 141.4167 C 195.72383 141.41699 195.50718 141.50464 195.3874 141.63569 C 195.2305 141.80735 195.1799 142.03366 195.25238 142.23908 C 195.26338 142.27038 195.26996 142.29844 195.26686 142.30154 C 195.26386 142.30454 195.20652 142.29925 195.13951 142.29075 C 195.07261 142.28175 194.92902 142.27697 194.82049 142.27957 C 194.71197 142.28257 194.62329 142.2835 194.62329 142.2815 C 194.62331 142.2795 194.64427 142.24774 194.67057 142.21094 C 194.7977 142.03242 194.86309 141.83556 194.86309 141.62875 C 194.86309 141.32593 194.73465 141.08507 194.48785 140.92396 C 194.38559 140.85716 194.2172 140.79291 194.09898 140.77552 L 194.03338 140.7655 L 194.02444 140.87654 C 194.01944 140.93744 194.01381 140.99602 194.01251 141.00685 C 194.01051 141.02055 194.04047 141.03257 194.10877 141.04657 C 194.37472 141.10077 194.54015 141.2533 194.59007 141.48995 C 194.63937 141.72373 194.55291 141.97832 194.35666 142.17894 C 194.26856 142.26904 194.09116 142.39108 193.99931 142.42454 C 193.71534 142.52794 193.63321 142.56044 193.4635 142.63775 L 193.26927 142.72604 L 193.26927 142.68671 C 193.26927 142.66491 193.25757 142.60824 193.24287 142.56102 C 193.14967 142.26149 192.84627 142.06513 192.50772 142.08448 C 192.1772 142.10328 191.95401 142.32567 191.97489 142.61539 C 191.98289 142.72034 192.02866 142.82576 192.095 142.88874 L 192.13674 142.92807 L 192.21468 142.82667 L 192.29263 142.72565 L 192.25898 142.67592 C 192.20378 142.59462 192.2194 142.51192 192.3054 142.43032 C 192.3655 142.37312 192.4388 142.3482 192.54733 142.3482 C 192.66648 142.3482 192.74758 142.37491 192.83866 142.44381 C 193.03228 142.59024 193.05307 142.76553 192.89488 142.91959 C 192.78898 143.02273 192.48743 143.16188 192.23257 143.22495 C 192.10634 143.25625 191.77311 143.27153 191.65416 143.25193 C 191.28374 143.19083 191.0272 142.90697 191.02635 142.55678 C 191.02605 142.35351 191.09876 142.21425 191.24698 142.13383 C 191.33018 142.08873 191.4756 142.06044 191.56429 142.07214 L 191.62946 142.08101 L 191.63755 142.02086 C 191.64155 141.98776 191.65002 141.92747 191.65502 141.88669 L 191.66396 141.81266 L 191.51744 141.81266 C 191.27961 141.81287 191.12287 141.87032 190.97737 142.01007 C 190.791 142.18904 190.71363 142.47687 190.77803 142.75071 C 190.78893 142.79721 190.79589 142.83681 190.79379 142.83901 C 190.79179 142.84101 190.73992 142.7901 190.67837 142.72604 C 190.37894 142.41406 190.20382 141.99906 190.18302 141.5501 C 190.17602 141.39939 190.19627 141.12275 190.21667 141.08936 C 190.22067 141.08336 190.24835 141.11189 190.27885 141.15259 C 190.37645 141.28254 190.493 141.35877 190.68731 141.41978 C 190.8345 141.46598 191.17878 141.46684 191.37348 141.42094 C 191.63055 141.36094 191.92525 141.22125 192.10479 141.07433 C 192.27057 140.93867 192.40802 140.72165 192.4664 140.50409 C 192.5092 140.34486 192.50886 140.12711 192.46598 140.01675 C 192.38608 139.81261 192.23731 139.70607 191.98852 139.67476 L 191.91483 139.66551 L 191.91483 139.7993 L 191.91483 139.9327 L 191.98553 139.94041 C 192.2471 139.97141 192.31239 140.23301 192.14611 140.58506 C 192.04951 140.78967 191.93807 140.89768 191.70315 141.01534 C 191.48832 141.12292 191.29034 141.17576 191.06128 141.18652 C 190.62518 141.20692 190.39924 141.03397 190.42366 140.69841 C 190.43736 140.51069 190.50784 140.32668 190.6247 140.17483 C 190.6898 140.09023 190.71542 140.08026 190.71542 140.13936 C 190.71542 140.20216 190.79952 140.34133 190.88494 140.42043 C 191.0457 140.56928 191.27047 140.61517 191.54428 140.5546 C 191.58497 140.5456 191.61839 140.53138 191.61839 140.52298 C 191.61835 140.51498 191.60349 140.45973 191.58559 140.40153 C 191.55429 140.29933 191.552 140.29586 191.5119 140.29936 C 191.20913 140.32576 191.1607 140.31943 191.07192 140.24153 C 190.93805 140.12399 190.93406 139.89106 191.06383 139.73992 C 191.18137 139.6026 191.667 139.33315 192.00683 139.21673 C 192.17326 139.15973 192.44579 139.08577 192.5567 139.0679 C 192.5877 139.0629 192.62342 139.05617 192.63592 139.05287 C 192.65642 139.04787 192.65708 139.05376 192.64018 139.12072 C 192.55838 139.43608 192.78434 139.76819 193.11764 139.82243 C 193.26021 139.84563 193.41785 139.81357 193.59255 139.72527 L 193.68114 139.68055 L 193.65644 139.64276 C 193.64284 139.62186 193.60978 139.57184 193.58318 139.53172 L 193.53548 139.45885 L 193.43709 139.50551 C 193.24785 139.59621 193.10102 139.58526 192.98816 139.47196 C 192.83656 139.31969 192.86368 139.10091 193.04396 139.02395 C 193.07856 139.00915 193.17436 139.0018 193.29568 139.0012 L 193.29483 139.00082 z M 170.83748 142.55023 L 170.81789 142.58647 C 170.71211 142.78236 170.37419 143.11835 170.05548 143.34485 C 169.8949 143.45897 169.55895 143.79415 169.37698 144.0215 C 169.22091 144.21648 169.0142 144.53082 168.89654 144.75251 C 168.77277 144.98564 168.70361 145.03856 168.59796 144.97999 C 168.55116 144.95409 168.52701 144.90441 168.52641 144.83348 C 168.52594 144.76638 168.59721 144.53616 168.67804 144.34498 L 168.73128 144.21968 L 168.80667 144.2004 C 169.0862 144.1288 169.39826 143.79418 169.46259 143.49676 L 169.47154 143.45358 L 169.34844 143.42968 C 169.28054 143.41668 169.22066 143.41048 169.21555 143.41618 C 169.21055 143.42218 169.19543 143.45975 169.18233 143.49985 C 169.15483 143.58445 169.0455 143.74638 168.97235 143.8106 C 168.89475 143.8787 168.80255 143.92818 168.71296 143.94902 C 168.43868 144.01282 168.07063 144.03026 167.83981 143.99066 C 167.37369 143.91076 167.05892 143.66761 166.91002 143.27198 C 166.89022 143.21948 166.87648 143.17351 166.87978 143.1702 C 166.88378 143.1662 166.92621 143.19063 166.97561 143.22263 C 167.27708 143.41826 167.62275 143.51846 167.99528 143.51835 C 168.22613 143.51829 168.402 143.49024 168.61202 143.42004 C 168.79639 143.35844 168.91379 143.30276 169.13931 143.16904 C 169.69132 142.84175 170.28598 142.61621 170.74292 142.56141 L 170.83748 142.55023 z M 182.7783 142.55023 L 182.75871 142.58647 C 182.65294 142.78237 182.31543 143.11835 181.99673 143.34485 C 181.83615 143.45896 181.49977 143.79414 181.3178 144.0215 C 181.16173 144.21647 180.95545 144.53083 180.83778 144.75251 C 180.71402 144.98566 180.64485 145.03855 180.53921 144.97999 C 180.49241 144.95409 180.46783 144.90478 180.46723 144.83386 C 180.46675 144.76676 180.53836 144.53615 180.61928 144.34498 L 180.6721 144.21968 L 180.74791 144.2004 C 181.02743 144.1288 181.3395 143.79418 181.40384 143.49676 L 181.41278 143.45358 L 181.28927 143.42968 C 181.22137 143.41658 181.1615 143.41048 181.15638 143.41618 C 181.15138 143.42218 181.13668 143.45975 181.12358 143.49985 C 181.09608 143.58445 180.98631 143.74637 180.91317 143.8106 C 180.83557 143.8787 180.74338 143.92819 180.65378 143.94902 C 180.37952 144.01282 180.01147 144.03026 179.78064 143.99066 C 179.31451 143.91076 179.00018 143.6676 178.85127 143.27198 C 178.83147 143.21948 178.81773 143.17352 178.82103 143.1702 C 178.82503 143.1662 178.86746 143.19063 178.91686 143.22263 C 179.21832 143.41826 179.56399 143.51847 179.93653 143.51835 C 180.16737 143.51829 180.34282 143.49024 180.55284 143.42004 C 180.7372 143.35844 180.85462 143.30276 181.08014 143.16904 C 181.63215 142.84174 182.22681 142.61621 182.68375 142.56141 L 182.7783 142.55023 z M 194.71955 142.55023 L 194.69996 142.58647 C 194.59419 142.78237 194.25668 143.11835 193.93798 143.34485 C 193.7774 143.45896 193.44102 143.79414 193.25905 144.0215 C 193.10298 144.21647 192.89628 144.53083 192.77861 144.75251 C 192.65485 144.98566 192.58568 145.03855 192.48003 144.97999 C 192.43323 144.95409 192.40918 144.90478 192.40848 144.83386 C 192.408 144.76676 192.47971 144.53615 192.56053 144.34498 L 192.61335 144.21968 L 192.68916 144.2004 C 192.96868 144.1288 193.28076 143.79418 193.34509 143.49676 L 193.35403 143.45358 L 193.23051 143.42968 C 193.16261 143.41658 193.10275 143.41048 193.09763 143.41618 C 193.09263 143.42218 193.07793 143.45975 193.06483 143.49985 C 193.03733 143.58445 192.92757 143.74637 192.85442 143.8106 C 192.77682 143.8787 192.68463 143.92819 192.59503 143.94902 C 192.32076 144.01282 191.95272 144.03026 191.72189 143.99066 C 191.25576 143.91076 190.94099 143.6676 190.79209 143.27198 C 190.77229 143.21948 190.75908 143.17352 190.76228 143.1702 C 190.76628 143.1662 190.80871 143.19063 190.85811 143.22263 C 191.15958 143.41826 191.50524 143.51847 191.87777 143.51835 C 192.10861 143.51829 192.28407 143.49024 192.49409 143.42004 C 192.67846 143.35844 192.79587 143.30276 193.02138 143.16904 C 193.5734 142.84174 194.16806 142.61621 194.62499 142.56141 L 194.71955 142.55023 z "
       inkscape:label="Smart Ammo Logo"
       transform="matrix(1.2132738,0,0,1.3403164,-115.2873,-59.009977)" /><rect
       style="display:inline;fill:#e36600;fill-opacity:1;stroke:#000000;stroke-width:0;stroke-linejoin:bevel;stroke-miterlimit:3.3;stroke-dashoffset:370.663"
       id="rect2"
       width="101.59982"
       height="18.07555"
       x="54.045109"
       y="72.266876"
       inkscape:label="Card Title Backing" /><text
       xml:space="preserve"
       style="font-style:normal;font-variant:normal;font-weight:bold;font-stretch:normal;font-size:9.87778px;line-height:0.8;font-family:Arial;-inkscape-font-specification:'Arial, Bold';font-variant-ligatures:normal;font-variant-position:normal;font-variant-caps:normal;font-variant-numeric:normal;font-variant-alternates:normal;font-variant-east-asian:normal;text-indent:0;text-align:center;text-decoration-line:none;text-decoration-style:solid;text-decoration-color:#000000;letter-spacing:normal;word-spacing:normal;text-transform:none;writing-mode:lr-tb;direction:ltr;text-orientation:mixed;dominant-baseline:auto;baseline-shift:baseline;text-anchor:middle;white-space:pre;inline-size:76.0664;display:inline;vector-effect:none;fill:#ffffff;fill-opacity:1;stroke:#000000;stroke-width:0;stroke-linecap:butt;stroke-linejoin:bevel;stroke-miterlimit:3.3;stroke-dasharray:none;stroke-dashoffset:370.663;stroke-opacity:1;-inkscape-stroke:none;stop-color:#000000"
       x="104.94299"
       y="83.013756"
       id="text7-0-9-5"
       inkscape:label="Card Title"
       transform="translate(-0.07904739,1.8238417)"><tspan
         x="104.94299"
         y="83.013756"
         id="tspan4">SMART AMMO</tspan></text><g
       id="g1"
       inkscape:label="Title Icons"
       style="fill:#ffffff;fill-opacity:1"><g
         id="g4"
         inkscape:label="Mech Equipment &amp; Gear"
         style="display:inline;fill:#ffffff;fill-opacity:1"><path
           fill="currentColor"
           d="m 144.30685,75.267419 -1.79472,1.794725 v 1.196481 h 0.59824 l 2.39296,-2.392962 v -0.598244 z m 7.21408,0 v 0.598244 l 2.39296,2.392962 h 0.59823 v -1.196482 l -1.79472,-1.794725 z m -3.60704,1.794725 v 1.266858 q -0.28152,0.05279 -0.55425,0.167158 -0.27273,0.114369 -0.50147,0.272725 l -0.89736,-0.897357 -0.84458,0.844571 0.89736,0.897362 q -0.15836,0.228742 -0.27273,0.501468 -0.11437,0.272726 -0.16715,0.554248 h -1.26686 v 1.196483 h 1.26686 q 0.0528,0.281528 0.16715,0.554254 0.11437,0.272726 0.27273,0.501462 l -0.89736,0.897363 0.84458,0.844576 0.89736,-0.897364 q 0.22874,0.158361 0.50147,0.272727 0.27273,0.114371 0.55425,0.167157 v 1.266863 h 1.19647 v -1.266863 0 q 0.28153,-0.05279 0.55426,-0.167157 0.27272,-0.114366 0.50146,-0.272727 l 0.89736,0.897364 0.84458,-0.844576 -0.89736,-0.897363 q 0.15836,-0.228736 0.27273,-0.501462 0.11437,-0.272726 0.16715,-0.554254 h 1.26686 v -1.196483 h -1.26686 q -0.0528,-0.281522 -0.16715,-0.554248 -0.11437,-0.272726 -0.27273,-0.501468 l 0.89736,-0.897362 -0.84458,-0.844571 -0.89736,0.897357 q -0.24633,-0.158356 -0.51026,-0.272725 -0.26393,-0.114371 -0.54546,-0.167158 v -1.266858 z m 0.59824,2.410552 q 0.75659,0 1.27566,0.519064 0.51906,0.519063 0.51906,1.275661 0,0.756597 -0.51906,1.275656 -0.51907,0.519063 -1.27566,0.519063 -0.7566,0 -1.27567,-0.519063 -0.51906,-0.519058 -0.51906,-1.275656 0,-0.756598 0.51906,-1.275661 0.51907,-0.519064 1.27567,-0.519064 z m -6,4.803521 v 1.196481 l 1.79472,1.79472 h 1.19648 v -0.598243 l -2.39296,-2.392958 z m 11.40176,0 -2.39296,2.392958 v 0.598243 h 1.19647 l 1.79472,-1.79472 v -1.196481 z"
           id="path1-2"
           style="fill:#ffffff;fill-opacity:1;stroke-width:0.0175953"
           inkscape:label="Right Mech Equipment &amp; Gear" /><path
           fill="currentColor"
           d="m 56.898163,75.267419 -1.794721,1.794725 v 1.196481 h 0.598241 l 2.392961,-2.392962 v -0.598244 z m 7.214075,0 v 0.598244 l 2.39296,2.392962 h 0.598241 v -1.196481 l -1.794722,-1.794725 z m -3.607039,1.794725 v 1.266859 q -0.281524,0.05279 -0.554251,0.167157 -0.272726,0.11437 -0.501466,0.272725 l -0.897359,-0.897357 -0.844577,0.844572 0.897361,0.897361 q -0.158358,0.228743 -0.272728,0.501468 -0.114368,0.272727 -0.167155,0.554249 h -1.266861 v 1.196482 h 1.266861 q 0.05278,0.281528 0.167155,0.554255 0.11437,0.272725 0.272728,0.501462 l -0.897361,0.897362 0.844577,0.844577 0.897359,-0.897364 q 0.22874,0.15836 0.501466,0.272727 0.272727,0.114371 0.554251,0.167156 v 1.266864 h 1.196481 v -1.266864 0 q 0.281525,-0.05279 0.554252,-0.167156 0.272728,-0.114367 0.501467,-0.272727 l 0.89736,0.897364 0.844576,-0.844577 -0.897362,-0.897362 q 0.158358,-0.228737 0.272728,-0.501462 0.114369,-0.272727 0.167155,-0.554255 h 1.266861 v -1.196482 h -1.266861 q -0.05278,-0.281522 -0.167155,-0.554249 -0.11437,-0.272725 -0.272728,-0.501468 l 0.897362,-0.897361 -0.844576,-0.844572 -0.89736,0.897357 Q 62.511064,78.61053 62.247135,78.49616 61.983205,78.381789 61.70168,78.329003 v -1.266859 z m 0.598241,2.410553 q 0.756598,0 1.275661,0.519063 0.51906,0.519063 0.51906,1.275661 0,0.756598 -0.51906,1.275657 -0.519063,0.519063 -1.275661,0.519063 -0.756598,0 -1.27566,-0.519063 -0.519061,-0.519059 -0.519061,-1.275657 0,-0.756598 0.519061,-1.275661 0.519062,-0.519063 1.27566,-0.519063 z m -5.999998,4.803521 v 1.196481 l 1.794721,1.79472 h 1.196481 v -0.598243 l -2.392961,-2.392958 z m 11.401756,0 -2.39296,2.392958 v 0.598243 h 1.196479 l 1.794722,-1.79472 v -1.196481 z"
           id="path1"
           style="fill:#ffffff;fill-opacity:1;stroke-width:0.0175953"
           inkscape:label="Left Mech Equipment &amp; Gear" /></g></g></g></svg>
