<?xml version="1.0" encoding="UTF-8" standalone="no"?>
<!-- Created with Inkscape (http://www.inkscape.org/) -->

<svg
   width="101.6mm"
   height="152.40001mm"
   viewBox="0 0 101.6 152.40001"
   version="1.1"
   id="svg1"
   xml:space="preserve"
   inkscape:version="1.3.1 (91b66b0783, 2023-11-16)"
   sodipodi:docname="SystemsReinforcement.svg"
   inkscape:export-filename="Reserves\Equipment\RedundantRepair.svg"
   inkscape:export-xdpi="96"
   inkscape:export-ydpi="96"
   xmlns:inkscape="http://www.inkscape.org/namespaces/inkscape"
   xmlns:sodipodi="http://sodipodi.sourceforge.net/DTD/sodipodi-0.dtd"
   xmlns="http://www.w3.org/2000/svg"
   xmlns:svg="http://www.w3.org/2000/svg"><sodipodi:namedview
     id="namedview1"
     pagecolor="#ffffff"
     bordercolor="#000000"
     borderopacity="0.25"
     inkscape:showpageshadow="2"
     inkscape:pageopacity="0.0"
     inkscape:pagecheckerboard="true"
     inkscape:deskcolor="#d1d1d1"
     inkscape:document-units="mm"
     inkscape:zoom="1"
     inkscape:cx="3"
     inkscape:cy="250.5"
     inkscape:window-width="1920"
     inkscape:window-height="1009"
     inkscape:window-x="1912"
     inkscape:window-y="-8"
     inkscape:window-maximized="1"
     inkscape:current-layer="layer1"
     inkscape:clip-to-page="true"
     showgrid="false" /><defs
     id="defs1"><rect
       x="21"
       y="490"
       width="352.14645"
       height="278.58704"
       id="rect10-0" /></defs><g
     inkscape:label="Layer 1"
     inkscape:groupmode="layer"
     id="layer1"
     transform="translate(-54.045021,-72.300003)"><path
       id="rect3-8"
       style="display:inline;fill:#000000;fill-opacity:1;stroke:#e36600;stroke-width:0.6;stroke-linecap:round;stroke-linejoin:bevel;stroke-miterlimit:3.3;stroke-dasharray:none;stroke-dashoffset:370.663;stroke-opacity:1"
       d="m 56.811648,93.750003 -0.239262,0.23306 V 143.625 l 12.69845,12.69792 h 83.801614 l 0.25322,-0.25321 V 106.4562 L 140.61999,93.750003 Z"
       inkscape:label="Window Background"
       sodipodi:nodetypes="ccccccccc" /><path
       id="rect1"
       style="fill:#333333;fill-opacity:1;stroke:none;stroke-width:0.5;stroke-linecap:butt;stroke-linejoin:bevel;stroke-miterlimit:3.3;stroke-dasharray:none;stroke-dashoffset:370.663;stroke-opacity:1"
       d="M 54.045539,72.300003 V 224.6969 H 155.64709 V 72.300003 Z m 2.801896,21.440954 h 83.808315 l 12.70569,12.706203 v 49.60729 l -0.25322,0.25321 H 69.306623 L 56.608173,143.60973 V 93.974018 Z"
       sodipodi:nodetypes="cccccccccccccc"
       inkscape:label="Card Background"
       inkscape:export-filename="Acrobatics1Back.png"
       inkscape:export-xdpi="96"
       inkscape:export-ydpi="96" /><text
       xml:space="preserve"
       id="text10-0"
       style="font-style:normal;font-variant:normal;font-weight:normal;font-stretch:normal;font-size:16px;line-height:0.8;font-family:Arial;-inkscape-font-specification:'Arial, Normal';font-variant-ligatures:normal;font-variant-caps:normal;font-variant-numeric:normal;font-variant-east-asian:normal;white-space:pre;shape-inside:url(#rect10-0);display:inline;fill:#ffffff;fill-opacity:1;stroke:#000000;stroke-width:0;stroke-linejoin:bevel;stroke-miterlimit:3.3;stroke-dashoffset:370.663"
       inkscape:label="BODY Trigger"
       transform="matrix(0.26458333,0,0,0.26458333,53.275939,32.807923)"><tspan
         x="21"
         y="500.81207"
         id="tspan1">+1    to skill checks made with one skill.
</tspan><tspan
         x="21"
         y="513.61206"
         id="tspan2">
</tspan><tspan
         x="21"
         y="533.62012"
         id="tspan15">     <tspan
   style="font-size:26.6667px"
   id="tspan6">○</tspan> <tspan
   style="font-weight:bold"
   id="tspan7">HULL</tspan>
</tspan><tspan
         x="21"
         y="554.95349"
         id="tspan18">     <tspan
   style="font-size:26.6667px"
   id="tspan16">○</tspan> <tspan
   style="font-weight:bold"
   id="tspan17">AGILITY</tspan>
</tspan><tspan
         x="21"
         y="576.28686"
         id="tspan22">     <tspan
   style="font-size:26.6667px"
   id="tspan20">○</tspan> <tspan
   style="font-weight:bold"
   id="tspan21">SYSTEMS</tspan>
</tspan><tspan
         x="21"
         y="597.62024"
         id="tspan25">     <tspan
   style="font-size:26.6667px"
   id="tspan23">○</tspan> <tspan
   style="font-weight:bold"
   id="tspan24">ENGINEERING</tspan></tspan></text><g
       id="g5"
       inkscape:label="Card Icons"
       transform="translate(64.513491,10.851143)"
       style="display:inline;fill:#ffffff;fill-opacity:1"><g
         id="g7"
         transform="translate(0.66145833,-0.26458231)"
         inkscape:label="Text Icons"
         style="display:inline;fill:#ffffff;fill-opacity:1"><path
           fill="currentColor"
           d="m 0.51585203,151.70339 -1.3020527,0.7478 v 1.5044 l 1.3020527,0.7478 1.30205267,-0.7478 v -1.5044 z m -0.1495602,0.7478 h 0.2991204 v 0.60264 H 1.2680516 v 0.29912 H 0.66541223 v 0.60264 h -0.2991204 v -0.60264 h -0.602639 v -0.29912 h 0.602639 z"
           id="path1-66"
           style="fill:#ffffff;stroke-width:0.00439884"
           inkscape:label="Accuracy icon" /></g></g><g
       id="g6"
       inkscape:label="Card Logos"
       transform="matrix(1.3403164,0,0,1.3403164,-40.501079,-40.966328)"><path
         id="path20"
         style="fill:#3e6a94;fill-opacity:1;stroke-width:0.40904"
         inkscape:label="SystemsReinforcement Logo 2"
         d="m 105.37003,105.20112 v 1.3137 1.31385 l 1.47361,0.4963 c 0.81049,0.27295 1.54533,0.49925 1.6329,0.50293 0.0875,0.004 0.84154,-0.21962 1.67548,-0.4963 l 1.51619,-0.50308 v -1.3137 -1.3137 h -3.14909 z m 0.0575,4.19879 c -0.0326,0 0.45026,0.76304 1.07303,1.69565 l 1.13233,1.69566 h 0.88632 0.88631 l 1.13233,-1.69566 c 0.62278,-0.93261 1.1056,-1.69565 1.07304,-1.69565 -0.0326,0 -0.74156,0.22639 -1.57549,0.50308 l -1.51619,0.50308 -1.5162,-0.50308 c -0.83394,-0.27669 -1.54293,-0.50308 -1.57548,-0.50308 z m -0.15283,2.51904 -2.18975,0.73902 -2.18991,0.73885 -0.37849,1.52014 -0.37866,1.52029 0.65953,1.62879 0.65968,1.62896 1.95651,2.60279 1.95651,2.60279 v 0.97021 0.97021 h 3.14909 3.14909 v -0.97021 -0.97021 l 1.9565,-2.60279 1.95651,-2.60279 0.65969,-1.62896 0.65953,-1.62879 -0.37866,-1.52029 -0.3785,-1.52014 -2.1899,-0.73885 -2.18976,-0.73902 -0.77466,1.16294 -0.77482,1.16276 h -1.69502 -1.69504 l -0.77481,-1.16276 z m -5.637523,0.47044 c 0,-0.0452 -0.774354,0.30443 -1.720744,0.77702 l -1.720735,0.85935 -0.834426,2.51163 c -0.458936,1.38141 -0.851227,2.55706 -0.8718,2.61257 -0.02918,0.0787 0.344827,0.10093 1.704181,0.10093 h 1.741707 l 0.08,-0.30279 c 0.264382,-1.00113 1.621863,-6.49073 1.621863,-6.55871 z m 17.764073,0 c 0,0.068 1.35748,5.55758 1.62185,6.55871 l 0.08,0.30279 h 1.74171 c 1.35934,0 1.73334,-0.0222 1.70418,-0.10093 -0.0206,-0.0555 -0.41287,-1.23116 -0.8718,-2.61257 l -0.83443,-2.51163 -1.72073,-0.85935 c -0.94639,-0.47259 -1.72075,-0.82218 -1.72075,-0.77702 z m -8.88204,2.68117 2.63433,1.75638 2.63433,1.75622 v 1.20898 1.20882 l -2.63433,-1.75638 -2.63433,-1.75638 -2.63434,1.75638 -2.63433,1.75638 v -1.20882 -1.20898 l 2.63433,-1.75622 z m 8.2e-4,2.91774 1.72042,1.15851 1.72042,1.15835 9.1e-4,1.03298 9.1e-4,1.03282 -0.45058,-0.30548 c -0.24775,-0.16805 -1.0223,-0.69165 -1.72136,-1.16355 l -1.27112,-0.85809 -1.16939,0.78949 c -0.64321,0.4342 -1.41843,0.95787 -1.72264,1.16371 l -0.55307,0.37439 -1.6e-4,-1.03533 c 0,-0.98247 0.002,-1.03646 0.0419,-1.05601 0.0231,-0.0114 0.79817,-0.53156 1.72247,-1.15614 z m 0,2.55436 0.99134,0.66806 0.99119,0.6682 3.1e-4,0.76992 8.2e-4,0.76993 -0.99214,-0.66174 -0.99212,-0.66174 -0.99214,0.66174 -0.99213,0.66174 1.5e-4,-0.76993 8.2e-4,-0.76992 0.24476,-0.16291 c 0.13455,-0.0896 0.58078,-0.39035 0.99182,-0.6682 z m -12.252859,0.16166 c -0.722327,0 -1.313381,0.0168 -1.313381,0.0374 0,0.0314 2.100853,6.46826 2.226507,6.82192 0.02864,0.0806 0.2683,-0.10981 0.771027,-0.61253 l 0.72939,-0.72939 -0.550081,-2.75861 -0.550236,-2.75876 z m 23.190599,0 -0.54992,2.75782 -0.54992,2.75781 0.70968,0.713 c 0.39038,0.39219 0.73226,0.68649 0.75967,0.65385 0.0386,-0.0461 1.95886,-5.86015 2.2131,-6.70081 l 0.0549,-0.18167 h -1.31875 z m -10.939,1.89279 0.99228,0.66174 0.99214,0.66174 v 0.72987 0.72986 l -0.99214,-0.66173 -0.99228,-0.66174 -0.99213,0.66174 -0.99214,0.66173 v -0.72986 -0.72987 l 0.99214,-0.66174 z m -4.6432,3.75942 c -0.0226,0 -0.86857,0.41404 -1.87988,0.92005 l -1.83869,0.92007 -0.184669,1.92623 c -0.101599,1.05944 -0.204345,2.05817 -0.228363,2.21941 l -0.04373,0.29317 1.078562,0.36651 c 0.59325,0.20165 1.12367,0.36945 1.17869,0.37314 0.055,0.004 0.5183,-0.20194 1.0295,-0.4564 l 0.92953,-0.46256 v -3.04989 c 0,-1.67738 -0.0185,-3.04973 -0.041,-3.04973 z m 9.28702,0 c -0.0225,0 -0.041,1.37234 -0.041,3.04973 v 3.04989 l 0.9084,0.45798 c 0.4996,0.25187 0.94461,0.46009 0.98897,0.46255 0.0444,0.003 0.58431,-0.1631 1.19983,-0.36825 l 1.11909,-0.37297 -0.0437,-0.29317 c -0.024,-0.16125 -0.12676,-1.15997 -0.22836,-2.21941 l -0.18467,-1.92623 -1.83871,-0.92007 c -1.0113,-0.50601 -1.85728,-0.92005 -1.87986,-0.92005 z m -7.7926,1.9379 v 0.64596 0.64597 h 3.14909 3.14909 v -0.64597 -0.64596 h -3.14909 z m -1.51398,5.81779 c -0.0334,0.003 -0.4403,0.19714 -0.90445,0.43291 l -0.84389,0.42865 -1.27568,-0.42707 c -0.79151,-0.26493 -1.275704,-0.39082 -1.275849,-0.33181 -1.27e-4,0.0523 -0.1091,1.167 -0.242082,2.47709 -0.132972,1.3101 -0.241945,2.47858 -0.242072,2.59664 l -1.64e-4,0.21464 2.422377,-0.97005 2.42237,-0.97022 v -1.72735 c 0,-0.9501 -0.0273,-1.72588 -0.0606,-1.72343 z m 9.32614,0 c -0.0334,-0.003 -0.0606,0.77339 -0.0606,1.72358 v 1.72752 l 2.40219,0.96249 c 2.22071,0.88967 2.404,0.94976 2.42584,0.79531 0.013,-0.0919 -0.0869,-1.25972 -0.22205,-2.59506 -0.13513,-1.33535 -0.24571,-2.46795 -0.24571,-2.51701 0,-0.0508 -0.54854,0.0943 -1.27569,0.33766 l -1.27569,0.42707 -0.84388,-0.42865 c -0.46415,-0.23577 -0.87115,-0.43045 -0.90445,-0.43291 z m -9.03801,4.94316 -2.72564,1.08976 -2.725486,1.08991 -0.295072,0.59629 c -0.162273,0.32796 -0.295064,0.61377 -0.295064,0.63524 v 1.6e-4 c 0,0.0215 1.544263,0.039 3.431692,0.039 2.27195,0 3.4317,-0.0278 3.4317,-0.0822 0,-0.0452 -0.18491,-0.82147 -0.411,-1.72515 z m 8.74988,0 -0.41114,1.64299 c -0.22608,0.90368 -0.41098,1.67999 -0.41098,1.72516 0,0.0544 1.15974,0.0822 3.43169,0.0822 1.88744,0 3.4317,-0.0176 3.4317,-0.0391 0,-0.0215 -0.13279,-0.30728 -0.29507,-0.63525 l -0.29507,-0.59629 -2.72548,-1.08991 z" /></g><rect
       style="display:inline;fill:#e36600;fill-opacity:1;stroke:#000000;stroke-width:0;stroke-linejoin:bevel;stroke-miterlimit:3.3;stroke-dashoffset:370.663"
       id="rect2"
       width="101.59982"
       height="18.07555"
       x="54.045109"
       y="72.266876"
       inkscape:label="Card Title Backing" /><text
       xml:space="preserve"
       style="font-style:normal;font-variant:normal;font-weight:bold;font-stretch:normal;font-size:8.46667px;line-height:0.8;font-family:Arial;-inkscape-font-specification:'Arial, Bold';font-variant-ligatures:normal;font-variant-position:normal;font-variant-caps:normal;font-variant-numeric:normal;font-variant-alternates:normal;font-variant-east-asian:normal;text-indent:0;text-align:center;text-decoration-line:none;text-decoration-style:solid;text-decoration-color:#000000;letter-spacing:normal;word-spacing:normal;text-transform:none;writing-mode:lr-tb;direction:ltr;text-orientation:mixed;dominant-baseline:auto;baseline-shift:baseline;text-anchor:middle;white-space:pre;inline-size:76.0664;display:inline;vector-effect:none;fill:#ffffff;fill-opacity:1;stroke:#000000;stroke-width:0;stroke-linecap:butt;stroke-linejoin:bevel;stroke-miterlimit:3.3;stroke-dasharray:none;stroke-dashoffset:370.663;stroke-opacity:1;-inkscape-stroke:none;stop-color:#000000"
       x="104.94299"
       y="83.013756"
       id="text7-0-9-5"
       inkscape:label="Card Title"
       transform="translate(-0.3215827,-2.0654665)"><tspan
         x="104.94299"
         y="83.013756"
         id="tspan26">SYSTEMS<tspan
   y="83.013756"
   id="tspan27"> </tspan></tspan><tspan
         x="104.94299"
         y="89.787094"
         id="tspan28">REINFORCEMENT</tspan></text><g
       id="g1"
       inkscape:label="Title Icons"
       style="fill:#ffffff;fill-opacity:1"><g
         id="g4"
         inkscape:label="Mech Equipment &amp; Gear"
         style="display:inline;fill:#ffffff;fill-opacity:1"><path
           fill="currentColor"
           d="m 144.30685,75.267419 -1.79472,1.794725 v 1.196481 h 0.59824 l 2.39296,-2.392962 v -0.598244 z m 7.21408,0 v 0.598244 l 2.39296,2.392962 h 0.59823 v -1.196482 l -1.79472,-1.794725 z m -3.60704,1.794725 v 1.266858 q -0.28152,0.05279 -0.55425,0.167158 -0.27273,0.114369 -0.50147,0.272725 l -0.89736,-0.897357 -0.84458,0.844571 0.89736,0.897362 q -0.15836,0.228742 -0.27273,0.501468 -0.11437,0.272726 -0.16715,0.554248 h -1.26686 v 1.196483 h 1.26686 q 0.0528,0.281528 0.16715,0.554254 0.11437,0.272726 0.27273,0.501462 l -0.89736,0.897363 0.84458,0.844576 0.89736,-0.897364 q 0.22874,0.158361 0.50147,0.272727 0.27273,0.114371 0.55425,0.167157 v 1.266863 h 1.19647 v -1.266863 0 q 0.28153,-0.05279 0.55426,-0.167157 0.27272,-0.114366 0.50146,-0.272727 l 0.89736,0.897364 0.84458,-0.844576 -0.89736,-0.897363 q 0.15836,-0.228736 0.27273,-0.501462 0.11437,-0.272726 0.16715,-0.554254 h 1.26686 v -1.196483 h -1.26686 q -0.0528,-0.281522 -0.16715,-0.554248 -0.11437,-0.272726 -0.27273,-0.501468 l 0.89736,-0.897362 -0.84458,-0.844571 -0.89736,0.897357 q -0.24633,-0.158356 -0.51026,-0.272725 -0.26393,-0.114371 -0.54546,-0.167158 v -1.266858 z m 0.59824,2.410552 q 0.75659,0 1.27566,0.519064 0.51906,0.519063 0.51906,1.275661 0,0.756597 -0.51906,1.275656 -0.51907,0.519063 -1.27566,0.519063 -0.7566,0 -1.27567,-0.519063 -0.51906,-0.519058 -0.51906,-1.275656 0,-0.756598 0.51906,-1.275661 0.51907,-0.519064 1.27567,-0.519064 z m -6,4.803521 v 1.196481 l 1.79472,1.79472 h 1.19648 v -0.598243 l -2.39296,-2.392958 z m 11.40176,0 -2.39296,2.392958 v 0.598243 h 1.19647 l 1.79472,-1.79472 v -1.196481 z"
           id="path1-2"
           style="fill:#ffffff;fill-opacity:1;stroke-width:0.0175953"
           inkscape:label="Right Mech Equipment &amp; Gear" /><path
           fill="currentColor"
           d="m 56.898163,75.267419 -1.794721,1.794725 v 1.196481 h 0.598241 l 2.392961,-2.392962 v -0.598244 z m 7.214075,0 v 0.598244 l 2.39296,2.392962 h 0.598241 v -1.196481 l -1.794722,-1.794725 z m -3.607039,1.794725 v 1.266859 q -0.281524,0.05279 -0.554251,0.167157 -0.272726,0.11437 -0.501466,0.272725 l -0.897359,-0.897357 -0.844577,0.844572 0.897361,0.897361 q -0.158358,0.228743 -0.272728,0.501468 -0.114368,0.272727 -0.167155,0.554249 h -1.266861 v 1.196482 h 1.266861 q 0.05278,0.281528 0.167155,0.554255 0.11437,0.272725 0.272728,0.501462 l -0.897361,0.897362 0.844577,0.844577 0.897359,-0.897364 q 0.22874,0.15836 0.501466,0.272727 0.272727,0.114371 0.554251,0.167156 v 1.266864 h 1.196481 v -1.266864 0 q 0.281525,-0.05279 0.554252,-0.167156 0.272728,-0.114367 0.501467,-0.272727 l 0.89736,0.897364 0.844576,-0.844577 -0.897362,-0.897362 q 0.158358,-0.228737 0.272728,-0.501462 0.114369,-0.272727 0.167155,-0.554255 h 1.266861 v -1.196482 h -1.266861 q -0.05278,-0.281522 -0.167155,-0.554249 -0.11437,-0.272725 -0.272728,-0.501468 l 0.897362,-0.897361 -0.844576,-0.844572 -0.89736,0.897357 Q 62.511064,78.61053 62.247135,78.49616 61.983205,78.381789 61.70168,78.329003 v -1.266859 z m 0.598241,2.410553 q 0.756598,0 1.275661,0.519063 0.51906,0.519063 0.51906,1.275661 0,0.756598 -0.51906,1.275657 -0.519063,0.519063 -1.275661,0.519063 -0.756598,0 -1.27566,-0.519063 -0.519061,-0.519059 -0.519061,-1.275657 0,-0.756598 0.519061,-1.275661 0.519062,-0.519063 1.27566,-0.519063 z m -5.999998,4.803521 v 1.196481 l 1.794721,1.79472 h 1.196481 v -0.598243 l -2.392961,-2.392958 z m 11.401756,0 -2.39296,2.392958 v 0.598243 h 1.196479 l 1.794722,-1.79472 v -1.196481 z"
           id="path1"
           style="fill:#ffffff;fill-opacity:1;stroke-width:0.0175953"
           inkscape:label="Left Mech Equipment &amp; Gear" /></g></g></g></svg>
