<?xml version="1.0" encoding="UTF-8" standalone="no"?>
<!-- Created with Inkscape (http://www.inkscape.org/) -->

<svg
   width="101.6mm"
   height="152.40001mm"
   viewBox="0 0 101.6 152.40001"
   version="1.1"
   id="svg1"
   xml:space="preserve"
   sodipodi:docname="Tactician3.svg"
   inkscape:version="1.3.1 (91b66b0783, 2023-11-16)"
   xmlns:inkscape="http://www.inkscape.org/namespaces/inkscape"
   xmlns:sodipodi="http://sodipodi.sourceforge.net/DTD/sodipodi-0.dtd"
   xmlns="http://www.w3.org/2000/svg"
   xmlns:svg="http://www.w3.org/2000/svg"><sodipodi:namedview
     id="namedview1"
     pagecolor="#ffffff"
     bordercolor="#000000"
     borderopacity="0.25"
     inkscape:showpageshadow="2"
     inkscape:pageopacity="0.0"
     inkscape:pagecheckerboard="0"
     inkscape:deskcolor="#d1d1d1"
     inkscape:document-units="mm"
     inkscape:zoom="1.4427082"
     inkscape:cx="190.96031"
     inkscape:cy="287.30689"
     inkscape:window-width="1920"
     inkscape:window-height="1009"
     inkscape:window-x="1912"
     inkscape:window-y="-8"
     inkscape:window-maximized="1"
     inkscape:current-layer="layer1" /><defs
     id="defs1"><rect
       x="21"
       y="490"
       width="344.37869"
       height="347.94321"
       id="rect10" /><rect
       x="8"
       y="376"
       width="370.94974"
       height="185.12132"
       id="rect5" /><rect
       x="35.355339"
       y="130.10765"
       width="361.7666"
       height="517.56348"
       id="rect13-8" /></defs><g
     id="layer1"
     transform="translate(-54.045021,-72.300003)"><path
       id="rect3-8"
       style="fill:#000000;fill-opacity:1;stroke:#e36600;stroke-width:0.6;stroke-linecap:round;stroke-linejoin:bevel;stroke-miterlimit:3.3;stroke-dasharray:none;stroke-dashoffset:370.663;stroke-opacity:1"
       d="M 2.659262,21.45 2.42,21.68306 v 51.6263 l 12.69845,12.69793 h 83.801609 l 0.25322,-0.25321 V 34.156197 L 86.467589,21.45 Z"
       inkscape:label="Window Background"
       transform="translate(54.045021,72.300003)" /><path
       id="rect1"
       style="fill:#333333;fill-opacity:1;stroke:#000000;stroke-width:0;stroke-linejoin:bevel;stroke-miterlimit:3.3;stroke-dashoffset:370.663"
       d="M 54.045539,72.300003 V 224.6969 H 155.64709 V 72.300003 Z m 2.669604,21.440954 h 83.808317 l 12.70569,12.706203 V 158.045 l -0.25322,0.25321 H 69.174331 L 56.475881,145.60028 V 93.974018 Z" /><text
       xml:space="preserve"
       id="text10"
       style="font-style:normal;font-variant:normal;font-weight:normal;font-stretch:normal;font-size:13.3333px;font-family:Arial;-inkscape-font-specification:'Arial, Normal';font-variant-ligatures:normal;font-variant-caps:normal;font-variant-numeric:normal;font-variant-east-asian:normal;white-space:pre;shape-inside:url(#rect10);display:inline;fill:#ffffff;fill-opacity:1;stroke:#000000;stroke-width:0;stroke-linejoin:bevel;stroke-miterlimit:3.3;stroke-dashoffset:370.663"
       transform="matrix(0.26458333,0,0,0.26458333,54.045021,62.875866)"><tspan
         x="21"
         y="502.01003"
         id="tspan10">You may target them with <tspan
   style="font-weight:bold"
   id="tspan9">OVERWATCH</tspan>, dealing half </tspan><tspan
         x="21"
         y="518.67665"
         id="tspan11">damage,    or    on a hit.</tspan></text><text
       xml:space="preserve"
       transform="matrix(0.25232334,0,0,0.26458333,56.29158,73.231548)"
       id="text4"
       style="font-style:normal;font-variant:normal;font-weight:normal;font-stretch:normal;font-size:13.6534px;font-family:Arial;-inkscape-font-specification:'Arial, Normal';font-variant-ligatures:normal;font-variant-caps:normal;font-variant-numeric:normal;font-variant-east-asian:normal;white-space:pre;shape-inside:url(#rect5);shape-padding:5.19025;display:inline;fill:#ffffff;fill-opacity:1;stroke:#000000;stroke-width:0;stroke-linejoin:bevel;stroke-miterlimit:3.3;stroke-dashoffset:370.663"><tspan
         x="13.189453"
         y="393.48781"
         id="tspan12">A character who doesn’t have cover from your position is </tspan><tspan
         x="13.189453"
         y="410.55456"
         id="tspan13">successfully attacked by an allied character.</tspan></text><g
       id="g6"
       transform="translate(0,3.1750001)"><rect
         style="fill:#3e6a94;fill-opacity:1;stroke:#000000;stroke-width:0;stroke-linejoin:bevel;stroke-miterlimit:3.3;stroke-dashoffset:370.663"
         id="rect11"
         width="92.336441"
         height="5.8416877"
         x="58.551205"
         y="163.21698" /><rect
         style="fill:#3e6a94;fill-opacity:1;stroke:#000000;stroke-width:0;stroke-linejoin:bevel;stroke-miterlimit:3.3;stroke-dashoffset:370.663"
         id="rect11-6"
         width="92.336441"
         height="5.8416877"
         x="58.551205"
         y="181.92506" /><text
         xml:space="preserve"
         style="font-style:normal;font-variant:normal;font-weight:bold;font-stretch:normal;font-size:4.23333px;font-family:Arial;-inkscape-font-specification:'Arial, Bold';font-variant-ligatures:normal;font-variant-caps:normal;font-variant-numeric:normal;font-variant-east-asian:normal;fill:#ffffff;fill-opacity:1;stroke:#000000;stroke-width:0;stroke-linejoin:bevel;stroke-miterlimit:3.3;stroke-dashoffset:370.663"
         x="59.254349"
         y="186.75317"
         id="text7-7"><tspan
           id="tspan7-8"
           style="font-style:normal;font-variant:normal;font-weight:bold;font-stretch:normal;font-size:4.93889px;font-family:Arial;-inkscape-font-specification:'Arial, Bold';font-variant-ligatures:normal;font-variant-caps:normal;font-variant-numeric:normal;font-variant-east-asian:normal;stroke-width:0"
           x="59.254349"
           y="186.75317">EFFECT</tspan></text><text
         xml:space="preserve"
         style="font-style:normal;font-variant:normal;font-weight:bold;font-stretch:normal;font-size:4.23333px;font-family:Arial;-inkscape-font-specification:'Arial, Bold';font-variant-ligatures:normal;font-variant-caps:normal;font-variant-numeric:normal;font-variant-east-asian:normal;fill:#ffffff;fill-opacity:1;stroke:#000000;stroke-width:0;stroke-linejoin:bevel;stroke-miterlimit:3.3;stroke-dashoffset:370.663"
         x="59.507565"
         y="167.98293"
         id="text7"><tspan
           id="tspan7"
           style="font-style:normal;font-variant:normal;font-weight:bold;font-stretch:normal;font-size:4.93889px;font-family:Arial;-inkscape-font-specification:'Arial, Bold';font-variant-ligatures:normal;font-variant-caps:normal;font-variant-numeric:normal;font-variant-east-asian:normal;stroke-width:0"
           x="59.507565"
           y="167.98293">TRIGGER</tspan></text></g><g
       id="g5"><path
         fill="currentColor"
         d="M 104.75362,152.07179 89.441268,144.2049 v -32.40412 h 30.812002 v 32.40412 z m -13.813897,-8.7566 13.813897,7.07084 14.00119,-7.11766 V 113.29925 H 90.939723 Z m 17.606857,-15.78061 -1.35798,-4.30806 3.60566,-2.71595 h -4.49536 l -1.45163,-4.30806 -1.45163,4.26123 -4.495369,0.0468 3.605659,2.71594 -1.35797,4.30807 3.69931,-2.6223 z m -3.88662,9.59948 9.22487,-4.68267 v -4.68267 l -9.17804,4.68267 -8.897084,-4.54219 v 4.68267 z m 0.0468,3.04374 -8.897084,-4.54219 v 4.68268 l 8.850254,4.54218 9.22487,-4.68267 v -4.63585 z"
         id="path1-4"
         style="display:inline;fill:#3a82c4;fill-opacity:1;stroke-width:0.0468269" /><text
         xml:space="preserve"
         style="font-style:normal;font-variant:normal;font-weight:bold;font-stretch:normal;font-size:11.2889px;line-height:normal;font-family:Arial;-inkscape-font-specification:'Arial, Bold';font-variant-ligatures:normal;font-variant-position:normal;font-variant-caps:normal;font-variant-numeric:normal;font-variant-alternates:normal;font-variant-east-asian:normal;font-feature-settings:normal;font-variation-settings:normal;text-indent:0;text-align:start;text-decoration-line:none;text-decoration-style:solid;text-decoration-color:#000000;letter-spacing:normal;word-spacing:normal;text-transform:none;writing-mode:lr-tb;direction:ltr;text-orientation:mixed;dominant-baseline:auto;baseline-shift:baseline;white-space:normal;vector-effect:none;fill:#3a82c4;fill-opacity:1;stroke:#000000;stroke-width:0;stroke-linecap:butt;stroke-linejoin:bevel;stroke-miterlimit:3.3;stroke-dasharray:none;stroke-dashoffset:370.663;stroke-opacity:1;-inkscape-stroke:none;stop-color:#000000"
         x="75.181343"
         y="108.96136"
         id="text7-0-9"><tspan
           id="tspan7-9-3"
           style="font-style:normal;font-variant:normal;font-weight:bold;font-stretch:normal;font-size:11.2889px;line-height:normal;font-family:Arial;-inkscape-font-specification:'Arial, Bold';font-variant-ligatures:normal;font-variant-position:normal;font-variant-caps:normal;font-variant-numeric:normal;font-variant-alternates:normal;font-variant-east-asian:normal;font-feature-settings:normal;font-variation-settings:normal;text-indent:0;text-align:start;text-decoration-line:none;text-decoration-style:solid;text-decoration-color:#000000;letter-spacing:normal;word-spacing:normal;text-transform:none;writing-mode:lr-tb;direction:ltr;text-orientation:mixed;dominant-baseline:auto;baseline-shift:baseline;white-space:normal;vector-effect:none;fill:#3a82c4;fill-opacity:1;stroke:#000000;stroke-width:0;stroke-linecap:butt;stroke-linejoin:bevel;stroke-miterlimit:3.3;stroke-dasharray:none;stroke-dashoffset:370.663;stroke-opacity:1;-inkscape-stroke:none;stop-color:#000000;stop-opacity:1"
           x="75.181343"
           y="108.96136">TACTICIAN</tspan></text><g
         id="g7"
         transform="translate(0.66145833,-0.26458231)"><path
           fill="currentColor"
           d="m 81.940361,197.42005 -0.0867,0.0907 q 0,0 -0.20105,0.21878 -0.20105,0.2188 -0.22471,0.2661 -0.0237,0.0473 -0.16162,0.2326 -0.0986,0.20105 -0.0966,0.28778 0.003,0.0867 -0.0375,0.2523 -0.067,0.29172 -0.23455,0.41393 -0.16755,0.1222 -0.16755,0.52825 0,0.29567 0.17346,0.46123 0.17345,0.16558 0.38633,0.24836 -0.067,-0.0669 -0.11234,-0.14389 -0.0453,-0.0769 -0.0453,-0.1636 0,-0.10643 0.0867,-0.24836 0.0828,-0.13797 0.18331,-0.26216 0.10052,-0.12417 0.18725,-0.2109 l 0.0828,-0.0867 0.13009,0.0789 q 0.13009,0.0749 0.28581,0.19513 0.15572,0.12024 0.27792,0.26215 0.12615,0.14192 0.11432,0.27202 -0.008,0.0591 -0.0335,0.11827 -0.0256,0.0591 -0.0611,0.11431 0.19317,-0.10249 0.34494,-0.26017 0.15177,-0.15769 0.15177,-0.37452 0,-0.30354 -0.0631,-0.53219 -0.0631,-0.2247 -0.13798,-0.37647 -0.0749,-0.15178 -0.13798,-0.22668 l -0.0631,-0.0789 0.0355,0.27596 q 0,0 -0.16952,0.26413 -0.10249,-0.003 -0.15571,-0.1439 -0.0532,-0.13995 -0.11629,-0.25821 -0.0986,-0.20499 -0.18331,-0.272 -0.0848,-0.067 -0.0848,-0.26807 0,-0.30356 0.067,-0.48884 z"
           id="path1-0-7"
           style="fill:#ffffff;stroke-width:0.00394219" /><path
           fill="currentColor"
           d="m 74.453808,197.45741 q -0.15732,0 -0.26525,0.10976 -0.10792,0.10975 -0.10792,0.26707 v 1.5 q -0.12073,0.0878 -0.18659,0.21951 -0.0659,0.13171 -0.0659,0.27805 0,0.25976 0.18293,0.44268 0.18293,0.18293 0.44268,0.18293 0.25976,0 0.44268,-0.18293 0.18293,-0.18292 0.18293,-0.44268 0,-0.14634 -0.0659,-0.27805 -0.0659,-0.13171 -0.18658,-0.21951 v -1.5 q 0,-0.15732 -0.10793,-0.26707 -0.10793,-0.10976 -0.26524,-0.10976 z m -0.12439,1.12683 h 0.24878 v 0.89634 q 0.11341,0.0366 0.1811,0.13354 0.0677,0.0969 0.0677,0.21768 0,0.15366 -0.10976,0.26341 -0.10976,0.10976 -0.26341,0.10976 -0.15366,0 -0.26342,-0.10976 -0.10976,-0.10975 -0.10976,-0.26341 0,-0.12073 0.0677,-0.21768 0.0677,-0.0969 0.1811,-0.13354 z m 0.75,0.12439 h 0.49756 v 0.24878 h -0.49756 z m 0,-0.62561 h 0.49756 v 0.24878 h -0.49756 z"
           id="path1-36-2"
           style="fill:#ffffff;stroke-width:0.00365855" /></g><path
         fill="currentColor"
         d="m 64.700851,94.938403 -3.011583,3.030888 3.011583,3.011579 3.011584,-3.011579 z m -3.957528,3.957529 -3.011584,3.011588 3.011584,3.03089 2.837838,-2.83784 v 0 l 0.19305,-0.19305 z m 7.915058,0 -3.030889,3.011588 0.193051,0.19305 v 0 l 2.837838,2.83784 3.011582,-3.03089 z"
         id="path1-6-6"
         style="display:inline;fill:#3a82c4;fill-opacity:1;stroke:#e36600;stroke-width:0.3;stroke-dasharray:none;stroke-opacity:1" /></g><rect
       style="display:inline;fill:#e36600;fill-opacity:1;stroke:#000000;stroke-width:0;stroke-linejoin:bevel;stroke-miterlimit:3.3;stroke-dashoffset:370.663"
       id="rect2"
       width="101.59982"
       height="18.07555"
       x="54.045109"
       y="72.266876" /><text
       xml:space="preserve"
       style="font-style:normal;font-variant:normal;font-weight:bold;font-stretch:normal;font-size:14.1111px;line-height:0.8;font-family:Arial;-inkscape-font-specification:'Arial, Bold';font-variant-ligatures:normal;font-variant-position:normal;font-variant-caps:normal;font-variant-numeric:normal;font-variant-alternates:normal;font-variant-east-asian:normal;text-indent:0;text-align:center;text-decoration-line:none;text-decoration-style:solid;text-decoration-color:#000000;letter-spacing:normal;word-spacing:normal;text-transform:none;writing-mode:lr-tb;direction:ltr;text-orientation:mixed;dominant-baseline:auto;baseline-shift:baseline;text-anchor:middle;white-space:pre;inline-size:71.7347;vector-effect:none;fill:#ffffff;fill-opacity:1;stroke:#000000;stroke-width:0;stroke-linecap:butt;stroke-linejoin:bevel;stroke-miterlimit:3.3;stroke-dasharray:none;stroke-dashoffset:370.663;stroke-opacity:1;-inkscape-stroke:none;stop-color:#000000"
       x="104.94299"
       y="83.013756"
       id="text7-0-9-5"
       transform="translate(-0.60476829,3.3414015)"><tspan
         x="104.94299"
         y="83.013756"
         id="tspan15"><tspan
           style="baseline-shift:baseline;white-space:normal;vector-effect:none;stop-color:#000000;stop-opacity:1"
           id="tspan14">FLANK</tspan></tspan></text><g
       id="g1"
       style="display:inline"><g
         id="g4"
         style="display:inline"><path
           fill="currentColor"
           d="m 148.41047,75.045442 -6.25921,6.259209 0.40123,0.385182 5.85798,5.874027 6.25921,-6.259209 z m 0,1.556778 4.70243,4.702431 -4.70243,4.702431 -4.70243,-4.702431 z m -1.09135,2.198747 q -0.72221,0.320986 -1.18764,0.995055 -0.46543,0.674068 -0.46543,1.508629 0,1.123449 0.81049,1.933935 0.81049,0.810488 1.93393,0.810488 1.12345,0 1.93394,-0.810488 0.81049,-0.810486 0.81049,-1.933935 0,-0.834561 -0.46543,-1.508629 -0.46543,-0.674069 -1.18765,-0.995055 v 1.283941 q 0.25679,0.22469 0.40123,0.537651 0.14445,0.312959 0.14445,0.682092 0,0.690118 -0.47346,1.163572 -0.47345,0.473453 -1.16357,0.473453 -0.69011,0 -1.16357,-0.473453 -0.47345,-0.473454 -0.47345,-1.163572 0,-0.369133 0.14444,-0.682092 0.14445,-0.312961 0.40123,-0.537651 z m 0.54568,-0.786412 v 3.290096 h 1.09135 v -3.290096 z"
           id="path1-3-9"
           style="display:inline;fill:#ffffff;stroke-width:0.0160494" /><path
           fill="currentColor"
           d="m 61.304229,75.046003 -6.259208,6.259209 0.401231,0.385182 5.857977,5.874027 6.25921,-6.259209 z m 0,1.556778 4.702432,4.702431 -4.702432,4.702431 -4.70243,-4.702431 z m -1.091348,2.198747 q -0.722216,0.320986 -1.187645,0.995055 -0.465428,0.674068 -0.465428,1.508629 0,1.123449 0.810487,1.933935 0.810488,0.810488 1.933934,0.810488 1.123448,0 1.933936,-0.810488 0.810488,-0.810486 0.810488,-1.933935 0,-0.834561 -0.465429,-1.508629 -0.465429,-0.674069 -1.187645,-0.995055 v 1.283941 q 0.256789,0.22469 0.401232,0.537651 0.144442,0.312959 0.144442,0.682092 0,0.690118 -0.473452,1.163572 -0.473454,0.473453 -1.163572,0.473453 -0.690116,0 -1.16357,-0.473453 -0.473452,-0.473454 -0.473452,-1.163572 0,-0.369133 0.144443,-0.682092 0.144443,-0.312961 0.401231,-0.537651 z m 0.545674,-0.786412 v 3.290096 h 1.09135 v -3.290096 z"
           id="path1-3"
           style="display:inline;fill:#ffffff;stroke-width:0.0160494" /></g></g></g></svg>
