<?xml version="1.0" encoding="UTF-8" standalone="no"?>
<!-- Created with Inkscape (http://www.inkscape.org/) -->

<svg
   width="101.6mm"
   height="152.40001mm"
   viewBox="0 0 101.6 152.40001"
   version="1.1"
   id="svg1"
   xml:space="preserve"
   inkscape:version="1.3.1 (91b66b0783, 2023-11-16)"
   sodipodi:docname="DiluvianArk.svg"
   inkscape:export-filename="HA\FlashLock.svg"
   inkscape:export-xdpi="96"
   inkscape:export-ydpi="96"
   xmlns:inkscape="http://www.inkscape.org/namespaces/inkscape"
   xmlns:sodipodi="http://sodipodi.sourceforge.net/DTD/sodipodi-0.dtd"
   xmlns="http://www.w3.org/2000/svg"
   xmlns:svg="http://www.w3.org/2000/svg"><sodipodi:namedview
     id="namedview1"
     pagecolor="#ffffff"
     bordercolor="#000000"
     borderopacity="0.25"
     inkscape:showpageshadow="2"
     inkscape:pageopacity="0.0"
     inkscape:pagecheckerboard="true"
     inkscape:deskcolor="#d1d1d1"
     inkscape:document-units="mm"
     inkscape:zoom="1.4142136"
     inkscape:cx="171.82694"
     inkscape:cy="285.31758"
     inkscape:window-width="1920"
     inkscape:window-height="1009"
     inkscape:window-x="-8"
     inkscape:window-y="-8"
     inkscape:window-maximized="1"
     inkscape:current-layer="g8"
     inkscape:clip-to-page="true" /><defs
     id="defs1"><rect
       x="21"
       y="490"
       width="344.37869"
       height="347.94321"
       id="rect10" /><rect
       x="35.355339"
       y="130.10765"
       width="361.7666"
       height="517.56348"
       id="rect13-8" /><rect
       x="21"
       y="490"
       width="344.52515"
       height="65.737793"
       id="rect10-0" /></defs><g
     inkscape:label="Layer 1"
     inkscape:groupmode="layer"
     id="layer1"
     transform="translate(-54.045021,-72.300003)"><path
       id="rect3-8"
       style="fill:#1e1e1e;fill-opacity:1;stroke:#771675;stroke-width:0.6;stroke-linecap:round;stroke-linejoin:bevel;stroke-miterlimit:3.3;stroke-dasharray:none;stroke-dashoffset:370.663;stroke-opacity:1"
       d="m -7.280041,82.89886 -0.239262,0.23306 v 51.62631 l 12.69845,12.69792 h 83.801609 l 0.25322,-0.25321 V 95.605057 L 76.528296,82.89886 Z"
       inkscape:label="Window Background"
       transform="translate(63.984324,10.851143)" /><path
       id="rect1"
       style="fill:#333333;fill-opacity:1;stroke:none;stroke-width:0.5;stroke-linecap:butt;stroke-linejoin:bevel;stroke-miterlimit:3.3;stroke-dasharray:none;stroke-dashoffset:370.663;stroke-opacity:1"
       d="M 54.045539,72.300003 V 224.6969 H 155.64709 V 72.300003 Z m 2.669604,21.440954 h 83.808317 l 12.70569,12.706203 V 158.045 l -0.25322,0.25321 H 69.174331 L 56.475881,145.60028 V 93.974018 Z"
       sodipodi:nodetypes="cccccccccccccc"
       inkscape:label="Card Background"
       inkscape:export-filename="Acrobatics1Back.png"
       inkscape:export-xdpi="96"
       inkscape:export-ydpi="96" /><text
       xml:space="preserve"
       id="text10"
       style="font-style:normal;font-variant:normal;font-weight:normal;font-stretch:normal;font-size:13.3333px;font-family:Arial;-inkscape-font-specification:'Arial, Normal';font-variant-ligatures:normal;font-variant-caps:normal;font-variant-numeric:normal;font-variant-east-asian:normal;white-space:pre;shape-inside:url(#rect10);display:inline;fill:#ffffff;fill-opacity:1;stroke:#000000;stroke-width:0;stroke-linejoin:bevel;stroke-miterlimit:3.3;stroke-dashoffset:370.663"
       inkscape:label="BODY Effect"
       transform="matrix(0.26458333,0,0,0.26458333,54.045021,64.463367)"><tspan
         x="21"
         y="502.01003"
         id="tspan9">Take <tspan
   style="font-weight:bold"
   id="tspan5">1</tspan>    and roll <tspan
   style="font-weight:bold"
   id="tspan6">1d6</tspan> before the attacker rolls: on <tspan
   style="font-weight:bold"
   id="tspan8">4+</tspan> you </tspan><tspan
         x="21"
         y="518.67665"
         id="tspan11">take an additional <tspan
   style="font-weight:bold"
   id="tspan10">1</tspan>    and the attack automatically misses </tspan><tspan
         x="21"
         y="535.34328"
         id="tspan21">you and any allies adjacent to you. This effect does not </tspan><tspan
         x="21"
         y="552.00991"
         id="tspan23">stack with <tspan
   style="font-weight:bold"
   id="tspan22">INVISIBLE</tspan>.</tspan></text><text
       xml:space="preserve"
       id="text10-0"
       style="font-style:normal;font-variant:normal;font-weight:normal;font-stretch:normal;font-size:13.3333px;font-family:Arial;-inkscape-font-specification:'Arial, Normal';font-variant-ligatures:normal;font-variant-caps:normal;font-variant-numeric:normal;font-variant-east-asian:normal;white-space:pre;shape-inside:url(#rect10-0);display:inline;fill:#ffffff;fill-opacity:1;stroke:#000000;stroke-width:0;stroke-linejoin:bevel;stroke-miterlimit:3.3;stroke-dashoffset:370.663"
       inkscape:label="BODY Trigger"
       transform="matrix(0.26458333,0,0,0.26458333,53.927888,43.733341)"><tspan
         x="21"
         y="502.01003"
         id="tspan24">You or an allied adjacent character are targeted by a </tspan><tspan
         x="21"
         y="518.67665"
         id="tspan26"><tspan
   style="font-weight:bold"
   id="tspan25">ranged attack</tspan>.</tspan></text><g
       id="g6"
       inkscape:label="Sub Titles"
       transform="translate(0,3.1750001)"><rect
         style="fill:#b035ad;fill-opacity:1;stroke:#000000;stroke-width:0;stroke-linejoin:bevel;stroke-miterlimit:3.3;stroke-dashoffset:370.663"
         id="rect11-6"
         width="92.336441"
         height="5.8416877"
         x="58.551205"
         y="183.51254"
         inkscape:label="Effect Title Backing" /><rect
         style="fill:#b035ad;fill-opacity:1;stroke:#000000;stroke-width:0;stroke-linejoin:bevel;stroke-miterlimit:3.3;stroke-dashoffset:370.663"
         id="rect11"
         width="92.336441"
         height="5.8416877"
         x="58.551205"
         y="162.68782"
         inkscape:label="Trigger Title Backing" /><text
         xml:space="preserve"
         style="font-style:normal;font-variant:normal;font-weight:bold;font-stretch:normal;font-size:4.23333px;font-family:Arial;-inkscape-font-specification:'Arial, Bold';font-variant-ligatures:normal;font-variant-caps:normal;font-variant-numeric:normal;font-variant-east-asian:normal;fill:#ffffff;fill-opacity:1;stroke:#000000;stroke-width:0;stroke-linejoin:bevel;stroke-miterlimit:3.3;stroke-dashoffset:370.663"
         x="59.254349"
         y="188.34065"
         id="text7-7"
         inkscape:label="TITLE Effect"><tspan
           sodipodi:role="line"
           id="tspan7-8"
           style="font-style:normal;font-variant:normal;font-weight:bold;font-stretch:normal;font-size:4.93889px;font-family:Arial;-inkscape-font-specification:'Arial, Bold';font-variant-ligatures:normal;font-variant-caps:normal;font-variant-numeric:normal;font-variant-east-asian:normal;stroke-width:0"
           x="59.254349"
           y="188.34065">EFFECT</tspan></text><text
         xml:space="preserve"
         style="font-style:normal;font-variant:normal;font-weight:bold;font-stretch:normal;font-size:4.23333px;font-family:Arial;-inkscape-font-specification:'Arial, Bold';font-variant-ligatures:normal;font-variant-caps:normal;font-variant-numeric:normal;font-variant-east-asian:normal;fill:#ffffff;fill-opacity:1;stroke:#000000;stroke-width:0;stroke-linejoin:bevel;stroke-miterlimit:3.3;stroke-dashoffset:370.663"
         x="59.507565"
         y="167.45377"
         id="text7"
         inkscape:label="TITLE Trigger"><tspan
           sodipodi:role="line"
           id="tspan7"
           style="font-style:normal;font-variant:normal;font-weight:bold;font-stretch:normal;font-size:4.93889px;font-family:Arial;-inkscape-font-specification:'Arial, Bold';font-variant-ligatures:normal;font-variant-caps:normal;font-variant-numeric:normal;font-variant-east-asian:normal;stroke-width:0"
           x="59.507565"
           y="167.45377">TRIGGER</tspan></text></g><g
       id="g5"
       inkscape:label="Card Icons"
       transform="translate(63.984324,10.851143)"><path
         id="path4"
         style="display:inline;fill:#cf4bdb;fill-opacity:1;stroke-width:0.189116;paint-order:stroke fill markers"
         d="m 24.940715,128.22001 14.196576,11.76284 a 1.521629,1.521629 0 0 0 1.941656,0 l 14.196575,-11.76284 a 0.28393908,0.28393908 0 0 0 -0.251108,-0.49382 l -13.694283,3.4805 a 4.9605182,4.9605182 0 0 1 -2.44376,0 l -13.694283,-3.4805 a 0.28393908,0.28393908 0 0 0 -0.251108,0.49382 z m 15.16712,-11.20324 a 2.1451452,2.1451452 0 0 0 -1.086926,0.29581 l -13.964341,8.20708 a 0.51702481,0.51702481 0 0 0 0.135549,0.94709 l 13.693148,3.45289 a 5.0000435,5.0000435 0 0 0 2.444894,0 l 13.693149,-3.45289 a 0.51702481,0.51702481 0 0 0 0.135549,-0.94709 l -13.964341,-8.20708 a 2.1451452,2.1451452 0 0 0 -1.086927,-0.29581 z m 0,3.11569 a 3.8118263,3.8118263 0 0 1 3.811826,3.81182 3.8118263,3.8118263 0 0 1 -3.811826,3.81183 3.8118263,3.8118263 0 0 1 -3.811826,-3.81183 3.8118263,3.8118263 0 0 1 3.811826,-3.81182 z m 15.726904,4.41113 -13.964341,-8.20707 a 2.203393,2.203393 0 0 1 -1.086945,-1.89967 V 90.931596 a 0.27304598,0.27304598 0 0 1 0.52162,-0.112963 L 56.399951,124.035 a 0.39894064,0.39894064 0 0 1 -0.565344,0.50899 z m -31.465344,-0.0113 13.964341,-8.20708 a 2.203393,2.203393 0 0 0 1.086945,-1.89967 V 90.920249 a 0.27304598,0.27304598 0 0 0 -0.52162,-0.112963 L 23.804183,124.02365 a 0.39894064,0.39894064 0 0 0 0.565344,0.50899 z"
         inkscape:label="NHP logo" /><g
         id="g8"
         inkscape:label="Manufacturer Logos"
         transform="translate(-44.714582,70.114581)"
         style="fill:#333333;fill-opacity:1;stroke-width:0.6;stroke-dasharray:none"><path
           id="path5"
           d="m 50.266984,21.851227 c -0.01963,-0.0012 -0.03972,4.69e-4 -0.05953,0.0056 -0.07921,0.02118 -0.134445,0.09316 -0.134445,0.175158 v 3.485895 l -3.018966,1.743041 c -0.07103,0.04107 -0.105785,0.124743 -0.0844,0.203957 0.02119,0.07921 0.09316,0.134439 0.175158,0.134439 h 6.219045 c 0.06471,0 0.124604,-0.03459 0.157143,-0.09072 0.03236,-0.05614 0.03236,-0.125317 0,-0.181476 l -3.109541,-5.385856 c -0.03082,-0.0533 -0.0856,-0.08616 -0.144468,-0.09025 z m -4.427887,-7.647972 c -0.0649,0 -0.124567,0.03458 -0.157108,0.09072 l -3.10954,5.385856 c -0.0411,0.07103 -0.02921,0.160836 0.0288,0.218848 0.05802,0.05799 0.147852,0.06993 0.218883,0.02885 l 3.018966,-1.742855 3.018966,1.743034 c 0.02826,0.01637 0.05953,0.02439 0.09058,0.02439 0.04686,0 0.09335,-0.01822 0.128309,-0.05317 0.05801,-0.05799 0.0699,-0.147853 0.0288,-0.218884 l -3.109541,-5.386035 c -0.03236,-0.05614 -0.09222,-0.09072 -0.157107,-0.09072 z m -4.427887,7.647793 c -0.05887,0.0043 -0.113649,0.03699 -0.144469,0.09025 l -3.109542,5.386035 c -0.03235,0.05614 -0.03235,0.12533 0,0.181297 0.03236,0.05614 0.09225,0.09072 0.157145,0.09072 h 6.219046 c 0.082,0 0.15396,-0.05521 0.175157,-0.134446 0.02119,-0.07922 -0.01337,-0.162861 -0.0844,-0.203957 l -3.01897,-1.743042 v -3.485889 c 0,-0.082 -0.05505,-0.153963 -0.134445,-0.175158 -0.0198,-0.0056 -0.0399,-0.0072 -0.05952,-0.0056 z m 4.428106,-2.549715 c -0.0313,0 -0.06259,0.0081 -0.09058,0.02427 l -3.109541,1.795265 c -0.0054,0.0031 -0.01041,0.0067 -0.01544,0.01025 -0.0013,0.0012 -0.0028,0.0019 -0.0041,0.0031 -0.0082,0.0063 -0.0156,0.0134 -0.02248,0.02081 -0.0019,0.0019 -0.0037,0.0043 -0.0056,0.0063 -0.0069,0.0082 -0.01338,0.01692 -0.01878,0.02625 -0.0054,0.0093 -0.0097,0.01933 -0.01319,0.02958 -9.26e-4,0.0025 -0.0019,0.0049 -0.0026,0.0078 -0.003,0.0099 -0.0054,0.0197 -0.0069,0.03014 -1.85e-4,0.0012 -1.85e-4,0.0031 -3.62e-4,0.0049 -5.58e-4,0.0061 -0.0013,0.01248 -0.0013,0.01878 v 3.59056 c 0,0.06471 0.03461,0.124571 0.09075,0.157112 l 3.109542,1.795296 c 0.0054,0.0031 0.01116,0.0056 0.01692,0.0084 0.0013,5.55e-4 0.0026,0.0012 0.0041,0.0019 0.0097,0.0037 0.01953,0.0069 0.02938,0.009 0.0026,5.56e-4 0.0054,0.0012 0.008,0.0012 0.0106,0.0019 0.0214,0.0031 0.03218,0.0031 0.01078,0 0.02158,-0.0012 0.03218,-0.0031 0.0028,-5.56e-4 0.0054,-0.0012 0.008,-0.0012 0.01004,-0.0025 0.01989,-0.0049 0.02956,-0.009 0.0015,-5.56e-4 0.0026,-0.0012 0.0041,-0.0019 0.0058,-0.0025 0.01134,-0.0049 0.01692,-0.0084 l 3.109504,-1.795296 c 0.05597,-0.03236 0.09039,-0.09221 0.09039,-0.157112 v -3.59056 c 0,-0.0063 -5.63e-4,-0.01266 -0.0013,-0.01878 -1.85e-4,-0.0012 -1.85e-4,-0.0031 -3.62e-4,-0.0049 -0.0013,-0.01025 -0.0037,-0.02026 -0.0069,-0.03014 -7.41e-4,-0.0025 -0.0017,-0.0049 -0.0026,-0.0078 -0.0037,-0.01025 -0.0078,-0.02007 -0.01322,-0.02958 -0.0054,-0.0093 -0.0119,-0.01785 -0.01877,-0.02625 -0.0019,-0.0019 -0.0035,-0.0043 -0.0054,-0.0063 -0.0069,-0.0074 -0.01429,-0.01452 -0.02248,-0.02081 -0.0013,-0.0012 -0.0026,-0.0019 -0.0039,-0.0025 -0.005,-0.0037 -0.01004,-0.0073 -0.01544,-0.01044 l -3.109624,-1.795207 c -0.02807,-0.01618 -0.05941,-0.02427 -0.09072,-0.02427 z"
           inkscape:label="HA Logo"
           style="fill:#333333;fill-opacity:1;stroke:#771675;stroke-width:0.4;stroke-dasharray:none;stroke-opacity:1" /></g><g
         id="g7"
         transform="translate(0.66145833,-0.26458231)"
         inkscape:label="Text Icons"
         style="display:inline"><path
           fill="currentColor"
           d="m 6.8661342,183.95436 q -0.15732,0 -0.26525,0.10976 -0.10792,0.10975 -0.10792,0.26707 v 1.5 q -0.12073,0.0878 -0.18659,0.21951 -0.0659,0.13171 -0.0659,0.27805 0,0.25976 0.18293,0.44268 0.18293,0.18293 0.44268,0.18293 0.25976,0 0.44268,-0.18293 0.18293,-0.18292 0.18293,-0.44268 0,-0.14634 -0.0659,-0.27805 -0.0659,-0.13171 -0.18658,-0.21951 v -1.5 q 0,-0.15732 -0.10793,-0.26707 -0.10793,-0.10976 -0.26524,-0.10976 z m -0.12439,1.12683 h 0.24878 v 0.89634 q 0.11341,0.0366 0.1811,0.13354 0.0677,0.0969 0.0677,0.21768 0,0.15366 -0.10976,0.26341 -0.10976,0.10976 -0.26341,0.10976 -0.15366,0 -0.26342,-0.10976 -0.10976,-0.10975 -0.10976,-0.26341 0,-0.12073 0.0677,-0.21768 0.0677,-0.0969 0.1811,-0.13354 z m 0.75,0.12439 h 0.49756 v 0.24878 h -0.49756 z m 0,-0.62561 h 0.49756 v 0.24878 h -0.49756 z"
           id="path1-36-2"
           style="fill:#ffffff;stroke-width:0.00365855"
           inkscape:label="heat icon" /><path
           fill="currentColor"
           d="m 26.931598,188.33778 q -0.15732,0 -0.26525,0.10976 -0.10792,0.10975 -0.10792,0.26707 v 1.5 q -0.12073,0.0878 -0.18659,0.21951 -0.0659,0.13171 -0.0659,0.27805 0,0.25976 0.18293,0.44268 0.18293,0.18293 0.44268,0.18293 0.25976,0 0.44268,-0.18293 0.18293,-0.18292 0.18293,-0.44268 0,-0.14634 -0.0659,-0.27805 -0.0659,-0.13171 -0.18658,-0.21951 v -1.5 q 0,-0.15732 -0.10793,-0.26707 -0.10793,-0.10976 -0.26524,-0.10976 z m -0.12439,1.12683 h 0.24878 v 0.89634 q 0.11341,0.0366 0.1811,0.13354 0.0677,0.0969 0.0677,0.21768 0,0.15366 -0.10976,0.26341 -0.10976,0.10976 -0.26341,0.10976 -0.15366,0 -0.26342,-0.10976 -0.10976,-0.10975 -0.10976,-0.26341 0,-0.12073 0.0677,-0.21768 0.0677,-0.0969 0.1811,-0.13354 z m 0.75,0.12439 h 0.49756 v 0.24878 h -0.49756 z m 0,-0.62561 h 0.49756 v 0.24878 h -0.49756 z"
           id="path1-36-2-1"
           style="display:inline;fill:#ffffff;stroke-width:0.00365855"
           inkscape:label="heat icon" /></g></g><rect
       style="display:inline;fill:#771675;fill-opacity:1;stroke:#000000;stroke-width:0;stroke-linejoin:bevel;stroke-miterlimit:3.3;stroke-dashoffset:370.663"
       id="rect2"
       width="101.59982"
       height="18.07555"
       x="54.045109"
       y="72.266876"
       inkscape:label="Card Title Backing" /><text
       xml:space="preserve"
       style="font-style:normal;font-variant:normal;font-weight:bold;font-stretch:normal;font-size:10.2306px;line-height:0.8;font-family:Arial;-inkscape-font-specification:'Arial, Bold';font-variant-ligatures:normal;font-variant-position:normal;font-variant-caps:normal;font-variant-numeric:normal;font-variant-alternates:normal;font-variant-east-asian:normal;text-indent:0;text-align:center;text-decoration-line:none;text-decoration-style:solid;text-decoration-color:#000000;letter-spacing:normal;word-spacing:normal;text-transform:none;writing-mode:lr-tb;direction:ltr;text-orientation:mixed;dominant-baseline:auto;baseline-shift:baseline;text-anchor:middle;white-space:pre;inline-size:77.1889;display:inline;vector-effect:none;fill:#ffffff;fill-opacity:1;stroke:#000000;stroke-width:0;stroke-linecap:butt;stroke-linejoin:bevel;stroke-miterlimit:3.3;stroke-dasharray:none;stroke-dashoffset:370.663;stroke-opacity:1;-inkscape-stroke:none;stop-color:#000000"
       x="104.94299"
       y="83.013756"
       id="text7-0-9-5"
       inkscape:label="Card Title"
       transform="translate(-0.46943279,2.0141706)"><tspan
         x="104.94299"
         y="83.013756"
         id="tspan27">DILUVIAN ARK</tspan></text><g
       id="g1"
       inkscape:label="Activation Icons"
       style="display:inline"><g
         id="g4"
         inkscape:label="Activate"
         style="display:inline"><path
           fill="currentColor"
           d="m 148.41047,75.045442 -6.25921,6.259209 0.40123,0.385182 5.85798,5.874027 6.25921,-6.259209 z m 0,1.556778 4.70243,4.702431 -4.70243,4.702431 -4.70243,-4.702431 z m -1.09135,2.198747 q -0.72221,0.320986 -1.18764,0.995055 -0.46543,0.674068 -0.46543,1.508629 0,1.123449 0.81049,1.933935 0.81049,0.810488 1.93393,0.810488 1.12345,0 1.93394,-0.810488 0.81049,-0.810486 0.81049,-1.933935 0,-0.834561 -0.46543,-1.508629 -0.46543,-0.674069 -1.18765,-0.995055 v 1.283941 q 0.25679,0.22469 0.40123,0.537651 0.14445,0.312959 0.14445,0.682092 0,0.690118 -0.47346,1.163572 -0.47345,0.473453 -1.16357,0.473453 -0.69011,0 -1.16357,-0.473453 -0.47345,-0.473454 -0.47345,-1.163572 0,-0.369133 0.14444,-0.682092 0.14445,-0.312961 0.40123,-0.537651 z m 0.54568,-0.786412 v 3.290096 h 1.09135 v -3.290096 z"
           id="path1-3-9"
           style="display:inline;fill:#ffffff;stroke-width:0.0160494"
           inkscape:label="Activate Right" /><path
           fill="currentColor"
           d="m 61.304229,75.046003 -6.259208,6.259209 0.401231,0.385182 5.857977,5.874027 6.25921,-6.259209 z m 0,1.556778 4.702432,4.702431 -4.702432,4.702431 -4.70243,-4.702431 z m -1.091348,2.198747 q -0.722216,0.320986 -1.187645,0.995055 -0.465428,0.674068 -0.465428,1.508629 0,1.123449 0.810487,1.933935 0.810488,0.810488 1.933934,0.810488 1.123448,0 1.933936,-0.810488 0.810488,-0.810486 0.810488,-1.933935 0,-0.834561 -0.465429,-1.508629 -0.465429,-0.674069 -1.187645,-0.995055 v 1.283941 q 0.256789,0.22469 0.401232,0.537651 0.144442,0.312959 0.144442,0.682092 0,0.690118 -0.473452,1.163572 -0.473454,0.473453 -1.163572,0.473453 -0.690116,0 -1.16357,-0.473453 -0.473452,-0.473454 -0.473452,-1.163572 0,-0.369133 0.144443,-0.682092 0.144443,-0.312961 0.401231,-0.537651 z m 0.545674,-0.786412 v 3.290096 h 1.09135 v -3.290096 z"
           id="path1-3"
           style="display:inline;fill:#ffffff;stroke-width:0.0160494"
           inkscape:label="Activate Left" /></g><g
         id="g3"
         inkscape:label="Deactivate"
         style="display:none"><path
           fill="currentColor"
           d="m 148.41002,75.045003 -6.259,6.259 0.38517,0.385169 5.87383,5.873829 6.259,-6.258998 z m -0.54566,2.969013 h 1.09131 v 3.289987 h -1.09131 z m -0.54565,0.786387 v 1.283898 q -0.25678,0.224682 -0.40122,0.537632 -0.14444,0.312949 -0.14444,0.68207 0,0.690095 0.47344,1.163533 0.47344,0.473435 1.16353,0.473435 0.69009,0 1.16353,-0.473435 0.47344,-0.473438 0.47344,-1.163533 0,-0.369121 -0.14444,-0.68207 -0.14444,-0.31295 -0.40122,-0.537632 v -1.283898 q 0.72219,0.320975 1.1876,0.995021 0.46542,0.674046 0.46542,1.508579 0,1.123411 -0.81046,1.933868 -0.81046,0.81046 -1.93387,0.81046 -1.12341,0 -1.93387,-0.81046 -0.81046,-0.810457 -0.81046,-1.933868 0,-0.834533 0.46541,-1.508579 0.46541,-0.674046 1.18761,-0.995021 z"
           id="path1-5-4"
           style="display:inline;fill:#1e1e1e;fill-opacity:1;stroke-width:0.0160488"
           inkscape:label="deactivate Right" /><path
           fill="currentColor"
           d="m 61.304021,75.045651 -6.259,6.259 0.385169,0.385169 5.873831,5.873831 6.259,-6.259 z m -0.545657,2.969013 h 1.091314 v 3.289987 h -1.091314 z m -0.545656,0.786387 v 1.283898 q -0.256779,0.224682 -0.401217,0.537632 -0.144439,0.312949 -0.144439,0.68207 0,0.690095 0.473436,1.163533 0.473438,0.473436 1.163533,0.473436 0.690095,0 1.163533,-0.473436 0.473436,-0.473438 0.473436,-1.163533 0,-0.369121 -0.144437,-0.68207 -0.14444,-0.31295 -0.401219,-0.537632 v -1.283898 q 0.722193,0.320975 1.187606,0.995021 0.465413,0.674046 0.465413,1.508579 0,1.123411 -0.810461,1.933871 -0.81046,0.810461 -1.933871,0.810461 -1.123411,0 -1.933871,-0.810461 -0.810459,-0.81046 -0.810459,-1.933871 0,-0.834533 0.465411,-1.508579 0.465413,-0.674046 1.187606,-0.995021 z"
           id="path1-5"
           style="display:inline;fill:#1e1e1e;fill-opacity:1;stroke-width:0.0160488"
           inkscape:label="deactivate left" /></g></g></g></svg>
