<?xml version="1.0" encoding="UTF-8" standalone="no"?>
<!-- Created with Inkscape (http://www.inkscape.org/) -->

<svg
   width="101.6mm"
   height="152.40001mm"
   viewBox="0 0 101.6 152.40001"
   version="1.1"
   id="svg1"
   xml:space="preserve"
   inkscape:version="1.3.1 (91b66b0783, 2023-11-16)"
   sodipodi:docname="FlashLockBack.svg"
   inkscape:export-filename="HA\BlinkfieldInterventionBack.svg"
   inkscape:export-xdpi="96"
   inkscape:export-ydpi="96"
   xmlns:inkscape="http://www.inkscape.org/namespaces/inkscape"
   xmlns:sodipodi="http://sodipodi.sourceforge.net/DTD/sodipodi-0.dtd"
   xmlns="http://www.w3.org/2000/svg"
   xmlns:svg="http://www.w3.org/2000/svg"><sodipodi:namedview
     id="namedview1"
     pagecolor="#ffffff"
     bordercolor="#000000"
     borderopacity="0.25"
     inkscape:showpageshadow="2"
     inkscape:pageopacity="0.0"
     inkscape:pagecheckerboard="true"
     inkscape:deskcolor="#d1d1d1"
     inkscape:document-units="mm"
     inkscape:zoom="1"
     inkscape:cx="109.5"
     inkscape:cy="370.5"
     inkscape:window-width="1920"
     inkscape:window-height="1009"
     inkscape:window-x="1912"
     inkscape:window-y="-8"
     inkscape:window-maximized="1"
     inkscape:current-layer="layer1"
     inkscape:clip-to-page="true" /><defs
     id="defs1"><rect
       x="21"
       y="490"
       width="344.37869"
       height="347.94321"
       id="rect10" /><rect
       x="35.355339"
       y="130.10765"
       width="361.7666"
       height="517.56348"
       id="rect13-8" /><rect
       x="21"
       y="490"
       width="344.52515"
       height="65.737793"
       id="rect10-0" /></defs><g
     inkscape:label="Layer 1"
     inkscape:groupmode="layer"
     id="layer1"
     transform="translate(-54.045021,-72.300003)"><path
       id="rect1"
       style="fill:#333333;fill-opacity:1;stroke:none;stroke-width:0.5;stroke-linecap:butt;stroke-linejoin:bevel;stroke-miterlimit:3.3;stroke-dasharray:none;stroke-dashoffset:370.663;stroke-opacity:1"
       d="M 54.045539,72.300003 V 224.6969 H 155.64709 V 72.300003 Z m 2.669604,21.440954 h 83.808317 l 12.70569,12.706203 V 158.045 l -0.25322,0.25321 H 69.174331 L 56.475881,145.60028 V 93.974018 Z"
       sodipodi:nodetypes="cccccccccccccc"
       inkscape:label="Card Background"
       inkscape:export-filename="Acrobatics1Back.png"
       inkscape:export-xdpi="96"
       inkscape:export-ydpi="96" /><g
       id="g2"
       inkscape:label="Card Reverse"
       style="display:inline;fill:#333333;fill-opacity:1"><rect
         style="display:inline;fill:#333333;fill-opacity:1;stroke:#000000;stroke-width:0;stroke-linejoin:bevel;stroke-miterlimit:3.3;stroke-dashoffset:370.663"
         id="rect12"
         width="98.189354"
         height="130.81992"
         x="55.636654"
         y="91.664192"
         inkscape:label="Card Reverse" /><path
         fill="currentColor"
         d="m 76.077238,150.40152 q -0.633703,0 -1.068457,0.44214 -0.434715,0.44208 -0.434715,1.07578 v 6.04217 q -0.486314,0.35367 -0.751605,0.88421 -0.265453,0.53055 -0.265453,1.12002 0,1.04634 0.736862,1.78316 0.736864,0.73687 1.783166,0.73687 1.046344,0 1.783166,-0.73687 0.736863,-0.73682 0.736863,-1.78316 0,-0.58947 -0.265454,-1.12002 -0.265452,-0.53054 -0.751565,-0.88421 v -6.04217 q 0,-0.6337 -0.434754,-1.07578 -0.434754,-0.44214 -1.068416,-0.44214 z m -0.501058,4.539 h 1.002114 v 3.61061 q 0.456829,0.14743 0.729493,0.53791 0.272703,0.39033 0.272703,0.87684 0,0.61896 -0.442127,1.06104 -0.442125,0.44214 -1.061045,0.44214 -0.618959,0 -1.061086,-0.44214 -0.442125,-0.44208 -0.442125,-1.06104 0,-0.48631 0.272703,-0.87684 0.272704,-0.39033 0.729491,-0.53791 z m 3.021086,0.5011 h 2.004228 v 1.00212 h -2.004228 z m 0,-2.52003 h 2.004228 v 1.00212 h -2.004228 z"
         id="path1-36-2-5"
         style="display:inline;fill:#ffffff;stroke-width:0.0147371"
         inkscape:label="heat icon" /><text
         xml:space="preserve"
         transform="matrix(0.26458333,0,0,0.26458333,47.445941,97.522107)"
         id="text12-7"
         style="font-style:normal;font-variant:normal;font-weight:bold;font-stretch:normal;font-size:48px;font-family:Arial;-inkscape-font-specification:'Arial, Bold';font-variant-ligatures:normal;font-variant-caps:normal;font-variant-numeric:normal;font-variant-east-asian:normal;text-align:center;white-space:pre;shape-inside:url(#rect13-8);shape-padding:1.41421;display:inline;fill:#ffffff;fill-opacity:1;stroke:#000000;stroke-width:0;stroke-linejoin:bevel;stroke-miterlimit:3.3;stroke-dashoffset:370.663"
         inkscape:label="Uses Text"
         x="163.86708"
         y="0"><tspan
           x="94.890625"
           y="174.7577"
           id="tspan1">1 / ROUND
</tspan><tspan
           x="105.56641"
           y="234.7577"
           id="tspan2">  2 (SELF)</tspan></text></g><rect
       style="display:inline;fill:#771675;fill-opacity:1;stroke:#000000;stroke-width:0;stroke-linejoin:bevel;stroke-miterlimit:3.3;stroke-dashoffset:370.663"
       id="rect2"
       width="101.59982"
       height="18.07555"
       x="54.045109"
       y="72.266876"
       inkscape:label="Card Title Backing" /><text
       xml:space="preserve"
       style="font-style:normal;font-variant:normal;font-weight:bold;font-stretch:normal;font-size:11.2889px;line-height:0.8;font-family:Arial;-inkscape-font-specification:'Arial, Bold';font-variant-ligatures:normal;font-variant-position:normal;font-variant-caps:normal;font-variant-numeric:normal;font-variant-alternates:normal;font-variant-east-asian:normal;text-indent:0;text-align:center;text-decoration-line:none;text-decoration-style:solid;text-decoration-color:#000000;letter-spacing:normal;word-spacing:normal;text-transform:none;writing-mode:lr-tb;direction:ltr;text-orientation:mixed;dominant-baseline:auto;baseline-shift:baseline;text-anchor:middle;white-space:pre;inline-size:77.1889;display:inline;vector-effect:none;fill:#ffffff;fill-opacity:1;stroke:#000000;stroke-width:0;stroke-linecap:butt;stroke-linejoin:bevel;stroke-miterlimit:3.3;stroke-dasharray:none;stroke-dashoffset:370.663;stroke-opacity:1;-inkscape-stroke:none;stop-color:#000000"
       x="104.94299"
       y="83.013756"
       id="text7-0-9-5"
       inkscape:label="Card Title"
       transform="translate(-0.50250458,2.3285515)"><tspan
         x="104.94299"
         y="83.013756"
         id="tspan3">FLASH LOCK</tspan></text><g
       id="g1"
       inkscape:label="Activation Icons"
       style="display:inline"><g
         id="g3"
         inkscape:label="Deactivate"
         style="display:inline"><path
           fill="currentColor"
           d="m 148.41002,75.045003 -6.259,6.259 0.38517,0.385169 5.87383,5.873829 6.259,-6.258998 z m -0.54566,2.969013 h 1.09131 v 3.289987 h -1.09131 z m -0.54565,0.786387 v 1.283898 q -0.25678,0.224682 -0.40122,0.537632 -0.14444,0.312949 -0.14444,0.68207 0,0.690095 0.47344,1.163533 0.47344,0.473435 1.16353,0.473435 0.69009,0 1.16353,-0.473435 0.47344,-0.473438 0.47344,-1.163533 0,-0.369121 -0.14444,-0.68207 -0.14444,-0.31295 -0.40122,-0.537632 v -1.283898 q 0.72219,0.320975 1.1876,0.995021 0.46542,0.674046 0.46542,1.508579 0,1.123411 -0.81046,1.933868 -0.81046,0.81046 -1.93387,0.81046 -1.12341,0 -1.93387,-0.81046 -0.81046,-0.810457 -0.81046,-1.933868 0,-0.834533 0.46541,-1.508579 0.46541,-0.674046 1.18761,-0.995021 z"
           id="path1-5-4"
           style="display:inline;fill:#1e1e1e;fill-opacity:1;stroke-width:0.0160488"
           inkscape:label="deactivate Right" /><path
           fill="currentColor"
           d="m 61.304021,75.045651 -6.259,6.259 0.385169,0.385169 5.873831,5.873831 6.259,-6.259 z m -0.545657,2.969013 h 1.091314 v 3.289987 h -1.091314 z m -0.545656,0.786387 v 1.283898 q -0.256779,0.224682 -0.401217,0.537632 -0.144439,0.312949 -0.144439,0.68207 0,0.690095 0.473436,1.163533 0.473438,0.473436 1.163533,0.473436 0.690095,0 1.163533,-0.473436 0.473436,-0.473438 0.473436,-1.163533 0,-0.369121 -0.144437,-0.68207 -0.14444,-0.31295 -0.401219,-0.537632 v -1.283898 q 0.722193,0.320975 1.187606,0.995021 0.465413,0.674046 0.465413,1.508579 0,1.123411 -0.810461,1.933871 -0.81046,0.810461 -1.933871,0.810461 -1.123411,0 -1.933871,-0.810461 -0.810459,-0.81046 -0.810459,-1.933871 0,-0.834533 0.465411,-1.508579 0.465413,-0.674046 1.187606,-0.995021 z"
           id="path1-5"
           style="display:inline;fill:#1e1e1e;fill-opacity:1;stroke-width:0.0160488"
           inkscape:label="deactivate left" /></g></g></g></svg>
