<?xml version="1.0" encoding="UTF-8" standalone="no"?>
<!-- Created with Inkscape (http://www.inkscape.org/) -->

<svg
   width="101.6mm"
   height="152.40001mm"
   viewBox="0 0 101.6 152.40001"
   version="1.1"
   id="svg1"
   xml:space="preserve"
   inkscape:version="1.3.1 (91b66b0783, 2023-11-16)"
   sodipodi:docname="InterdictionPoint.svg"
   inkscape:export-filename="HA\InterdictionPointBack.svg"
   inkscape:export-xdpi="96"
   inkscape:export-ydpi="96"
   xmlns:inkscape="http://www.inkscape.org/namespaces/inkscape"
   xmlns:sodipodi="http://sodipodi.sourceforge.net/DTD/sodipodi-0.dtd"
   xmlns="http://www.w3.org/2000/svg"
   xmlns:svg="http://www.w3.org/2000/svg"><sodipodi:namedview
     id="namedview1"
     pagecolor="#ffffff"
     bordercolor="#000000"
     borderopacity="0.25"
     inkscape:showpageshadow="2"
     inkscape:pageopacity="0.0"
     inkscape:pagecheckerboard="true"
     inkscape:deskcolor="#d1d1d1"
     inkscape:document-units="mm"
     inkscape:zoom="1.4142136"
     inkscape:cx="150.96729"
     inkscape:cy="290.26733"
     inkscape:window-width="1920"
     inkscape:window-height="1009"
     inkscape:window-x="3832"
     inkscape:window-y="-8"
     inkscape:window-maximized="1"
     inkscape:current-layer="g5"
     inkscape:clip-to-page="true" /><defs
     id="defs1"><rect
       x="21"
       y="490"
       width="344.37869"
       height="347.94321"
       id="rect10" /><rect
       x="35.355339"
       y="130.10765"
       width="361.7666"
       height="517.56348"
       id="rect13-8" /><rect
       x="21"
       y="490"
       width="344.52515"
       height="65.737793"
       id="rect10-0" /></defs><g
     inkscape:label="Layer 1"
     inkscape:groupmode="layer"
     id="layer1"
     transform="translate(-54.045021,-72.300003)"><path
       id="rect3-8"
       style="fill:#1e1e1e;fill-opacity:1;stroke:#771675;stroke-width:0.6;stroke-linecap:round;stroke-linejoin:bevel;stroke-miterlimit:3.3;stroke-dasharray:none;stroke-dashoffset:370.663;stroke-opacity:1"
       d="m 56.704283,93.750003 -0.239262,0.23306 v 51.626317 l 12.69845,12.69792 h 83.801609 l 0.25322,-0.25321 V 106.4562 L 140.51262,93.750003 Z"
       inkscape:label="Window Background"
       transform="translate(-9.7916666e-7)" /><path
       id="rect1"
       style="fill:#333333;fill-opacity:1;stroke:none;stroke-width:0.5;stroke-linecap:butt;stroke-linejoin:bevel;stroke-miterlimit:3.3;stroke-dasharray:none;stroke-dashoffset:370.663;stroke-opacity:1"
       d="M 54.045539,72.300003 V 224.6969 H 155.64709 V 72.300003 Z m 2.669604,21.440954 h 83.808317 l 12.70569,12.706203 V 158.045 l -0.25322,0.25321 H 69.174331 L 56.475881,145.60028 V 93.974018 Z"
       sodipodi:nodetypes="cccccccccccccc"
       inkscape:label="Card Background"
       inkscape:export-filename="Acrobatics1Back.png"
       inkscape:export-xdpi="96"
       inkscape:export-ydpi="96" /><text
       xml:space="preserve"
       id="text10"
       style="font-style:normal;font-variant:normal;font-weight:normal;font-stretch:normal;font-size:13.3333px;font-family:Arial;-inkscape-font-specification:'Arial, Normal';font-variant-ligatures:normal;font-variant-caps:normal;font-variant-numeric:normal;font-variant-east-asian:normal;white-space:pre;shape-inside:url(#rect10);display:inline;fill:#ffffff;fill-opacity:1;stroke:#000000;stroke-width:0;stroke-linejoin:bevel;stroke-miterlimit:3.3;stroke-dashoffset:370.663"
       inkscape:label="BODY Effect"
       transform="matrix(0.26458333,0,0,0.26458333,54.045021,69.22587)"><tspan
         x="21"
         y="502.01003"
         id="tspan1">Make a contested ranged attack roll: if you win the </tspan><tspan
         x="21"
         y="518.67665"
         id="tspan2">contested roll, the attack automatically misses. The </tspan><tspan
         x="21"
         y="535.34328"
         id="tspan4"><tspan
   style="font-weight:bold"
   id="tspan3">STASIS BOLT</tspan> loses its charge.</tspan></text><text
       xml:space="preserve"
       id="text10-0"
       style="font-style:normal;font-variant:normal;font-weight:normal;font-stretch:normal;font-size:13.3333px;font-family:Arial;-inkscape-font-specification:'Arial, Normal';font-variant-ligatures:normal;font-variant-caps:normal;font-variant-numeric:normal;font-variant-east-asian:normal;white-space:pre;shape-inside:url(#rect10-0);display:inline;fill:#ffffff;fill-opacity:1;stroke:#000000;stroke-width:0;stroke-linejoin:bevel;stroke-miterlimit:3.3;stroke-dashoffset:370.663"
       inkscape:label="BODY Trigger"
       transform="matrix(0.26458333,0,0,0.26458333,53.927888,42.14584)"><tspan
         x="21"
         y="502.01003"
         id="tspan6">You or an allied character within    <tspan
   style="font-weight:bold"
   id="tspan5">5</tspan> are targeted by a </tspan><tspan
         x="21"
         y="518.67665"
         id="tspan8">ranged attack.</tspan></text><g
       id="g6"
       inkscape:label="Sub Titles"
       transform="translate(0,3.1750001)"><rect
         style="fill:#b035ad;fill-opacity:1;stroke:#000000;stroke-width:0;stroke-linejoin:bevel;stroke-miterlimit:3.3;stroke-dashoffset:370.663"
         id="rect11-6"
         width="92.336441"
         height="5.8416877"
         x="58.551205"
         y="188.27498"
         inkscape:label="Effect Title Backing" /><rect
         style="fill:#b035ad;fill-opacity:1;stroke:#000000;stroke-width:0;stroke-linejoin:bevel;stroke-miterlimit:3.3;stroke-dashoffset:370.663"
         id="rect11"
         width="92.336441"
         height="5.8416877"
         x="58.551205"
         y="161.10034"
         inkscape:label="Trigger Title Backing" /><text
         xml:space="preserve"
         style="font-style:normal;font-variant:normal;font-weight:bold;font-stretch:normal;font-size:4.23333px;font-family:Arial;-inkscape-font-specification:'Arial, Bold';font-variant-ligatures:normal;font-variant-caps:normal;font-variant-numeric:normal;font-variant-east-asian:normal;fill:#ffffff;fill-opacity:1;stroke:#000000;stroke-width:0;stroke-linejoin:bevel;stroke-miterlimit:3.3;stroke-dashoffset:370.663"
         x="59.254349"
         y="193.10309"
         id="text7-7"
         inkscape:label="TITLE Effect"><tspan
           sodipodi:role="line"
           id="tspan7-8"
           style="font-style:normal;font-variant:normal;font-weight:bold;font-stretch:normal;font-size:4.93889px;font-family:Arial;-inkscape-font-specification:'Arial, Bold';font-variant-ligatures:normal;font-variant-caps:normal;font-variant-numeric:normal;font-variant-east-asian:normal;stroke-width:0"
           x="59.254349"
           y="193.10309">EFFECT</tspan></text><text
         xml:space="preserve"
         style="font-style:normal;font-variant:normal;font-weight:bold;font-stretch:normal;font-size:4.23333px;font-family:Arial;-inkscape-font-specification:'Arial, Bold';font-variant-ligatures:normal;font-variant-caps:normal;font-variant-numeric:normal;font-variant-east-asian:normal;fill:#ffffff;fill-opacity:1;stroke:#000000;stroke-width:0;stroke-linejoin:bevel;stroke-miterlimit:3.3;stroke-dashoffset:370.663"
         x="59.507565"
         y="165.86629"
         id="text7"
         inkscape:label="TITLE Trigger"><tspan
           sodipodi:role="line"
           id="tspan7"
           style="font-style:normal;font-variant:normal;font-weight:bold;font-stretch:normal;font-size:4.93889px;font-family:Arial;-inkscape-font-specification:'Arial, Bold';font-variant-ligatures:normal;font-variant-caps:normal;font-variant-numeric:normal;font-variant-east-asian:normal;stroke-width:0"
           x="59.507565"
           y="165.86629">TRIGGER</tspan></text></g><g
       id="g5"
       inkscape:label="Card Icons"
       transform="translate(63.984324,10.851143)"><path
         fill="currentColor"
         d="m 45.945741,90.401624 -4.561584,4.561583 -3.813782,-3.813782 -3.589444,3.589442 3.813783,3.81379 -5.309383,5.309383 -3.888563,-3.81379 -3.589443,3.58945 3.813782,3.88857 -5.309383,5.30938 -3.813783,-3.81379 -3.589444,3.58944 3.813784,3.81379 -4.561584,4.56158 v 2.54252 l 17.872434,17.87244 h 2.542522 l 4.561584,-4.56158 3.813782,3.81378 3.589444,-3.58944 -3.813783,-3.81379 5.384164,-5.30939 3.813782,3.81379 3.589444,-3.58944 -3.813783,-3.88856 5.309383,-5.30939 3.813783,3.81379 3.589446,-3.58944 -3.813785,-3.81379 4.561582,-4.56158 v -2.54253 L 48.488263,90.401624 Z m 0,12.712616 7.702345,7.70235 -17.872433,17.87242 -7.702346,-7.70234 z"
         id="path1-56"
         style="display:inline;fill:#cf4bdb;fill-opacity:1;stroke-width:0.0747802"
         inkscape:label="System Logo" /><g
         id="g8"
         inkscape:label="Manufacturer Logos"
         transform="translate(-44.185415,70.114581)"
         style="fill:#333333;fill-opacity:1;stroke-width:0.6;stroke-dasharray:none"><path
           id="path5"
           d="m 49.737817,21.851227 c -0.01963,-0.0012 -0.03972,4.69e-4 -0.05953,0.0056 -0.07921,0.02118 -0.134445,0.09316 -0.134445,0.175158 v 3.485895 l -3.018966,1.743041 c -0.07103,0.04107 -0.105785,0.124743 -0.0844,0.203957 0.02119,0.07921 0.09316,0.134439 0.175158,0.134439 h 6.219045 c 0.06471,0 0.124604,-0.03459 0.157143,-0.09072 0.03236,-0.05614 0.03236,-0.125317 0,-0.181476 l -3.109541,-5.385856 c -0.03082,-0.0533 -0.0856,-0.08616 -0.144468,-0.09025 z M 45.30993,14.203255 c -0.0649,0 -0.124567,0.03458 -0.157108,0.09072 l -3.10954,5.385856 c -0.0411,0.07103 -0.02921,0.160836 0.0288,0.218848 0.05802,0.05799 0.147852,0.06993 0.218883,0.02885 l 3.018966,-1.742855 3.018966,1.743034 c 0.02826,0.01637 0.05953,0.02439 0.09058,0.02439 0.04686,0 0.09335,-0.01822 0.128309,-0.05317 0.05801,-0.05799 0.0699,-0.147853 0.0288,-0.218884 l -3.109541,-5.386035 c -0.03236,-0.05614 -0.09222,-0.09072 -0.157107,-0.09072 z m -4.427887,7.647793 c -0.05887,0.0043 -0.113649,0.03699 -0.144469,0.09025 l -3.109542,5.386035 c -0.03235,0.05614 -0.03235,0.12533 0,0.181297 0.03236,0.05614 0.09225,0.09072 0.157145,0.09072 h 6.219046 c 0.082,0 0.15396,-0.05521 0.175157,-0.134446 0.02119,-0.07922 -0.01337,-0.162861 -0.0844,-0.203957 l -3.01897,-1.743042 v -3.485889 c 0,-0.082 -0.05505,-0.153963 -0.134445,-0.175158 -0.0198,-0.0056 -0.0399,-0.0072 -0.05952,-0.0056 z m 4.428106,-2.549715 c -0.0313,0 -0.06259,0.0081 -0.09058,0.02427 l -3.109541,1.795265 c -0.0054,0.0031 -0.01041,0.0067 -0.01544,0.01025 -0.0013,0.0012 -0.0028,0.0019 -0.0041,0.0031 -0.0082,0.0063 -0.0156,0.0134 -0.02248,0.02081 -0.0019,0.0019 -0.0037,0.0043 -0.0056,0.0063 -0.0069,0.0082 -0.01338,0.01692 -0.01878,0.02625 -0.0054,0.0093 -0.0097,0.01933 -0.01319,0.02958 -9.26e-4,0.0025 -0.0019,0.0049 -0.0026,0.0078 -0.003,0.0099 -0.0054,0.0197 -0.0069,0.03014 -1.85e-4,0.0012 -1.85e-4,0.0031 -3.62e-4,0.0049 -5.58e-4,0.0061 -0.0013,0.01248 -0.0013,0.01878 v 3.59056 c 0,0.06471 0.03461,0.124571 0.09075,0.157112 l 3.109542,1.795296 c 0.0054,0.0031 0.01116,0.0056 0.01692,0.0084 0.0013,5.55e-4 0.0026,0.0012 0.0041,0.0019 0.0097,0.0037 0.01953,0.0069 0.02938,0.009 0.0026,5.56e-4 0.0054,0.0012 0.008,0.0012 0.0106,0.0019 0.0214,0.0031 0.03218,0.0031 0.01078,0 0.02158,-0.0012 0.03218,-0.0031 0.0028,-5.56e-4 0.0054,-0.0012 0.008,-0.0012 0.01004,-0.0025 0.01989,-0.0049 0.02956,-0.009 0.0015,-5.56e-4 0.0026,-0.0012 0.0041,-0.0019 0.0058,-0.0025 0.01134,-0.0049 0.01692,-0.0084 l 3.109504,-1.795296 c 0.05597,-0.03236 0.09039,-0.09221 0.09039,-0.157112 v -3.59056 c 0,-0.0063 -5.63e-4,-0.01266 -0.0013,-0.01878 -1.85e-4,-0.0012 -1.85e-4,-0.0031 -3.62e-4,-0.0049 -0.0013,-0.01025 -0.0037,-0.02026 -0.0069,-0.03014 -7.41e-4,-0.0025 -0.0017,-0.0049 -0.0026,-0.0078 -0.0037,-0.01025 -0.0078,-0.02007 -0.01322,-0.02958 -0.0054,-0.0093 -0.0119,-0.01785 -0.01877,-0.02625 -0.0019,-0.0019 -0.0035,-0.0043 -0.0054,-0.0063 -0.0069,-0.0074 -0.01429,-0.01452 -0.02248,-0.02081 -0.0013,-0.0012 -0.0026,-0.0019 -0.0039,-0.0025 -0.005,-0.0037 -0.01004,-0.0073 -0.01544,-0.01044 l -3.109624,-1.795207 c -0.02807,-0.01618 -0.05941,-0.02427 -0.09072,-0.02427 z"
           inkscape:label="HA Logo"
           style="fill:#333333;fill-opacity:1;stroke:#771675;stroke-width:0.4;stroke-dasharray:none;stroke-opacity:1" /></g><g
         id="g7"
         transform="translate(0.66145833,-0.26458231)"
         inkscape:label="Text Icons"
         style="display:inline"><path
           fill="currentColor"
           d="m 45.898166,164.63598 -0.515038,-0.51504 0.184211,-0.18045 0.511278,0.51128 z m -0.255639,-0.43985 2.30827,-2.30827 0.180452,0.18045 -2.308271,2.30827 z m 1.135338,-1.35338 0.398496,0.39849 -0.180451,0.18045 -0.398496,-0.39849 z m 1.428572,-0.51128 -0.511279,-0.51504 0.180452,-0.18045 0.511278,0.51504 z"
           id="path1-35"
           style="fill:#ffffff;stroke-width:0.00375941"
           inkscape:label="range icon" /></g></g><rect
       style="display:inline;fill:#771675;fill-opacity:1;stroke:#000000;stroke-width:0;stroke-linejoin:bevel;stroke-miterlimit:3.3;stroke-dashoffset:370.663"
       id="rect2"
       width="101.59982"
       height="18.07555"
       x="54.045109"
       y="72.266876"
       inkscape:label="Card Title Backing" /><text
       xml:space="preserve"
       style="font-style:normal;font-variant:normal;font-weight:bold;font-stretch:normal;font-size:9.87778px;line-height:0.8;font-family:Arial;-inkscape-font-specification:'Arial, Bold';font-variant-ligatures:normal;font-variant-position:normal;font-variant-caps:normal;font-variant-numeric:normal;font-variant-alternates:normal;font-variant-east-asian:normal;text-indent:0;text-align:center;text-decoration-line:none;text-decoration-style:solid;text-decoration-color:#000000;letter-spacing:normal;word-spacing:normal;text-transform:none;writing-mode:lr-tb;direction:ltr;text-orientation:mixed;dominant-baseline:auto;baseline-shift:baseline;text-anchor:middle;white-space:pre;inline-size:77.1889;display:inline;vector-effect:none;fill:#ffffff;fill-opacity:1;stroke:#000000;stroke-width:0;stroke-linecap:butt;stroke-linejoin:bevel;stroke-miterlimit:3.3;stroke-dasharray:none;stroke-dashoffset:370.663;stroke-opacity:1;-inkscape-stroke:none;stop-color:#000000"
       x="104.94299"
       y="83.013756"
       id="text7-0-9-5"
       inkscape:label="Card Title"
       transform="translate(-0.43498099,-2.1248557)"><tspan
         x="104.94299"
         y="83.013756"
         id="tspan9">INTERDICTION<tspan
   y="83.013756"
   id="tspan10"> </tspan></tspan><tspan
         x="104.94299"
         y="90.915974"
         id="tspan11">POINT</tspan></text><g
       id="g1"
       inkscape:label="Activation Icons"
       style="display:inline"><g
         id="g4"
         inkscape:label="Activate"
         style="display:inline"><path
           fill="currentColor"
           d="m 148.41047,75.045442 -6.25921,6.259209 0.40123,0.385182 5.85798,5.874027 6.25921,-6.259209 z m 0,1.556778 4.70243,4.702431 -4.70243,4.702431 -4.70243,-4.702431 z m -1.09135,2.198747 q -0.72221,0.320986 -1.18764,0.995055 -0.46543,0.674068 -0.46543,1.508629 0,1.123449 0.81049,1.933935 0.81049,0.810488 1.93393,0.810488 1.12345,0 1.93394,-0.810488 0.81049,-0.810486 0.81049,-1.933935 0,-0.834561 -0.46543,-1.508629 -0.46543,-0.674069 -1.18765,-0.995055 v 1.283941 q 0.25679,0.22469 0.40123,0.537651 0.14445,0.312959 0.14445,0.682092 0,0.690118 -0.47346,1.163572 -0.47345,0.473453 -1.16357,0.473453 -0.69011,0 -1.16357,-0.473453 -0.47345,-0.473454 -0.47345,-1.163572 0,-0.369133 0.14444,-0.682092 0.14445,-0.312961 0.40123,-0.537651 z m 0.54568,-0.786412 v 3.290096 h 1.09135 v -3.290096 z"
           id="path1-3-9"
           style="display:inline;fill:#ffffff;stroke-width:0.0160494"
           inkscape:label="Activate Right" /><path
           fill="currentColor"
           d="m 61.304229,75.046003 -6.259208,6.259209 0.401231,0.385182 5.857977,5.874027 6.25921,-6.259209 z m 0,1.556778 4.702432,4.702431 -4.702432,4.702431 -4.70243,-4.702431 z m -1.091348,2.198747 q -0.722216,0.320986 -1.187645,0.995055 -0.465428,0.674068 -0.465428,1.508629 0,1.123449 0.810487,1.933935 0.810488,0.810488 1.933934,0.810488 1.123448,0 1.933936,-0.810488 0.810488,-0.810486 0.810488,-1.933935 0,-0.834561 -0.465429,-1.508629 -0.465429,-0.674069 -1.187645,-0.995055 v 1.283941 q 0.256789,0.22469 0.401232,0.537651 0.144442,0.312959 0.144442,0.682092 0,0.690118 -0.473452,1.163572 -0.473454,0.473453 -1.163572,0.473453 -0.690116,0 -1.16357,-0.473453 -0.473452,-0.473454 -0.473452,-1.163572 0,-0.369133 0.144443,-0.682092 0.144443,-0.312961 0.401231,-0.537651 z m 0.545674,-0.786412 v 3.290096 h 1.09135 v -3.290096 z"
           id="path1-3"
           style="display:inline;fill:#ffffff;stroke-width:0.0160494"
           inkscape:label="Activate Left" /></g></g></g></svg>
