<?xml version="1.0" encoding="UTF-8" standalone="no"?>
<!-- Created with Inkscape (http://www.inkscape.org/) -->

<svg
   width="101.6mm"
   height="152.40001mm"
   viewBox="0 0 101.6 152.40001"
   version="1.1"
   id="svg1"
   xml:space="preserve"
   inkscape:version="1.3.1 (91b66b0783, 2023-11-16)"
   sodipodi:docname="WarpShield.svg"
   inkscape:export-filename="HA\WarpShieldBack.svg"
   inkscape:export-xdpi="96"
   inkscape:export-ydpi="96"
   xmlns:inkscape="http://www.inkscape.org/namespaces/inkscape"
   xmlns:sodipodi="http://sodipodi.sourceforge.net/DTD/sodipodi-0.dtd"
   xmlns="http://www.w3.org/2000/svg"
   xmlns:svg="http://www.w3.org/2000/svg"><sodipodi:namedview
     id="namedview1"
     pagecolor="#ffffff"
     bordercolor="#000000"
     borderopacity="0.25"
     inkscape:showpageshadow="2"
     inkscape:pageopacity="0.0"
     inkscape:pagecheckerboard="true"
     inkscape:deskcolor="#d1d1d1"
     inkscape:document-units="mm"
     inkscape:zoom="1"
     inkscape:cx="111.5"
     inkscape:cy="337.5"
     inkscape:window-width="1920"
     inkscape:window-height="1009"
     inkscape:window-x="1912"
     inkscape:window-y="-8"
     inkscape:window-maximized="1"
     inkscape:current-layer="g5"
     inkscape:clip-to-page="true" /><defs
     id="defs1"><rect
       x="21"
       y="490"
       width="344.37869"
       height="347.94321"
       id="rect10" /><rect
       x="35.355339"
       y="130.10765"
       width="361.7666"
       height="517.56348"
       id="rect13-8" /><rect
       x="21"
       y="490"
       width="344.52515"
       height="65.737793"
       id="rect10-0" /></defs><g
     inkscape:label="Layer 1"
     inkscape:groupmode="layer"
     id="layer1"
     transform="translate(-54.045021,-72.300003)"><path
       id="rect3-8"
       style="fill:#1e1e1e;fill-opacity:1;stroke:#771675;stroke-width:0.6;stroke-linecap:round;stroke-linejoin:bevel;stroke-miterlimit:3.3;stroke-dasharray:none;stroke-dashoffset:370.663;stroke-opacity:1"
       d="m 56.704283,93.750003 -0.239262,0.23306 v 51.626307 l 12.69845,12.69792 h 83.801609 l 0.25322,-0.25321 V 106.4562 L 140.51262,93.750003 Z"
       inkscape:label="Window Background"
       transform="translate(-9.7916666e-7)" /><path
       id="rect1"
       style="fill:#333333;fill-opacity:1;stroke:none;stroke-width:0.5;stroke-linecap:butt;stroke-linejoin:bevel;stroke-miterlimit:3.3;stroke-dasharray:none;stroke-dashoffset:370.663;stroke-opacity:1"
       d="M 54.045539,72.300003 V 224.6969 H 155.64709 V 72.300003 Z m 2.669604,21.440954 h 83.808317 l 12.70569,12.706203 V 158.045 l -0.25322,0.25321 H 69.174331 L 56.475881,145.60028 V 93.974018 Z"
       sodipodi:nodetypes="cccccccccccccc"
       inkscape:label="Card Background"
       inkscape:export-filename="Acrobatics1Back.png"
       inkscape:export-xdpi="96"
       inkscape:export-ydpi="96" /><text
       xml:space="preserve"
       id="text10"
       style="font-style:normal;font-variant:normal;font-weight:normal;font-stretch:normal;font-size:13.3333px;font-family:Arial;-inkscape-font-specification:'Arial, Normal';font-variant-ligatures:normal;font-variant-caps:normal;font-variant-numeric:normal;font-variant-east-asian:normal;white-space:pre;shape-inside:url(#rect10);display:inline;fill:#ffffff;fill-opacity:1;stroke:#000000;stroke-width:0;stroke-linejoin:bevel;stroke-miterlimit:3.3;stroke-dashoffset:370.663"
       inkscape:label="BODY Effect"
       transform="matrix(0.26458333,0,0,0.26458333,54.045021,69.22587)"><tspan
         x="21"
         y="502.01003"
         id="tspan1">You may give +1    to the attack.</tspan></text><text
       xml:space="preserve"
       id="text10-0"
       style="font-style:normal;font-variant:normal;font-weight:normal;font-stretch:normal;font-size:13.3333px;font-family:Arial;-inkscape-font-specification:'Arial, Normal';font-variant-ligatures:normal;font-variant-caps:normal;font-variant-numeric:normal;font-variant-east-asian:normal;white-space:pre;shape-inside:url(#rect10-0);display:inline;fill:#ffffff;fill-opacity:1;stroke:#000000;stroke-width:0;stroke-linejoin:bevel;stroke-miterlimit:3.3;stroke-dashoffset:370.663"
       inkscape:label="BODY Trigger"
       transform="matrix(0.26458333,0,0,0.26458333,53.927888,42.14584)"><tspan
         x="21"
         y="502.01003"
         id="tspan2">An attack is declared against you or an allied character </tspan><tspan
         x="21"
         y="518.67665"
         id="tspan4">within <tspan
   style="font-weight:bold"
   id="tspan3">SENSORS</tspan>.</tspan></text><g
       id="g6"
       inkscape:label="Sub Titles"
       transform="translate(0,3.1750001)"><rect
         style="fill:#b035ad;fill-opacity:1;stroke:#000000;stroke-width:0;stroke-linejoin:bevel;stroke-miterlimit:3.3;stroke-dashoffset:370.663"
         id="rect11-6"
         width="92.336441"
         height="5.8416877"
         x="58.551205"
         y="188.27498"
         inkscape:label="Effect Title Backing" /><rect
         style="fill:#b035ad;fill-opacity:1;stroke:#000000;stroke-width:0;stroke-linejoin:bevel;stroke-miterlimit:3.3;stroke-dashoffset:370.663"
         id="rect11"
         width="92.336441"
         height="5.8416877"
         x="58.551205"
         y="161.10034"
         inkscape:label="Trigger Title Backing" /><text
         xml:space="preserve"
         style="font-style:normal;font-variant:normal;font-weight:bold;font-stretch:normal;font-size:4.23333px;font-family:Arial;-inkscape-font-specification:'Arial, Bold';font-variant-ligatures:normal;font-variant-caps:normal;font-variant-numeric:normal;font-variant-east-asian:normal;fill:#ffffff;fill-opacity:1;stroke:#000000;stroke-width:0;stroke-linejoin:bevel;stroke-miterlimit:3.3;stroke-dashoffset:370.663"
         x="59.254349"
         y="193.10309"
         id="text7-7"
         inkscape:label="TITLE Effect"><tspan
           sodipodi:role="line"
           id="tspan7-8"
           style="font-style:normal;font-variant:normal;font-weight:bold;font-stretch:normal;font-size:4.93889px;font-family:Arial;-inkscape-font-specification:'Arial, Bold';font-variant-ligatures:normal;font-variant-caps:normal;font-variant-numeric:normal;font-variant-east-asian:normal;stroke-width:0"
           x="59.254349"
           y="193.10309">EFFECT</tspan></text><text
         xml:space="preserve"
         style="font-style:normal;font-variant:normal;font-weight:bold;font-stretch:normal;font-size:4.23333px;font-family:Arial;-inkscape-font-specification:'Arial, Bold';font-variant-ligatures:normal;font-variant-caps:normal;font-variant-numeric:normal;font-variant-east-asian:normal;fill:#ffffff;fill-opacity:1;stroke:#000000;stroke-width:0;stroke-linejoin:bevel;stroke-miterlimit:3.3;stroke-dashoffset:370.663"
         x="59.507565"
         y="165.86629"
         id="text7"
         inkscape:label="TITLE Trigger"><tspan
           sodipodi:role="line"
           id="tspan7"
           style="font-style:normal;font-variant:normal;font-weight:bold;font-stretch:normal;font-size:4.93889px;font-family:Arial;-inkscape-font-specification:'Arial, Bold';font-variant-ligatures:normal;font-variant-caps:normal;font-variant-numeric:normal;font-variant-east-asian:normal;stroke-width:0"
           x="59.507565"
           y="165.86629">TRIGGER</tspan></text></g><g
       id="g5"
       inkscape:label="Card Icons"
       transform="translate(63.984324,10.851143)"><path
         fill="currentColor"
         d="m 40.860703,90.450231 -8.807234,5.07536 2.537683,4.403607 6.269551,-3.582597 6.26955,3.582597 2.53767,-4.403607 z m -13.210845,7.613027 -8.881867,5.075352 v 10.22534 h 5.149989 v -7.23984 l 6.26955,-3.65724 z m 26.421684,0 -2.537679,4.403612 6.269549,3.65724 v 7.23984 h 5.149991 V 103.13861 Z M 18.76799,118.4393 v 10.22535 l 8.881868,5.07535 2.537672,-4.40362 -6.26955,-3.65724 v -7.23984 z m 39.035422,0 v 7.23984 l -6.26955,3.65724 2.53768,4.40362 8.88186,-5.07535 V 118.4393 Z m -23.21226,13.43476 -2.537683,4.40361 8.807233,5.07535 8.80722,-5.07535 -2.53767,-4.40361 -6.26955,3.65724 z m 6.26955,-26.19778 8.80722,5.15 v 10.1507 l -8.80722,5.14999 -8.807233,-5.14999 v -10.1507 z"
         id="path1-7"
         style="display:inline;fill:#cf4bdb;fill-opacity:1;stroke-width:0.0746377"
         inkscape:label="Trait logo" /><g
         id="g8"
         inkscape:label="Manufacturer Logos"
         transform="translate(-44.185415,70.114581)"
         style="fill:#333333;fill-opacity:1;stroke-width:0.6;stroke-dasharray:none"><path
           id="path5"
           d="m 49.737817,21.851227 c -0.01963,-0.0012 -0.03972,4.69e-4 -0.05953,0.0056 -0.07921,0.02118 -0.134445,0.09316 -0.134445,0.175158 v 3.485895 l -3.018966,1.743041 c -0.07103,0.04107 -0.105785,0.124743 -0.0844,0.203957 0.02119,0.07921 0.09316,0.134439 0.175158,0.134439 h 6.219045 c 0.06471,0 0.124604,-0.03459 0.157143,-0.09072 0.03236,-0.05614 0.03236,-0.125317 0,-0.181476 l -3.109541,-5.385856 c -0.03082,-0.0533 -0.0856,-0.08616 -0.144468,-0.09025 z M 45.30993,14.203255 c -0.0649,0 -0.124567,0.03458 -0.157108,0.09072 l -3.10954,5.385856 c -0.0411,0.07103 -0.02921,0.160836 0.0288,0.218848 0.05802,0.05799 0.147852,0.06993 0.218883,0.02885 l 3.018966,-1.742855 3.018966,1.743034 c 0.02826,0.01637 0.05953,0.02439 0.09058,0.02439 0.04686,0 0.09335,-0.01822 0.128309,-0.05317 0.05801,-0.05799 0.0699,-0.147853 0.0288,-0.218884 l -3.109541,-5.386035 c -0.03236,-0.05614 -0.09222,-0.09072 -0.157107,-0.09072 z m -4.427887,7.647793 c -0.05887,0.0043 -0.113649,0.03699 -0.144469,0.09025 l -3.109542,5.386035 c -0.03235,0.05614 -0.03235,0.12533 0,0.181297 0.03236,0.05614 0.09225,0.09072 0.157145,0.09072 h 6.219046 c 0.082,0 0.15396,-0.05521 0.175157,-0.134446 0.02119,-0.07922 -0.01337,-0.162861 -0.0844,-0.203957 l -3.01897,-1.743042 v -3.485889 c 0,-0.082 -0.05505,-0.153963 -0.134445,-0.175158 -0.0198,-0.0056 -0.0399,-0.0072 -0.05952,-0.0056 z m 4.428106,-2.549715 c -0.0313,0 -0.06259,0.0081 -0.09058,0.02427 l -3.109541,1.795265 c -0.0054,0.0031 -0.01041,0.0067 -0.01544,0.01025 -0.0013,0.0012 -0.0028,0.0019 -0.0041,0.0031 -0.0082,0.0063 -0.0156,0.0134 -0.02248,0.02081 -0.0019,0.0019 -0.0037,0.0043 -0.0056,0.0063 -0.0069,0.0082 -0.01338,0.01692 -0.01878,0.02625 -0.0054,0.0093 -0.0097,0.01933 -0.01319,0.02958 -9.26e-4,0.0025 -0.0019,0.0049 -0.0026,0.0078 -0.003,0.0099 -0.0054,0.0197 -0.0069,0.03014 -1.85e-4,0.0012 -1.85e-4,0.0031 -3.62e-4,0.0049 -5.58e-4,0.0061 -0.0013,0.01248 -0.0013,0.01878 v 3.59056 c 0,0.06471 0.03461,0.124571 0.09075,0.157112 l 3.109542,1.795296 c 0.0054,0.0031 0.01116,0.0056 0.01692,0.0084 0.0013,5.55e-4 0.0026,0.0012 0.0041,0.0019 0.0097,0.0037 0.01953,0.0069 0.02938,0.009 0.0026,5.56e-4 0.0054,0.0012 0.008,0.0012 0.0106,0.0019 0.0214,0.0031 0.03218,0.0031 0.01078,0 0.02158,-0.0012 0.03218,-0.0031 0.0028,-5.56e-4 0.0054,-0.0012 0.008,-0.0012 0.01004,-0.0025 0.01989,-0.0049 0.02956,-0.009 0.0015,-5.56e-4 0.0026,-0.0012 0.0041,-0.0019 0.0058,-0.0025 0.01134,-0.0049 0.01692,-0.0084 l 3.109504,-1.795296 c 0.05597,-0.03236 0.09039,-0.09221 0.09039,-0.157112 v -3.59056 c 0,-0.0063 -5.63e-4,-0.01266 -0.0013,-0.01878 -1.85e-4,-0.0012 -1.85e-4,-0.0031 -3.62e-4,-0.0049 -0.0013,-0.01025 -0.0037,-0.02026 -0.0069,-0.03014 -7.41e-4,-0.0025 -0.0017,-0.0049 -0.0026,-0.0078 -0.0037,-0.01025 -0.0078,-0.02007 -0.01322,-0.02958 -0.0054,-0.0093 -0.0119,-0.01785 -0.01877,-0.02625 -0.0019,-0.0019 -0.0035,-0.0043 -0.0054,-0.0063 -0.0069,-0.0074 -0.01429,-0.01452 -0.02248,-0.02081 -0.0013,-0.0012 -0.0026,-0.0019 -0.0039,-0.0025 -0.005,-0.0037 -0.01004,-0.0073 -0.01544,-0.01044 l -3.109624,-1.795207 c -0.02807,-0.01618 -0.05941,-0.02427 -0.09072,-0.02427 z"
           inkscape:label="HA Logo"
           style="fill:#333333;fill-opacity:1;stroke:#771675;stroke-width:0.4;stroke-dasharray:none;stroke-opacity:1" /></g><g
         id="g7"
         transform="translate(0.66145833,-0.26458231)"
         inkscape:label="Text Icons"
         style="display:inline"><path
           fill="currentColor"
           d="m 22.621293,188.69776 -1.30205,0.7478 v 1.5044 l 1.30205,0.7478 1.30205,-0.7478 v -1.5044 z m 0,0.34751 0.99854,0.57624 v 1.1525 l -0.99854,0.58064 -0.99853,-0.58064 v -1.1525 z m 0.7522,1.30205 h -1.5044 v -0.29912 h 1.5044 z"
           id="path1-08-6"
           style="fill:#ffffff;stroke-width:0.00439884"
           inkscape:label="Difficulty icon" /></g></g><rect
       style="display:inline;fill:#771675;fill-opacity:1;stroke:#000000;stroke-width:0;stroke-linejoin:bevel;stroke-miterlimit:3.3;stroke-dashoffset:370.663"
       id="rect2"
       width="101.59982"
       height="18.07555"
       x="54.045109"
       y="72.266876"
       inkscape:label="Card Title Backing" /><text
       xml:space="preserve"
       style="font-style:normal;font-variant:normal;font-weight:bold;font-stretch:normal;font-size:10.5833px;line-height:0.8;font-family:Arial;-inkscape-font-specification:'Arial, Bold';font-variant-ligatures:normal;font-variant-position:normal;font-variant-caps:normal;font-variant-numeric:normal;font-variant-alternates:normal;font-variant-east-asian:normal;text-indent:0;text-align:center;text-decoration-line:none;text-decoration-style:solid;text-decoration-color:#000000;letter-spacing:normal;word-spacing:normal;text-transform:none;writing-mode:lr-tb;direction:ltr;text-orientation:mixed;dominant-baseline:auto;baseline-shift:baseline;text-anchor:middle;white-space:pre;inline-size:77.1889;display:inline;vector-effect:none;fill:#ffffff;fill-opacity:1;stroke:#000000;stroke-width:0;stroke-linecap:butt;stroke-linejoin:bevel;stroke-miterlimit:3.3;stroke-dasharray:none;stroke-dashoffset:370.663;stroke-opacity:1;-inkscape-stroke:none;stop-color:#000000"
       x="104.94299"
       y="83.013756"
       id="text7-0-9-5"
       inkscape:label="Card Title"
       transform="translate(0.14810076,2.0761821)"><tspan
         x="104.94299"
         y="83.013756"
         id="tspan5">WARP SHIELD</tspan></text><g
       id="g1"
       inkscape:label="Activation Icons"
       style="display:inline"><g
         id="g4"
         inkscape:label="Activate"
         style="display:inline"><path
           fill="currentColor"
           d="m 148.41047,75.045442 -6.25921,6.259209 0.40123,0.385182 5.85798,5.874027 6.25921,-6.259209 z m 0,1.556778 4.70243,4.702431 -4.70243,4.702431 -4.70243,-4.702431 z m -1.09135,2.198747 q -0.72221,0.320986 -1.18764,0.995055 -0.46543,0.674068 -0.46543,1.508629 0,1.123449 0.81049,1.933935 0.81049,0.810488 1.93393,0.810488 1.12345,0 1.93394,-0.810488 0.81049,-0.810486 0.81049,-1.933935 0,-0.834561 -0.46543,-1.508629 -0.46543,-0.674069 -1.18765,-0.995055 v 1.283941 q 0.25679,0.22469 0.40123,0.537651 0.14445,0.312959 0.14445,0.682092 0,0.690118 -0.47346,1.163572 -0.47345,0.473453 -1.16357,0.473453 -0.69011,0 -1.16357,-0.473453 -0.47345,-0.473454 -0.47345,-1.163572 0,-0.369133 0.14444,-0.682092 0.14445,-0.312961 0.40123,-0.537651 z m 0.54568,-0.786412 v 3.290096 h 1.09135 v -3.290096 z"
           id="path1-3-9"
           style="display:inline;fill:#ffffff;stroke-width:0.0160494"
           inkscape:label="Activate Right" /><path
           fill="currentColor"
           d="m 61.304229,75.046003 -6.259208,6.259209 0.401231,0.385182 5.857977,5.874027 6.25921,-6.259209 z m 0,1.556778 4.702432,4.702431 -4.702432,4.702431 -4.70243,-4.702431 z m -1.091348,2.198747 q -0.722216,0.320986 -1.187645,0.995055 -0.465428,0.674068 -0.465428,1.508629 0,1.123449 0.810487,1.933935 0.810488,0.810488 1.933934,0.810488 1.123448,0 1.933936,-0.810488 0.810488,-0.810486 0.810488,-1.933935 0,-0.834561 -0.465429,-1.508629 -0.465429,-0.674069 -1.187645,-0.995055 v 1.283941 q 0.256789,0.22469 0.401232,0.537651 0.144442,0.312959 0.144442,0.682092 0,0.690118 -0.473452,1.163572 -0.473454,0.473453 -1.163572,0.473453 -0.690116,0 -1.16357,-0.473453 -0.473452,-0.473454 -0.473452,-1.163572 0,-0.369133 0.144443,-0.682092 0.144443,-0.312961 0.401231,-0.537651 z m 0.545674,-0.786412 v 3.290096 h 1.09135 v -3.290096 z"
           id="path1-3"
           style="display:inline;fill:#ffffff;stroke-width:0.0160494"
           inkscape:label="Activate Left" /></g><g
         id="g3"
         inkscape:label="Deactivate"
         style="display:none"><path
           fill="currentColor"
           d="m 148.41002,75.045003 -6.259,6.259 0.38517,0.385169 5.87383,5.873829 6.259,-6.258998 z m -0.54566,2.969013 h 1.09131 v 3.289987 h -1.09131 z m -0.54565,0.786387 v 1.283898 q -0.25678,0.224682 -0.40122,0.537632 -0.14444,0.312949 -0.14444,0.68207 0,0.690095 0.47344,1.163533 0.47344,0.473435 1.16353,0.473435 0.69009,0 1.16353,-0.473435 0.47344,-0.473438 0.47344,-1.163533 0,-0.369121 -0.14444,-0.68207 -0.14444,-0.31295 -0.40122,-0.537632 v -1.283898 q 0.72219,0.320975 1.1876,0.995021 0.46542,0.674046 0.46542,1.508579 0,1.123411 -0.81046,1.933868 -0.81046,0.81046 -1.93387,0.81046 -1.12341,0 -1.93387,-0.81046 -0.81046,-0.810457 -0.81046,-1.933868 0,-0.834533 0.46541,-1.508579 0.46541,-0.674046 1.18761,-0.995021 z"
           id="path1-5-4"
           style="display:inline;fill:#1e1e1e;fill-opacity:1;stroke-width:0.0160488"
           inkscape:label="deactivate Right" /><path
           fill="currentColor"
           d="m 61.304021,75.045651 -6.259,6.259 0.385169,0.385169 5.873831,5.873831 6.259,-6.259 z m -0.545657,2.969013 h 1.091314 v 3.289987 h -1.091314 z m -0.545656,0.786387 v 1.283898 q -0.256779,0.224682 -0.401217,0.537632 -0.144439,0.312949 -0.144439,0.68207 0,0.690095 0.473436,1.163533 0.473438,0.473436 1.163533,0.473436 0.690095,0 1.163533,-0.473436 0.473436,-0.473438 0.473436,-1.163533 0,-0.369121 -0.144437,-0.68207 -0.14444,-0.31295 -0.401219,-0.537632 v -1.283898 q 0.722193,0.320975 1.187606,0.995021 0.465413,0.674046 0.465413,1.508579 0,1.123411 -0.810461,1.933871 -0.81046,0.810461 -1.933871,0.810461 -1.123411,0 -1.933871,-0.810461 -0.810459,-0.81046 -0.810459,-1.933871 0,-0.834533 0.465411,-1.508579 0.465413,-0.674046 1.187606,-0.995021 z"
           id="path1-5"
           style="display:inline;fill:#1e1e1e;fill-opacity:1;stroke-width:0.0160488"
           inkscape:label="deactivate left" /></g></g></g></svg>
