<?xml version="1.0" encoding="UTF-8" standalone="no"?>
<!-- Created with Inkscape (http://www.inkscape.org/) -->

<svg
   width="101.6mm"
   height="152.40001mm"
   viewBox="0 0 101.6 152.40001"
   version="1.1"
   id="svg1"
   xml:space="preserve"
   inkscape:version="1.3.1 (91b66b0783, 2023-11-16)"
   sodipodi:docname="GlitchTime.svg"
   inkscape:export-filename="Horus\Immortal.svg"
   inkscape:export-xdpi="96"
   inkscape:export-ydpi="96"
   xmlns:inkscape="http://www.inkscape.org/namespaces/inkscape"
   xmlns:sodipodi="http://sodipodi.sourceforge.net/DTD/sodipodi-0.dtd"
   xmlns="http://www.w3.org/2000/svg"
   xmlns:svg="http://www.w3.org/2000/svg"><sodipodi:namedview
     id="namedview1"
     pagecolor="#ffffff"
     bordercolor="#000000"
     borderopacity="0.25"
     inkscape:showpageshadow="2"
     inkscape:pageopacity="0.0"
     inkscape:pagecheckerboard="true"
     inkscape:deskcolor="#d1d1d1"
     inkscape:document-units="mm"
     inkscape:zoom="1"
     inkscape:cx="124"
     inkscape:cy="325.5"
     inkscape:window-width="1920"
     inkscape:window-height="1009"
     inkscape:window-x="1912"
     inkscape:window-y="-8"
     inkscape:window-maximized="1"
     inkscape:current-layer="layer1"
     inkscape:clip-to-page="true"
     showgrid="false" /><defs
     id="defs1"><rect
       x="21"
       y="490"
       width="344.87869"
       height="162.94322"
       id="rect10" /><rect
       x="35.355339"
       y="130.10765"
       width="361.7666"
       height="517.56348"
       id="rect13-8" /><rect
       x="21"
       y="490"
       width="341.52515"
       height="101.2378"
       id="rect10-0" /><rect
       x="21"
       y="490"
       width="344.87869"
       height="162.94322"
       id="rect10-3" /><rect
       x="21"
       y="490"
       width="344.87869"
       height="162.94322"
       id="rect10-31" /><rect
       x="21"
       y="490"
       width="344.87869"
       height="162.94322"
       id="rect10-18" /></defs><g
     inkscape:label="Layer 1"
     inkscape:groupmode="layer"
     id="layer1"
     transform="translate(-54.045021,-72.300003)"><path
       id="rect3-8"
       style="fill:#000000;fill-opacity:1;stroke:#126127;stroke-width:0.6;stroke-linecap:round;stroke-linejoin:bevel;stroke-miterlimit:3.3;stroke-dasharray:none;stroke-dashoffset:370.663;stroke-opacity:1"
       d="m 56.704283,93.750003 -0.239262,0.23306 v 51.626307 l 12.69845,12.69792 h 83.801609 l 0.25322,-0.25321 V 106.4562 L 140.51262,93.750003 Z"
       inkscape:label="Window Background" /><text
       xml:space="preserve"
       style="font-weight:bold;font-size:14.1111px;line-height:1.5;font-family:Arial;-inkscape-font-specification:'Arial, Bold';text-align:center;text-anchor:middle;display:inline;fill:#000000;fill-opacity:0;stroke:#126127;stroke-width:0.5;stroke-linecap:round;stroke-linejoin:bevel;stroke-miterlimit:3.3;stroke-dasharray:none;stroke-dashoffset:370.663;stroke-opacity:1"
       x="143.95215"
       y="157.2262"
       id="text1"
       inkscape:label="Expansion ID"><tspan
         sodipodi:role="line"
         style="font-style:normal;font-variant:normal;font-weight:bold;font-stretch:normal;font-size:8.46667px;font-family:Arial;-inkscape-font-specification:'Arial, Bold';font-variant-ligatures:normal;font-variant-caps:normal;font-variant-numeric:normal;font-variant-east-asian:normal;stroke:#126127;stroke-width:0.5;stroke-dasharray:none;stroke-opacity:1"
         x="143.95215"
         y="157.2262"
         id="tspan2">TLR</tspan></text><path
       id="rect1"
       style="fill:#1e1e1e;fill-opacity:1;stroke:none;stroke-width:0.5;stroke-linecap:butt;stroke-linejoin:bevel;stroke-miterlimit:3.3;stroke-dasharray:none;stroke-dashoffset:370.663;stroke-opacity:1"
       d="M 54.045539,72.300003 V 224.6969 H 155.64709 V 72.300003 Z m 2.669604,21.440954 h 83.808317 l 12.70569,12.706203 V 158.045 l -0.25322,0.25321 H 69.174331 L 56.475881,145.60028 V 93.974018 Z"
       sodipodi:nodetypes="cccccccccccccc"
       inkscape:label="Card Background"
       inkscape:export-filename="Acrobatics1Back.png"
       inkscape:export-xdpi="96"
       inkscape:export-ydpi="96" /><text
       xml:space="preserve"
       id="text10-6"
       style="font-style:normal;font-variant:normal;font-weight:normal;font-stretch:normal;font-size:13.3333px;font-family:Arial;-inkscape-font-specification:'Arial, Normal';font-variant-ligatures:normal;font-variant-caps:normal;font-variant-numeric:normal;font-variant-east-asian:normal;white-space:pre;shape-inside:url(#rect10-18);display:inline;fill:#ffffff;fill-opacity:1;stroke:#000000;stroke-width:0;stroke-linejoin:bevel;stroke-miterlimit:3.3;stroke-dashoffset:370.663"
       inkscape:label="BODY Effect"
       transform="matrix(0.26458333,0,0,0.26458333,56.283644,84.787536)"><tspan
         x="21"
         y="502.01003"
         id="tspan1">The initial attack, effect, or action resolves with you as its </tspan><tspan
         x="21"
         y="518.67665"
         id="tspan14">target. (See p. 55 for more)</tspan></text><text
       xml:space="preserve"
       id="text10-5"
       style="font-style:normal;font-variant:normal;font-weight:normal;font-stretch:normal;font-size:13.3333px;font-family:Arial;-inkscape-font-specification:'Arial, Normal';font-variant-ligatures:normal;font-variant-caps:normal;font-variant-numeric:normal;font-variant-east-asian:normal;white-space:pre;shape-inside:url(#rect10-31);display:inline;fill:#ffffff;fill-opacity:1;stroke:#000000;stroke-width:0;stroke-linejoin:bevel;stroke-miterlimit:3.3;stroke-dashoffset:370.663"
       inkscape:label="BODY Effect"
       transform="matrix(0.26458333,0,0,0.26458333,56.283644,75.659411)"
       dx="0 0 0 0 0 0 0 0 0 0 0 0 0 0 0 0 0 0 0 0 0 0 0 0 0 0 0 0 0 0 0 0 0 0 0 0 0 0 0 0 0 0 0 0 0 0 0 0 0 0 0 0 0 0 0 0 0 0 0 0 0 0 0 0 0 0 0 0 0 0 0 0 0 0 0 0 0 0 0 0 0 0 0 0 0 0 0 0 0 0 0 0 0 0 0 0 0 0 -2"
       dy="0 0 0 0 0 0 0 0 0 0 0 0 0 0 0 0 0 0 0 0 0 0 0 0 0 0 0 0 0 0 0 0 0 0 0 0 0 0 0 0 0 0 0 0 0 0 0 0 0 0 0 0 0 0 0 0 0 0 0 0 0 0 0 0 0 0 0 0 0 0 0 0 0 0 0 0 0 0 0 0 0 0 0 0 0 0 0 0 0 0 0 0 0 0 0 0 0 0 1.5"><tspan
         x="21"
         y="502.01003"
         id="tspan28">You <tspan
   style="font-weight:bold"
   id="tspan18">teleport</tspan> to one of the spaces originally occupied by </tspan><tspan
         x="21"
         y="518.67665"
         id="tspan30">that character, or as close as possible. 
</tspan></text><text
       xml:space="preserve"
       id="text10-02"
       style="font-style:normal;font-variant:normal;font-weight:normal;font-stretch:normal;font-size:13.3333px;font-family:Arial;-inkscape-font-specification:'Arial, Normal';font-variant-ligatures:normal;font-variant-caps:normal;font-variant-numeric:normal;font-variant-east-asian:normal;white-space:pre;shape-inside:url(#rect10-3);display:inline;fill:#ffffff;fill-opacity:1;stroke:#000000;stroke-width:0;stroke-linejoin:bevel;stroke-miterlimit:3.3;stroke-dashoffset:370.663"
       inkscape:label="BODY Effect"
       transform="matrix(0.26458333,0,0,0.26458333,56.062843,62.156255)"
       dx="0 0 0 0 0 0 0 0 0 0 0 0 0 0 0 0 0 0 0 0 0 0 0 0 0 0 0 0 0 0 0 0 0 0 0 0 0 0 0 0 0 0 0 0 0 0 0 0 0 0 0 0 0 0 0 0 0 0 0 0 0 0 0 0 0 0 0 0 0 0 0 0 0 0 0 0 0 0 0 0 0 0 0 0 0 0 0 0 0 0 0 0 0 0 0 0 0 0 0 0 0 0 0 0 0 0 0 0 0 0 0 0 0 0 0 0 0 0 0 0 0 0 0 0 0 0 0 0 0 0 0 0 0 0 0 0 0 0 0 -2"
       dy="0 0 0 0 0 0 0 0 0 0 0 0 0 0 0 0 0 0 0 0 0 0 0 0 0 0 0 0 0 0 0 0 0 0 0 0 0 0 0 0 0 0 0 0 0 0 0 0 0 0 0 0 0 0 0 0 0 0 0 0 0 0 0 0 0 0 0 0 0 0 0 0 0 0 0 0 0 0 0 0 0 0 0 0 0 0 0 0 0 0 0 0 0 0 0 0 0 0 0 0 0 0 0 0 0 0 0 0 0 0 0 0 0 0 0 0 0 0 0 0 0 0 0 0 0 0 0 0 0 0 0 0 0 0 0 0 0 0 0 1.5"><tspan
         x="21"
         y="502.01003"
         id="tspan32">The character taking the action is pushed up to <tspan
   style="font-weight:bold"
   id="tspan31">3 spaces</tspan> </tspan><tspan
         x="21"
         y="518.67665"
         id="tspan34">in a direction of your choice, even if they have <tspan
   style="font-weight:bold"
   id="tspan33">IMMUNITY</tspan> </tspan><tspan
         x="21"
         y="535.34328"
         id="tspan36"><tspan
   style="font-weight:bold"
   id="tspan35">to involuntary movement.</tspan>
</tspan></text><text
       xml:space="preserve"
       id="text10"
       style="font-style:normal;font-variant:normal;font-weight:normal;font-stretch:normal;font-size:13.3333px;font-family:Arial;-inkscape-font-specification:'Arial, Normal';font-variant-ligatures:normal;font-variant-caps:normal;font-variant-numeric:normal;font-variant-east-asian:normal;white-space:pre;shape-inside:url(#rect10);display:inline;fill:#ffffff;fill-opacity:1;stroke:#000000;stroke-width:0;stroke-linejoin:bevel;stroke-miterlimit:3.3;stroke-dashoffset:370.663"
       inkscape:label="BODY Effect"
       transform="matrix(0.26458333,0,0,0.26458333,54.045021,53.35086)"
       dx="0 0 0 0 0 0 0 0 0 0 0 0 0 0 0 0 0 0 0 0 0 0 0 0 0 0 0 0 0 0 0 0 0 0 0 0 0 0 0 0 0 0 0 0 0 0 0 0 0 0 0 0 0 0 0 0 0 0 0 0 0 0 0 0 0 0 0 0 0 0 0 0 0 0 0 0 0 0 0 0 0 0 0 0 0 0 -2"
       dy="0 0 0 0 0 0 0 0 0 0 0 0 0 0 0 0 0 0 0 0 0 0 0 0 0 0 0 0 0 0 0 0 0 0 0 0 0 0 0 0 0 0 0 0 0 0 0 0 0 0 0 0 0 0 0 0 0 0 0 0 0 0 0 0 0 0 0 0 0 0 0 0 0 0 0 0 0 0 0 0 0 0 0 0 0 0 1.5"><tspan
         x="21"
         y="502.01003"
         id="tspan37">You may interrupt the action before it resolves, with the </tspan><tspan
         x="21"
         y="518.67665"
         id="tspan38">following effects.
</tspan><tspan
         x="21"
         y="535.34328"
         id="tspan39">• 
</tspan><tspan
         x="21"
         y="552.00991"
         id="tspan40">
</tspan><tspan
         x="21"
         y="568.67653"
         id="tspan41">
</tspan><tspan
         x="21"
         y="585.34316"
         id="tspan42">•
</tspan><tspan
         x="21"
         y="602.00978"
         id="tspan43">
</tspan><tspan
         x="21"
         y="618.67641"
         id="tspan44">•
</tspan></text><text
       xml:space="preserve"
       id="text10-0"
       style="font-style:normal;font-variant:normal;font-weight:normal;font-stretch:normal;font-size:13.3333px;font-family:Arial;-inkscape-font-specification:Arial;font-variant-ligatures:normal;font-variant-caps:normal;font-variant-numeric:normal;font-variant-east-asian:normal;white-space:pre;shape-inside:url(#rect10-0);display:inline;fill:#ffffff;fill-opacity:1;stroke:#000000;stroke-width:0;stroke-linejoin:bevel;stroke-miterlimit:3.3;stroke-dashoffset:370.663"
       inkscape:label="BODY Trigger"
       transform="matrix(0.26458333,0,0,0.26458333,53.927888,36.325003)"><tspan
         x="21"
         y="502.01003"
         id="tspan45">Any character successfully attacks, effects or takes an </tspan><tspan
         x="21"
         y="518.67665"
         id="tspan47">action against another character within <tspan
   style="font-weight:bold"
   id="tspan46">SENSORS</tspan>.</tspan></text><g
       id="g6"
       inkscape:label="Sub Titles"
       transform="translate(0,6.3500003)"><rect
         style="fill:#054545;fill-opacity:1;stroke:#000000;stroke-width:0;stroke-linejoin:bevel;stroke-miterlimit:3.3;stroke-dashoffset:370.663"
         id="rect11-6"
         width="92.336441"
         height="5.8416877"
         x="58.551205"
         y="170.28355"
         inkscape:label="Effect Title Backing" /><rect
         style="fill:#054545;fill-opacity:1;stroke:#000000;stroke-width:0;stroke-linejoin:bevel;stroke-miterlimit:3.3;stroke-dashoffset:370.663"
         id="rect11"
         width="92.336441"
         height="5.8416877"
         x="58.551205"
         y="153.16295"
         inkscape:label="Trigger Title Backing" /><text
         xml:space="preserve"
         style="font-style:normal;font-variant:normal;font-weight:bold;font-stretch:normal;font-size:4.23333px;font-family:Arial;-inkscape-font-specification:'Arial, Bold';font-variant-ligatures:normal;font-variant-caps:normal;font-variant-numeric:normal;font-variant-east-asian:normal;fill:#ffffff;fill-opacity:1;stroke:#000000;stroke-width:0;stroke-linejoin:bevel;stroke-miterlimit:3.3;stroke-dashoffset:370.663"
         x="59.254349"
         y="175.11166"
         id="text7-7"
         inkscape:label="TITLE Effect"><tspan
           sodipodi:role="line"
           id="tspan7-8"
           style="font-style:normal;font-variant:normal;font-weight:bold;font-stretch:normal;font-size:4.93889px;font-family:Arial;-inkscape-font-specification:'Arial, Bold';font-variant-ligatures:normal;font-variant-caps:normal;font-variant-numeric:normal;font-variant-east-asian:normal;stroke-width:0"
           x="59.254349"
           y="175.11166">EFFECT</tspan></text><text
         xml:space="preserve"
         style="font-style:normal;font-variant:normal;font-weight:bold;font-stretch:normal;font-size:4.23333px;font-family:Arial;-inkscape-font-specification:'Arial, Bold';font-variant-ligatures:normal;font-variant-caps:normal;font-variant-numeric:normal;font-variant-east-asian:normal;fill:#ffffff;fill-opacity:1;stroke:#000000;stroke-width:0;stroke-linejoin:bevel;stroke-miterlimit:3.3;stroke-dashoffset:370.663"
         x="59.507565"
         y="157.92889"
         id="text7"
         inkscape:label="TITLE Trigger"><tspan
           sodipodi:role="line"
           id="tspan7"
           style="font-style:normal;font-variant:normal;font-weight:bold;font-stretch:normal;font-size:4.93889px;font-family:Arial;-inkscape-font-specification:'Arial, Bold';font-variant-ligatures:normal;font-variant-caps:normal;font-variant-numeric:normal;font-variant-east-asian:normal;stroke-width:0"
           x="59.507565"
           y="157.92889">TRIGGER</tspan></text></g><g
       id="g5"
       inkscape:label="Card Icons"
       transform="translate(64.513491,10.851143)"
       style="display:inline;fill:#ffffff;fill-opacity:1"><path
         fill="currentColor"
         d="m 31.523146,115.86767 9.303596,-9.30359 9.303596,9.30359 -9.303596,9.3036 z m 6.994675,-25.46604 v 5.976034 l -6.926765,6.926766 -3.05592,-2.98802 -3.25966,3.25965 2.98802,3.05593 -6.92677,6.92676 h -5.97603 v 4.61784 h 5.97603 l 6.92677,6.99468 -2.98802,2.98801 3.25966,3.25966 3.05592,-2.98802 6.926765,6.92676 v 6.04394 h 4.617843 v -6.04394 l 6.994674,-6.92676 2.988015,2.98802 3.259654,-3.25966 -2.988016,-2.98801 6.926764,-6.99468 h 6.043942 v -4.61784 h -6.043942 l -6.926764,-6.99467 2.988016,-2.98802 -3.259654,-3.25965 -2.988015,2.98802 -6.994674,-6.926766 V 90.40163 Z m 2.308921,10.18642 15.279627,15.27962 -15.279627,15.27963 -15.279626,-15.27963 z"
         id="path1-8"
         style="display:inline;fill:#999900;fill-opacity:1;stroke-width:0.0679096"
         inkscape:label="Core Logo" /><g
         id="g8"
         inkscape:label="Manufacturer Logos"
         transform="translate(-44.714582,70.114581)"
         style="display:inline;fill:#1e1e1e;fill-opacity:1;stroke-width:0.6;stroke-dasharray:none"><path
           id="path6"
           style="display:inline;fill:#1e1e1e;fill-opacity:1;stroke:#126127;stroke-width:31.8544;stroke-dasharray:none;stroke-opacity:1"
           d="m 540.01073,168.85823 c -12.14998,0 -23.17632,4.82772 -31.2763,12.6477 -8.49998,8.17998 -13.79998,19.6463 -13.79998,32.34628 0,24.84996 20.18632,44.99398 45.07628,44.99398 24.87994,0 45.04885,-20.14402 45.04885,-44.99398 0,-12.70998 -5.29257,-24.1663 -13.77255,-32.34628 -8.10998,-7.81998 -19.12632,-12.6477 -31.2763,-12.6477 z m -94.73427,3.84095 c -0.92008,0.0577 -1.87334,0.25102 -2.82584,0.63102 -16.64994,6.63996 -32.7568,15.068 -48.06674,25.26796 l -8.09343,5.34989 c -68.03972,45.30982 -143.02487,79.07194 -221.92455,100.00186 -8.58998,2.27998 -9.10328,14.25453 -0.71332,17.17453 31.75986,11.06994 108.42465,46.11199 164.69441,72.40189 42.32984,19.76992 75.3008,55.13257 91.99074,98.71239 33.43986,87.33966 89.83991,320.4796 111.46983,411.96924 2.18998,9.24996 15.36119,9.22248 17.53119,-0.0274 21.41992,-91.42962 77.26486,-324.20548 110.45472,-411.58514 16.62994,-43.78982 49.67551,-79.33887 92.15535,-99.17879 56.24978,-26.2699 132.71018,-61.23221 164.42006,-72.29215 8.36996,-2.92 7.86664,-14.89455 -0.71332,-17.17453 -78.89968,-20.94 -153.88482,-54.70208 -221.92456,-100.0019 l -8.09343,-5.34989 c -15.30994,-10.19996 -31.41679,-18.628 -48.06673,-25.26796 -7.51998,-3 -14.94054,4.89133 -11.44054,12.18129 6.73996,14.04994 10.13597,29.99221 9.13597,46.83215 -2.82,47.3798 -41.05919,85.9772 -88.47901,89.2472 -55.75978,3.83998 -102.19668,-40.21372 -102.19668,-95.0635 0,-14.61994 3.29086,-28.44384 9.19084,-40.8238 3.07998,-6.47498 -2.06444,-13.4085 -8.50496,-13.00436 z"
           inkscape:label="HORUS Logo"
           transform="matrix(0.01883571,0,0,0.01883571,35.138551,10.730114)" /></g></g><rect
       style="display:inline;fill:#126127;fill-opacity:1;stroke:#000000;stroke-width:0;stroke-linejoin:bevel;stroke-miterlimit:3.3;stroke-dashoffset:370.663"
       id="rect2"
       width="101.59982"
       height="18.07555"
       x="54.107121"
       y="72.266876"
       inkscape:label="Card Title Backing" /><text
       xml:space="preserve"
       style="font-style:normal;font-variant:normal;font-weight:bold;font-stretch:normal;font-size:11.6417px;line-height:0.8;font-family:Arial;-inkscape-font-specification:'Arial, Bold';font-variant-ligatures:normal;font-variant-position:normal;font-variant-caps:normal;font-variant-numeric:normal;font-variant-alternates:normal;font-variant-east-asian:normal;text-indent:0;text-align:center;text-decoration-line:none;text-decoration-style:solid;text-decoration-color:#000000;letter-spacing:normal;word-spacing:normal;text-transform:none;writing-mode:lr-tb;direction:ltr;text-orientation:mixed;dominant-baseline:auto;baseline-shift:baseline;text-anchor:middle;white-space:pre;inline-size:77.1889;display:inline;vector-effect:none;fill:#ffffff;fill-opacity:1;stroke:#000000;stroke-width:0;stroke-linecap:butt;stroke-linejoin:bevel;stroke-miterlimit:3.3;stroke-dasharray:none;stroke-dashoffset:370.663;stroke-opacity:1;-inkscape-stroke:none;stop-color:#000000"
       x="104.94299"
       y="83.013756"
       id="text7-0-9-5"
       inkscape:label="Card Title"
       transform="translate(-0.0239822,2.4575781)"><tspan
         x="104.94299"
         y="83.013756"
         id="tspan48">GLITCH TIME</tspan></text><g
       id="g1"
       inkscape:label="Activation Icons"
       style="display:inline;fill:#ffffff;fill-opacity:1"><g
         id="g4"
         inkscape:label="Activate"
         style="display:inline;fill:#ffffff;fill-opacity:1"><path
           fill="currentColor"
           d="m 148.41047,75.045442 -6.25921,6.259209 0.40123,0.385182 5.85798,5.874027 6.25921,-6.259209 z m 0,1.556778 4.70243,4.702431 -4.70243,4.702431 -4.70243,-4.702431 z m -1.09135,2.198747 q -0.72221,0.320986 -1.18764,0.995055 -0.46543,0.674068 -0.46543,1.508629 0,1.123449 0.81049,1.933935 0.81049,0.810488 1.93393,0.810488 1.12345,0 1.93394,-0.810488 0.81049,-0.810486 0.81049,-1.933935 0,-0.834561 -0.46543,-1.508629 -0.46543,-0.674069 -1.18765,-0.995055 v 1.283941 q 0.25679,0.22469 0.40123,0.537651 0.14445,0.312959 0.14445,0.682092 0,0.690118 -0.47346,1.163572 -0.47345,0.473453 -1.16357,0.473453 -0.69011,0 -1.16357,-0.473453 -0.47345,-0.473454 -0.47345,-1.163572 0,-0.369133 0.14444,-0.682092 0.14445,-0.312961 0.40123,-0.537651 z m 0.54568,-0.786412 v 3.290096 h 1.09135 v -3.290096 z"
           id="path1-3-9"
           style="display:inline;fill:#ffffff;fill-opacity:1;stroke-width:0.0160494"
           inkscape:label="Activate Right" /><path
           fill="currentColor"
           d="m 61.304229,75.046003 -6.259208,6.259209 0.401231,0.385182 5.857977,5.874027 6.25921,-6.259209 z m 0,1.556778 4.702432,4.702431 -4.702432,4.702431 -4.70243,-4.702431 z m -1.091348,2.198747 q -0.722216,0.320986 -1.187645,0.995055 -0.465428,0.674068 -0.465428,1.508629 0,1.123449 0.810487,1.933935 0.810488,0.810488 1.933934,0.810488 1.123448,0 1.933936,-0.810488 0.810488,-0.810486 0.810488,-1.933935 0,-0.834561 -0.465429,-1.508629 -0.465429,-0.674069 -1.187645,-0.995055 v 1.283941 q 0.256789,0.22469 0.401232,0.537651 0.144442,0.312959 0.144442,0.682092 0,0.690118 -0.473452,1.163572 -0.473454,0.473453 -1.163572,0.473453 -0.690116,0 -1.16357,-0.473453 -0.473452,-0.473454 -0.473452,-1.163572 0,-0.369133 0.144443,-0.682092 0.144443,-0.312961 0.401231,-0.537651 z m 0.545674,-0.786412 v 3.290096 h 1.09135 v -3.290096 z"
           id="path1-3"
           style="display:inline;fill:#ffffff;fill-opacity:1;stroke-width:0.0160494"
           inkscape:label="Activate Left" /></g></g></g></svg>
