<?xml version="1.0" encoding="UTF-8" standalone="no"?>
<!-- Created with Inkscape (http://www.inkscape.org/) -->

<svg
   width="101.6mm"
   height="152.40001mm"
   viewBox="0 0 101.6 152.40001"
   version="1.1"
   id="svg1"
   xml:space="preserve"
   inkscape:version="1.3.1 (91b66b0783, 2023-11-16)"
   sodipodi:docname="HunterDrone.svg"
   inkscape:export-filename="Horus\ShredderDrone.svg"
   inkscape:export-xdpi="96"
   inkscape:export-ydpi="96"
   xmlns:inkscape="http://www.inkscape.org/namespaces/inkscape"
   xmlns:sodipodi="http://sodipodi.sourceforge.net/DTD/sodipodi-0.dtd"
   xmlns="http://www.w3.org/2000/svg"
   xmlns:svg="http://www.w3.org/2000/svg"><sodipodi:namedview
     id="namedview1"
     pagecolor="#ffffff"
     bordercolor="#000000"
     borderopacity="0.25"
     inkscape:showpageshadow="2"
     inkscape:pageopacity="0.0"
     inkscape:pagecheckerboard="true"
     inkscape:deskcolor="#d1d1d1"
     inkscape:document-units="mm"
     inkscape:zoom="2"
     inkscape:cx="135.25"
     inkscape:cy="96.25"
     inkscape:window-width="1920"
     inkscape:window-height="1009"
     inkscape:window-x="1912"
     inkscape:window-y="-8"
     inkscape:window-maximized="1"
     inkscape:current-layer="layer1"
     inkscape:clip-to-page="true" /><defs
     id="defs1"><rect
       x="21"
       y="490"
       width="344.37869"
       height="347.94321"
       id="rect10" /><rect
       x="35.355339"
       y="130.10765"
       width="361.7666"
       height="517.56348"
       id="rect13-8" /><rect
       x="21"
       y="490"
       width="344.52515"
       height="65.737793"
       id="rect10-0" /></defs><g
     inkscape:label="Layer 1"
     inkscape:groupmode="layer"
     id="layer1"
     transform="translate(-54.045021,-72.300003)"><path
       id="rect3-8"
       style="fill:#000000;fill-opacity:1;stroke:#126127;stroke-width:0.6;stroke-linecap:round;stroke-linejoin:bevel;stroke-miterlimit:3.3;stroke-dasharray:none;stroke-dashoffset:370.663;stroke-opacity:1"
       d="m 56.704283,93.750003 -0.239262,0.23306 v 51.626307 l 12.69845,12.69792 h 83.801609 l 0.25322,-0.25321 V 106.4562 L 140.51262,93.750003 Z"
       inkscape:label="Window Background"
       transform="translate(-9.7916666e-7)" /><path
       id="rect1"
       style="fill:#1e1e1e;fill-opacity:1;stroke:none;stroke-width:0.5;stroke-linecap:butt;stroke-linejoin:bevel;stroke-miterlimit:3.3;stroke-dasharray:none;stroke-dashoffset:370.663;stroke-opacity:1"
       d="M 54.045539,72.300003 V 224.6969 H 155.64709 V 72.300003 Z m 2.669604,21.440954 h 83.808317 l 12.70569,12.706203 V 158.045 l -0.25322,0.25321 H 69.174331 L 56.475881,145.60028 V 93.974018 Z"
       sodipodi:nodetypes="cccccccccccccc"
       inkscape:label="Card Background"
       inkscape:export-filename="Acrobatics1Back.png"
       inkscape:export-xdpi="96"
       inkscape:export-ydpi="96" /><text
       xml:space="preserve"
       id="text10"
       style="font-style:normal;font-variant:normal;font-weight:normal;font-stretch:normal;font-size:13.3333px;font-family:Arial;-inkscape-font-specification:'Arial, Normal';font-variant-ligatures:normal;font-variant-caps:normal;font-variant-numeric:normal;font-variant-east-asian:normal;white-space:pre;shape-inside:url(#rect10);display:inline;fill:#ffffff;fill-opacity:1;stroke:#000000;stroke-width:0;stroke-linejoin:bevel;stroke-miterlimit:3.3;stroke-dashoffset:370.663"
       inkscape:label="BODY Effect"
       transform="matrix(0.26458333,0,0,0.26458333,54.045021,69.22587)"><tspan
         x="21"
         y="502.01003"
         id="tspan14">You may force the character make a <tspan
   style="font-weight:bold"
   id="tspan2">SYSTEMS</tspan> save. On </tspan><tspan
         x="21"
         y="518.67665"
         id="tspan16">a failure, they receive <tspan
   style="font-weight:bold"
   id="tspan15">LOCK ON.</tspan></tspan></text><text
       xml:space="preserve"
       id="text10-0"
       style="font-style:normal;font-variant:normal;font-weight:normal;font-stretch:normal;font-size:13.3333px;font-family:Arial;-inkscape-font-specification:'Arial, Normal';font-variant-ligatures:normal;font-variant-caps:normal;font-variant-numeric:normal;font-variant-east-asian:normal;white-space:pre;shape-inside:url(#rect10-0);display:inline;fill:#ffffff;fill-opacity:1;stroke:#000000;stroke-width:0;stroke-linejoin:bevel;stroke-miterlimit:3.3;stroke-dashoffset:370.663"
       inkscape:label="BODY Trigger"
       transform="matrix(0.26458333,0,0,0.26458333,53.927888,42.14584)"><tspan
         x="21"
         y="502.01003"
         id="tspan18">A character starts their turn adjacent to the <tspan
   style="font-weight:bold"
   id="tspan17">HUNTER </tspan></tspan><tspan
         x="21"
         y="518.67665"
         id="tspan20"><tspan
   style="font-weight:bold"
   id="tspan19">DRONE</tspan> or moves adjacent to it for the first time in a </tspan><tspan
         x="21"
         y="535.34328"
         id="tspan21">round.</tspan></text><g
       id="g6"
       inkscape:label="Sub Titles"
       transform="translate(0,3.1750001)"><rect
         style="fill:#054545;fill-opacity:1;stroke:#000000;stroke-width:0;stroke-linejoin:bevel;stroke-miterlimit:3.3;stroke-dashoffset:370.663"
         id="rect11-6"
         width="92.336441"
         height="5.8416877"
         x="58.551205"
         y="188.27498"
         inkscape:label="Effect Title Backing" /><rect
         style="fill:#054545;fill-opacity:1;stroke:#000000;stroke-width:0;stroke-linejoin:bevel;stroke-miterlimit:3.3;stroke-dashoffset:370.663"
         id="rect11"
         width="92.336441"
         height="5.8416877"
         x="58.551205"
         y="161.10034"
         inkscape:label="Trigger Title Backing" /><text
         xml:space="preserve"
         style="font-style:normal;font-variant:normal;font-weight:bold;font-stretch:normal;font-size:4.23333px;font-family:Arial;-inkscape-font-specification:'Arial, Bold';font-variant-ligatures:normal;font-variant-caps:normal;font-variant-numeric:normal;font-variant-east-asian:normal;fill:#ffffff;fill-opacity:1;stroke:#000000;stroke-width:0;stroke-linejoin:bevel;stroke-miterlimit:3.3;stroke-dashoffset:370.663"
         x="59.254349"
         y="193.10309"
         id="text7-7"
         inkscape:label="TITLE Effect"><tspan
           sodipodi:role="line"
           id="tspan7-8"
           style="font-style:normal;font-variant:normal;font-weight:bold;font-stretch:normal;font-size:4.93889px;font-family:Arial;-inkscape-font-specification:'Arial, Bold';font-variant-ligatures:normal;font-variant-caps:normal;font-variant-numeric:normal;font-variant-east-asian:normal;stroke-width:0"
           x="59.254349"
           y="193.10309">EFFECT</tspan></text><text
         xml:space="preserve"
         style="font-style:normal;font-variant:normal;font-weight:bold;font-stretch:normal;font-size:4.23333px;font-family:Arial;-inkscape-font-specification:'Arial, Bold';font-variant-ligatures:normal;font-variant-caps:normal;font-variant-numeric:normal;font-variant-east-asian:normal;fill:#ffffff;fill-opacity:1;stroke:#000000;stroke-width:0;stroke-linejoin:bevel;stroke-miterlimit:3.3;stroke-dashoffset:370.663"
         x="59.507565"
         y="165.86629"
         id="text7"
         inkscape:label="TITLE Trigger"><tspan
           sodipodi:role="line"
           id="tspan7"
           style="font-style:normal;font-variant:normal;font-weight:bold;font-stretch:normal;font-size:4.93889px;font-family:Arial;-inkscape-font-specification:'Arial, Bold';font-variant-ligatures:normal;font-variant-caps:normal;font-variant-numeric:normal;font-variant-east-asian:normal;stroke-width:0"
           x="59.507565"
           y="165.86629">TRIGGER</tspan></text></g><g
       id="g5"
       inkscape:label="Card Icons"
       transform="translate(63.984324,10.851143)"><path
         fill="currentColor"
         d="m 23.954977,90.687499 q -3.563997,0 -6.109709,2.545715 -2.545712,2.545716 -2.545712,6.10971 0,3.563986 2.545712,6.146076 2.545712,2.58207 6.109709,2.58207 1.091022,0 2.145669,-0.3273 1.054653,-0.32731 1.927468,-0.76371 l 4.145877,4.07314 -2.036571,1.96384 h -4.945954 v 4.94595 h 4.945954 l 2.036571,1.96383 -4.073137,4.07314 q -0.945555,-0.50914 -2.000208,-0.80008 -1.054647,-0.29094 -2.145669,-0.29094 -3.563997,0 -6.109709,2.58209 -2.545712,2.58207 -2.545712,6.14607 0,3.56399 2.545712,6.1097 2.545712,2.54572 6.109709,2.54572 3.563996,0 6.146079,-2.54572 2.582077,-2.54571 2.582077,-6.1097 0,-1.09102 -0.29094,-2.14567 -0.290936,-1.05466 -0.800077,-1.92747 l 4.073137,-4.14588 1.963833,2.03658 h 4.945959 l 1.963834,-1.96384 4.073143,4.07314 q -0.509147,0.87281 -0.800082,1.92747 -0.29094,1.05465 -0.29094,2.14567 0,3.56399 2.582077,6.1097 2.582083,2.54572 6.146078,2.54572 3.563997,0 6.10971,-2.54572 2.545713,-2.54571 2.545713,-6.1097 0,-3.564 -2.545713,-6.14607 -2.545713,-2.58209 -6.10971,-2.58209 -1.091016,0 -2.145669,0.29094 -1.054653,0.29094 -1.927468,0.80008 l -4.073143,-4.07314 1.963837,-1.96383 h 4.945954 v -4.94595 h -4.945954 l -2.036571,-1.96384 4.145877,-4.07314 q 0.872815,0.50914 1.927468,0.80008 1.054653,0.29093 2.145669,0.29093 3.563997,0 6.10971,-2.58207 2.545713,-2.58209 2.545713,-6.146076 0,-3.563994 -2.545713,-6.10971 -2.545713,-2.545715 -6.10971,-2.545715 -3.563995,0 -6.146078,2.545715 -2.582077,2.545716 -2.582077,6.10971 0,1.091026 0.29094,2.145676 0.290935,1.05464 0.800082,2.0002 l -4.073143,4.07313 -1.963834,-2.03657 h -4.945959 l -1.963833,2.03657 -4.073137,-4.14587 q 0.509141,-0.87282 0.800077,-1.92746 0.29094,-1.05465 0.29094,-2.145676 0,-3.563994 -2.582077,-6.10971 -2.582083,-2.545715 -6.146079,-2.545715 z m 0,4.945961 q 1.600163,0 2.654817,1.091019 1.054652,1.091018 1.054652,2.618445 0,1.600176 -1.054652,2.654816 -1.054654,1.05464 -2.654817,1.05464 -1.527427,0 -2.618447,-1.05464 -1.091019,-1.05464 -1.091019,-2.654816 0,-1.527427 1.091019,-2.618445 1.09102,-1.091019 2.618447,-1.091019 z m 32.294178,0 q 1.527431,0 2.618447,1.091019 1.091022,1.091018 1.091022,2.618445 0,1.600176 -1.091022,2.654816 -1.091016,1.05464 -2.618447,1.05464 -1.600163,0 -2.654815,-1.05464 -1.054648,-1.05464 -1.054648,-2.654816 0,-1.527427 1.054648,-2.618445 1.054652,-1.091019 2.654815,-1.091019 z m -32.294178,32.29417 q 1.600163,0 2.654817,1.05466 1.054652,1.05465 1.054652,2.65481 0,1.52743 -1.054652,2.61844 -1.054654,1.09103 -2.654817,1.09103 -1.527427,0 -2.618447,-1.09103 -1.091019,-1.09101 -1.091019,-2.61844 0,-1.60016 1.091019,-2.65481 1.09102,-1.05466 2.618447,-1.05466 z m 32.294178,0 q 1.527431,0 2.618447,1.05466 1.091022,1.05465 1.091022,2.65481 0,1.52743 -1.091022,2.61844 -1.091016,1.09103 -2.618447,1.09103 -1.600163,0 -2.654815,-1.09103 -1.054648,-1.09101 -1.054648,-2.61844 0,-1.60016 1.054648,-2.65481 1.054652,-1.05466 2.654815,-1.05466 z"
         id="path1-54"
         style="display:inline;fill:#999900;fill-opacity:1;stroke-width:0.0727348"
         inkscape:label="Drone Logo" /><g
         id="g8"
         inkscape:label="Manufacturer Logos"
         transform="translate(-44.714582,70.114581)"
         style="stroke-width:0.6;stroke-dasharray:none"><path
           id="path6"
           style="fill:#1e1e1e;fill-opacity:1;stroke:#126127;stroke-width:31.8544;stroke-dasharray:none;stroke-opacity:1"
           d="m 540.01073,168.85823 c -12.14998,0 -23.17632,4.82772 -31.2763,12.6477 -8.49998,8.17998 -13.79998,19.6463 -13.79998,32.34628 0,24.84996 20.18632,44.99398 45.07628,44.99398 24.87994,0 45.04885,-20.14402 45.04885,-44.99398 0,-12.70998 -5.29257,-24.1663 -13.77255,-32.34628 -8.10998,-7.81998 -19.12632,-12.6477 -31.2763,-12.6477 z m -94.73427,3.84095 c -0.92008,0.0577 -1.87334,0.25102 -2.82584,0.63102 -16.64994,6.63996 -32.7568,15.068 -48.06674,25.26796 l -8.09343,5.34989 c -68.03972,45.30982 -143.02487,79.07194 -221.92455,100.00186 -8.58998,2.27998 -9.10328,14.25453 -0.71332,17.17453 31.75986,11.06994 108.42465,46.11199 164.69441,72.40189 42.32984,19.76992 75.3008,55.13257 91.99074,98.71239 33.43986,87.33966 89.83991,320.4796 111.46983,411.96924 2.18998,9.24996 15.36119,9.22248 17.53119,-0.0274 21.41992,-91.42962 77.26486,-324.20548 110.45472,-411.58514 16.62994,-43.78982 49.67551,-79.33887 92.15535,-99.17879 56.24978,-26.2699 132.71018,-61.23221 164.42006,-72.29215 8.36996,-2.92 7.86664,-14.89455 -0.71332,-17.17453 -78.89968,-20.94 -153.88482,-54.70208 -221.92456,-100.0019 l -8.09343,-5.34989 c -15.30994,-10.19996 -31.41679,-18.628 -48.06673,-25.26796 -7.51998,-3 -14.94054,4.89133 -11.44054,12.18129 6.73996,14.04994 10.13597,29.99221 9.13597,46.83215 -2.82,47.3798 -41.05919,85.9772 -88.47901,89.2472 -55.75978,3.83998 -102.19668,-40.21372 -102.19668,-95.0635 0,-14.61994 3.29086,-28.44384 9.19084,-40.8238 3.07998,-6.47498 -2.06444,-13.4085 -8.50496,-13.00436 z"
           inkscape:label="HORUS Logo"
           transform="matrix(0.01883571,0,0,0.01883571,35.138551,10.730114)" /></g></g><rect
       style="display:inline;fill:#126127;fill-opacity:1;stroke:#000000;stroke-width:0;stroke-linejoin:bevel;stroke-miterlimit:3.3;stroke-dashoffset:370.663"
       id="rect2"
       width="101.59982"
       height="18.07555"
       x="54.045109"
       y="72.266876"
       inkscape:label="Card Title Backing" /><text
       xml:space="preserve"
       style="font-style:normal;font-variant:normal;font-weight:bold;font-stretch:normal;font-size:9.87778px;line-height:0.8;font-family:Arial;-inkscape-font-specification:'Arial, Bold';font-variant-ligatures:normal;font-variant-position:normal;font-variant-caps:normal;font-variant-numeric:normal;font-variant-alternates:normal;font-variant-east-asian:normal;text-indent:0;text-align:center;text-decoration-line:none;text-decoration-style:solid;text-decoration-color:#000000;letter-spacing:normal;word-spacing:normal;text-transform:none;writing-mode:lr-tb;direction:ltr;text-orientation:mixed;dominant-baseline:auto;baseline-shift:baseline;text-anchor:middle;white-space:pre;inline-size:77.1889;display:inline;vector-effect:none;fill:#ffffff;fill-opacity:1;stroke:#000000;stroke-width:0;stroke-linecap:butt;stroke-linejoin:bevel;stroke-miterlimit:3.3;stroke-dasharray:none;stroke-dashoffset:370.663;stroke-opacity:1;-inkscape-stroke:none;stop-color:#000000"
       x="104.94299"
       y="83.013756"
       id="text7-0-9-5"
       inkscape:label="Card Title"
       transform="translate(-0.57209603,-2.1130768)"><tspan
         x="104.94299"
         y="83.013756"
         id="tspan22">HUNTER<tspan
   y="83.013756"
   id="tspan23"> </tspan></tspan><tspan
         x="104.94299"
         y="90.915974"
         id="tspan24">DRONE</tspan></text><g
       id="g1"
       inkscape:label="Activation Icons"
       style="display:inline"><g
         id="g4"
         inkscape:label="Activate"
         style="display:inline"><path
           fill="currentColor"
           d="m 148.41047,75.045442 -6.25921,6.259209 0.40123,0.385182 5.85798,5.874027 6.25921,-6.259209 z m 0,1.556778 4.70243,4.702431 -4.70243,4.702431 -4.70243,-4.702431 z m -1.09135,2.198747 q -0.72221,0.320986 -1.18764,0.995055 -0.46543,0.674068 -0.46543,1.508629 0,1.123449 0.81049,1.933935 0.81049,0.810488 1.93393,0.810488 1.12345,0 1.93394,-0.810488 0.81049,-0.810486 0.81049,-1.933935 0,-0.834561 -0.46543,-1.508629 -0.46543,-0.674069 -1.18765,-0.995055 v 1.283941 q 0.25679,0.22469 0.40123,0.537651 0.14445,0.312959 0.14445,0.682092 0,0.690118 -0.47346,1.163572 -0.47345,0.473453 -1.16357,0.473453 -0.69011,0 -1.16357,-0.473453 -0.47345,-0.473454 -0.47345,-1.163572 0,-0.369133 0.14444,-0.682092 0.14445,-0.312961 0.40123,-0.537651 z m 0.54568,-0.786412 v 3.290096 h 1.09135 v -3.290096 z"
           id="path1-3-9"
           style="display:inline;fill:#ffffff;stroke-width:0.0160494"
           inkscape:label="Activate Right" /><path
           fill="currentColor"
           d="m 61.304229,75.046003 -6.259208,6.259209 0.401231,0.385182 5.857977,5.874027 6.25921,-6.259209 z m 0,1.556778 4.702432,4.702431 -4.702432,4.702431 -4.70243,-4.702431 z m -1.091348,2.198747 q -0.722216,0.320986 -1.187645,0.995055 -0.465428,0.674068 -0.465428,1.508629 0,1.123449 0.810487,1.933935 0.810488,0.810488 1.933934,0.810488 1.123448,0 1.933936,-0.810488 0.810488,-0.810486 0.810488,-1.933935 0,-0.834561 -0.465429,-1.508629 -0.465429,-0.674069 -1.187645,-0.995055 v 1.283941 q 0.256789,0.22469 0.401232,0.537651 0.144442,0.312959 0.144442,0.682092 0,0.690118 -0.473452,1.163572 -0.473454,0.473453 -1.163572,0.473453 -0.690116,0 -1.16357,-0.473453 -0.473452,-0.473454 -0.473452,-1.163572 0,-0.369133 0.144443,-0.682092 0.144443,-0.312961 0.401231,-0.537651 z m 0.545674,-0.786412 v 3.290096 h 1.09135 v -3.290096 z"
           id="path1-3"
           style="display:inline;fill:#ffffff;stroke-width:0.0160494"
           inkscape:label="Activate Left" /></g></g></g></svg>
