<?xml version="1.0" encoding="UTF-8" standalone="no"?>
<!-- Created with Inkscape (http://www.inkscape.org/) -->

<svg
   width="101.6mm"
   height="152.40001mm"
   viewBox="0 0 101.6 152.40001"
   version="1.1"
   id="svg1"
   xml:space="preserve"
   inkscape:version="1.3.1 (91b66b0783, 2023-11-16)"
   sodipodi:docname="ReactiveCode.svg"
   inkscape:export-filename="Horus\ReactiveCodeBack.svg"
   inkscape:export-xdpi="96"
   inkscape:export-ydpi="96"
   xmlns:inkscape="http://www.inkscape.org/namespaces/inkscape"
   xmlns:sodipodi="http://sodipodi.sourceforge.net/DTD/sodipodi-0.dtd"
   xmlns="http://www.w3.org/2000/svg"
   xmlns:svg="http://www.w3.org/2000/svg"><sodipodi:namedview
     id="namedview1"
     pagecolor="#ffffff"
     bordercolor="#000000"
     borderopacity="0.25"
     inkscape:showpageshadow="2"
     inkscape:pageopacity="0.0"
     inkscape:pagecheckerboard="true"
     inkscape:deskcolor="#d1d1d1"
     inkscape:document-units="mm"
     inkscape:zoom="1"
     inkscape:cx="186"
     inkscape:cy="250.5"
     inkscape:window-width="1920"
     inkscape:window-height="1009"
     inkscape:window-x="1912"
     inkscape:window-y="-8"
     inkscape:window-maximized="1"
     inkscape:current-layer="layer1"
     inkscape:clip-to-page="true" /><defs
     id="defs1"><rect
       x="21"
       y="490"
       width="344.37869"
       height="347.94321"
       id="rect10" /><rect
       x="35.355339"
       y="130.10765"
       width="361.7666"
       height="517.56348"
       id="rect13-8" /><rect
       x="21"
       y="490"
       width="344.37869"
       height="347.94321"
       id="rect10-0" /></defs><g
     inkscape:label="Layer 1"
     inkscape:groupmode="layer"
     id="layer1"
     transform="translate(-54.045021,-72.300003)"><path
       id="rect3-8"
       style="fill:#000000;fill-opacity:1;stroke:#126127;stroke-width:0.6;stroke-linecap:round;stroke-linejoin:bevel;stroke-miterlimit:3.3;stroke-dasharray:none;stroke-dashoffset:370.663;stroke-opacity:1"
       d="m 56.704283,93.750003 -0.239262,0.23306 v 51.626307 l 12.69845,12.69792 h 83.801609 l 0.25322,-0.25321 V 106.4562 L 140.51262,93.750003 Z"
       inkscape:label="Window Background"
       transform="translate(-9.7916666e-7)" /><path
       id="rect1"
       style="fill:#1e1e1e;fill-opacity:1;stroke:none;stroke-width:0.5;stroke-linecap:butt;stroke-linejoin:bevel;stroke-miterlimit:3.3;stroke-dasharray:none;stroke-dashoffset:370.663;stroke-opacity:1"
       d="M 54.045539,72.300003 V 224.6969 H 155.64709 V 72.300003 Z m 2.669604,21.440954 h 83.808317 l 12.70569,12.706203 V 158.045 l -0.25322,0.25321 H 69.174331 L 56.475881,145.60028 V 93.974018 Z"
       sodipodi:nodetypes="cccccccccccccc"
       inkscape:label="Card Background"
       inkscape:export-filename="Acrobatics1Back.png"
       inkscape:export-xdpi="96"
       inkscape:export-ydpi="96" /><text
       xml:space="preserve"
       id="text10"
       style="font-style:normal;font-variant:normal;font-weight:normal;font-stretch:normal;font-size:13.3333px;font-family:Arial;-inkscape-font-specification:'Arial, Normal';font-variant-ligatures:normal;font-variant-caps:normal;font-variant-numeric:normal;font-variant-east-asian:normal;white-space:pre;shape-inside:url(#rect10);display:inline;fill:#ffffff;fill-opacity:1;stroke:#000000;stroke-width:0;stroke-linejoin:bevel;stroke-miterlimit:3.3;stroke-dashoffset:370.663"
       inkscape:label="BODY Effect"
       transform="matrix(0.26458333,0,0,0.26458333,54.045021,63.405033)"><tspan
         x="21"
         y="502.01003"
         id="tspan4">The Goblin may take any <tspan
   style="font-weight:bold"
   id="tspan3">QUICK TECH</tspan> option against the </tspan><tspan
         x="21"
         y="518.67665"
         id="tspan11">attacker as a <tspan
   style="font-weight:bold"
   id="tspan10">reaction</tspan>.</tspan></text><text
       xml:space="preserve"
       id="text10-0"
       style="font-style:normal;font-variant:normal;font-weight:normal;font-stretch:normal;font-size:13.3333px;font-family:Arial;-inkscape-font-specification:'Arial, Normal';font-variant-ligatures:normal;font-variant-caps:normal;font-variant-numeric:normal;font-variant-east-asian:normal;white-space:pre;shape-inside:url(#rect10-0);display:inline;fill:#ffffff;fill-opacity:1;stroke:#000000;stroke-width:0;stroke-linejoin:bevel;stroke-miterlimit:3.3;stroke-dashoffset:370.663"
       inkscape:label="BODY Trigger"
       transform="matrix(0.26458333,0,0,0.26458333,54.045021,43.733341)"><tspan
         x="21"
         y="502.01003"
         id="tspan12">The Goblin is hit by a tech attack.</tspan></text><g
       id="g6"
       inkscape:label="Sub Titles"
       transform="translate(0,3.1750001)"><rect
         style="fill:#054545;fill-opacity:1;stroke:#000000;stroke-width:0;stroke-linejoin:bevel;stroke-miterlimit:3.3;stroke-dashoffset:370.663"
         id="rect11"
         width="92.336441"
         height="5.8416877"
         x="58.551205"
         y="163.21698"
         inkscape:label="Trigger Title Backing" /><rect
         style="fill:#054545;fill-opacity:1;stroke:#000000;stroke-width:0;stroke-linejoin:bevel;stroke-miterlimit:3.3;stroke-dashoffset:370.663"
         id="rect11-6"
         width="92.336441"
         height="5.8416877"
         x="58.551205"
         y="182.45422"
         inkscape:label="Effect Title Backing" /><text
         xml:space="preserve"
         style="font-style:normal;font-variant:normal;font-weight:bold;font-stretch:normal;font-size:4.23333px;font-family:Arial;-inkscape-font-specification:'Arial, Bold';font-variant-ligatures:normal;font-variant-caps:normal;font-variant-numeric:normal;font-variant-east-asian:normal;fill:#ffffff;fill-opacity:1;stroke:#000000;stroke-width:0;stroke-linejoin:bevel;stroke-miterlimit:3.3;stroke-dashoffset:370.663"
         x="59.254349"
         y="187.28233"
         id="text7-7"
         inkscape:label="TITLE Effect"><tspan
           sodipodi:role="line"
           id="tspan7-8"
           style="font-style:normal;font-variant:normal;font-weight:bold;font-stretch:normal;font-size:4.93889px;font-family:Arial;-inkscape-font-specification:'Arial, Bold';font-variant-ligatures:normal;font-variant-caps:normal;font-variant-numeric:normal;font-variant-east-asian:normal;stroke-width:0"
           x="59.254349"
           y="187.28233">EFFECT</tspan></text><text
         xml:space="preserve"
         style="font-style:normal;font-variant:normal;font-weight:bold;font-stretch:normal;font-size:4.23333px;font-family:Arial;-inkscape-font-specification:'Arial, Bold';font-variant-ligatures:normal;font-variant-caps:normal;font-variant-numeric:normal;font-variant-east-asian:normal;fill:#ffffff;fill-opacity:1;stroke:#000000;stroke-width:0;stroke-linejoin:bevel;stroke-miterlimit:3.3;stroke-dashoffset:370.663"
         x="59.507565"
         y="167.98293"
         id="text7"
         inkscape:label="TITLE Trigger"><tspan
           sodipodi:role="line"
           id="tspan7"
           style="font-style:normal;font-variant:normal;font-weight:bold;font-stretch:normal;font-size:4.93889px;font-family:Arial;-inkscape-font-specification:'Arial, Bold';font-variant-ligatures:normal;font-variant-caps:normal;font-variant-numeric:normal;font-variant-east-asian:normal;stroke-width:0"
           x="59.507565"
           y="167.98293">TRIGGER</tspan></text></g><g
       id="g5"
       inkscape:label="Card Icons"
       transform="translate(63.984324,10.851143)"><g
         id="g9"
         inkscape:label="Talents"><path
           fill="currentColor"
           d="m 104.75266,152.07188 -15.31261,-7.86703 v -32.40468 h 30.81253 v 32.40468 z m -13.814127,-8.75675 13.814127,7.07095 14.00144,-7.11779 V 113.29865 H 90.938533 Z m 13.767297,-3.13745 -8.897233,-4.54228 v 4.68276 l 8.850403,4.54227 9.22503,-4.68275 v -4.63593 z"
           id="path1-50"
           style="display:none;fill:#3a82c4;fill-opacity:1;stroke-width:0.0468277"
           inkscape:label="Talent I logo" /><path
           fill="currentColor"
           d="m 104.75362,152.07179 -15.312354,-7.8669 v -32.4041 h 30.812004 v 32.4041 z m -13.813898,-8.7566 13.813898,7.07083 14.00118,-7.11765 V 113.29924 H 90.939722 Z m 13.720228,-6.18113 9.22487,-4.68268 v -4.68267 l -9.17803,4.68267 -8.897087,-4.54219 v 4.68267 z m 0.0468,3.04373 -8.89708,-4.5422 v 4.68267 l 8.85025,4.54221 9.22488,-4.68268 v -4.63584 z"
           id="path1-95"
           style="display:none;fill:#3a82c4;fill-opacity:1;stroke-width:0.0468269"
           inkscape:label="Talent II logo" /><path
           fill="currentColor"
           d="M 104.75362,152.07179 89.441268,144.2049 v -32.40412 h 30.812002 v 32.40412 z m -13.813897,-8.7566 13.813897,7.07084 14.00119,-7.11766 V 113.29925 H 90.939723 Z m 17.606857,-15.78061 -1.35798,-4.30806 3.60566,-2.71595 h -4.49536 l -1.45163,-4.30806 -1.45163,4.26123 -4.495369,0.0468 3.605659,2.71594 -1.35797,4.30807 3.69931,-2.6223 z m -3.88662,9.59948 9.22487,-4.68267 v -4.68267 l -9.17804,4.68267 -8.897084,-4.54219 v 4.68267 z m 0.0468,3.04374 -8.897084,-4.54219 v 4.68268 l 8.850254,4.54218 9.22487,-4.68267 v -4.63585 z"
           id="path1-4"
           style="display:none;fill:#3a82c4;fill-opacity:1;stroke-width:0.0468269"
           inkscape:label="Talent III logo" /><text
           xml:space="preserve"
           style="font-style:normal;font-variant:normal;font-weight:bold;font-stretch:normal;font-size:11.2889px;line-height:normal;font-family:Arial;-inkscape-font-specification:'Arial, Bold';font-variant-ligatures:normal;font-variant-position:normal;font-variant-caps:normal;font-variant-numeric:normal;font-variant-alternates:normal;font-variant-east-asian:normal;font-feature-settings:normal;font-variation-settings:normal;text-indent:0;text-align:start;text-decoration-line:none;text-decoration-style:solid;text-decoration-color:#000000;letter-spacing:normal;word-spacing:normal;text-transform:none;writing-mode:lr-tb;direction:ltr;text-orientation:mixed;dominant-baseline:auto;baseline-shift:baseline;white-space:normal;display:none;vector-effect:none;fill:#3a82c4;fill-opacity:1;stroke:#000000;stroke-width:0;stroke-linecap:butt;stroke-linejoin:bevel;stroke-miterlimit:3.3;stroke-dasharray:none;stroke-dashoffset:370.663;stroke-opacity:1;-inkscape-stroke:none;stop-color:#000000"
           x="72.935135"
           y="108.96136"
           id="text7-0-9"
           inkscape:label="Talent Title"><tspan
             sodipodi:role="line"
             id="tspan7-9-3"
             style="font-style:normal;font-variant:normal;font-weight:bold;font-stretch:normal;font-size:11.2889px;line-height:normal;font-family:Arial;-inkscape-font-specification:'Arial, Bold';font-variant-ligatures:normal;font-variant-position:normal;font-variant-caps:normal;font-variant-numeric:normal;font-variant-alternates:normal;font-variant-east-asian:normal;font-feature-settings:normal;font-variation-settings:normal;text-indent:0;text-align:start;text-decoration-line:none;text-decoration-style:solid;text-decoration-color:#000000;letter-spacing:normal;word-spacing:normal;text-transform:none;writing-mode:lr-tb;direction:ltr;text-orientation:mixed;dominant-baseline:auto;baseline-shift:baseline;white-space:normal;vector-effect:none;fill:#3a82c4;fill-opacity:1;stroke:#000000;stroke-width:0;stroke-linecap:butt;stroke-linejoin:bevel;stroke-miterlimit:3.3;stroke-dasharray:none;stroke-dashoffset:370.663;stroke-opacity:1;-inkscape-stroke:none;stop-color:#000000;stop-opacity:1"
             x="0"
             y="0">VANGUARD</tspan></text></g><path
         fill="currentColor"
         d="m 40.860702,90.420728 -8.807233,5.07536 2.537683,4.40361 6.26955,-3.5826 6.26955,3.5826 2.53767,-4.40361 z m -13.210844,7.61303 -8.881868,5.075352 v 10.22534 h 5.149989 v -7.23984 l 6.26955,-3.65724 z m 26.421684,0 -2.53768,4.403612 6.26955,3.65724 v 7.23984 h 5.14999 V 103.10911 Z M 18.76799,118.4098 v 10.22535 l 8.881868,5.07535 2.537671,-4.40362 -6.26955,-3.65724 v -7.23984 z m 39.035422,0 v 7.23984 l -6.26955,3.65724 2.53768,4.40362 8.88186,-5.07535 V 118.4098 Z m -23.21226,13.43476 -2.537683,4.40361 8.807233,5.07535 8.80722,-5.07535 -2.53767,-4.40361 -6.26955,3.65724 z m 6.26955,-26.19778 8.80722,5.15 v 10.1507 l -8.80722,5.14999 -8.807233,-5.14999 v -10.1507 z"
         id="path1-7"
         style="display:inline;fill:#999900;fill-opacity:1;stroke-width:0.0746377"
         inkscape:label="Trait logo" /><g
         id="g8"
         inkscape:label="Manufacturer Logos"
         transform="translate(-44.714582,70.114581)"
         style="stroke-width:0.6;stroke-dasharray:none"><path
           id="path6"
           style="fill:#1e1e1e;fill-opacity:1;stroke:#126127;stroke-width:31.8544;stroke-dasharray:none;stroke-opacity:1"
           d="m 540.01073,168.85823 c -12.14998,0 -23.17632,4.82772 -31.2763,12.6477 -8.49998,8.17998 -13.79998,19.6463 -13.79998,32.34628 0,24.84996 20.18632,44.99398 45.07628,44.99398 24.87994,0 45.04885,-20.14402 45.04885,-44.99398 0,-12.70998 -5.29257,-24.1663 -13.77255,-32.34628 -8.10998,-7.81998 -19.12632,-12.6477 -31.2763,-12.6477 z m -94.73427,3.84095 c -0.92008,0.0577 -1.87334,0.25102 -2.82584,0.63102 -16.64994,6.63996 -32.7568,15.068 -48.06674,25.26796 l -8.09343,5.34989 c -68.03972,45.30982 -143.02487,79.07194 -221.92455,100.00186 -8.58998,2.27998 -9.10328,14.25453 -0.71332,17.17453 31.75986,11.06994 108.42465,46.11199 164.69441,72.40189 42.32984,19.76992 75.3008,55.13257 91.99074,98.71239 33.43986,87.33966 89.83991,320.4796 111.46983,411.96924 2.18998,9.24996 15.36119,9.22248 17.53119,-0.0274 21.41992,-91.42962 77.26486,-324.20548 110.45472,-411.58514 16.62994,-43.78982 49.67551,-79.33887 92.15535,-99.17879 56.24978,-26.2699 132.71018,-61.23221 164.42006,-72.29215 8.36996,-2.92 7.86664,-14.89455 -0.71332,-17.17453 -78.89968,-20.94 -153.88482,-54.70208 -221.92456,-100.0019 l -8.09343,-5.34989 c -15.30994,-10.19996 -31.41679,-18.628 -48.06673,-25.26796 -7.51998,-3 -14.94054,4.89133 -11.44054,12.18129 6.73996,14.04994 10.13597,29.99221 9.13597,46.83215 -2.82,47.3798 -41.05919,85.9772 -88.47901,89.2472 -55.75978,3.83998 -102.19668,-40.21372 -102.19668,-95.0635 0,-14.61994 3.29086,-28.44384 9.19084,-40.8238 3.07998,-6.47498 -2.06444,-13.4085 -8.50496,-13.00436 z"
           inkscape:label="HORUS Logo"
           transform="matrix(0.01883571,0,0,0.01883571,35.138551,10.730114)" /></g></g><rect
       style="display:inline;fill:#126127;fill-opacity:1;stroke:#000000;stroke-width:0;stroke-linejoin:bevel;stroke-miterlimit:3.3;stroke-dashoffset:370.663"
       id="rect2"
       width="101.59982"
       height="18.07555"
       x="54.045109"
       y="72.266876"
       inkscape:label="Card Title Backing" /><text
       xml:space="preserve"
       style="font-style:normal;font-variant:normal;font-weight:bold;font-stretch:normal;font-size:8.81944px;line-height:0.8;font-family:Arial;-inkscape-font-specification:'Arial, Bold';font-variant-ligatures:normal;font-variant-position:normal;font-variant-caps:normal;font-variant-numeric:normal;font-variant-alternates:normal;font-variant-east-asian:normal;text-indent:0;text-align:center;text-decoration-line:none;text-decoration-style:solid;text-decoration-color:#000000;letter-spacing:normal;word-spacing:normal;text-transform:none;writing-mode:lr-tb;direction:ltr;text-orientation:mixed;dominant-baseline:auto;baseline-shift:baseline;text-anchor:middle;white-space:pre;inline-size:103.065;display:inline;vector-effect:none;fill:#ffffff;fill-opacity:1;stroke:#000000;stroke-width:0;stroke-linecap:butt;stroke-linejoin:bevel;stroke-miterlimit:3.3;stroke-dasharray:none;stroke-dashoffset:370.663;stroke-opacity:1;-inkscape-stroke:none;stop-color:#000000"
       x="104.94299"
       y="83.013756"
       id="text7-0-9-5"
       inkscape:label="Card Title"
       transform="translate(-0.20071543,1.4474626)"><tspan
         x="104.94299"
         y="83.013756"
         id="tspan13">REACTIVE CODE</tspan></text><g
       id="g1"
       inkscape:label="Activation Icons"
       style="display:inline"><g
         id="g4"
         inkscape:label="Activate"
         style="display:inline"><path
           fill="currentColor"
           d="m 148.41047,75.045442 -6.25921,6.259209 0.40123,0.385182 5.85798,5.874027 6.25921,-6.259209 z m 0,1.556778 4.70243,4.702431 -4.70243,4.702431 -4.70243,-4.702431 z m -1.09135,2.198747 q -0.72221,0.320986 -1.18764,0.995055 -0.46543,0.674068 -0.46543,1.508629 0,1.123449 0.81049,1.933935 0.81049,0.810488 1.93393,0.810488 1.12345,0 1.93394,-0.810488 0.81049,-0.810486 0.81049,-1.933935 0,-0.834561 -0.46543,-1.508629 -0.46543,-0.674069 -1.18765,-0.995055 v 1.283941 q 0.25679,0.22469 0.40123,0.537651 0.14445,0.312959 0.14445,0.682092 0,0.690118 -0.47346,1.163572 -0.47345,0.473453 -1.16357,0.473453 -0.69011,0 -1.16357,-0.473453 -0.47345,-0.473454 -0.47345,-1.163572 0,-0.369133 0.14444,-0.682092 0.14445,-0.312961 0.40123,-0.537651 z m 0.54568,-0.786412 v 3.290096 h 1.09135 v -3.290096 z"
           id="path1-3-9"
           style="display:inline;fill:#ffffff;stroke-width:0.0160494"
           inkscape:label="Activate Right" /><path
           fill="currentColor"
           d="m 61.304229,75.046003 -6.259208,6.259209 0.401231,0.385182 5.857977,5.874027 6.25921,-6.259209 z m 0,1.556778 4.702432,4.702431 -4.702432,4.702431 -4.70243,-4.702431 z m -1.091348,2.198747 q -0.722216,0.320986 -1.187645,0.995055 -0.465428,0.674068 -0.465428,1.508629 0,1.123449 0.810487,1.933935 0.810488,0.810488 1.933934,0.810488 1.123448,0 1.933936,-0.810488 0.810488,-0.810486 0.810488,-1.933935 0,-0.834561 -0.465429,-1.508629 -0.465429,-0.674069 -1.187645,-0.995055 v 1.283941 q 0.256789,0.22469 0.401232,0.537651 0.144442,0.312959 0.144442,0.682092 0,0.690118 -0.473452,1.163572 -0.473454,0.473453 -1.163572,0.473453 -0.690116,0 -1.16357,-0.473453 -0.473452,-0.473454 -0.473452,-1.163572 0,-0.369133 0.144443,-0.682092 0.144443,-0.312961 0.401231,-0.537651 z m 0.545674,-0.786412 v 3.290096 h 1.09135 v -3.290096 z"
           id="path1-3"
           style="display:inline;fill:#ffffff;stroke-width:0.0160494"
           inkscape:label="Activate Left" /></g><g
         id="g3"
         inkscape:label="Deactivate"
         style="display:none"><path
           fill="currentColor"
           d="m 148.41002,75.045003 -6.259,6.259 0.38517,0.385169 5.87383,5.873829 6.259,-6.258998 z m -0.54566,2.969013 h 1.09131 v 3.289987 h -1.09131 z m -0.54565,0.786387 v 1.283898 q -0.25678,0.224682 -0.40122,0.537632 -0.14444,0.312949 -0.14444,0.68207 0,0.690095 0.47344,1.163533 0.47344,0.473435 1.16353,0.473435 0.69009,0 1.16353,-0.473435 0.47344,-0.473438 0.47344,-1.163533 0,-0.369121 -0.14444,-0.68207 -0.14444,-0.31295 -0.40122,-0.537632 v -1.283898 q 0.72219,0.320975 1.1876,0.995021 0.46542,0.674046 0.46542,1.508579 0,1.123411 -0.81046,1.933868 -0.81046,0.81046 -1.93387,0.81046 -1.12341,0 -1.93387,-0.81046 -0.81046,-0.810457 -0.81046,-1.933868 0,-0.834533 0.46541,-1.508579 0.46541,-0.674046 1.18761,-0.995021 z"
           id="path1-5-4"
           style="display:inline;fill:#1e1e1e;fill-opacity:1;stroke-width:0.0160488"
           inkscape:label="deactivate Right" /><path
           fill="currentColor"
           d="m 61.304021,75.045651 -6.259,6.259 0.385169,0.385169 5.873831,5.873831 6.259,-6.259 z m -0.545657,2.969013 h 1.091314 v 3.289987 h -1.091314 z m -0.545656,0.786387 v 1.283898 q -0.256779,0.224682 -0.401217,0.537632 -0.144439,0.312949 -0.144439,0.68207 0,0.690095 0.473436,1.163533 0.473438,0.473436 1.163533,0.473436 0.690095,0 1.163533,-0.473436 0.473436,-0.473438 0.473436,-1.163533 0,-0.369121 -0.144437,-0.68207 -0.14444,-0.31295 -0.401219,-0.537632 v -1.283898 q 0.722193,0.320975 1.187606,0.995021 0.465413,0.674046 0.465413,1.508579 0,1.123411 -0.810461,1.933871 -0.81046,0.810461 -1.933871,0.810461 -1.123411,0 -1.933871,-0.810461 -0.810459,-0.81046 -0.810459,-1.933871 0,-0.834533 0.465411,-1.508579 0.465413,-0.674046 1.187606,-0.995021 z"
           id="path1-5"
           style="display:inline;fill:#1e1e1e;fill-opacity:1;stroke-width:0.0160488"
           inkscape:label="deactivate left" /></g></g></g></svg>
