<?xml version="1.0" encoding="UTF-8" standalone="no"?>
<!-- Created with Inkscape (http://www.inkscape.org/) -->

<svg
   width="101.6mm"
   height="152.40001mm"
   viewBox="0 0 101.6 152.40001"
   version="1.1"
   id="svg1"
   xml:space="preserve"
   inkscape:version="1.3.1 (91b66b0783, 2023-11-16)"
   sodipodi:docname="SoulVessel.svg"
   inkscape:export-filename="IPS-N\SpikeGrenadeBack.svg"
   inkscape:export-xdpi="96"
   inkscape:export-ydpi="96"
   xmlns:inkscape="http://www.inkscape.org/namespaces/inkscape"
   xmlns:sodipodi="http://sodipodi.sourceforge.net/DTD/sodipodi-0.dtd"
   xmlns="http://www.w3.org/2000/svg"
   xmlns:svg="http://www.w3.org/2000/svg"><sodipodi:namedview
     id="namedview1"
     pagecolor="#ffffff"
     bordercolor="#000000"
     borderopacity="0.25"
     inkscape:showpageshadow="2"
     inkscape:pageopacity="0.0"
     inkscape:pagecheckerboard="true"
     inkscape:deskcolor="#d1d1d1"
     inkscape:document-units="mm"
     inkscape:zoom="1"
     inkscape:cx="317"
     inkscape:cy="430.5"
     inkscape:window-width="1920"
     inkscape:window-height="1009"
     inkscape:window-x="1912"
     inkscape:window-y="-8"
     inkscape:window-maximized="1"
     inkscape:current-layer="g6"
     inkscape:clip-to-page="true"
     showgrid="false" /><defs
     id="defs1"><rect
       x="21"
       y="490"
       width="344.87869"
       height="162.94322"
       id="rect10" /><rect
       x="35.355339"
       y="130.10765"
       width="361.7666"
       height="517.56348"
       id="rect13-8" /><rect
       x="21"
       y="490"
       width="341.52515"
       height="101.2378"
       id="rect10-0" /></defs><g
     inkscape:label="Layer 1"
     inkscape:groupmode="layer"
     id="layer1"
     transform="translate(-54.045021,-72.300003)"><path
       id="rect3-8"
       style="fill:#000000;fill-opacity:1;stroke:#126127;stroke-width:0.6;stroke-linecap:round;stroke-linejoin:bevel;stroke-miterlimit:3.3;stroke-dasharray:none;stroke-dashoffset:370.663;stroke-opacity:1"
       d="m 56.704283,93.750003 -0.239262,0.23306 v 51.626307 l 12.69845,12.69792 h 83.801609 l 0.25322,-0.25321 V 106.4562 L 140.51262,93.750003 Z"
       inkscape:label="Window Background" /><text
       xml:space="preserve"
       style="font-weight:bold;font-size:14.1111px;line-height:1.5;font-family:Arial;-inkscape-font-specification:'Arial, Bold';text-align:center;text-anchor:middle;display:inline;fill:#000000;fill-opacity:0;stroke:#126127;stroke-width:0.5;stroke-linecap:round;stroke-linejoin:bevel;stroke-miterlimit:3.3;stroke-dasharray:none;stroke-dashoffset:370.663;stroke-opacity:1"
       x="143.95215"
       y="157.2262"
       id="text1"
       inkscape:label="Expansion ID"><tspan
         sodipodi:role="line"
         style="font-style:normal;font-variant:normal;font-weight:bold;font-stretch:normal;font-size:8.46667px;font-family:Arial;-inkscape-font-specification:'Arial, Bold';font-variant-ligatures:normal;font-variant-caps:normal;font-variant-numeric:normal;font-variant-east-asian:normal;stroke:#126127;stroke-width:0.5;stroke-dasharray:none;stroke-opacity:1"
         x="143.95215"
         y="157.2262"
         id="tspan2">TLR</tspan></text><path
       id="rect1"
       style="fill:#1e1e1e;fill-opacity:1;stroke:none;stroke-width:0.5;stroke-linecap:butt;stroke-linejoin:bevel;stroke-miterlimit:3.3;stroke-dasharray:none;stroke-dashoffset:370.663;stroke-opacity:1"
       d="M 54.045539,72.300003 V 224.6969 H 155.64709 V 72.300003 Z m 2.669604,21.440954 h 83.808317 l 12.70569,12.706203 V 158.045 l -0.25322,0.25321 H 69.174331 L 56.475881,145.60028 V 93.974018 Z"
       sodipodi:nodetypes="cccccccccccccc"
       inkscape:label="Card Background"
       inkscape:export-filename="Acrobatics1Back.png"
       inkscape:export-xdpi="96"
       inkscape:export-ydpi="96" /><text
       xml:space="preserve"
       id="text10"
       style="font-style:normal;font-variant:normal;font-weight:normal;font-stretch:normal;font-size:13.3333px;font-family:Arial;-inkscape-font-specification:'Arial, Normal';font-variant-ligatures:normal;font-variant-caps:normal;font-variant-numeric:normal;font-variant-east-asian:normal;white-space:pre;shape-inside:url(#rect10);display:inline;fill:#ffffff;fill-opacity:1;stroke:#000000;stroke-width:0;stroke-linejoin:bevel;stroke-miterlimit:3.3;stroke-dashoffset:370.663"
       inkscape:label="BODY Effect"
       transform="matrix(0.26458333,0,0,0.26458333,54.045021,70.284204)"><tspan
         x="21"
         y="502.01003"
         id="tspan8">It may immediately gain <tspan
   style="font-weight:bold"
   id="tspan3">IMMUNITY</tspan> <tspan
   style="font-weight:bold"
   id="tspan4">to all damage</tspan>,   , <tspan
   style="font-weight:bold"
   id="tspan5">or </tspan></tspan><tspan
         x="21"
         y="518.67665"
         id="tspan11"><tspan
   style="font-weight:bold"
   id="tspan9">conditions from that effect</tspan>. It then <tspan
   style="font-weight:bold"
   id="tspan10">teleports</tspan> to the </tspan><tspan
         x="21"
         y="535.34328"
         id="tspan12">marker or as close as possible.
</tspan><tspan
         x="21"
         y="552.00991"
         id="tspan13">
</tspan><tspan
         x="21"
         y="568.67653"
         id="tspan14">*This trigger does not grant immunity, it just teleports.
</tspan><tspan
         x="21"
         y="585.34316"
         id="tspan18">
</tspan></text><text
       xml:space="preserve"
       id="text10-0"
       style="font-style:normal;font-variant:normal;font-weight:normal;font-stretch:normal;font-size:13.3333px;font-family:Arial;-inkscape-font-specification:Arial;font-variant-ligatures:normal;font-variant-caps:normal;font-variant-numeric:normal;font-variant-east-asian:normal;white-space:pre;shape-inside:url(#rect10-0);display:inline;fill:#ffffff;fill-opacity:1;stroke:#000000;stroke-width:0;stroke-linejoin:bevel;stroke-miterlimit:3.3;stroke-dashoffset:370.663"
       inkscape:label="BODY Trigger"
       transform="matrix(0.26458333,0,0,0.26458333,53.927888,36.85417)"><tspan
         x="21"
         y="502.01003"
         id="tspan22">The Lich is not <tspan
   style="font-weight:bold"
   id="tspan19">JAMMED</tspan>, <tspan
   style="font-weight:bold"
   id="tspan20">STUNNED</tspan>, <tspan
   style="font-weight:bold"
   id="tspan21">GRAPPLED</tspan>, or </tspan><tspan
         x="21"
         y="518.67665"
         id="tspan24">otherwise unable to take <tspan
   style="font-weight:bold"
   id="tspan23">reactions</tspan> and is hit by an </tspan><tspan
         x="21"
         y="535.34328"
         id="tspan26">attack, fails a save or check, or takes <tspan
   style="font-weight:bold"
   id="tspan25">damage or</tspan>    from </tspan><tspan
         x="21"
         y="552.00991"
         id="tspan27">any source (even itself).
</tspan><tspan
         x="21"
         y="568.67653"
         id="tspan28">
</tspan><tspan
         x="21"
         y="585.34316"
         id="tspan29">*Or the end of any turn, including its own.</tspan></text><g
       id="g6"
       inkscape:label="Sub Titles"
       transform="translate(0,7.4083337)"><rect
         style="fill:#054545;fill-opacity:1;stroke:#000000;stroke-width:0;stroke-linejoin:bevel;stroke-miterlimit:3.3;stroke-dashoffset:370.663"
         id="rect11-6"
         width="92.336441"
         height="5.8416877"
         x="58.551205"
         y="186.15834"
         inkscape:label="Effect Title Backing" /><rect
         style="fill:#054545;fill-opacity:1;stroke:#000000;stroke-width:0;stroke-linejoin:bevel;stroke-miterlimit:3.3;stroke-dashoffset:370.663"
         id="rect11"
         width="92.336441"
         height="5.8416877"
         x="58.551205"
         y="152.63379"
         inkscape:label="Trigger Title Backing" /><text
         xml:space="preserve"
         style="font-style:normal;font-variant:normal;font-weight:bold;font-stretch:normal;font-size:4.23333px;font-family:Arial;-inkscape-font-specification:'Arial, Bold';font-variant-ligatures:normal;font-variant-caps:normal;font-variant-numeric:normal;font-variant-east-asian:normal;fill:#ffffff;fill-opacity:1;stroke:#000000;stroke-width:0;stroke-linejoin:bevel;stroke-miterlimit:3.3;stroke-dashoffset:370.663"
         x="59.254349"
         y="190.98645"
         id="text7-7"
         inkscape:label="TITLE Effect"><tspan
           sodipodi:role="line"
           id="tspan7-8"
           style="font-style:normal;font-variant:normal;font-weight:bold;font-stretch:normal;font-size:4.93889px;font-family:Arial;-inkscape-font-specification:'Arial, Bold';font-variant-ligatures:normal;font-variant-caps:normal;font-variant-numeric:normal;font-variant-east-asian:normal;stroke-width:0"
           x="59.254349"
           y="190.98645">EFFECT</tspan></text><text
         xml:space="preserve"
         style="font-style:normal;font-variant:normal;font-weight:bold;font-stretch:normal;font-size:4.23333px;font-family:Arial;-inkscape-font-specification:'Arial, Bold';font-variant-ligatures:normal;font-variant-caps:normal;font-variant-numeric:normal;font-variant-east-asian:normal;fill:#ffffff;fill-opacity:1;stroke:#000000;stroke-width:0;stroke-linejoin:bevel;stroke-miterlimit:3.3;stroke-dashoffset:370.663"
         x="59.507565"
         y="157.39973"
         id="text7"
         inkscape:label="TITLE Trigger"><tspan
           sodipodi:role="line"
           id="tspan7"
           style="font-style:normal;font-variant:normal;font-weight:bold;font-stretch:normal;font-size:4.93889px;font-family:Arial;-inkscape-font-specification:'Arial, Bold';font-variant-ligatures:normal;font-variant-caps:normal;font-variant-numeric:normal;font-variant-east-asian:normal;stroke-width:0"
           x="59.507565"
           y="157.39973">TRIGGER</tspan></text></g><g
       id="g5"
       inkscape:label="Card Icons"
       transform="translate(64.513491,10.851143)"
       style="display:inline;fill:#ffffff;fill-opacity:1"><path
         fill="currentColor"
         d="m 40.328175,89.726111 -8.807233,5.07536 2.537683,4.40361 6.26955,-3.5826 6.26955,3.5826 2.53767,-4.40361 z m -13.210844,7.61303 -8.881868,5.075349 v 10.22534 h 5.149989 v -7.23984 l 6.26955,-3.65724 z m 26.421684,0 -2.53768,4.403609 6.26955,3.65724 v 7.23984 h 5.14999 V 102.41449 Z M 18.235463,117.71518 v 10.22535 l 8.881868,5.07535 2.537671,-4.40362 -6.26955,-3.65724 v -7.23984 z m 39.035422,0 v 7.23984 l -6.26955,3.65724 2.53768,4.40362 8.88186,-5.07535 v -10.22535 z m -23.21226,13.43476 -2.537683,4.40361 8.807233,5.07535 8.80722,-5.07535 -2.53767,-4.40361 -6.26955,3.65724 z m 6.26955,-26.19778 8.80722,5.15 v 10.1507 l -8.80722,5.14999 -8.807233,-5.14999 v -10.1507 z"
         id="path1-7"
         style="display:inline;fill:#999900;fill-opacity:1;stroke-width:0.0746377"
         inkscape:label="Trait logo" /><g
         id="g8"
         inkscape:label="Manufacturer Logos"
         transform="translate(-44.714582,70.114581)"
         style="display:inline;fill:#1e1e1e;fill-opacity:1;stroke-width:0.6;stroke-dasharray:none"><path
           id="path6"
           style="display:inline;fill:#1e1e1e;fill-opacity:1;stroke:#126127;stroke-width:31.8544;stroke-dasharray:none;stroke-opacity:1"
           d="m 540.01073,168.85823 c -12.14998,0 -23.17632,4.82772 -31.2763,12.6477 -8.49998,8.17998 -13.79998,19.6463 -13.79998,32.34628 0,24.84996 20.18632,44.99398 45.07628,44.99398 24.87994,0 45.04885,-20.14402 45.04885,-44.99398 0,-12.70998 -5.29257,-24.1663 -13.77255,-32.34628 -8.10998,-7.81998 -19.12632,-12.6477 -31.2763,-12.6477 z m -94.73427,3.84095 c -0.92008,0.0577 -1.87334,0.25102 -2.82584,0.63102 -16.64994,6.63996 -32.7568,15.068 -48.06674,25.26796 l -8.09343,5.34989 c -68.03972,45.30982 -143.02487,79.07194 -221.92455,100.00186 -8.58998,2.27998 -9.10328,14.25453 -0.71332,17.17453 31.75986,11.06994 108.42465,46.11199 164.69441,72.40189 42.32984,19.76992 75.3008,55.13257 91.99074,98.71239 33.43986,87.33966 89.83991,320.4796 111.46983,411.96924 2.18998,9.24996 15.36119,9.22248 17.53119,-0.0274 21.41992,-91.42962 77.26486,-324.20548 110.45472,-411.58514 16.62994,-43.78982 49.67551,-79.33887 92.15535,-99.17879 56.24978,-26.2699 132.71018,-61.23221 164.42006,-72.29215 8.36996,-2.92 7.86664,-14.89455 -0.71332,-17.17453 -78.89968,-20.94 -153.88482,-54.70208 -221.92456,-100.0019 l -8.09343,-5.34989 c -15.30994,-10.19996 -31.41679,-18.628 -48.06673,-25.26796 -7.51998,-3 -14.94054,4.89133 -11.44054,12.18129 6.73996,14.04994 10.13597,29.99221 9.13597,46.83215 -2.82,47.3798 -41.05919,85.9772 -88.47901,89.2472 -55.75978,3.83998 -102.19668,-40.21372 -102.19668,-95.0635 0,-14.61994 3.29086,-28.44384 9.19084,-40.8238 3.07998,-6.47498 -2.06444,-13.4085 -8.50496,-13.00436 z"
           inkscape:label="HORUS Logo"
           transform="matrix(0.01883571,0,0,0.01883571,35.138551,10.730114)" /></g><g
         id="g7"
         transform="translate(0.66145833,-0.26458231)"
         inkscape:label="Text Icons"
         style="display:inline;fill:#ffffff;fill-opacity:1"><path
           fill="currentColor"
           d="m 72.773638,166.18996 q -0.15732,0 -0.26525,0.10976 -0.10792,0.10975 -0.10792,0.26707 v 1.5 q -0.12073,0.0878 -0.18659,0.21951 -0.0659,0.13171 -0.0659,0.27805 0,0.25976 0.18293,0.44268 0.18293,0.18293 0.44268,0.18293 0.25976,0 0.44268,-0.18293 0.18293,-0.18292 0.18293,-0.44268 0,-0.14634 -0.0659,-0.27805 -0.0659,-0.13171 -0.18658,-0.21951 v -1.5 q 0,-0.15732 -0.10793,-0.26707 -0.10793,-0.10976 -0.26524,-0.10976 z m -0.12439,1.12683 h 0.24878 v 0.89634 q 0.11341,0.0366 0.1811,0.13354 0.0677,0.0969 0.0677,0.21768 0,0.15366 -0.10976,0.26341 -0.10976,0.10976 -0.26341,0.10976 -0.15366,0 -0.26342,-0.10976 -0.10976,-0.10975 -0.10976,-0.26341 0,-0.12073 0.0677,-0.21768 0.0677,-0.0969 0.1811,-0.13354 z m 0.75,0.12439 h 0.49756 v 0.24878 h -0.49756 z m 0,-0.62561 h 0.49756 v 0.24878 h -0.49756 z"
           id="path1-36-2"
           style="fill:#ffffff;fill-opacity:1;stroke-width:0.00365855"
           inkscape:label="heat icon" /><path
           fill="currentColor"
           d="m 76.138504,190.26787 q -0.15732,0 -0.26525,0.10976 -0.10792,0.10975 -0.10792,0.26707 v 1.5 q -0.12073,0.0878 -0.18659,0.21951 -0.0659,0.13171 -0.0659,0.27805 0,0.25976 0.18293,0.44268 0.18293,0.18293 0.44268,0.18293 0.25976,0 0.44268,-0.18293 0.18293,-0.18292 0.18293,-0.44268 0,-0.14634 -0.0659,-0.27805 -0.0659,-0.13171 -0.18658,-0.21951 v -1.5 q 0,-0.15732 -0.10793,-0.26707 -0.10793,-0.10976 -0.26524,-0.10976 z m -0.12439,1.12683 h 0.24878 v 0.89634 q 0.11341,0.0366 0.1811,0.13354 0.0677,0.0969 0.0677,0.21768 0,0.15366 -0.10976,0.26341 -0.10976,0.10976 -0.26341,0.10976 -0.15366,0 -0.26342,-0.10976 -0.10976,-0.10975 -0.10976,-0.26341 0,-0.12073 0.0677,-0.21768 0.0677,-0.0969 0.1811,-0.13354 z m 0.75,0.12439 h 0.49756 v 0.24878 h -0.49756 z m 0,-0.62561 h 0.49756 v 0.24878 h -0.49756 z"
           id="path1-36-2-7"
           style="display:inline;fill:#ffffff;fill-opacity:1;stroke-width:0.00365855"
           inkscape:label="heat icon" /></g></g><rect
       style="display:inline;fill:#126127;fill-opacity:1;stroke:#000000;stroke-width:0;stroke-linejoin:bevel;stroke-miterlimit:3.3;stroke-dashoffset:370.663"
       id="rect2"
       width="101.59982"
       height="18.07555"
       x="54.045109"
       y="72.266876"
       inkscape:label="Card Title Backing" /><text
       xml:space="preserve"
       style="font-style:normal;font-variant:normal;font-weight:bold;font-stretch:normal;font-size:10.5833px;line-height:0.8;font-family:Arial;-inkscape-font-specification:'Arial, Bold';font-variant-ligatures:normal;font-variant-position:normal;font-variant-caps:normal;font-variant-numeric:normal;font-variant-alternates:normal;font-variant-east-asian:normal;text-indent:0;text-align:center;text-decoration-line:none;text-decoration-style:solid;text-decoration-color:#000000;letter-spacing:normal;word-spacing:normal;text-transform:none;writing-mode:lr-tb;direction:ltr;text-orientation:mixed;dominant-baseline:auto;baseline-shift:baseline;text-anchor:middle;white-space:pre;inline-size:77.1889;display:inline;vector-effect:none;fill:#ffffff;fill-opacity:1;stroke:#000000;stroke-width:0;stroke-linecap:butt;stroke-linejoin:bevel;stroke-miterlimit:3.3;stroke-dasharray:none;stroke-dashoffset:370.663;stroke-opacity:1;-inkscape-stroke:none;stop-color:#000000"
       x="104.94299"
       y="83.013756"
       id="text7-0-9-5"
       inkscape:label="Card Title"
       transform="translate(-0.12836812,2.0761821)"><tspan
         x="104.94299"
         y="83.013756"
         id="tspan30">SOUL VESSEL</tspan></text><g
       id="g1"
       inkscape:label="Activation Icons"
       style="display:inline;fill:#ffffff;fill-opacity:1"><g
         id="g4"
         inkscape:label="Activate"
         style="display:inline;fill:#ffffff;fill-opacity:1"><path
           fill="currentColor"
           d="m 148.41047,75.045442 -6.25921,6.259209 0.40123,0.385182 5.85798,5.874027 6.25921,-6.259209 z m 0,1.556778 4.70243,4.702431 -4.70243,4.702431 -4.70243,-4.702431 z m -1.09135,2.198747 q -0.72221,0.320986 -1.18764,0.995055 -0.46543,0.674068 -0.46543,1.508629 0,1.123449 0.81049,1.933935 0.81049,0.810488 1.93393,0.810488 1.12345,0 1.93394,-0.810488 0.81049,-0.810486 0.81049,-1.933935 0,-0.834561 -0.46543,-1.508629 -0.46543,-0.674069 -1.18765,-0.995055 v 1.283941 q 0.25679,0.22469 0.40123,0.537651 0.14445,0.312959 0.14445,0.682092 0,0.690118 -0.47346,1.163572 -0.47345,0.473453 -1.16357,0.473453 -0.69011,0 -1.16357,-0.473453 -0.47345,-0.473454 -0.47345,-1.163572 0,-0.369133 0.14444,-0.682092 0.14445,-0.312961 0.40123,-0.537651 z m 0.54568,-0.786412 v 3.290096 h 1.09135 v -3.290096 z"
           id="path1-3-9"
           style="display:inline;fill:#ffffff;fill-opacity:1;stroke-width:0.0160494"
           inkscape:label="Activate Right" /><path
           fill="currentColor"
           d="m 61.304229,75.046003 -6.259208,6.259209 0.401231,0.385182 5.857977,5.874027 6.25921,-6.259209 z m 0,1.556778 4.702432,4.702431 -4.702432,4.702431 -4.70243,-4.702431 z m -1.091348,2.198747 q -0.722216,0.320986 -1.187645,0.995055 -0.465428,0.674068 -0.465428,1.508629 0,1.123449 0.810487,1.933935 0.810488,0.810488 1.933934,0.810488 1.123448,0 1.933936,-0.810488 0.810488,-0.810486 0.810488,-1.933935 0,-0.834561 -0.465429,-1.508629 -0.465429,-0.674069 -1.187645,-0.995055 v 1.283941 q 0.256789,0.22469 0.401232,0.537651 0.144442,0.312959 0.144442,0.682092 0,0.690118 -0.473452,1.163572 -0.473454,0.473453 -1.163572,0.473453 -0.690116,0 -1.16357,-0.473453 -0.473452,-0.473454 -0.473452,-1.163572 0,-0.369133 0.144443,-0.682092 0.144443,-0.312961 0.401231,-0.537651 z m 0.545674,-0.786412 v 3.290096 h 1.09135 v -3.290096 z"
           id="path1-3"
           style="display:inline;fill:#ffffff;fill-opacity:1;stroke-width:0.0160494"
           inkscape:label="Activate Left" /></g></g></g></svg>
