<?xml version="1.0" encoding="UTF-8" standalone="no"?>
<!-- Created with Inkscape (http://www.inkscape.org/) -->

<svg
   width="101.6mm"
   height="152.40001mm"
   viewBox="0 0 101.6 152.40001"
   version="1.1"
   id="svg1"
   xml:space="preserve"
   inkscape:version="1.3.1 (91b66b0783, 2023-11-16)"
   sodipodi:docname="Brace.svg"
   inkscape:export-filename="Overwatch.svg"
   inkscape:export-xdpi="96"
   inkscape:export-ydpi="96"
   xmlns:inkscape="http://www.inkscape.org/namespaces/inkscape"
   xmlns:sodipodi="http://sodipodi.sourceforge.net/DTD/sodipodi-0.dtd"
   xmlns="http://www.w3.org/2000/svg"
   xmlns:svg="http://www.w3.org/2000/svg"><sodipodi:namedview
     id="namedview1"
     pagecolor="#ffffff"
     bordercolor="#000000"
     borderopacity="0.25"
     inkscape:showpageshadow="2"
     inkscape:pageopacity="0.0"
     inkscape:pagecheckerboard="true"
     inkscape:deskcolor="#d1d1d1"
     inkscape:document-units="mm"
     inkscape:zoom="1.4142136"
     inkscape:cx="139.30003"
     inkscape:cy="274.00387"
     inkscape:window-width="1920"
     inkscape:window-height="1009"
     inkscape:window-x="-8"
     inkscape:window-y="-8"
     inkscape:window-maximized="1"
     inkscape:current-layer="layer1"
     inkscape:clip-to-page="true"
     showgrid="false" /><defs
     id="defs1"><rect
       x="21"
       y="490"
       width="341.37869"
       height="135.94322"
       id="rect10" /><rect
       x="35.355339"
       y="130.10765"
       width="361.7666"
       height="517.56348"
       id="rect13-8" /><rect
       x="21"
       y="490"
       width="344.52515"
       height="65.737793"
       id="rect10-0" /><rect
       x="21"
       y="490"
       width="346.5"
       height="75"
       id="rect10-4" /><rect
       x="8"
       y="376"
       width="370.94974"
       height="185.12132"
       id="rect5-2" /></defs><g
     inkscape:label="Layer 1"
     inkscape:groupmode="layer"
     id="layer1"
     transform="translate(-54.045021,-72.300003)"><path
       id="rect3-8"
       style="fill:#000000;fill-opacity:1;stroke:#e36600;stroke-width:0.6;stroke-linecap:round;stroke-linejoin:bevel;stroke-miterlimit:3.3;stroke-dasharray:none;stroke-dashoffset:370.663;stroke-opacity:1"
       d="m 56.704283,93.750003 -0.239262,0.23306 v 51.626297 l 12.69845,12.69793 h 83.801609 l 0.25322,-0.25321 V 106.4562 L 140.51261,93.750003 Z"
       inkscape:label="Window Background" /><path
       id="rect1"
       style="fill:#333333;fill-opacity:1;stroke:none;stroke-width:0.5;stroke-linecap:butt;stroke-linejoin:bevel;stroke-miterlimit:3.3;stroke-dasharray:none;stroke-dashoffset:370.663;stroke-opacity:1"
       d="M 54.045539,72.300003 V 224.6969 H 155.64709 V 72.300003 Z m 2.669604,21.440954 h 83.808317 l 12.70569,12.706203 V 158.045 l -0.25322,0.25321 H 69.174331 L 56.475881,145.60028 V 93.974018 Z"
       sodipodi:nodetypes="cccccccccccccc"
       inkscape:label="Card Background"
       inkscape:export-filename="Acrobatics1Back.png"
       inkscape:export-xdpi="96"
       inkscape:export-ydpi="96" /><text
       xml:space="preserve"
       id="text10"
       style="font-style:normal;font-variant:normal;font-weight:normal;font-stretch:normal;font-size:13.3333px;font-family:Arial;-inkscape-font-specification:'Arial, Normal';font-variant-ligatures:normal;font-variant-caps:normal;font-variant-numeric:normal;font-variant-east-asian:normal;white-space:pre;shape-inside:url(#rect10);display:inline;fill:#ffffff;fill-opacity:1;stroke:#000000;stroke-width:0;stroke-linejoin:bevel;stroke-miterlimit:3.3;stroke-dashoffset:370.663"
       inkscape:label="BODY Effect"
       transform="matrix(0.26458333,0,0,0.26458333,54.045021,57.055029)"><tspan
         x="21"
         y="502.01003"
         id="tspan4">You count as having <tspan
   style="font-weight:bold"
   id="tspan3">RESISTANCE to all damage</tspan>,     </tspan><tspan
         x="21"
         y="518.67665"
         id="tspan5">and      from the triggering attack, and until the end of </tspan><tspan
         x="21"
         y="535.34328"
         id="tspan6">your next turn, all other attacks against you are made at </tspan><tspan
         x="21"
         y="552.00991"
         id="tspan9">+1    . Due to the stress of bracing, you <tspan
   style="font-weight:bold"
   id="tspan8">cannot take </tspan></tspan><tspan
         x="21"
         y="568.67653"
         id="tspan28"><tspan
   style="font-weight:bold"
   id="tspan11">reactions</tspan> until the <tspan
   style="font-weight:bold"
   id="tspan27">end of your next turn</tspan> and on that </tspan><tspan
         x="21"
         y="585.34316"
         id="tspan30">turn, you can only take <tspan
   style="font-weight:bold"
   id="tspan29">one quick action</tspan> – you cannot </tspan><tspan
         x="21"
         y="602.00978"
         id="tspan33"><tspan
   style="font-weight:bold"
   id="tspan31">OVERCHARGE</tspan>, <tspan
   style="font-weight:bold"
   id="tspan32">move</tspan> normally, take full actions, or take </tspan><tspan
         x="21"
         y="618.67641"
         id="tspan35"><tspan
   style="font-weight:bold"
   id="tspan34">free actions.</tspan> </tspan></text><text
       xml:space="preserve"
       id="text10-0"
       style="font-style:normal;font-variant:normal;font-weight:normal;font-stretch:normal;font-size:13.3333px;font-family:Arial;-inkscape-font-specification:'Arial, Normal';font-variant-ligatures:normal;font-variant-caps:normal;font-variant-numeric:normal;font-variant-east-asian:normal;white-space:pre;shape-inside:url(#rect10-0);display:inline;fill:#ffffff;fill-opacity:1;stroke:#000000;stroke-width:0;stroke-linejoin:bevel;stroke-miterlimit:3.3;stroke-dashoffset:370.663"
       inkscape:label="BODY Trigger"
       transform="matrix(0.26458333,0,0,0.26458333,53.927888,43.733341)"><tspan
         x="21"
         y="502.01003"
         id="tspan36">You are hit by an attack and damage has been rolled.</tspan></text><g
       id="g6"
       inkscape:label="Sub Titles"
       transform="translate(0,3.1750001)"><rect
         style="fill:#3e6a94;fill-opacity:1;stroke:#000000;stroke-width:0;stroke-linejoin:bevel;stroke-miterlimit:3.3;stroke-dashoffset:370.663"
         id="rect11-6"
         width="92.336441"
         height="5.8416877"
         x="58.551205"
         y="176.10431"
         inkscape:label="Effect Title Backing" /><rect
         style="fill:#3e6a94;fill-opacity:1;stroke:#000000;stroke-width:0;stroke-linejoin:bevel;stroke-miterlimit:3.3;stroke-dashoffset:370.663"
         id="rect11"
         width="92.336441"
         height="5.8416877"
         x="58.551205"
         y="162.68782"
         inkscape:label="Trigger Title Backing" /><text
         xml:space="preserve"
         style="font-style:normal;font-variant:normal;font-weight:bold;font-stretch:normal;font-size:4.23333px;font-family:Arial;-inkscape-font-specification:'Arial, Bold';font-variant-ligatures:normal;font-variant-caps:normal;font-variant-numeric:normal;font-variant-east-asian:normal;fill:#ffffff;fill-opacity:1;stroke:#000000;stroke-width:0;stroke-linejoin:bevel;stroke-miterlimit:3.3;stroke-dashoffset:370.663"
         x="59.254349"
         y="180.93242"
         id="text7-7"
         inkscape:label="TITLE Effect"><tspan
           sodipodi:role="line"
           id="tspan7-8"
           style="font-style:normal;font-variant:normal;font-weight:bold;font-stretch:normal;font-size:4.93889px;font-family:Arial;-inkscape-font-specification:'Arial, Bold';font-variant-ligatures:normal;font-variant-caps:normal;font-variant-numeric:normal;font-variant-east-asian:normal;stroke-width:0"
           x="59.254349"
           y="180.93242">EFFECT</tspan></text><text
         xml:space="preserve"
         style="font-style:normal;font-variant:normal;font-weight:bold;font-stretch:normal;font-size:4.23333px;font-family:Arial;-inkscape-font-specification:'Arial, Bold';font-variant-ligatures:normal;font-variant-caps:normal;font-variant-numeric:normal;font-variant-east-asian:normal;fill:#ffffff;fill-opacity:1;stroke:#000000;stroke-width:0;stroke-linejoin:bevel;stroke-miterlimit:3.3;stroke-dashoffset:370.663"
         x="59.507565"
         y="167.45377"
         id="text7"
         inkscape:label="TITLE Trigger"><tspan
           sodipodi:role="line"
           id="tspan7"
           style="font-style:normal;font-variant:normal;font-weight:bold;font-stretch:normal;font-size:4.93889px;font-family:Arial;-inkscape-font-specification:'Arial, Bold';font-variant-ligatures:normal;font-variant-caps:normal;font-variant-numeric:normal;font-variant-east-asian:normal;stroke-width:0"
           x="59.507565"
           y="167.45377">TRIGGER</tspan></text></g><g
       id="g5"
       inkscape:label="Card Icons"
       transform="translate(63.984324,10.851143)"
       style="fill:#3e6a94;fill-opacity:1"><path
         d="m 61.85902,112.84882 c 0,12.94898 -8.95931,25.05802 -20.99834,27.99774 C 28.821649,137.90684 19.862373,125.7978 19.862373,112.84882 V 98.849944 l 20.998307,-9.332557 20.99834,9.332557 v 13.998876 m -20.99834,23.33151 c 8.74929,-2.3332 16.33202,-12.73902 16.33202,-22.81821 V 101.88305 L 40.86068,94.603634 24.528667,101.88305 v 11.47907 c 0,10.07919 7.582711,20.48501 16.332013,22.81821 z"
         id="path1-51"
         style="display:inline;fill:#3e6a94;fill-opacity:1;stroke-width:2.33314"
         inkscape:label="Brace logo" /><g
         id="g7"
         transform="translate(0.66145833,-0.26458231)"
         inkscape:label="Text Icons"
         style="display:inline;fill:#ffffff;fill-opacity:1"><path
           fill="currentColor"
           d="m 76.548626,176.79323 -0.0867,0.0907 q 0,0 -0.20105,0.21878 -0.20105,0.2188 -0.22471,0.2661 -0.0237,0.0473 -0.16162,0.2326 -0.0986,0.20105 -0.0966,0.28778 0.003,0.0867 -0.0375,0.2523 -0.067,0.29172 -0.23455,0.41393 -0.16755,0.1222 -0.16755,0.52825 0,0.29567 0.17346,0.46123 0.17345,0.16558 0.38633,0.24836 -0.067,-0.0669 -0.11234,-0.14389 -0.0453,-0.0769 -0.0453,-0.1636 0,-0.10643 0.0867,-0.24836 0.0828,-0.13797 0.18331,-0.26216 0.10052,-0.12417 0.18725,-0.2109 l 0.0828,-0.0867 0.13009,0.0789 q 0.13009,0.0749 0.28581,0.19513 0.15572,0.12024 0.27792,0.26215 0.12615,0.14192 0.11432,0.27202 -0.008,0.0591 -0.0335,0.11827 -0.0256,0.0591 -0.0611,0.11431 0.19317,-0.10249 0.34494,-0.26017 0.15177,-0.15769 0.15177,-0.37452 0,-0.30354 -0.0631,-0.53219 -0.0631,-0.2247 -0.13798,-0.37647 -0.0749,-0.15178 -0.13798,-0.22668 l -0.0631,-0.0789 0.0355,0.27596 q 0,0 -0.16952,0.26413 -0.10249,-0.003 -0.15571,-0.1439 -0.0532,-0.13995 -0.11629,-0.25821 -0.0986,-0.20499 -0.18331,-0.272 -0.0848,-0.067 -0.0848,-0.26807 0,-0.30356 0.067,-0.48884 z"
           id="path1-0-7"
           style="fill:#ffffff;fill-opacity:1;stroke-width:0.00394219"
           inkscape:label="burn icon" /><path
           fill="currentColor"
           d="m 0.90892298,189.77263 -1.30205,0.7478 v 1.5044 l 1.30205,0.7478 1.30204992,-0.7478 v -1.5044 z m 0,0.34751 0.99853992,0.57624 v 1.1525 l -0.99853992,0.58064 -0.99853,-0.58064 v -1.1525 z m 0.75219992,1.30205 H 0.15672298 v -0.29912 H 1.6611229 Z"
           id="path1-08-6"
           style="fill:#ffffff;fill-opacity:1;stroke-width:0.00439884"
           inkscape:label="Difficulty icon" /><path
           fill="currentColor"
           d="m 3.6253324,180.95842 q -0.15732,0 -0.26525,0.10976 -0.10792,0.10975 -0.10792,0.26707 v 1.5 q -0.12073,0.0878 -0.18659,0.21951 -0.0659,0.13171 -0.0659,0.27805 0,0.25976 0.18293,0.44268 0.18293,0.18293 0.44268,0.18293 0.25976,0 0.44268,-0.18293 0.18293,-0.18292 0.18293,-0.44268 0,-0.14634 -0.0659,-0.27805 -0.0659,-0.13171 -0.18658,-0.21951 v -1.5 q 0,-0.15732 -0.10793,-0.26707 -0.10793,-0.10976 -0.26524,-0.10976 z m -0.12439,1.12683 h 0.24878 v 0.89634 q 0.11341,0.0366 0.1811,0.13354 0.0677,0.0969 0.0677,0.21768 0,0.15366 -0.10976,0.26341 -0.10976,0.10976 -0.26341,0.10976 -0.15366,0 -0.26342,-0.10976 -0.10976,-0.10975 -0.10976,-0.26341 0,-0.12073 0.0677,-0.21768 0.0677,-0.0969 0.1811,-0.13354 z m 0.75,0.12439 h 0.49756 v 0.24878 h -0.49756 z m 0,-0.62561 h 0.49756 v 0.24878 h -0.49756 z"
           id="path1-36-2"
           style="fill:#ffffff;fill-opacity:1;stroke-width:0.00365855"
           inkscape:label="heat icon" /></g></g><rect
       style="display:inline;fill:#e36600;fill-opacity:1;stroke:#000000;stroke-width:0;stroke-linejoin:bevel;stroke-miterlimit:3.3;stroke-dashoffset:370.663"
       id="rect2"
       width="101.59982"
       height="18.07555"
       x="54.045109"
       y="72.266876"
       inkscape:label="Card Title Backing" /><text
       xml:space="preserve"
       style="font-style:normal;font-variant:normal;font-weight:bold;font-stretch:normal;font-size:12.7px;line-height:0.8;font-family:Arial;-inkscape-font-specification:'Arial, Bold';font-variant-ligatures:normal;font-variant-position:normal;font-variant-caps:normal;font-variant-numeric:normal;font-variant-alternates:normal;font-variant-east-asian:normal;text-indent:0;text-align:center;text-decoration-line:none;text-decoration-style:solid;text-decoration-color:#000000;letter-spacing:normal;word-spacing:normal;text-transform:none;writing-mode:lr-tb;direction:ltr;text-orientation:mixed;dominant-baseline:auto;baseline-shift:baseline;text-anchor:middle;white-space:pre;inline-size:77.1889;display:inline;vector-effect:none;fill:#ffffff;fill-opacity:1;stroke:#000000;stroke-width:0;stroke-linecap:butt;stroke-linejoin:bevel;stroke-miterlimit:3.3;stroke-dasharray:none;stroke-dashoffset:370.663;stroke-opacity:1;-inkscape-stroke:none;stop-color:#000000"
       x="104.94299"
       y="83.013756"
       id="text7-0-9-5"
       inkscape:label="Card Title"
       transform="translate(-0.24618977,2.8363544)"><tspan
         x="104.94299"
         y="83.013756"
         id="tspan37">BRACE</tspan></text><g
       id="g1"
       inkscape:label="Activation Icons"
       style="display:inline"><g
         id="g4"
         inkscape:label="Activate"
         style="display:inline"><path
           fill="currentColor"
           d="m 148.41047,75.045442 -6.25921,6.259209 0.40123,0.385182 5.85798,5.874027 6.25921,-6.259209 z m 0,1.556778 4.70243,4.702431 -4.70243,4.702431 -4.70243,-4.702431 z m -1.09135,2.198747 q -0.72221,0.320986 -1.18764,0.995055 -0.46543,0.674068 -0.46543,1.508629 0,1.123449 0.81049,1.933935 0.81049,0.810488 1.93393,0.810488 1.12345,0 1.93394,-0.810488 0.81049,-0.810486 0.81049,-1.933935 0,-0.834561 -0.46543,-1.508629 -0.46543,-0.674069 -1.18765,-0.995055 v 1.283941 q 0.25679,0.22469 0.40123,0.537651 0.14445,0.312959 0.14445,0.682092 0,0.690118 -0.47346,1.163572 -0.47345,0.473453 -1.16357,0.473453 -0.69011,0 -1.16357,-0.473453 -0.47345,-0.473454 -0.47345,-1.163572 0,-0.369133 0.14444,-0.682092 0.14445,-0.312961 0.40123,-0.537651 z m 0.54568,-0.786412 v 3.290096 h 1.09135 v -3.290096 z"
           id="path1-3-9"
           style="display:inline;fill:#ffffff;stroke-width:0.0160494"
           inkscape:label="Activate Right" /><path
           fill="currentColor"
           d="m 61.304229,75.046003 -6.259208,6.259209 0.401231,0.385182 5.857977,5.874027 6.25921,-6.259209 z m 0,1.556778 4.702432,4.702431 -4.702432,4.702431 -4.70243,-4.702431 z m -1.091348,2.198747 q -0.722216,0.320986 -1.187645,0.995055 -0.465428,0.674068 -0.465428,1.508629 0,1.123449 0.810487,1.933935 0.810488,0.810488 1.933934,0.810488 1.123448,0 1.933936,-0.810488 0.810488,-0.810486 0.810488,-1.933935 0,-0.834561 -0.465429,-1.508629 -0.465429,-0.674069 -1.187645,-0.995055 v 1.283941 q 0.256789,0.22469 0.401232,0.537651 0.144442,0.312959 0.144442,0.682092 0,0.690118 -0.473452,1.163572 -0.473454,0.473453 -1.163572,0.473453 -0.690116,0 -1.16357,-0.473453 -0.473452,-0.473454 -0.473452,-1.163572 0,-0.369133 0.144443,-0.682092 0.144443,-0.312961 0.401231,-0.537651 z m 0.545674,-0.786412 v 3.290096 h 1.09135 v -3.290096 z"
           id="path1-3"
           style="display:inline;fill:#ffffff;stroke-width:0.0160494"
           inkscape:label="Activate Left" /></g></g></g></svg>
