<?xml version="1.0" encoding="UTF-8" standalone="no"?>
<!-- Created with Inkscape (http://www.inkscape.org/) -->

<svg
   width="101.6mm"
   height="152.40001mm"
   viewBox="0 0 101.6 152.40001"
   version="1.1"
   id="svg1"
   xml:space="preserve"
   inkscape:version="1.3.1 (91b66b0783, 2023-11-16)"
   sodipodi:docname="SpatialAwareness.svg"
   inkscape:export-filename="Horus\FinalSecretBack.svg"
   inkscape:export-xdpi="96"
   inkscape:export-ydpi="96"
   xmlns:inkscape="http://www.inkscape.org/namespaces/inkscape"
   xmlns:sodipodi="http://sodipodi.sourceforge.net/DTD/sodipodi-0.dtd"
   xmlns="http://www.w3.org/2000/svg"
   xmlns:svg="http://www.w3.org/2000/svg"><sodipodi:namedview
     id="namedview1"
     pagecolor="#ffffff"
     bordercolor="#000000"
     borderopacity="0.25"
     inkscape:showpageshadow="2"
     inkscape:pageopacity="0.0"
     inkscape:pagecheckerboard="true"
     inkscape:deskcolor="#d1d1d1"
     inkscape:document-units="mm"
     inkscape:zoom="1"
     inkscape:cx="49"
     inkscape:cy="343.5"
     inkscape:window-width="1920"
     inkscape:window-height="1009"
     inkscape:window-x="1912"
     inkscape:window-y="-8"
     inkscape:window-maximized="1"
     inkscape:current-layer="layer1"
     inkscape:clip-to-page="true"
     showgrid="false" /><defs
     id="defs1"><rect
       x="21"
       y="490"
       width="344.87869"
       height="162.94322"
       id="rect10" /><rect
       x="21"
       y="490"
       width="340.11093"
       height="55.982964"
       id="rect10-0" /></defs><g
     inkscape:label="Layer 1"
     inkscape:groupmode="layer"
     id="layer1"
     transform="translate(-54.045021,-72.300003)"><path
       id="rect3-8"
       style="fill:#eee8d5;fill-opacity:1;stroke:#d1920a;stroke-width:0.6;stroke-linecap:round;stroke-linejoin:bevel;stroke-miterlimit:3.3;stroke-dasharray:none;stroke-dashoffset:370.663;stroke-opacity:1"
       d="m 56.704283,93.750003 -0.239262,0.23306 v 51.626307 l 12.69845,12.69792 h 83.801609 l 0.25322,-0.25321 V 106.4562 L 140.51262,93.750003 Z"
       inkscape:label="Window Background" /><text
       xml:space="preserve"
       style="font-weight:bold;font-size:14.1111px;line-height:1.5;font-family:Arial;-inkscape-font-specification:'Arial, Bold';text-align:end;text-anchor:end;display:inline;fill:#000000;fill-opacity:0;stroke:#d1920a;stroke-width:0.5;stroke-linecap:round;stroke-linejoin:bevel;stroke-miterlimit:3.3;stroke-dasharray:none;stroke-dashoffset:370.663;stroke-opacity:1"
       x="152.06741"
       y="157.2262"
       id="text1"
       inkscape:label="Expansion ID"><tspan
         sodipodi:role="line"
         style="font-style:normal;font-variant:normal;font-weight:bold;font-stretch:normal;font-size:8.46667px;font-family:Arial;-inkscape-font-specification:'Arial, Bold';font-variant-ligatures:normal;font-variant-caps:normal;font-variant-numeric:normal;font-variant-east-asian:normal;text-align:end;text-anchor:end;stroke:#d1920a;stroke-width:0.5;stroke-dasharray:none;stroke-opacity:1"
         x="152.06741"
         y="157.2262"
         id="tspan2">SSMR</tspan></text><path
       id="rect1"
       style="fill:#eadbcb;fill-opacity:1;stroke:none;stroke-width:0.5;stroke-linecap:butt;stroke-linejoin:bevel;stroke-miterlimit:3.3;stroke-dasharray:none;stroke-dashoffset:370.663;stroke-opacity:1"
       d="M 54.045539,72.300003 V 224.6969 H 155.64709 V 72.300003 Z m 2.669604,21.440954 h 83.808317 l 12.70569,12.706203 V 158.045 l -0.25322,0.25321 H 69.174331 L 56.475881,145.60028 V 93.974018 Z"
       sodipodi:nodetypes="cccccccccccccc"
       inkscape:label="Card Background"
       inkscape:export-filename="Acrobatics1Back.png"
       inkscape:export-xdpi="96"
       inkscape:export-ydpi="96" /><text
       xml:space="preserve"
       id="text10"
       style="font-style:normal;font-variant:normal;font-weight:normal;font-stretch:normal;font-size:13.3333px;font-family:Arial;-inkscape-font-specification:'Arial, Normal';font-variant-ligatures:normal;font-variant-caps:normal;font-variant-numeric:normal;font-variant-east-asian:normal;white-space:pre;shape-inside:url(#rect10);display:inline;fill:#22211f;fill-opacity:1;stroke:#000000;stroke-width:0;stroke-linejoin:bevel;stroke-miterlimit:3.3;stroke-dashoffset:370.663"
       inkscape:label="BODY Effect"
       transform="matrix(0.26458333,0,0,0.26458333,54.045021,54.938361)"><tspan
         x="21"
         y="502.01003"
         id="tspan3">You may <tspan
   style="font-weight:bold"
   id="tspan1">BOOST</tspan>, ignoring reactions and engagement. </tspan><tspan
         x="21"
         y="518.67665"
         id="tspan5">After doing so, attacks against you receive <tspan
   style="font-weight:bold"
   id="tspan4">+1</tspan>    until the </tspan><tspan
         x="21"
         y="535.34328"
         id="tspan8">end of your next turn.</tspan></text><text
       xml:space="preserve"
       id="text10-0"
       style="font-style:normal;font-variant:normal;font-weight:normal;font-stretch:normal;font-size:13.3333px;font-family:Arial;-inkscape-font-specification:Arial;font-variant-ligatures:normal;font-variant-caps:normal;font-variant-numeric:normal;font-variant-east-asian:normal;white-space:pre;shape-inside:url(#rect10-0);display:inline;fill:#22211f;fill-opacity:1;stroke:#000000;stroke-width:0;stroke-linejoin:bevel;stroke-miterlimit:3.3;stroke-dashoffset:370.663"
       inkscape:label="BODY Trigger"
       transform="matrix(0.26458333,0,0,0.26458333,53.927888,38.970838)"><tspan
         x="21"
         y="502.01003"
         id="tspan9">A character ends a movement adjacent to you.</tspan></text><g
       id="g6"
       inkscape:label="Sub Titles"
       transform="translate(0,6.3500003)"><g
         id="g10"
         inkscape:label="Trigger"
         style="fill:#061a1f;fill-opacity:1"><rect
           style="fill:#061a1f;fill-opacity:1;stroke:#000000;stroke-width:0;stroke-linejoin:bevel;stroke-miterlimit:3.3;stroke-dashoffset:370.663"
           id="rect11"
           width="92.336441"
           height="5.8416877"
           x="58.551205"
           y="155.80875"
           inkscape:label="Trigger Backdrop" /><text
           xml:space="preserve"
           style="font-style:normal;font-variant:normal;font-weight:bold;font-stretch:normal;font-size:4.23333px;font-family:Arial;-inkscape-font-specification:'Arial, Bold';font-variant-ligatures:normal;font-variant-caps:normal;font-variant-numeric:normal;font-variant-east-asian:normal;fill:#ffffff;fill-opacity:1;stroke:#000000;stroke-width:0;stroke-linejoin:bevel;stroke-miterlimit:3.3;stroke-dashoffset:370.663"
           x="59.507565"
           y="160.57469"
           id="text7"
           inkscape:label="TITLE Trigger"><tspan
             sodipodi:role="line"
             id="tspan7"
             style="font-style:normal;font-variant:normal;font-weight:bold;font-stretch:normal;font-size:4.93889px;font-family:Arial;-inkscape-font-specification:'Arial, Bold';font-variant-ligatures:normal;font-variant-caps:normal;font-variant-numeric:normal;font-variant-east-asian:normal;fill:#ffffff;fill-opacity:1;stroke-width:0"
             x="59.507565"
             y="160.57469">TRIGGER</tspan></text></g><g
         id="g11"
         inkscape:label="Title"
         style="fill:#061a1f;fill-opacity:1"
         transform="translate(0,-3.7041668)"><rect
           style="fill:#061a1f;fill-opacity:1;stroke:#000000;stroke-width:0;stroke-linejoin:bevel;stroke-miterlimit:3.3;stroke-dashoffset:370.663"
           id="rect11-6"
           width="92.336441"
           height="5.8416877"
           x="58.551205"
           y="175.57515"
           inkscape:label="Effect Backdrop" /><text
           xml:space="preserve"
           style="font-style:normal;font-variant:normal;font-weight:bold;font-stretch:normal;font-size:4.23333px;font-family:Arial;-inkscape-font-specification:'Arial, Bold';font-variant-ligatures:normal;font-variant-caps:normal;font-variant-numeric:normal;font-variant-east-asian:normal;fill:#ffffff;fill-opacity:1;stroke:#000000;stroke-width:0;stroke-linejoin:bevel;stroke-miterlimit:3.3;stroke-dashoffset:370.663"
           x="59.254349"
           y="180.40326"
           id="text7-7"
           inkscape:label="TITLE Effect"><tspan
             sodipodi:role="line"
             id="tspan7-8"
             style="font-style:normal;font-variant:normal;font-weight:bold;font-stretch:normal;font-size:4.93889px;font-family:Arial;-inkscape-font-specification:'Arial, Bold';font-variant-ligatures:normal;font-variant-caps:normal;font-variant-numeric:normal;font-variant-east-asian:normal;fill:#ffffff;fill-opacity:1;stroke-width:0"
             x="59.254349"
             y="180.40326">EFFECT</tspan></text></g></g><g
       id="g5"
       inkscape:label="Card Icons"
       transform="translate(64.513491,10.851143)"
       style="display:inline;fill:#ffffff;fill-opacity:1"><path
         fill="currentColor"
         d="m 45.413213,89.6775 -4.561584,4.56158 -3.813782,-3.81378 -3.589444,3.58945 3.813783,3.81378 -5.309383,5.30939 -3.888563,-3.813792 -3.589443,3.589452 3.813782,3.88857 -5.309383,5.30938 -3.813783,-3.81379 -3.589444,3.58944 3.813784,3.81379 -4.561584,4.56158 v 2.54252 l 17.872434,17.87244 h 2.542522 l 4.561584,-4.56158 3.813782,3.81378 3.589444,-3.58944 -3.813783,-3.81379 5.384164,-5.30939 3.813782,3.81379 3.589444,-3.58944 -3.813783,-3.88856 5.309383,-5.30939 3.813783,3.81379 3.589446,-3.58944 -3.813785,-3.81379 4.561582,-4.56158 v -2.54253 L 47.955735,89.6775 Z m 0,12.71262 7.702345,7.70235 -17.872433,17.87242 -7.702346,-7.70234 z"
         id="path1-56-4"
         style="display:inline;fill:#685d99;fill-opacity:1;stroke:none;stroke-width:2;stroke-linecap:round;stroke-dasharray:none;stroke-opacity:1"
         inkscape:label="System Logo" /><g
         id="g8"
         inkscape:label="Manufacturer Logos"
         transform="translate(-44.714582,70.114581)"
         style="display:inline;fill:#eadbcb;fill-opacity:1;stroke-width:0.5;stroke-dasharray:none"><path
           id="path8"
           style="display:inline;fill:#eadbcb;fill-opacity:1;stroke:#d1920a;stroke-width:30.2662;stroke-dasharray:none;stroke-opacity:1"
           d="m 847.49,705.04 c 0,0 -41.57,-71.2 -82.03,-82.11 L 586.1,574.58 c -6.48,-1.75 -12.43,4.19 -10.71,10.7 l 47.49,180.05 c 0.36,1.35 0.74,2.7 1.14,4.03 12.52,41.63 51.9,69.54 95.58,69.54 h 187.02 c 6.93,0 11.45,-7.27 8.33,-13.43 C 883.89,764.24 847.49,705.04 847.49,705.04 Z M 637.88,864.35 c -28.19,-21.29 -48.8,-51.66 -58.27,-87.54 l -31.4,-119.05 c -1.05,-3.99 -4.21,-6.12 -7.55,-6.45 v -0.04 c -0.22,-0.01 -0.44,0.01 -0.66,0.02 -0.22,-0.01 -0.44,-0.03 -0.66,-0.02 v 0.04 c -3.34,0.32 -6.5,2.46 -7.55,6.45 l -31.4,119.05 c -9.46,35.89 -30.07,66.25 -58.27,87.54 -3.23,2.44 -4.23,6.91 -2.21,10.41 0.01,0.02 0.02,0.04 0.04,0.06 20.84,36.07 57.92,57.69 99.39,58.1 v 0.04 c 0.22,0 0.44,-0.02 0.66,-0.02 0.22,0 0.44,0.02 0.66,0.02 v -0.04 c 41.47,-0.41 78.55,-22.03 99.39,-58.1 0.01,-0.02 0.02,-0.04 0.04,-0.06 2.02,-3.51 1.01,-7.98 -2.21,-10.41 z M 932.94,540 c 0.03,-0.54 0.03,-1.08 0.03,-1.62 h -0.05 c -1.06,-40.76 -22.55,-77.06 -57.94,-97.62 -0.03,0 -0.05,-0.03 -0.08,-0.03 -3.49,-2.03 -7.94,-1 -10.37,2.21 -21.23,28.28 -51.5,48.94 -87.32,58.43 l -118.71,31.5 c -2.9,0.77 -4.84,2.65 -5.79,4.91 H 652 c 0,0.59 0.05,1.18 0.16,1.75 -0.03,0.15 0,0.31 -0.03,0.46 h -0.05 c 0.03,0.31 0.03,0.62 0.1,0.93 -0.13,0.57 -0.18,1.16 -0.18,1.75 h 0.7 c 0.96,2.29 2.87,4.17 5.79,4.94 l 118.59,31.98 c 35.74,9.65 65.95,30.41 87.06,58.77 2.43,3.24 6.85,4.27 10.4,2.26 0.03,0 0.03,-0.03 0.05,-0.03 18.23,-10.5 32.82,-25.16 42.83,-42.51 9.47,-16.34 14.9,-35.07 15.47,-54.86 h 0.08 c 0,-0.59 0,-1.16 -0.03,-1.75 0.03,-0.49 0.03,-1 0.03,-1.49 h -0.03 z M 623.79,315.02 575.56,494.88 c -1.74,6.5 4.18,12.46 10.67,10.74 L 765.79,458 c 40.66,-10.78 82.5,-82.24 82.5,-82.24 0,0 37.23,-59.74 68.68,-121.18 3.15,-6.16 -1.36,-13.46 -8.31,-13.46 H 721.41 c -43.97,0 -83.66,27.98 -96.46,69.83 -0.41,1.34 -0.8,2.7 -1.16,4.07 z M 457.12,765.33 504.61,585.28 c 1.72,-6.51 -4.23,-12.44 -10.71,-10.7 l -179.36,48.35 c -40.46,10.91 -82.03,82.11 -82.03,82.11 0,0 -36.39,59.19 -67.44,120.42 -3.12,6.16 1.39,13.43 8.33,13.43 h 187.02 c 43.68,0 83.05,-27.9 95.58,-69.54 0.39,-1.33 0.77,-2.67 1.12,-4.02 z M 205.41,640.61 c 0.03,0 0.03,0.03 0.05,0.03 3.54,2.01 7.97,0.98 10.4,-2.26 21.11,-28.36 51.31,-49.12 87.06,-58.77 l 118.59,-31.98 c 2.92,-0.77 4.84,-2.65 5.79,-4.94 h 0.7 c 0,-0.59 -0.05,-1.18 -0.18,-1.75 0.08,-0.31 0.08,-0.62 0.1,-0.93 h -0.05 c -0.03,-0.15 0,-0.31 -0.03,-0.46 0.1,-0.57 0.16,-1.16 0.16,-1.75 h -0.7 c -0.96,-2.26 -2.9,-4.14 -5.79,-4.91 L 302.79,501.4 c -35.82,-9.49 -66.08,-30.16 -87.32,-58.43 -2.43,-3.22 -6.88,-4.25 -10.37,-2.21 -0.03,0 -0.05,0.03 -0.08,0.03 -35.38,20.56 -56.88,56.87 -57.94,97.62 h -0.05 c 0,0.54 0,1.08 0.03,1.62 h -0.03 c 0,0.49 0,1 0.03,1.49 -0.03,0.59 -0.03,1.16 -0.03,1.75 h 0.08 c 0.57,19.79 6,38.52 15.47,54.86 10.01,17.31 24.6,31.98 42.83,42.48 z M 440.8,216.06 c 28.28,21.18 49.01,51.46 58.63,87.31 l 31.89,118.92 c 1.19,4.42 4.96,6.53 8.68,6.43 3.72,0.1 7.5,-2 8.68,-6.43 l 31.89,-118.92 c 9.61,-35.85 30.35,-66.13 58.63,-87.31 3.24,-2.42 4.26,-6.89 2.25,-10.4 -0.01,-0.02 -0.02,-0.04 -0.04,-0.06 -20.93,-36.58 -58.54,-58.47 -100.6,-58.56 v 0 c -0.27,0 -0.54,0.01 -0.81,0.03 -0.27,-0.01 -0.54,-0.03 -0.81,-0.03 v 0 c -42.06,0.09 -79.67,21.98 -100.6,58.56 -0.01,0.02 -0.02,0.04 -0.04,0.06 -2.01,3.51 -0.98,7.98 2.25,10.4 z M 231.72,375.75 c 0,0 41.83,71.45 82.5,82.24 l 179.56,47.62 c 6.49,1.72 12.41,-4.24 10.67,-10.74 L 456.22,315.01 c -0.37,-1.37 -0.76,-2.73 -1.17,-4.07 -12.8,-41.85 -52.48,-69.83 -96.46,-69.83 H 171.34 c -6.95,0 -11.46,7.3 -8.31,13.46 31.45,61.44 68.69,121.18 68.69,121.18 z"
           inkscape:label="SSC Logo"
           transform="matrix(0.0165201,0,0,0.0165201,35.919339,11.722164)"
           sodipodi:insensitive="true" /></g><g
         id="g7"
         transform="translate(0.66145833,-0.26458231)"
         inkscape:label="Text Icons"
         style="display:inline;fill:#ffffff;fill-opacity:1"><path
           fill="currentColor"
           d="m 67.21155,178.83703 -1.30205,0.7478 v 1.5044 l 1.30205,0.7478 1.30205,-0.7478 v -1.5044 z m 0,0.34751 0.99854,0.57624 v 1.1525 l -0.99854,0.58064 -0.99853,-0.58064 v -1.1525 z m 0.7522,1.30205 h -1.5044 v -0.29912 h 1.5044 z"
           id="path1-08-6"
           style="fill:#22211f;fill-opacity:1;stroke-width:0.00439884"
           inkscape:label="Difficulty icon" /></g></g><rect
       style="display:inline;fill:#d1920a;fill-opacity:1;stroke:#000000;stroke-width:0;stroke-linejoin:bevel;stroke-miterlimit:3.3;stroke-dashoffset:370.663"
       id="rect2"
       width="101.59982"
       height="18.07555"
       x="54.045109"
       y="72.266876"
       inkscape:label="Card Title Backing" /><text
       xml:space="preserve"
       style="font-style:normal;font-variant:normal;font-weight:bold;font-stretch:normal;font-size:10.2306px;line-height:0.8;font-family:Arial;-inkscape-font-specification:'Arial, Bold';font-variant-ligatures:normal;font-variant-position:normal;font-variant-caps:normal;font-variant-numeric:normal;font-variant-alternates:normal;font-variant-east-asian:normal;text-indent:0;text-align:center;text-decoration-line:none;text-decoration-style:solid;text-decoration-color:#000000;letter-spacing:normal;word-spacing:normal;text-transform:none;writing-mode:lr-tb;direction:ltr;text-orientation:mixed;dominant-baseline:auto;baseline-shift:baseline;text-anchor:middle;white-space:pre;inline-size:77.1889;display:inline;vector-effect:none;fill:#ffffff;fill-opacity:1;stroke:#000000;stroke-width:0;stroke-linecap:butt;stroke-linejoin:bevel;stroke-miterlimit:3.3;stroke-dasharray:none;stroke-dashoffset:370.663;stroke-opacity:1;-inkscape-stroke:none;stop-color:#000000"
       x="104.94299"
       y="83.013756"
       id="text7-0-9-5"
       inkscape:label="Card Title"
       transform="translate(0.1524079,-2.1422047)"><tspan
         x="104.94299"
         y="83.013756"
         id="tspan10">SPATIAL<tspan
   y="83.013756"
   id="tspan11"> </tspan></tspan><tspan
         x="104.94299"
         y="91.198232"
         id="tspan12">AWARENESS</tspan></text><g
       id="g1"
       inkscape:label="Activation Icons"
       style="display:inline;fill:#ffffff;fill-opacity:1"><g
         id="g4"
         inkscape:label="Activate"
         style="display:inline;fill:#ffffff;fill-opacity:1"><path
           fill="currentColor"
           d="m 148.41047,75.045442 -6.25921,6.259209 0.40123,0.385182 5.85798,5.874027 6.25921,-6.259209 z m 0,1.556778 4.70243,4.702431 -4.70243,4.702431 -4.70243,-4.702431 z m -1.09135,2.198747 q -0.72221,0.320986 -1.18764,0.995055 -0.46543,0.674068 -0.46543,1.508629 0,1.123449 0.81049,1.933935 0.81049,0.810488 1.93393,0.810488 1.12345,0 1.93394,-0.810488 0.81049,-0.810486 0.81049,-1.933935 0,-0.834561 -0.46543,-1.508629 -0.46543,-0.674069 -1.18765,-0.995055 v 1.283941 q 0.25679,0.22469 0.40123,0.537651 0.14445,0.312959 0.14445,0.682092 0,0.690118 -0.47346,1.163572 -0.47345,0.473453 -1.16357,0.473453 -0.69011,0 -1.16357,-0.473453 -0.47345,-0.473454 -0.47345,-1.163572 0,-0.369133 0.14444,-0.682092 0.14445,-0.312961 0.40123,-0.537651 z m 0.54568,-0.786412 v 3.290096 h 1.09135 v -3.290096 z"
           id="path1-3-9"
           style="display:inline;fill:#ffffff;fill-opacity:1;stroke-width:0.0160494"
           inkscape:label="Activate Right" /><path
           fill="currentColor"
           d="m 61.304229,75.046003 -6.259208,6.259209 0.401231,0.385182 5.857977,5.874027 6.25921,-6.259209 z m 0,1.556778 4.702432,4.702431 -4.702432,4.702431 -4.70243,-4.702431 z m -1.091348,2.198747 q -0.722216,0.320986 -1.187645,0.995055 -0.465428,0.674068 -0.465428,1.508629 0,1.123449 0.810487,1.933935 0.810488,0.810488 1.933934,0.810488 1.123448,0 1.933936,-0.810488 0.810488,-0.810486 0.810488,-1.933935 0,-0.834561 -0.465429,-1.508629 -0.465429,-0.674069 -1.187645,-0.995055 v 1.283941 q 0.256789,0.22469 0.401232,0.537651 0.144442,0.312959 0.144442,0.682092 0,0.690118 -0.473452,1.163572 -0.473454,0.473453 -1.163572,0.473453 -0.690116,0 -1.16357,-0.473453 -0.473452,-0.473454 -0.473452,-1.163572 0,-0.369133 0.144443,-0.682092 0.144443,-0.312961 0.401231,-0.537651 z m 0.545674,-0.786412 v 3.290096 h 1.09135 v -3.290096 z"
           id="path1-3"
           style="display:inline;fill:#ffffff;fill-opacity:1;stroke-width:0.0160494"
           inkscape:label="Activate Left" /></g></g></g></svg>
