<?xml version="1.0" encoding="UTF-8" standalone="no"?>
<!-- Created with Inkscape (http://www.inkscape.org/) -->

<svg
   width="101.6mm"
   height="152.40001mm"
   viewBox="0 0 101.6 152.40001"
   version="1.1"
   id="svg1"
   xml:space="preserve"
   inkscape:version="1.3.1 (91b66b0783, 2023-11-16)"
   sodipodi:docname="SpikeGrenade.svg"
   inkscape:export-filename="SSC\StormStanceBack.svg"
   inkscape:export-xdpi="96"
   inkscape:export-ydpi="96"
   xmlns:inkscape="http://www.inkscape.org/namespaces/inkscape"
   xmlns:sodipodi="http://sodipodi.sourceforge.net/DTD/sodipodi-0.dtd"
   xmlns="http://www.w3.org/2000/svg"
   xmlns:svg="http://www.w3.org/2000/svg"><sodipodi:namedview
     id="namedview1"
     pagecolor="#ffffff"
     bordercolor="#000000"
     borderopacity="0.25"
     inkscape:showpageshadow="2"
     inkscape:pageopacity="0.0"
     inkscape:pagecheckerboard="true"
     inkscape:deskcolor="#d1d1d1"
     inkscape:document-units="mm"
     inkscape:zoom="2"
     inkscape:cx="211"
     inkscape:cy="126.25"
     inkscape:window-width="1920"
     inkscape:window-height="1009"
     inkscape:window-x="3832"
     inkscape:window-y="-8"
     inkscape:window-maximized="1"
     inkscape:current-layer="layer1"
     inkscape:clip-to-page="true"
     showgrid="false" /><defs
     id="defs1"><rect
       x="21"
       y="490"
       width="344.87869"
       height="162.94322"
       id="rect10" /><rect
       x="35.355339"
       y="130.10765"
       width="361.7666"
       height="517.56348"
       id="rect13-8" /><rect
       x="21"
       y="490"
       width="344.52515"
       height="65.737793"
       id="rect10-0" /></defs><g
     inkscape:label="Layer 1"
     inkscape:groupmode="layer"
     id="layer1"
     transform="translate(-54.045021,-72.300003)"><path
       id="rect3-8"
       style="fill:#dbdbdb;fill-opacity:1;stroke:#1952a2;stroke-width:0.6;stroke-linecap:round;stroke-linejoin:bevel;stroke-miterlimit:3.3;stroke-dasharray:none;stroke-dashoffset:370.663;stroke-opacity:1"
       d="m 56.704283,93.750003 -0.239262,0.23306 v 51.626307 l 12.69845,12.69792 h 83.801609 l 0.25322,-0.25321 V 106.4562 L 140.51262,93.750003 Z"
       inkscape:label="Window Background" /><text
       xml:space="preserve"
       style="font-weight:bold;font-size:14.1111px;line-height:1.5;font-family:Arial;-inkscape-font-specification:'Arial, Bold';text-align:center;text-anchor:middle;display:inline;fill:#000000;fill-opacity:0;stroke:#1952a2;stroke-width:0.5;stroke-linecap:round;stroke-linejoin:bevel;stroke-miterlimit:3.3;stroke-dasharray:none;stroke-dashoffset:370.663;stroke-opacity:1"
       x="143.95215"
       y="157.2262"
       id="text1"
       inkscape:label="Expansion ID"><tspan
         sodipodi:role="line"
         style="font-style:normal;font-variant:normal;font-weight:bold;font-stretch:normal;font-size:8.46667px;font-family:Arial;-inkscape-font-specification:'Arial, Bold';font-variant-ligatures:normal;font-variant-caps:normal;font-variant-numeric:normal;font-variant-east-asian:normal;stroke:#1952a2;stroke-width:0.5;stroke-dasharray:none;stroke-opacity:1"
         x="143.95215"
         y="157.2262"
         id="tspan2">TLR</tspan></text><path
       id="rect1"
       style="fill:#cccccc;fill-opacity:1;stroke:none;stroke-width:0.5;stroke-linecap:butt;stroke-linejoin:bevel;stroke-miterlimit:3.3;stroke-dasharray:none;stroke-dashoffset:370.663;stroke-opacity:1"
       d="M 54.045539,72.300003 V 224.6969 H 155.64709 V 72.300003 Z m 2.669604,21.440954 h 83.808317 l 12.70569,12.706203 V 158.045 l -0.25322,0.25321 H 69.174331 L 56.475881,145.60028 V 93.974018 Z"
       sodipodi:nodetypes="cccccccccccccc"
       inkscape:label="Card Background"
       inkscape:export-filename="Acrobatics1Back.png"
       inkscape:export-xdpi="96"
       inkscape:export-ydpi="96" /><text
       xml:space="preserve"
       id="text10"
       style="font-style:normal;font-variant:normal;font-weight:normal;font-stretch:normal;font-size:13.3333px;font-family:Arial;-inkscape-font-specification:'Arial, Normal';font-variant-ligatures:normal;font-variant-caps:normal;font-variant-numeric:normal;font-variant-east-asian:normal;white-space:pre;shape-inside:url(#rect10);display:inline;fill:#22211f;fill-opacity:1;stroke:#000000;stroke-width:0;stroke-linejoin:bevel;stroke-miterlimit:3.3;stroke-dashoffset:370.663"
       inkscape:label="BODY Effect"
       transform="matrix(0.26458333,0,0,0.26458333,54.045021,58.113363)"><tspan
         x="21"
         y="502.01003"
         id="tspan8">You may detonate all armed spike grenades. Characters </tspan><tspan
         x="21"
         y="518.67665"
         id="tspan11">and objects to whom they are attached take <tspan
   style="font-weight:bold"
   id="tspan10">1d6+3</tspan>    and </tspan><tspan
         x="21"
         y="535.34328"
         id="tspan13">characters are knocked back <tspan
   style="font-weight:bold"
   id="tspan12">3 spaces</tspan> in a direction of </tspan><tspan
         x="21"
         y="552.00991"
         id="tspan14">your choice. Characters can detach spike grenades from </tspan><tspan
         x="21"
         y="568.67653"
         id="tspan17">themselves by passing another <tspan
   style="font-weight:bold"
   id="tspan15">AGILITY</tspan> save as a <tspan
   style="font-weight:bold"
   id="tspan16">quick </tspan></tspan><tspan
         x="21"
         y="585.34316"
         id="tspan20"><tspan
   style="font-weight:bold"
   id="tspan19">action</tspan> on their turn.</tspan></text><text
       xml:space="preserve"
       id="text10-0"
       style="font-style:normal;font-variant:normal;font-weight:normal;font-stretch:normal;font-size:13.3333px;font-family:Arial;-inkscape-font-specification:Arial;font-variant-ligatures:normal;font-variant-caps:normal;font-variant-numeric:normal;font-variant-east-asian:normal;white-space:pre;shape-inside:url(#rect10-0);display:inline;fill:#22211f;fill-opacity:1;stroke:#000000;stroke-width:0;stroke-linejoin:bevel;stroke-miterlimit:3.3;stroke-dashoffset:370.663"
       inkscape:label="BODY Trigger"
       transform="matrix(0.26458333,0,0,0.26458333,53.927888,40.558339)"><tspan
         x="21"
         y="502.01003"
         id="tspan21">At the start or end of any turn, while a spike grenade is </tspan><tspan
         x="21"
         y="518.67665"
         id="tspan22">attached to a target.</tspan></text><g
       id="g6"
       inkscape:label="Sub Titles"
       transform="translate(0,7.4083337)"><rect
         style="fill:#061a1f;fill-opacity:1;stroke:#000000;stroke-width:0;stroke-linejoin:bevel;stroke-miterlimit:3.3;stroke-dashoffset:370.663"
         id="rect11-6"
         width="92.336441"
         height="5.8416877"
         x="58.551205"
         y="173.98767"
         inkscape:label="Effect Title Backing" /><rect
         style="fill:#061a1f;fill-opacity:1;stroke:#000000;stroke-width:0;stroke-linejoin:bevel;stroke-miterlimit:3.3;stroke-dashoffset:370.663"
         id="rect11"
         width="92.336441"
         height="5.8416877"
         x="58.551205"
         y="156.33791"
         inkscape:label="Trigger Title Backing" /><text
         xml:space="preserve"
         style="font-style:normal;font-variant:normal;font-weight:bold;font-stretch:normal;font-size:4.23333px;font-family:Arial;-inkscape-font-specification:'Arial, Bold';font-variant-ligatures:normal;font-variant-caps:normal;font-variant-numeric:normal;font-variant-east-asian:normal;fill:#ffffff;fill-opacity:1;stroke:#000000;stroke-width:0;stroke-linejoin:bevel;stroke-miterlimit:3.3;stroke-dashoffset:370.663"
         x="59.254349"
         y="178.81578"
         id="text7-7"
         inkscape:label="TITLE Effect"><tspan
           sodipodi:role="line"
           id="tspan7-8"
           style="font-style:normal;font-variant:normal;font-weight:bold;font-stretch:normal;font-size:4.93889px;font-family:Arial;-inkscape-font-specification:'Arial, Bold';font-variant-ligatures:normal;font-variant-caps:normal;font-variant-numeric:normal;font-variant-east-asian:normal;stroke-width:0"
           x="59.254349"
           y="178.81578">EFFECT</tspan></text><text
         xml:space="preserve"
         style="font-style:normal;font-variant:normal;font-weight:bold;font-stretch:normal;font-size:4.23333px;font-family:Arial;-inkscape-font-specification:'Arial, Bold';font-variant-ligatures:normal;font-variant-caps:normal;font-variant-numeric:normal;font-variant-east-asian:normal;fill:#ffffff;fill-opacity:1;stroke:#000000;stroke-width:0;stroke-linejoin:bevel;stroke-miterlimit:3.3;stroke-dashoffset:370.663"
         x="59.507565"
         y="161.10385"
         id="text7"
         inkscape:label="TITLE Trigger"><tspan
           sodipodi:role="line"
           id="tspan7"
           style="font-style:normal;font-variant:normal;font-weight:bold;font-stretch:normal;font-size:4.93889px;font-family:Arial;-inkscape-font-specification:'Arial, Bold';font-variant-ligatures:normal;font-variant-caps:normal;font-variant-numeric:normal;font-variant-east-asian:normal;stroke-width:0"
           x="59.507565"
           y="161.10385">TRIGGER</tspan></text></g><g
       id="g5"
       inkscape:label="Card Icons"
       transform="translate(64.513491,10.851143)"
       style="display:inline;fill:#3e6a94;fill-opacity:1"><path
         fill="currentColor"
         d="m 45.945741,90.401622 -4.561584,4.56158 -3.813782,-3.81378 -3.589444,3.58945 3.813783,3.81378 -5.309383,5.309388 -3.888563,-3.81379 -3.589443,3.58945 3.813782,3.88857 -5.309383,5.30938 -3.813783,-3.81379 -3.589444,3.58944 3.813784,3.81379 -4.561584,4.56158 v 2.54252 l 17.872434,17.87244 h 2.542522 l 4.561584,-4.56158 3.813782,3.81378 3.589444,-3.58944 -3.813783,-3.81379 5.384164,-5.30939 3.813782,3.81379 3.589444,-3.58944 -3.813783,-3.88856 5.309383,-5.30939 3.813783,3.81379 3.589446,-3.58944 -3.813785,-3.81379 4.561582,-4.56158 v -2.54253 L 48.488263,90.401622 Z m 0,12.712618 7.702345,7.70235 -17.872433,17.87242 -7.702346,-7.70234 z"
         id="path1-56-4"
         style="display:inline;fill:#c77634;fill-opacity:1;stroke:none;stroke-width:2;stroke-linecap:round;stroke-dasharray:none;stroke-opacity:1"
         inkscape:label="System Logo" /><g
         id="g8"
         inkscape:label="Manufacturer Logos"
         transform="translate(-44.714582,70.114581)"
         style="display:inline;fill:#cccccc;fill-opacity:1;stroke-width:0.6;stroke-dasharray:none"><path
           d="m 50.752964,20.514169 -4.015644,0.6694 c -0.08302,0.0136 -0.122851,0.1099 -0.07393,0.17811 l 0.773829,1.08326 c 0.04593,0.0644 0.142269,0.064 0.18658,-0.001 0.153098,-0.22616 0.281426,-0.47037 0.381375,-0.72852 0.01992,-0.0517 0.07493,-0.0807 0.128951,-0.0691 l 0.667282,0.14015 c 0.06759,0.0142 0.107169,0.0851 0.08364,0.15011 -0.185087,0.51755 -0.461409,0.99153 -0.809178,1.40302 l 0.953812,1.33544 c 0.07493,0.1048 -0.05402,0.23375 -0.158575,0.15882 l -1.335685,-0.95381 c -0.410376,0.3469 -0.883113,0.6226 -1.399164,0.80794 -0.06672,0.0239 -0.139157,-0.0184 -0.150982,-0.0888 l -0.112894,-0.67749 c -0.0087,-0.0523 0.01967,-0.10443 0.06908,-0.1241 0.247321,-0.0981 0.481324,-0.22255 0.698648,-0.36992 0.06522,-0.0441 0.06547,-0.1404 0.0015,-0.18633 l -1.083634,-0.77383 c -0.06821,-0.0489 -0.164549,-0.009 -0.178116,0.0739 l -0.669397,4.01565 c -0.01058,0.0633 -0.06161,0.0951 -0.112272,0.0951 -0.05078,0 -0.101692,-0.0317 -0.112272,-0.0951 l -0.669025,-4.01565 c -0.01394,-0.083 -0.109906,-0.12285 -0.178489,-0.0739 l -1.083635,0.77383 c -0.06398,0.0459 -0.06373,0.14227 0.0015,0.18633 0.217448,0.14737 0.4517,0.27172 0.698649,0.36992 0.04954,0.0197 0.07792,0.0718 0.06908,0.1241 l -0.112895,0.67749 c -0.01182,0.0703 -0.08427,0.11264 -0.150982,0.0888 -0.516051,-0.18534 -0.988788,-0.46104 -1.399164,-0.80794 l -1.335436,0.95381 c -0.104804,0.0749 -0.233755,-0.054 -0.158824,-0.15882 l 0.953812,-1.33544 c -0.347769,-0.41149 -0.624091,-0.8856 -0.809178,-1.40302 -0.02352,-0.065 0.01606,-0.13592 0.08364,-0.15011 l 0.667282,-0.14015 c 0.05402,-0.0114 0.109036,0.0175 0.128951,0.0691 0.09995,0.25815 0.228277,0.50236 0.381375,0.72852 0.04444,0.0655 0.140651,0.0658 0.18658,0.001 l 0.773829,-1.08326 c 0.04892,-0.0682 0.0091,-0.16455 -0.07394,-0.17811 l -4.015644,-0.6694 c -0.126834,-0.0212 -0.126834,-0.20351 0,-0.22467 l 4.015644,-0.6694 c 0.08302,-0.0136 0.122851,-0.1099 0.07394,-0.17811 l -0.773829,-1.08326 c -0.04593,-0.0643 -0.142269,-0.064 -0.18658,0.001 -0.161562,0.23848 -0.295242,0.49663 -0.397307,0.77047 -0.01904,0.051 -0.07157,0.0806 -0.124968,0.0718 l -0.675373,-0.11265 c -0.06945,-0.0114 -0.111774,-0.0828 -0.08912,-0.14949 0.185086,-0.54592 0.470744,-1.04492 0.834818,-1.47583 l -0.953811,-1.33544 c -0.07493,-0.1048 0.05402,-0.23375 0.158823,-0.15882 l 1.335436,0.95381 c 0.402162,-0.3403 0.864443,-0.61177 1.368296,-0.79673 0.06709,-0.0248 0.140153,0.0178 0.151853,0.0881 l 0.113269,0.67898 c 0.0085,0.0523 -0.01967,0.10381 -0.06858,0.12385 -0.286779,0.11688 -0.555883,0.26898 -0.801337,0.45133 l 1.213705,0.86681 c 0.06858,0.0489 0.164549,0.009 0.17849,-0.0739 l 0.669025,-4.01564 c 0.01058,-0.0634 0.06161,-0.0951 0.112272,-0.0951 0.05078,0 0.101691,0.0317 0.112271,0.0951 l 0.669398,4.01564 c 0.01357,0.083 0.109906,0.12285 0.178116,0.0739 l 1.213704,-0.86681 c -0.245454,-0.18235 -0.514433,-0.33458 -0.801336,-0.45133 -0.04892,-0.0199 -0.07705,-0.0716 -0.06858,-0.12385 l 0.113268,-0.67898 c 0.01182,-0.0703 0.08489,-0.11289 0.151853,-0.0881 0.503978,0.18508 0.966134,0.45655 1.368296,0.79673 l 1.335685,-0.95381 c 0.10443,-0.0749 0.233381,0.054 0.158574,0.15882 l -0.953811,1.33544 c 0.364074,0.43079 0.650105,0.92991 0.834818,1.47583 0.02265,0.0667 -0.01967,0.13804 -0.08912,0.14949 l -0.675373,0.11265 c -0.0534,0.009 -0.105924,-0.0208 -0.124968,-0.0718 -0.102065,-0.27384 -0.235745,-0.53199 -0.397307,-0.77047 -0.04444,-0.0655 -0.140651,-0.0658 -0.18658,-0.001 l -0.773829,1.08326 c -0.04892,0.0682 -0.0091,0.16455 0.07394,0.17811 l 4.015644,0.6694 c 0.127083,0.0212 0.127083,0.20363 2.49e-4,0.22467 z"
           id="path1-2"
           style="display:inline;fill:#cccccc;fill-opacity:1;stroke:#1952a2;stroke-width:0.6;stroke-dasharray:none;stroke-opacity:1"
           inkscape:label="IPS-N Logo" /></g><g
         id="g7"
         transform="translate(0.66145833,-0.26458231)"
         inkscape:label="Text Icons"
         style="display:inline;fill:#ffffff;fill-opacity:1"><path
           fill="currentColor"
           d="m 76.79983,183.51117 q 0,0.21113 -0.08578,0.40908 -0.08578,0.19796 -0.222139,0.33432 -0.136365,0.13636 -0.33431,0.22214 -0.197947,0.0857 -0.409092,0.0857 -0.211144,0 -0.409092,-0.0857 -0.197945,-0.0857 -0.33431,-0.22214 -0.136362,-0.13636 -0.22214,-0.33432 -0.08578,-0.19795 -0.08578,-0.40908 0,-0.21113 0.08578,-0.40908 0.08578,-0.19796 0.22214,-0.33432 0.136365,-0.13636 0.33431,-0.22216 0.197948,-0.0857 0.409092,-0.0857 0.211145,0 0.409092,0.0857 0.197945,0.0858 0.33431,0.22216 0.136364,0.13636 0.222139,0.33432 0.08578,0.19795 0.08578,0.40908 z m -0.519062,-0.53227 q -0.109967,-0.10555 -0.239737,-0.16273 -0.129764,-0.0572 -0.292521,-0.0572 -0.162758,0 -0.292521,0.0572 -0.129767,0.0572 -0.239737,0.16273 -0.105566,0.11 -0.162758,0.23975 -0.05717,0.12976 -0.05717,0.29252 0,0.16274 0.05717,0.29252 0.05718,0.12976 0.162758,0.23975 0.109967,0.10555 0.239737,0.16273 0.129763,0.0572 0.292521,0.0572 0.162757,0 0.292521,-0.0572 0.129767,-0.0572 0.239737,-0.16273 0.105566,-0.11 0.162756,-0.23975 0.05718,-0.12978 0.05718,-0.29252 0,-0.16276 -0.05718,-0.29252 -0.05717,-0.12976 -0.162756,-0.23975 z m -2.032258,2.03227 q 0.44868,-0.28154 0.870969,-0.61583 0.417887,-0.33433 0.798387,-0.71483 0.380498,-0.38047 0.714808,-0.79836 0.33431,-0.42231 0.615836,-0.87098 -0.44868,0.28154 -0.870969,0.61583 -0.417887,0.33433 -0.798387,0.71483 -0.380498,0.38047 -0.714808,0.79836 -0.33431,0.42231 -0.615836,0.87098 z"
           id="path1-52"
           style="fill:#22211f;fill-opacity:1;stroke-width:0.00439883"
           inkscape:label="Kinetic damage icon" /></g></g><rect
       style="display:inline;fill:#1952a2;fill-opacity:1;stroke:#000000;stroke-width:0;stroke-linejoin:bevel;stroke-miterlimit:3.3;stroke-dashoffset:370.663"
       id="rect2"
       width="101.59982"
       height="18.07555"
       x="54.045109"
       y="72.266876"
       inkscape:label="Card Title Backing" /><text
       xml:space="preserve"
       style="font-style:normal;font-variant:normal;font-weight:bold;font-stretch:normal;font-size:8.46667px;line-height:0.8;font-family:Arial;-inkscape-font-specification:'Arial, Bold';font-variant-ligatures:normal;font-variant-position:normal;font-variant-caps:normal;font-variant-numeric:normal;font-variant-alternates:normal;font-variant-east-asian:normal;text-indent:0;text-align:center;text-decoration-line:none;text-decoration-style:solid;text-decoration-color:#000000;letter-spacing:normal;word-spacing:normal;text-transform:none;writing-mode:lr-tb;direction:ltr;text-orientation:mixed;dominant-baseline:auto;baseline-shift:baseline;text-anchor:middle;white-space:pre;inline-size:77.1889;display:inline;vector-effect:none;fill:#ffffff;fill-opacity:1;stroke:#000000;stroke-width:0;stroke-linecap:butt;stroke-linejoin:bevel;stroke-miterlimit:3.3;stroke-dasharray:none;stroke-dashoffset:370.663;stroke-opacity:1;-inkscape-stroke:none;stop-color:#000000"
       x="104.94299"
       y="83.013756"
       id="text7-0-9-5"
       inkscape:label="Card Title"
       transform="translate(-0.4032851,-2.0675336)"><tspan
         x="104.94299"
         y="83.013756"
         id="tspan23">DETONATE SPIKE<tspan
   y="83.013756"
   id="tspan24"> </tspan></tspan><tspan
         x="104.94299"
         y="89.787094"
         id="tspan25">GRENADES</tspan></text><g
       id="g1"
       inkscape:label="Activation Icons"
       style="display:inline;fill:#ffffff;fill-opacity:1"><g
         id="g4"
         inkscape:label="Activate"
         style="display:inline;fill:#ffffff;fill-opacity:1"><path
           fill="currentColor"
           d="m 148.41047,75.045442 -6.25921,6.259209 0.40123,0.385182 5.85798,5.874027 6.25921,-6.259209 z m 0,1.556778 4.70243,4.702431 -4.70243,4.702431 -4.70243,-4.702431 z m -1.09135,2.198747 q -0.72221,0.320986 -1.18764,0.995055 -0.46543,0.674068 -0.46543,1.508629 0,1.123449 0.81049,1.933935 0.81049,0.810488 1.93393,0.810488 1.12345,0 1.93394,-0.810488 0.81049,-0.810486 0.81049,-1.933935 0,-0.834561 -0.46543,-1.508629 -0.46543,-0.674069 -1.18765,-0.995055 v 1.283941 q 0.25679,0.22469 0.40123,0.537651 0.14445,0.312959 0.14445,0.682092 0,0.690118 -0.47346,1.163572 -0.47345,0.473453 -1.16357,0.473453 -0.69011,0 -1.16357,-0.473453 -0.47345,-0.473454 -0.47345,-1.163572 0,-0.369133 0.14444,-0.682092 0.14445,-0.312961 0.40123,-0.537651 z m 0.54568,-0.786412 v 3.290096 h 1.09135 v -3.290096 z"
           id="path1-3-9"
           style="display:inline;fill:#ffffff;fill-opacity:1;stroke-width:0.0160494"
           inkscape:label="Activate Right" /><path
           fill="currentColor"
           d="m 61.304229,75.046003 -6.259208,6.259209 0.401231,0.385182 5.857977,5.874027 6.25921,-6.259209 z m 0,1.556778 4.702432,4.702431 -4.702432,4.702431 -4.70243,-4.702431 z m -1.091348,2.198747 q -0.722216,0.320986 -1.187645,0.995055 -0.465428,0.674068 -0.465428,1.508629 0,1.123449 0.810487,1.933935 0.810488,0.810488 1.933934,0.810488 1.123448,0 1.933936,-0.810488 0.810488,-0.810486 0.810488,-1.933935 0,-0.834561 -0.465429,-1.508629 -0.465429,-0.674069 -1.187645,-0.995055 v 1.283941 q 0.256789,0.22469 0.401232,0.537651 0.144442,0.312959 0.144442,0.682092 0,0.690118 -0.473452,1.163572 -0.473454,0.473453 -1.163572,0.473453 -0.690116,0 -1.16357,-0.473453 -0.473452,-0.473454 -0.473452,-1.163572 0,-0.369133 0.144443,-0.682092 0.144443,-0.312961 0.401231,-0.537651 z m 0.545674,-0.786412 v 3.290096 h 1.09135 v -3.290096 z"
           id="path1-3"
           style="display:inline;fill:#ffffff;fill-opacity:1;stroke-width:0.0160494"
           inkscape:label="Activate Left" /></g></g></g></svg>
